<?xml version="1.0" encoding="utf-8"?>
<!-- Generator: Adobe Illustrator 21.0.0, SVG Export Plug-In . SVG Version: 6.00 Build 0)  -->
<svg version="1.1" id="Слой_1" xmlns="http://www.w3.org/2000/svg" xmlns:xlink="http://www.w3.org/1999/xlink" x="0px" y="0px"
	 viewBox="0 0 12 10" style="enable-background:new 0 0 12 10;" xml:space="preserve">
<style type="text/css">
	.st0{fill:#353535;}
</style>
<g>
	<g>
		<path class="st0" d="M6,2L1.7,5.7c0,0,0,0,0,0c0,0,0,0,0,0v3.7c0,0.1,0,0.3,0.1,0.4C1.9,10,2.1,10,2.2,10H5V7H7v3h2.9
			c0.1,0,0.2,0,0.3-0.1c0.1-0.1,0.1-0.2,0.1-0.4V5.8c0,0,0,0,0,0L6,2z M11.9,4.9l-1.6-1.4V0.3c0-0.1,0-0.1-0.1-0.2
			C10.2,0,10.1,0,10,0H8.6C8.6,0,8.5,0,8.4,0.1c0,0-0.1,0.1-0.1,0.2v1.5L6.6,0.2C6.4,0.1,6.2,0,6,0S5.6,0.1,5.4,0.2L0.1,4.9
			C0,4.9,0,5,0,5c0,0.1,0,0.1,0.1,0.2l0.5,0.6c0,0,0.1,0.1,0.2,0.1c0.1,0,0.1,0,0.2-0.1L6,1.3l5.2,4.5c0,0,0.1,0.1,0.2,0.1h0
			c0.1,0,0.1,0,0.2-0.1l0.5-0.6C12,5.2,12,5.1,12,5C12,5,12,4.9,11.9,4.9z"/>
	</g>
</g>
</svg>
