<?xml version="1.0" encoding="utf-8"?>
<!-- Generator: Adobe Illustrator 21.0.0, SVG Export Plug-In . SVG Version: 6.00 Build 0)  -->
<svg version="1.1" id="Слой_1" xmlns="http://www.w3.org/2000/svg" xmlns:xlink="http://www.w3.org/1999/xlink" x="0px" y="0px"
	 viewBox="0 0 10 23" style="enable-background:new 0 0 10 23;" xml:space="preserve">
<style type="text/css">
	.st0{fill:#2493D9;}
</style>
<g>
	<g>
		<path class="st0" d="M5,3.9c1.1,0,2-0.9,2-1.9S6.1,0,5,0C3.9,0,3,0.9,3,1.9S3.9,3.9,5,3.9z M5.7,4.8c-0.5-0.1-1-0.1-1.5,0
			C0.8,5.2-0.3,8.9,0,11.8c0.1,1.2,2.1,1.2,2,0C1.9,10.7,2,9.2,2.5,8v4c0,0,0,0.1,0,0.1c0,0,0,0,0,0.1c0,3.2,0,6.4-0.1,9.6
			c-0.1,1.4,2.2,1.4,2.3,0c0.1-2.5,0.1-5,0.1-7.6c0.1,0,0.2,0,0.3,0c0,2.5,0,5,0.1,7.5c0.1,1.4,2.3,1.4,2.3,0
			c-0.1-3.2-0.1-6.4-0.1-9.6c0-0.1,0-0.2,0-0.3c0-1.4-0.1-2.8,0-4.2C8,8.9,8.1,10.6,8,11.8c-0.1,1.2,1.9,1.2,2,0
			C10.3,8.9,9.1,5,5.7,4.8z"/>
	</g>
</g>
</svg>
