<?xml version="1.0" encoding="utf-8"?>
<!-- Generator: Adobe Illustrator 19.0.1, SVG Export Plug-In . SVG Version: 6.00 Build 0)  -->
<svg version="1.1" id="Слой_1" xmlns="http://www.w3.org/2000/svg" xmlns:xlink="http://www.w3.org/1999/xlink" x="0px" y="0px"
	 viewBox="0 0 34 34" style="enable-background:new 0 0 34 34;" xml:space="preserve">
<style type="text/css">
	.st0{fill-rule:evenodd;clip-rule:evenodd;fill:#353535;}
	.st1{fill:#FFFFFF;}
</style>
<path class="st0" d="M17,0c9.4,0,17,7.6,17,17c0,9.4-7.6,17-17,17C7.6,34,0,26.4,0,17C0,7.6,7.6,0,17,0z"/>
<path class="st1" d="M20.6,7l-7.1,1.9L7,7v18.1l6.4,1.9l7.1-1.9L27,27V8.9L20.6,7z M22.3,21.4H13c-0.3,0.8-1,1.3-1.9,1.3
	c-1.1,0-2-0.9-2-2c0-1.1,0.9-2,2-2c0.9,0,1.6,0.6,1.9,1.3h9.2c0.7,0,1.2-0.6,1.2-1.2c0-0.7-0.6-1.2-1.2-1.2h-6.9
	c-1.4,0-2.5-1.1-2.5-2.5c0-1.4,1.1-2.5,2.5-2.5h3.1c0.3-0.8,1-1.3,1.9-1.3c1.1,0,2,0.9,2,2s-0.9,2-2,2c-0.9,0-1.6-0.6-1.9-1.3h-3.1
	c-0.7,0-1.2,0.6-1.2,1.2c0,0.7,0.6,1.2,1.2,1.2h6.9c1.4,0,2.5,1.1,2.5,2.5C24.8,20.3,23.7,21.4,22.3,21.4z"/>
</svg>
