<?xml version="1.0" encoding="utf-8"?>
<!-- Generator: Adobe Illustrator 21.0.0, SVG Export Plug-In . SVG Version: 6.00 Build 0)  -->
<svg version="1.1" id="Слой_1" xmlns="http://www.w3.org/2000/svg" xmlns:xlink="http://www.w3.org/1999/xlink" x="0px" y="0px"
	 viewBox="0 0 14 15" style="enable-background:new 0 0 14 15;" xml:space="preserve">
<path style="fill:#78B118;" d="M6.4,6.7c0.2-0.2,0.2-0.5,0-0.7c-0.2-0.2-0.6-0.2-0.8,0L2.8,8.7C2.3,9.2,2,9.8,2,10.5
	c0,0.7,0.3,1.3,0.8,1.8c1,1,2.6,1,3.6,0L12.9,6C13.6,5.3,14,4.4,14,3.5c0-0.9-0.4-1.8-1.1-2.5c-1.4-1.4-3.7-1.4-5.1,0L1.4,7.3
	C0.5,8.2,0,9.3,0,10.5c0,1.2,0.5,2.3,1.4,3.2c0.9,0.9,2,1.3,3.3,1.3c1.2,0,2.4-0.5,3.3-1.3l2.9-2.8c0.2-0.2,0.2-0.5,0-0.7
	c-0.2-0.2-0.6-0.2-0.8,0l-2.9,2.8c-0.7,0.6-1.6,1-2.5,1s-1.8-0.4-2.5-1c-0.7-0.6-1-1.5-1-2.4c0-0.9,0.4-1.8,1-2.4l6.5-6.3
	c0.5-0.5,1.1-0.7,1.8-0.7c0.7,0,1.3,0.3,1.8,0.7c0.5,0.5,0.7,1.1,0.7,1.7c0,0.6-0.3,1.3-0.7,1.7l-6.5,6.3c-0.6,0.6-1.5,0.6-2.1,0
	c-0.3-0.3-0.4-0.6-0.4-1s0.2-0.7,0.4-1L6.4,6.7z"/>
</svg>
