<?xml version="1.0" encoding="utf-8"?>
<!-- Generator: Adobe Illustrator 19.0.1, SVG Export Plug-In . SVG Version: 6.00 Build 0)  -->
<svg version="1.1" id="Layer_1" xmlns="http://www.w3.org/2000/svg" xmlns:xlink="http://www.w3.org/1999/xlink" x="0px" y="0px"
	 viewBox="0 0 20.5 9.3" style="enable-background:new 0 0 20.5 9.3;" xml:space="preserve">
<style type="text/css">
	.st0{fill:#FFFFFF;}
</style>
<path class="st0" d="M1.1,4.5C1.1,4.5,1.1,4.5,1.1,4.5c-0.2,0-0.5,0.1-0.5,0.4C0.5,5.2,0.7,5.4,0.9,5.5l6.8,1.9l-2.2,1
	C5.4,8.4,5.3,8.6,5.3,8.8c0,0.2,0.2,0.3,0.3,0.3l1.5,0.2c0,0,0.1,0,0.1,0L12.7,8l5.4,0.6c2.1,0.2,2.3-0.6,2.3-0.8
	c0-0.2,0-0.5-0.3-0.8c-0.3-0.3-0.8-0.6-1.5-0.9c-0.2-0.1-0.3-0.2-0.5-0.3c-0.4-0.3-0.7-0.5-2.7-0.7L5,4L3,0.3C3,0.2,2.8,0.1,2.7,0.1
	L2,0C1.8,0,1.7,0,1.6,0.1C1.5,0.2,1.4,0.4,1.5,0.5l0.3,4.1L1.1,4.5z"/>
</svg>
