<?xml version="1.0" encoding="utf-8"?>
<!-- Generator: Adobe Illustrator 21.0.0, SVG Export Plug-In . SVG Version: 6.00 Build 0)  -->
<svg version="1.1" id="Слой_1" xmlns="http://www.w3.org/2000/svg" xmlns:xlink="http://www.w3.org/1999/xlink" x="0px" y="0px"
	 viewBox="0 0 10 11" style="enable-background:new 0 0 10 11;" xml:space="preserve">
<path style="fill:#72A816;" d="M10,6.1C9.9,6,9.9,6,9.8,6H7.1V0.2C7.1,0.1,7,0,6.9,0H3.1C3,0,2.9,0.1,2.9,0.2V6H0.2
	C0.1,6,0.1,6,0,6.1c0,0.1,0,0.2,0.1,0.2l4.8,4.6C4.9,11,4.9,11,5,11c0.1,0,0.1,0,0.2-0.1l4.8-4.6C10,6.3,10,6.2,10,6.1z"/>
</svg>
