<?xml version="1.0" encoding="utf-8"?>
<!-- Generator: Adobe Illustrator 21.0.0, SVG Export Plug-In . SVG Version: 6.00 Build 0)  -->
<svg version="1.1" id="Слой_1" xmlns="http://www.w3.org/2000/svg" xmlns:xlink="http://www.w3.org/1999/xlink" x="0px" y="0px"
	 viewBox="0 0 5 8" style="enable-background:new 0 0 5 8;" xml:space="preserve">
<style type="text/css">
	.st0{fill:#FFFFFF;}
</style>
<path class="st0" d="M0.2,3.5l3.3-3.3C3.6,0.1,3.8,0,4,0c0.2,0,0.3,0.1,0.5,0.2l0.4,0.4C4.9,0.7,5,0.9,5,1c0,0.2-0.1,0.3-0.2,0.5
	L2.3,4l2.5,2.5C4.9,6.6,5,6.8,5,7c0,0.2-0.1,0.3-0.2,0.5L4.4,7.8C4.3,7.9,4.1,8,4,8C3.8,8,3.6,7.9,3.5,7.8L0.2,4.5
	C0.1,4.3,0,4.2,0,4C0,3.8,0.1,3.7,0.2,3.5z"/>
</svg>
