<?xml version="1.0" encoding="utf-8"?>
<!-- Generator: Adobe Illustrator 22.0.0, SVG Export Plug-In . SVG Version: 6.00 Build 0)  -->
<svg version="1.1" id="Camada_1" xmlns="http://www.w3.org/2000/svg" xmlns:xlink="http://www.w3.org/1999/xlink" x="0px" y="0px"
	 viewBox="0 0 421 419" style="enable-background:new 0 0 421 419;" xml:space="preserve">
<style type="text/css">
	.st0{fill-rule:evenodd;clip-rule:evenodd;fill:#1A376C;}
	.st1{fill-rule:evenodd;clip-rule:evenodd;fill:#05060E;}
	.st2{fill-rule:evenodd;clip-rule:evenodd;fill:#FFFFFF;}
	.st3{fill-rule:evenodd;clip-rule:evenodd;fill:#0BAAE2;}
</style>
<g>
	<g>
		<path class="st0" d="M74,0.1h274.2c41.4,0,75.3,32.8,75.3,74.5v272.1c0,41.7-33.9,75.9-75.3,75.9H-1.4l0-348
			C-1.4,32.9,32.5,0.1,74,0.1z"/>
		<g>
			<path class="st1" d="M227.1,205.2c13.9,6.3,23.2,16,27.6,29.9c8.8,27.6,0,64.4-42.4,76.1c-7.7,2.1-15.5,3.2-23.5,3.2
				c-23.5,0.1-47,0-70.5,0.1c-3.3,0-4.4-0.8-4.4-4.3c0.1-60.3,0.1-120.5,0.1-180.8c0-11.8,8.9-21.7,20.3-21.8
				c20.3-0.1,40.6-1,60.8,0.4c16.4,1.1,31.3,6.7,42.5,19.5c18,20.7,15.7,54.5-4.9,72.7C231.1,201.7,229.4,203.2,227.1,205.2
				L227.1,205.2z M303.3,266.2c14,0,25.4,11.4,25.4,25.4c0,14-11.4,25.4-25.4,25.4c-14,0-25.4-11.4-25.4-25.4
				C277.9,277.5,289.3,266.2,303.3,266.2L303.3,266.2z M154.2,255.6c0,6.7,0.2,13.4-0.1,20.1c-0.1,2.9,0.8,3.5,3.6,3.5
				c11-0.2,21.9,0.1,32.9-0.1c16-0.2,25.9-11.2,25.9-28.5c0-16.1-10.5-27.2-26.1-27.4c-7.6-0.1-15.2,0-22.8,0
				c-8.8,0-13.2,4.3-13.3,13.1C154.1,242.8,154.2,249.2,154.2,255.6L154.2,255.6z M154.2,170.6c0,5.8,0,11.6,0,17.4
				c0,1.9,0.1,3.2,2.6,3.1c9.9-0.1,19.8,0.3,29.7-0.2c14.3-0.7,23.2-11.3,22.6-26.2c-0.5-14.7-9.4-23.1-24.3-23.2
				c-5.5,0-11,0-16.5,0c-9.8,0.1-14.1,4.4-14.1,14.4C154.2,160.9,154.2,165.8,154.2,170.6z"/>
			<path class="st2" d="M227.1,203.8c13.9,6.3,23.2,16,27.6,29.9c8.8,27.6,0,64.4-42.4,76.1c-7.7,2.1-15.5,3.2-23.5,3.2
				c-23.5,0.1-47,0-70.5,0.1c-3.3,0-4.4-0.8-4.4-4.3c0.1-60.3,0.1-120.5,0.1-180.8c0-11.8,8.9-21.7,20.3-21.8
				c20.3-0.1,40.6-1,60.8,0.4c16.4,1.1,31.3,6.7,42.5,19.5c18,20.7,15.7,54.5-4.9,72.7C231.1,200.3,229.4,201.8,227.1,203.8
				L227.1,203.8z M154.2,254.2c0,6.7,0.2,13.4-0.1,20.1c-0.1,2.9,0.8,3.5,3.6,3.5c11-0.2,21.9,0.1,32.9-0.1
				c16-0.2,25.9-11.2,25.9-28.5c0-16.1-10.5-27.2-26.1-27.4c-7.6-0.1-15.2,0-22.8,0c-8.8,0-13.2,4.3-13.3,13.1
				C154.1,241.4,154.2,247.8,154.2,254.2L154.2,254.2z M154.2,169.2c0,5.8,0,11.6,0,17.4c0,1.9,0.1,3.2,2.6,3.1
				c9.9-0.1,19.8,0.3,29.7-0.2c14.3-0.7,23.2-11.3,22.6-26.2c-0.5-14.7-9.4-23.1-24.3-23.2c-5.5,0-11,0-16.5,0
				c-9.8,0.1-14.1,4.4-14.1,14.4C154.2,159.5,154.2,164.4,154.2,169.2z"/>
			<path class="st3" d="M303.3,315.5c14,0,25.4-11.4,25.4-25.4c0-14-11.4-25.4-25.4-25.4c-14,0-25.4,11.4-25.4,25.4
				C277.9,304.1,289.3,315.5,303.3,315.5z"/>
		</g>
	</g>
</g>
</svg>
