<?xml version="1.0" encoding="utf-8"?>
<!-- Generator: Adobe Illustrator 21.0.0, SVG Export Plug-In . SVG Version: 6.00 Build 0)  -->
<svg version="1.1" id="Слой_1" xmlns="http://www.w3.org/2000/svg" xmlns:xlink="http://www.w3.org/1999/xlink" x="0px" y="0px"
	 viewBox="0 0 27 15" style="enable-background:new 0 0 27 15;" xml:space="preserve">
<path style="fill:#77AF17;" d="M26.4,9.4L26.4,9.4c-0.7,0-0.8,0.6-0.8,0.7v1c0,0.3-0.3,0-0.3,0l-2.3-2.2l-9-8.7h0
	c-0.5-0.4-0.9,0-0.9,0l-9.5,9l0,0L3.4,9.4c0,0-0.1,0.1-0.1,0.1L1.7,11c-0.3,0.3-0.3,0-0.3,0v-1c0-0.6-0.4-0.6-0.6-0.6H0.7
	c0,0-0.7,0-0.7,0.6v1.2v1.5v1.6c0,0,0,0.8,0.6,0.8h0.1c0.1,0,0.6-0.1,0.6-0.8v-0.7c0-0.6,0.3-0.9,0.3-0.9l1.1-1.1
	c0.1,0,0.2-0.2,0.2,0v2.8c0,0.2,0.1,0.7,0.8,0.7h4.7h0.3c0.8,0,1-0.6,1.1-0.6l3.3-9.2h0c0,0,0.2-0.4,0.4,0c0,0,0,0,0,0l3.4,9.1
	c0,0,0.2,0.7,1.2,0.7h0.1H23c0.8,0,0.8-0.5,0.8-0.7v-2.4c0,0,0-0.5,0.6,0l0.9,0.9c0,0,0.3,0.3,0.3,0.7v0.9c0,0.1,0.1,0.6,0.6,0.6h0
	c0.7,0,0.7-0.9,0.7-0.9v-0.4v-0.9v-2.5C27,9.4,26.5,9.4,26.4,9.4L26.4,9.4z"/>
</svg>
