<?xml version="1.0" encoding="utf-8"?>
<!-- Generator: Adobe Illustrator 19.0.1, SVG Export Plug-In . SVG Version: 6.00 Build 0)  -->
<svg version="1.1" id="Layer_1" xmlns="http://www.w3.org/2000/svg" xmlns:xlink="http://www.w3.org/1999/xlink" x="0px" y="0px"
	 viewBox="0 0 22 13.6" style="enable-background:new 0 0 22 13.6;" xml:space="preserve">
<style type="text/css">
	.st0{fill:#FFFFFF;}
</style>
<g>
	<g>
		<path class="st0" d="M22,10.7l-0.1-0.7c0,0,0,0-0.1,0c-0.7,0-1.2-0.6-1.2-1.3c0-0.6,0.4-1.1,1-1.2L21.5,7
			c-0.1-0.7-0.7-1.3-1.4-1.3h-1.9l-0.6,0c-0.2,0-0.5-0.2-0.5-0.3l-1.7-3.7c-0.3-0.6-1-1.1-1.6-1.1H2.5C1.8,0.6,1.2,1.3,1.2,2v2.6
			C1,4.5,0.9,4.4,0.7,4.4C0.3,4.4,0,4.7,0,5v4c0,0.4,0.3,0.7,0.7,0.7c0.2,0,0.4-0.1,0.5-0.3v1.3c0,0.8,0.6,1.4,1.3,1.4H3
			c0-0.2-0.1-0.4-0.1-0.6c0-1.8,1.4-3.3,3.2-3.3s3.2,1.5,3.2,3.3c0,0.2,0,0.4-0.1,0.6h3.6c0-0.2-0.1-0.4-0.1-0.6
			c0-1.8,1.4-3.3,3.2-3.3c1.8,0,3.2,1.5,3.2,3.3c0,0.2,0,0.4-0.1,0.6h1.6c0.4,0,0.7-0.2,0.9-0.4C21.9,11.4,22,11,22,10.7z M10.5,5.8
			l-5.7,0V3c0,0,3.9-0.1,4.4-0.1c0.6,0,1.3,0,1.3,0V5.8z M11.7,5.8V2.9h2.9l1.3,2.8L11.7,5.8z M6.1,9.4c-1.1,0-2,0.9-2,2.1
			c0,1.1,0.9,2.1,2,2.1s2-0.9,2-2.1C8.1,10.4,7.2,9.4,6.1,9.4z M6.1,12.1c-0.3,0-0.6-0.3-0.6-0.6c0-0.3,0.3-0.6,0.6-0.6
			s0.6,0.3,0.6,0.6C6.7,11.9,6.5,12.1,6.1,12.1z M16.1,9.4c-1.1,0-2,0.9-2,2.1c0,1.1,0.9,2.1,2,2.1c1.1,0,2-0.9,2-2.1
			C18.1,10.4,17.2,9.4,16.1,9.4z M16.1,12.1c-0.3,0-0.6-0.3-0.6-0.6c0-0.3,0.3-0.6,0.6-0.6c0.3,0,0.6,0.3,0.6,0.6
			C16.7,11.9,16.4,12.1,16.1,12.1z"/>
	</g>
</g>
</svg>
