<?xml version="1.0" encoding="utf-8"?>
<!-- Generator: Adobe Illustrator 21.0.0, SVG Export Plug-In . SVG Version: 6.00 Build 0)  -->
<svg version="1.1" id="Слой_1" xmlns="http://www.w3.org/2000/svg" xmlns:xlink="http://www.w3.org/1999/xlink" x="0px" y="0px"
	 viewBox="0 0 10 8" style="enable-background:new 0 0 10 8;" xml:space="preserve">
<style type="text/css">
	.st0{fill:#00A137;}
</style>
<path class="st0" d="M9.8,1.1L8.9,0.2C8.8,0.1,8.7,0,8.5,0C8.3,0,8.2,0.1,8.1,0.2L3.8,4.6l-1.9-2C1.8,2.5,1.7,2.4,1.5,2.4
	c-0.2,0-0.3,0.1-0.4,0.2L0.2,3.5C0.1,3.7,0,3.8,0,4c0,0.2,0.1,0.3,0.2,0.5l2.3,2.4l0.9,0.9C3.5,7.9,3.7,8,3.8,8C4,8,4.2,7.9,4.3,7.8
	l0.9-0.9L9.8,2C9.9,1.9,10,1.7,10,1.6C10,1.4,9.9,1.2,9.8,1.1z"/>
</svg>
