<?xml version="1.0" encoding="utf-8"?>
<!-- Generator: Adobe Illustrator 21.0.0, SVG Export Plug-In . SVG Version: 6.00 Build 0)  -->
<svg version="1.1" id="Слой_1" xmlns="http://www.w3.org/2000/svg" xmlns:xlink="http://www.w3.org/1999/xlink" x="0px" y="0px"
	 viewBox="0 0 10 7" style="enable-background:new 0 0 10 7;" xml:space="preserve">
<style type="text/css">
	.st0{fill:#FFFFFF;}
</style>
<path class="st0" d="M9.8,1L8.9,0.2C8.8,0.1,8.7,0,8.5,0C8.3,0,8.2,0.1,8.1,0.2L3.8,4L1.9,2.3C1.8,2.2,1.7,2.1,1.5,2.1
	S1.2,2.2,1.1,2.3L0.2,3.1C0.1,3.2,0,3.3,0,3.5c0,0.2,0.1,0.3,0.2,0.4L2.5,6l0.9,0.8C3.5,6.9,3.7,7,3.8,7C4,7,4.2,6.9,4.3,6.8L5.1,6
	l4.7-4.3C9.9,1.7,10,1.5,10,1.4C10,1.2,9.9,1.1,9.8,1z"/>
</svg>
