<?xml version="1.0" encoding="utf-8"?>
<!-- Generator: Adobe Illustrator 21.0.0, SVG Export Plug-In . SVG Version: 6.00 Build 0)  -->
<svg version="1.1" id="Слой_1" xmlns="http://www.w3.org/2000/svg" xmlns:xlink="http://www.w3.org/1999/xlink" x="0px" y="0px"
	 viewBox="0 0 8 14" style="enable-background:new 0 0 8 14;" xml:space="preserve">
<style type="text/css">
	.st0{fill:#b24583;}
</style>
<g>
	<g>
		<path class="st0" d="M4.7,4.1C4.5,4,4.3,4,4.1,4c1.1,0,2-0.9,2-2c0-1.1-0.9-2-2-2C2.9,0,2,0.9,2,2c0,1.1,0.9,2,2,2
			C3.7,4,3.5,4,3.3,4.1C2.7,4.3,0.3,5.1,0,9c0,0.4,0.3,0.7,0.7,0.7c0,0,0,0,0.1,0c0.4,0,0.7-0.3,0.7-0.6C1.6,8.2,1.8,7.5,2,7v1.4
			c0,0.1,0,0.3,0.1,0.4v4.4c0,0.4,0.4,0.8,0.9,0.8c0.5,0,0.9-0.3,0.9-0.8v-3c0.1,0,0.1,0,0.2,0c0.1,0,0.1,0,0.2,0v3
			c0,0.4,0.4,0.8,0.9,0.8c0.5,0,0.9-0.3,0.9-0.8V8.9C6,8.7,6,8.6,6,8.5V7c0.2,0.5,0.4,1.2,0.5,2.1c0,0.3,0.4,0.6,0.7,0.6
			c0,0,0,0,0.1,0C7.7,9.7,8,9.4,8,9C7.7,5.1,5.3,4.3,4.7,4.1z"/>
	</g>
</g>
</svg>
