<?xml version="1.0" encoding="utf-8"?>
<!-- Generator: Adobe Illustrator 21.0.0, SVG Export Plug-In . SVG Version: 6.00 Build 0)  -->
<svg version="1.1" id="Слой_1" xmlns="http://www.w3.org/2000/svg" xmlns:xlink="http://www.w3.org/1999/xlink" x="0px" y="0px"
	 viewBox="0 0 18 19" style="enable-background:new 0 0 18 19;" xml:space="preserve">
<style type="text/css">
	.st0{fill-rule:evenodd;clip-rule:evenodd;fill:#72A3C0;}
</style>
<g>
	<g>
		<path class="st0" d="M10,13c0,1,0.8,1.8,1.8,1.8c1,0,1.8-0.8,1.8-1.8c0-0.2-0.1-0.5-0.2-0.8h-3.1C10.1,12.6,10,12.8,10,13z
			 M5,13.4c0,0-2.2,2.2-2.2,3.4C2.8,18,3.8,19,5,19s2.2-1,2.2-2.2C7.1,15.6,5,13.4,5,13.4z M18,8.9c0-1.6-1-2.3-2.5-2.8
			c0.1-0.3,0.1-0.6,0.1-0.9c0-1.7-1.5-3.1-3.3-3.1c-1,0-1.7,0.4-2.3,1C9.5,1.6,8.6,0,6.7,0C4.3,0,2.4,1.4,2.4,3.9
			c0,0.4,0.1,0.8,0.1,1.1C1.1,5.5,0,6.9,0,8.6c0,2.1,1.7,3.7,3.7,3.7h6.5c0.5-1,1.5-2.1,1.5-2.1c0,0,1.1,1.1,1.5,2.1h1.8
			C17.2,12.3,18,10.9,18,8.9z M16.4,13.8c0,0-1.3,1.3-1.3,2c0,0.7,0.6,1.3,1.3,1.3c0.7,0,1.3-0.6,1.3-1.3
			C17.7,15.1,16.5,13.8,16.4,13.8z"/>
	</g>
</g>
</svg>
