<?xml version="1.0" encoding="utf-8"?>
<!-- Generator: Adobe Illustrator 21.0.0, SVG Export Plug-In . SVG Version: 6.00 Build 0)  -->
<svg version="1.1" id="Слой_1" xmlns="http://www.w3.org/2000/svg" xmlns:xlink="http://www.w3.org/1999/xlink" x="0px" y="0px"
	 viewBox="0 0 34 34" style="enable-background:new 0 0 34 34;" xml:space="preserve">
<g>
	<g>
		<path style="fill:#72AB12;" d="M9,21.9c2.7,0,5-2.2,5-5s-2.3-5-5-5s-5,2.2-5,5S6.3,21.9,9,21.9z M25,0c-4.9,0-9,4-9,9
			c0,1.5,0.4,3,1.1,4.4l-1.1,3.3c-0.1,0.3,0,0.7,0.2,1c0.3,0.3,0.6,0.4,1,0.3L21,17c1.2,0.6,2.6,1,4,1c4.9,0,9-4,9-9C34,4,30,0,25,0
			z M25,13.9c-0.6,0-1-0.4-1-1s0.4-1,1-1c0.6,0,1,0.4,1,1S25.6,13.9,25,13.9z M26.4,9.6c-0.2,0.1-0.4,0.4-0.4,0.8c0,0.6-0.4,1-1,1
			c-0.6,0-1-0.4-1-1c0-1.1,0.6-2.1,1.5-2.6C25.8,7.7,26,7.3,26,7c0-0.5-0.4-1-1-1c-0.5,0-1,0.4-1,1c0,0.6-0.4,1-1,1
			c-0.6,0-1-0.4-1-1c0-1.6,1.3-3,3-3c1.6,0,3,1.3,3,3C28,8.1,27.4,9.1,26.4,9.6z M14.3,21.6C13,23,11.1,23.9,9,23.9
			c-2.1,0-3.9-0.9-5.2-2.3C1.5,23.2,0,25.9,0,28.9V33c0,0.6,0.4,1,1,1h16.1c0.6,0,1-0.4,1-1v-4.1C18.1,25.9,16.6,23.2,14.3,21.6z"/>
	</g>
</g>
</svg>
