<?xml version="1.0" encoding="utf-8"?>
<!-- Generator: Adobe Illustrator 19.0.1, SVG Export Plug-In . SVG Version: 6.00 Build 0)  -->
<svg version="1.1" id="Layer_1" xmlns="http://www.w3.org/2000/svg" xmlns:xlink="http://www.w3.org/1999/xlink" x="0px" y="0px"
	 viewBox="0 0 20.5 11" style="enable-background:new 0 0 20.5 11;" xml:space="preserve">
<style type="text/css">
	.st0{fill:#FFFFFF;}
</style>
<path class="st0" d="M1.3,7.5C1.3,7.5,1.3,7.5,1.3,7.5C1,7.5,0.9,7.8,0.9,8c0,0.2,0.3,0.4,0.5,0.4l7-0.8L6.8,9.4
	C6.7,9.5,6.6,9.7,6.7,9.8C6.8,10,7,10.1,7.2,10l1.4-0.4c0,0,0.1,0,0.1-0.1l4.7-3.2l5.2-1.5c2-0.6,1.9-1.4,1.9-1.6
	c0-0.2-0.2-0.4-0.6-0.6c-0.4-0.2-0.9-0.3-1.7-0.3c-0.3,0-0.4,0-0.5-0.1c-0.5-0.1-0.8-0.2-2.7,0.4L4.7,5.5L1.5,2.8
	C1.4,2.7,1.2,2.7,1,2.7L0.4,2.9C0.2,3,0.1,3.1,0.1,3.2C0,3.3,0,3.5,0.1,3.6l1.8,3.7L1.3,7.5z"/>
</svg>
