<?xml version="1.0" encoding="utf-8"?>
<!-- Generator: Adobe Illustrator 21.0.0, SVG Export Plug-In . SVG Version: 6.00 Build 0)  -->
<svg version="1.1" id="Слой_1" xmlns="http://www.w3.org/2000/svg" xmlns:xlink="http://www.w3.org/1999/xlink" x="0px" y="0px"
	 viewBox="0 0 20 15" style="enable-background:new 0 0 20 15;" xml:space="preserve">
<style type="text/css">
	.st0{fill:#2E2E2E;}
</style>
<g>
	<g>
		<path class="st0" d="M15.6,11.5c-0.8,0-1.5,0.5-1.8,1.2H6.1c-0.3-0.7-0.9-1.2-1.8-1.2c-1,0-1.9,0.8-1.9,1.7c0,1,0.8,1.7,1.9,1.7
			c0.8,0,1.5-0.5,1.8-1.2h7.7c0.3,0.7,0.9,1.2,1.8,1.2c1,0,1.9-0.8,1.9-1.7C17.5,12.3,16.7,11.5,15.6,11.5z M4.4,10.4
			c0.2,0,0.3-0.1,0.5-0.2C5.2,9.8,8.7,6.1,8.7,4c0-2.2-2-4-4.4-4C2,0,0,1.8,0,4c0,2.1,3.5,5.7,3.9,6.2C4,10.3,4.2,10.4,4.4,10.4z
			 M2.5,4c0-1,0.8-1.7,1.9-1.7S6.2,3.1,6.2,4c0,1-0.8,1.7-1.9,1.7S2.5,5,2.5,4z M15.6,10.4c0.2,0,0.3-0.1,0.5-0.2
			C16.5,9.8,20,6.1,20,4c0-2.2-2-4-4.4-4c-2.4,0-4.4,1.8-4.4,4c0,2.1,3.5,5.7,3.9,6.2C15.3,10.3,15.4,10.4,15.6,10.4z M13.7,4
			c0-1,0.8-1.7,1.9-1.7c1,0,1.9,0.8,1.9,1.7c0,1-0.8,1.7-1.9,1.7C14.6,5.8,13.7,5,13.7,4z"/>
	</g>
</g>
</svg>
