<?xml version="1.0" encoding="utf-8"?>
<!-- Generator: Adobe Illustrator 19.0.1, SVG Export Plug-In . SVG Version: 6.00 Build 0)  -->
<svg version="1.1" id="Layer_1" xmlns="http://www.w3.org/2000/svg" xmlns:xlink="http://www.w3.org/1999/xlink" x="0px" y="0px"
	 viewBox="0 0 12 11.8" style="enable-background:new 0 0 12 11.8;" xml:space="preserve">
<style type="text/css">
	.st0{fill:#fff;}
</style>
<g>
	<g>
		<path class="st0" d="M11.5,7.3h-0.9c-0.3,0-0.5,0.2-0.5,0.5v1.1c0,0.1-0.1,0.2-0.2,0.2H2.1c-0.1,0-0.2-0.1-0.2-0.2V7.8
			c0-0.3-0.2-0.5-0.5-0.5H0.5C0.2,7.3,0,7.5,0,7.8v2.7C0,10.8,0.2,11,0.5,11h11.1c0.3,0,0.5-0.2,0.5-0.5V7.8
			C12,7.5,11.8,7.3,11.5,7.3z M5.7,7.2C5.8,7.3,5.9,7.3,6,7.3c0.1,0,0.2,0,0.3-0.1l2.8-2.7c0.1-0.1,0.1-0.2,0.1-0.3
			c0-0.1,0-0.2-0.1-0.3L8.4,3.2C8.4,3.1,8.3,3,8.1,3C8,3,7.9,3.1,7.8,3.2L7.3,3.6c-0.1,0.1-0.4,0-0.4-0.2v-3C6.9,0.2,6.7,0,6.5,0
			H5.5C5.3,0,5.1,0.2,5.1,0.5v3c0,0.2-0.2,0.3-0.4,0.2L4.2,3.2C4.1,3.1,4,3.1,3.9,3.1c-0.1,0-0.2,0-0.3,0.1L2.9,3.8
			C2.8,3.9,2.8,4,2.8,4.2c0,0.1,0,0.2,0.1,0.3L5.7,7.2z"/>
	</g>
</g>
</svg>
