<?xml version="1.0" encoding="utf-8"?>
<!-- Generator: Adobe Illustrator 21.0.0, SVG Export Plug-In . SVG Version: 6.00 Build 0)  -->
<svg version="1.1" id="Слой_1" xmlns="http://www.w3.org/2000/svg" xmlns:xlink="http://www.w3.org/1999/xlink" x="0px" y="0px"
	 viewBox="0 0 15 12" style="enable-background:new 0 0 15 12;" xml:space="preserve">
<style type="text/css">
	.st0{fill:#262626;}
</style>
<path class="st0" d="M63.3,93.1c-0.4,0-0.8,0.1-1.1,0.4c-0.3,0.3-0.4,0.7-0.4,1.1v9c0,0.4,0.1,0.8,0.4,1.1c0.3,0.3,0.7,0.4,1.1,0.4
	h12c0.4,0,0.8-0.1,1.1-0.4c0.3-0.3,0.4-0.7,0.4-1.1v-9c0-0.4-0.1-0.8-0.4-1.1c-0.3-0.3-0.7-0.4-1.1-0.4H63.3z M69.3,99.9l-6-3.7
	v-1.5l6,3.8l6-3.8v1.5L69.3,99.9z"/>
<path class="st0" d="M1.5,0C1.1,0,0.7,0.1,0.4,0.4C0.1,0.7,0,1.1,0,1.5v9c0,0.4,0.1,0.8,0.4,1.1C0.7,11.9,1.1,12,1.5,12h12
	c0.4,0,0.8-0.1,1.1-0.4c0.3-0.3,0.4-0.6,0.4-1.1v-9c0-0.4-0.1-0.8-0.4-1.1C14.3,0.1,13.9,0,13.5,0H1.5z M7.5,6.7L1.5,3V1.5l6,3.8
	l6-3.8V3L7.5,6.7z"/>
</svg>
