<?xml version="1.0" encoding="utf-8"?>
<!-- Generator: Adobe Illustrator 21.0.0, SVG Export Plug-In . SVG Version: 6.00 Build 0)  -->
<svg version="1.1" id="Слой_1" xmlns="http://www.w3.org/2000/svg" xmlns:xlink="http://www.w3.org/1999/xlink" x="0px" y="0px"
	 viewBox="0 0 22 12" style="enable-background:new 0 0 22 12;" xml:space="preserve">
<style type="text/css">
	.st0{fill-rule:evenodd;clip-rule:evenodd;fill:#FFFFFF;}
</style>
<g>
	<g>
		<path class="st0" d="M0,9.9l0.4,1.9l0.7-0.1L0.7,9.7L0,9.9z M1.6,10.8c-0.2,0.5,0.1,0.9,0.7,0.9l4.2,0.1l0.8-3.3
			C6.4,7.4,4.5,5.1,3.8,3.9c0,0,0,0.1-0.1,0.1L1.6,10.8z M3.7,3.6c0,0.1,0.1,0.2,0.2,0.3c0-0.1,0.1-0.2,0.2-0.4
			C3.8,3.5,3.6,3.5,3.7,3.6z M21.3,9.7l-0.4,1.9l0.7,0.1L22,9.9L21.3,9.7z M18.2,4c0,0,0-0.1-0.1-0.1c-0.7,1.3-2.7,3.3-3.5,4.4
			l0.9,3.5c0,0,0.9-0.1,2-0.1c1.1,0,2.2,0,2.2,0c0.5,0,0.9-0.4,0.7-0.9L18.2,4z M18,3.6c0.1,0.1,0.1,0.2,0.2,0.3
			c0.1-0.1,0.1-0.2,0.2-0.3C18.4,3.4,18.3,3.5,18,3.6z M17.1,2.6c0,0-1-1-2.4-1.7c-1.2-0.5-2.8-0.7-2.8-0.7c-0.5-0.3-1.2-0.3-1.7,0
			c0,0-1.5,0.1-2.8,0.7C6,1.5,4.9,2.6,4.9,2.6C4.6,2.8,4.2,3.2,4,3.6c0.3,0,0.6,0.1,0.6,0.1c0.1-0.2,1.7,1.7,2.7,2.8
			c0.1,0.1,0.2,0.2,0.3,0.3C8.2,5.4,9.5,4.5,11,4.5c1.5,0,2.8,0.9,3.4,2.2c1-1,2.9-3.2,3.1-3.1c0.1,0.1,0.4,0,0.6,0
			C17.8,3.2,17.4,2.8,17.1,2.6z M11,6.4c-1,0-1.8,0.7-1.8,1.8c0,0-0.1,0.2-0.1,0.6c-0.3,1-0.8,3-0.8,3c0,0,1.7,0,2.8,0s2.8,0,2.8,0
			l-0.9-3.6C12.8,7.1,12,6.4,11,6.4z"/>
	</g>
</g>
</svg>
