<?xml version="1.0" encoding="utf-8"?>
<!-- Generator: Adobe Illustrator 21.0.0, SVG Export Plug-In . SVG Version: 6.00 Build 0)  -->
<svg version="1.1" id="Слой_1" xmlns="http://www.w3.org/2000/svg" xmlns:xlink="http://www.w3.org/1999/xlink" x="0px" y="0px"
	 viewBox="0 0 19 18" style="enable-background:new 0 0 19 18;" xml:space="preserve">
<style type="text/css">
	.st0{fill:#2E2E2E;}
</style>
<path class="st0" d="M17.1,3h-0.9v15h0.9c1,0,1.9-0.9,1.9-2V5C19,3.9,18.1,3,17.1,3z M0,5v11c0,1.1,0.9,2,1.9,2h0.9V3H1.9
	C0.9,3,0,3.9,0,5z M12.7,0.9C12.1,0.6,11.1,0,9.5,0C7.9,0,6.9,0.6,6.3,0.9V3H4.2v15h10.6V3h-2.1V0.9z M11.6,3H7.4V1.7
	c0.5-0.2,1.2-0.5,2.1-0.5c0.9,0,1.6,0.2,2.1,0.5V3z"/>
</svg>
