<?xml version="1.0" encoding="utf-8"?>
<!-- Generator: Adobe Illustrator 19.0.1, SVG Export Plug-In . SVG Version: 6.00 Build 0)  -->
<svg version="1.1" id="Layer_1" xmlns="http://www.w3.org/2000/svg" xmlns:xlink="http://www.w3.org/1999/xlink" x="0px" y="0px"
	 viewBox="0 0 13 13" style="enable-background:new 0 0 13 13;" xml:space="preserve">
<style type="text/css">
	.st0{fill:#B2B3B3;}
</style>
<path class="st0" d="M12.9,2.2c0.1-0.2,0.1-0.5,0-0.7c0-0.2,0-0.5-0.2-0.7c-0.2-0.2-0.4-0.3-0.6-0.5c-0.3-0.3-0.9-0.4-1.2,0
	C9.4,2.1,7.8,3.8,6.1,5.5C4.9,4.3,3.6,3.1,2.4,1.9C2,1.4,1.3,1.6,1.1,2.1c-0.4,0.2-0.7,0.5-1,1C0,3.3,0,3.5,0.1,3.8
	c0.8,1.5,2.3,2.9,3.6,4.1C3.5,8.1,3.3,8.2,3.2,8.4C1.5,10,0.3,11,2.5,12.6c0,0,0.1,0,0.1,0c0,0,0.1,0,0.1,0c0,0,0,0,0,0
	c0,0,0.1,0,0.1,0C4,12.4,5.1,11.5,6,10.4c0.9,1,1.9,2,3.1,2.5c0.3,0.1,0.6,0.1,0.8-0.1c0.3,0,0.6-0.2,0.8-0.5c0,0,0,0,0.1,0
	c0.5-0.3,0.5-1,0.2-1.5c-0.8-1-1.7-2-2.6-3C9.9,6.1,11.9,4.3,12.9,2.2z"/>
</svg>
