<?xml version="1.0" encoding="utf-8"?>
<!-- Generator: Adobe Illustrator 21.0.0, SVG Export Plug-In . SVG Version: 6.00 Build 0)  -->
<svg version="1.1" id="Слой_1" xmlns="http://www.w3.org/2000/svg" xmlns:xlink="http://www.w3.org/1999/xlink" x="0px" y="0px"
	 viewBox="0 0 20 28" style="enable-background:new 0 0 20 28;" xml:space="preserve">
<style type="text/css">
	.st0{fill:#FFFFFF;}
</style>
<path class="st0" d="M17.8,15.9c-1.4-0.1-0.9,1.3-2.3,1.2c-2.6-0.3-3.6-1.8-7.1-1.9c-1.8,0-3.5,1.2-4.1,1.1c-0.8-0.2-2.5-0.8-2.4-3
	C1.9,11.1,3.2,9.8,5,9.2c1.8-0.6,5.6-2.2,5.6-5.3C10.7,0.7,8.4,0,7.7,0C7.1,0,7,0.6,7.8,0.9c0.8,0.3,1.8,1.5,1.8,2.6
	c0,1.2-0.1,3.1-4.5,4.4C0.7,9.1,0,11.7,0,13.4c0,1.7,0.9,4.4,3.7,4.5c0.5,0,0.6,0.4,0.5,0.8c-0.1,0.4-0.2,2.1,0.1,3
	c0.3,0.8,0,0.8-0.6,1.1c-0.6,0.3-3.1,1.6-3.1,1.6s-0.5,0.5-0.1,1c0.4,0.5,1.8,2.8,3,2.2C4,27.2,3,26.3,2,25.6
	C1.7,25.4,1.5,25,2.3,25c0.8-0.1,4.4-0.6,4.5-3.3c0-0.5,0.1-0.4,0.5-0.2c0.5,0.2,1.9,0.6,1.7,1.4c-0.2,0.7-0.2,2.4-0.2,3
	c-0.3,0.2-0.5,1,0.8,1.5c1.4,0.4,3.1,0.8,3.1,0.3c0-0.5-1.7-0.7-2.6-1.1C9.6,26.3,9.8,26,10.2,25c0.4-0.9,1.4-3.2,0.5-3.8
	c-0.4-0.2-0.1-0.5,0.6-0.4c0.7,0.1,1,0.2,0.6,0.7c-0.4,0.5-0.6,1.3-0.3,2.4c0.3,1.1,0.9,3.2,0.9,3.2s0,0.6,0.7,0.7
	c0.6,0.1,1.9,0.3,1.8-0.4c0-0.7-1-0.5-1.4-0.5c-0.4,0-0.6-0.5-0.5-1.3c0.1-0.8,0.1-3.2,0.7-3.1c0.6,0.1,0,1.1,2.7,3.8
	c0.9,1,1.5,1,2.3,1c0.9,0,1.1-0.6-0.5-0.9c-0.9-0.1-0.8,0-1.3-1c-0.4-1-1.3-1.8-1.3-2.4c0-0.6,0.8-1.5,0.8-3c0-0.6,0.4-0.6,0.9-0.3
	c0.4,0.3,1.7,0.1,2.2-0.5c0.5-0.7,0.2-1.1-0.3-1.8C19.2,16.8,19.6,16,17.8,15.9z"/>
</svg>
