<?xml version="1.0" encoding="utf-8"?>
<!-- Generator: Adobe Illustrator 21.0.0, SVG Export Plug-In . SVG Version: 6.00 Build 0)  -->
<svg version="1.1" id="Слой_1" xmlns="http://www.w3.org/2000/svg" xmlns:xlink="http://www.w3.org/1999/xlink" x="0px" y="0px"
	 viewBox="0 0 20 20" style="enable-background:new 0 0 20 20;" xml:space="preserve">
<style type="text/css">
	.st0{fill:#FFFFFF;}
</style>
<g>
	<g>
		<path class="st0" d="M8.1,9.6l-0.9,0.8l2.2,2.4l0,0l0,0l3.9-4l-0.7-0.9l-3.2,2.6L8.1,9.6z M10,0C4.5,0,0,4.5,0,10
			c0,5.5,4.5,10,10,10s10-4.5,10-10C20,4.5,15.5,0,10,0z M10,15.5c-5.1,0-5.5-8.7-5.5-8.7L10,4.5h0l5.5,2.3
			C15.5,6.8,15.1,15.5,10,15.5z"/>
	</g>
</g>
</svg>
