<?xml version="1.0" encoding="utf-8"?>
<!-- Generator: Adobe Illustrator 21.0.0, SVG Export Plug-In . SVG Version: 6.00 Build 0)  -->
<svg version="1.1" id="Слой_1" xmlns="http://www.w3.org/2000/svg" xmlns:xlink="http://www.w3.org/1999/xlink" x="0px" y="0px"
	 viewBox="0 0 25 22" style="enable-background:new 0 0 25 22;" xml:space="preserve">
<path style="fill:#FFFFFF;" d="M18.4,0c-3,0-4.9,2.1-5.9,3.9C11.5,2.1,9.6,0,6.6,0C2.9,0,0,3.1,0,7.2c0,1.1,0.2,2.1,0.6,3h5.6
	l1.3-2.6c0.2-0.5,1.1-0.5,1.3,0l2.3,4.6l0.8-1.6c0.2-0.5,1.1-0.5,1.3,0l0.8,1.6l2.3-4.6c0.2-0.5,1.1-0.5,1.3,0l1.3,2.6h5.6
	c0.4-0.9,0.6-1.9,0.6-3C25,3.1,22.1,0,18.4,0z M17.7,11.2l-0.8-1.6l-2.3,4.6c-0.1,0.3-0.4,0.4-0.7,0.4c-0.3,0-0.5-0.2-0.7-0.4
	l-0.8-1.6l-0.8,1.6c-0.2,0.5-1.1,0.5-1.3,0L8.1,9.6l-0.8,1.6c-0.1,0.3-0.4,0.4-0.7,0.4H1.4C2.9,14,5.6,16.3,9,19.2
	c1,0.8,2,1.7,3,2.6c0.1,0.1,0.3,0.2,0.5,0.2c0.2,0,0.3-0.1,0.5-0.2c1.1-0.9,2.1-1.8,3-2.6c3.4-2.9,6.1-5.2,7.6-7.6h-5.3
	C18.1,11.6,17.8,11.5,17.7,11.2z"/>
</svg>
