<?xml version="1.0" encoding="utf-8"?>
<!-- Generator: Adobe Illustrator 21.0.0, SVG Export Plug-In . SVG Version: 6.00 Build 0)  -->
<svg version="1.1" id="Слой_1" xmlns="http://www.w3.org/2000/svg" xmlns:xlink="http://www.w3.org/1999/xlink" x="0px" y="0px"
	 viewBox="0 0 63 63" style="enable-background:new 0 0 63 63;" xml:space="preserve">
<style type="text/css">
	.st0{fill:url(#SVGID_1_);}
</style>
<g>
	<g>
		<linearGradient id="SVGID_1_" gradientUnits="userSpaceOnUse" x1="31.5" y1="62.5" x2="31.5" y2="-7.197472e-02">
			<stop  offset="0" style="stop-color:#004C73"/>
			<stop  offset="0.22" style="stop-color:#2E52C9"/>
			<stop  offset="1" style="stop-color:#34ACD8"/>
		</linearGradient>
		<path class="st0" d="M29.3,32c-1.3-0.3-2.6,0.6-2.9,1.9l-3.7,17.2c-0.3,1.3,0.6,2.6,1.9,2.9c0.2,0,0.3,0.1,0.5,0.1
			c1.1,0,2.2-0.8,2.4-1.9L31.2,35C31.5,33.6,30.6,32.3,29.3,32z M20.6,32c-1.3-0.3-2.6,0.6-2.9,1.9L14,51.2
			c-0.3,1.3,0.6,2.6,1.9,2.9c0.2,0,0.3,0.1,0.5,0.1c1.1,0,2.2-0.8,2.4-1.9L22.5,35C22.7,33.6,21.9,32.3,20.6,32z M14.6,58.1
			c-1.4,0-2.5,1.1-2.5,2.5c0,1.4,1.1,2.5,2.5,2.5c1.4,0,2.5-1.1,2.5-2.5C17.1,59.2,16,58.1,14.6,58.1z M32,58.1
			c-1.4,0-2.5,1.1-2.5,2.5c0,1.4,1.1,2.5,2.5,2.5c1.4,0,2.5-1.1,2.5-2.5C34.5,59.2,33.4,58.1,32,58.1z M23.3,58.1
			c-1.4,0-2.5,1.1-2.5,2.5c0,1.4,1.1,2.5,2.5,2.5c1.4,0,2.5-1.1,2.5-2.5C25.7,59.2,24.6,58.1,23.3,58.1z M38,32
			c-1.3-0.3-2.6,0.6-2.9,1.9l-3.7,17.2c-0.3,1.3,0.6,2.6,1.9,2.9c0.2,0,0.3,0.1,0.5,0.1c1.1,0,2.2-0.8,2.4-1.9L39.9,35
			C40.2,33.6,39.4,32.3,38,32z M56.8,18.4v-1.6C56.8,7.5,49.3,0,40.1,0c-4,0-7.9,1.4-11,4.1c-2,1.7-3.6,3.9-4.6,6.3
			c-1.5-0.8-3.2-1.2-5-1.2c-6,0-11,4.9-11,11v2.2C3.7,23.5,0,27.9,0,33.1c0,5.3,3.8,9.9,8.9,10.8c0.1,0,0.3,0,0.4,0
			c1.2,0,2.2-0.8,2.4-2c0.2-1.3-0.7-2.6-2-2.8c-2.8-0.5-4.9-3-4.9-5.9c0-3.3,2.8-6,6.1-6h0c1.4,0,2.5-1.1,2.5-2.5v-4.4
			c0-3.3,2.7-6,6-6c1.7,0,3.4,0.7,4.5,2c0.6,0.7,1.6,1,2.5,0.7c0.9-0.3,1.6-1,1.7-2c0.9-5.7,5.9-10,11.7-10
			c6.5,0,11.9,5.3,11.9,11.9v3c0,0.9,0.5,1.7,1.3,2.2c3,1.6,4.8,4.7,4.8,8c0,3.2-1.7,6.3-4.6,7.9c-0.2,0.1-0.3,0.2-0.5,0.3
			c-1.2,0.6-1.7,2.1-1.1,3.3s2.1,1.7,3.3,1.1c0.2-0.1,0.5-0.3,0.7-0.4c4.3-2.5,7-7.2,7-12.1C63,25.3,60.7,21,56.8,18.4z M46.8,32
			c-1.3-0.3-2.6,0.6-2.9,1.9l-3.7,17.2c-0.3,1.3,0.6,2.6,1.9,2.9c0.2,0,0.3,0.1,0.5,0.1c1.1,0,2.2-0.8,2.4-1.9L48.7,35
			C49,33.6,48.1,32.3,46.8,32z M40.7,58.1c-1.4,0-2.5,1.1-2.5,2.5c0,1.4,1.1,2.5,2.5,2.5c1.4,0,2.5-1.1,2.5-2.5
			C43.2,59.2,42.1,58.1,40.7,58.1z"/>
	</g>
</g>
</svg>
