<?xml version="1.0" encoding="utf-8"?>
<!-- Generator: Adobe Illustrator 21.0.0, SVG Export Plug-In . SVG Version: 6.00 Build 0)  -->
<svg version="1.1" id="Слой_1" xmlns="http://www.w3.org/2000/svg" xmlns:xlink="http://www.w3.org/1999/xlink" x="0px" y="0px"
	 viewBox="0 0 41 17" style="enable-background:new 0 0 41 17;" xml:space="preserve">
<path style="fill:#FFFFFF;" d="M38.8,1.4L41,0H28.6h-2h-7.1H17H5l2.2,1.4h12.2V0.9h3.1v1.3h-0.8c-0.4,0-0.7,0.3-0.9,0.7l-0.6,1.9
	L5.8,5.2C5.6,5,5.4,4.7,5.1,4.5C4.3,3,3,1.2,2.8,0.9c0-0.1-0.1-0.1-0.2-0.1H0.2c-0.1,0-0.1,0-0.2,0.1C0,1,0,1.1,0,1.1
	c0.6,1.4,1.3,3,0.8,4.9C0.7,6.3,0.7,6.7,0.7,7C0.7,8.6,2,10,3.5,10c1.1,0,2.1-0.7,2.6-1.6l9.2,1.7c0.2,1.9,1.3,3.4,3,4.1
	c1.3,0.6,2.5,0.6,2.7,0.6h0v0.9h-2.7c-0.2,0-0.3,0.1-0.3,0.3c0,0.1-0.4,0.3-0.8,0.3c-0.2,0-0.3,0.2-0.3,0.3c0,0.2,0.1,0.3,0.3,0.3
	h12.4c1.4,0,1.8-0.8,1.8-0.8c0.1-0.1,0-0.2,0-0.3c-0.1-0.1-0.2-0.2-0.3-0.2h-3.7v-0.9h1.3c3,0,4.5-3.2,4.6-3.4
	c0.1-0.2,0-0.4-0.1-0.6c-1.8-3.4-4.4-5.4-7.5-5.9l-0.6-2c-0.1-0.4-0.5-0.7-0.9-0.7h-0.8V0.9h3.1v0.5H38.8L38.8,1.4z M3.5,8.7
	C2.6,8.7,1.9,7.9,1.9,7c0-0.9,0.7-1.7,1.6-1.7c0.9,0,1.6,0.7,1.6,1.7C5.1,7.9,4.4,8.7,3.5,8.7z M26.8,15.7h-5.2v-0.9h5.2V15.7z
	 M24.7,6.5c1.4,0,5.3,1.9,6.3,4.6h-6.9c0,0-4.5,0.6-4.9-4.6C19.2,6.5,23.3,6.5,24.7,6.5z"/>
</svg>
