<?xml version="1.0" encoding="utf-8"?>
<!-- Generator: Adobe Illustrator 19.0.1, SVG Export Plug-In . SVG Version: 6.00 Build 0)  -->
<svg version="1.1" id="Слой_1" xmlns="http://www.w3.org/2000/svg" xmlns:xlink="http://www.w3.org/1999/xlink" x="0px" y="0px"
	 viewBox="0 0 34 34" style="enable-background:new 0 0 34 34;" xml:space="preserve">
<style type="text/css">
	.st0{fill-rule:evenodd;clip-rule:evenodd;fill:#353535;}
	.st1{fill:#FFFFFF;}
</style>
<path class="st0" d="M17,0c9.4,0,17,7.6,17,17c0,9.4-7.6,17-17,17C7.6,34,0,26.4,0,17C0,7.6,7.6,0,17,0z"/>
<path class="st1" d="M25.2,20L23,22.8l-5.3-9.7V9.4h4.5V5.2h-5.9v7.9L11,22.8L8.8,20l-3.3,5.2h23L25.2,20z M14.8,18.7l2.2-4l2.2,4
	C17.7,19,16.3,19,14.8,18.7z"/>
</svg>
