<?xml version="1.0" encoding="utf-8"?>
<!-- Generator: Adobe Illustrator 19.0.1, SVG Export Plug-In . SVG Version: 6.00 Build 0)  -->
<svg version="1.1" id="Layer_1" xmlns="http://www.w3.org/2000/svg" xmlns:xlink="http://www.w3.org/1999/xlink" x="0px" y="0px"
	 viewBox="0 0 22 18.6" style="enable-background:new 0 0 22 18.6;" xml:space="preserve">
<style type="text/css">
	.st0{fill:#FFFFFF;}
</style>
<g>
	<g>
		<path class="st0" d="M11,3.6l-7.8,6.7c0,0,0,0,0,0c0,0,0,0,0,0v6.7c0,0.2,0.1,0.5,0.3,0.6C3.6,17.9,3.8,18,4,18h5.2v-5.4h3.5V18
			H18c0.2,0,0.4-0.1,0.6-0.3c0.2-0.2,0.3-0.4,0.3-0.6v-6.7c0,0,0-0.1,0-0.1L11,3.6z M21.9,8.8l-3-2.6V0.5c0-0.1,0-0.2-0.1-0.3
			C18.7,0.1,18.6,0,18.4,0h-2.6c-0.1,0-0.2,0-0.3,0.1c-0.1,0.1-0.1,0.2-0.1,0.3v2.7L12,0.4C11.7,0.1,11.4,0,11,0
			c-0.4,0-0.7,0.1-1,0.4L0.2,8.8C0.1,8.8,0,8.9,0,9.1c0,0.1,0,0.2,0.1,0.3l0.8,1c0.1,0.1,0.2,0.1,0.3,0.2c0.1,0,0.2,0,0.3-0.1
			L11,2.4l9.4,8.1c0.1,0.1,0.2,0.1,0.3,0.1h0c0.1,0,0.2-0.1,0.3-0.2l0.8-1C22,9.3,22,9.2,22,9.1C22,8.9,21.9,8.8,21.9,8.8z"/>
	</g>
</g>
</svg>
