<?xml version="1.0" encoding="utf-8"?>
<!-- Generator: Adobe Illustrator 21.0.0, SVG Export Plug-In . SVG Version: 6.00 Build 0)  -->
<svg version="1.1" id="Слой_1" xmlns="http://www.w3.org/2000/svg" xmlns:xlink="http://www.w3.org/1999/xlink" x="0px" y="0px"
	 viewBox="0 0 15 12" style="enable-background:new 0 0 15 12;" xml:space="preserve">
<path style="fill:#393939;" d="M3.5,4.4H0.8c-0.2,0-0.4,0.1-0.6,0.2C0.1,4.8,0,5,0,5.2v1.6C0,7,0.1,7.2,0.2,7.4
	c0.2,0.2,0.3,0.2,0.6,0.2h2.7c0.2,0,0.4-0.1,0.6-0.2C4.2,7.2,4.3,7,4.3,6.8V5.2c0-0.2-0.1-0.4-0.2-0.6C3.9,4.4,3.7,4.4,3.5,4.4z
	 M3.5,0H0.8C0.6,0,0.4,0.1,0.2,0.2C0.1,0.4,0,0.6,0,0.8v1.6C0,2.7,0.1,2.9,0.2,3c0.2,0.2,0.3,0.2,0.6,0.2h2.7c0.2,0,0.4-0.1,0.6-0.2
	c0.2-0.2,0.2-0.4,0.2-0.6V0.8c0-0.2-0.1-0.4-0.2-0.6C3.9,0.1,3.7,0,3.5,0z M3.5,8.7H0.8C0.6,8.7,0.4,8.8,0.2,9C0.1,9.1,0,9.3,0,9.5
	v1.6c0,0.2,0.1,0.4,0.2,0.6C0.4,11.9,0.6,12,0.8,12h2.7c0.2,0,0.4-0.1,0.6-0.2c0.2-0.2,0.2-0.4,0.2-0.6V9.5c0-0.2-0.1-0.4-0.2-0.6
	C3.9,8.8,3.7,8.7,3.5,8.7z M14.2,4.4h-8c-0.2,0-0.4,0.1-0.6,0.2C5.4,4.8,5.4,5,5.4,5.2v1.6c0,0.2,0.1,0.4,0.2,0.6
	c0.2,0.2,0.3,0.2,0.6,0.2h8c0.2,0,0.4-0.1,0.6-0.2C14.9,7.2,15,7,15,6.8V5.2c0-0.2-0.1-0.4-0.2-0.6C14.6,4.4,14.4,4.4,14.2,4.4z
	 M14.2,8.7h-8C5.9,8.7,5.7,8.8,5.6,9C5.4,9.1,5.4,9.3,5.4,9.5v1.6c0,0.2,0.1,0.4,0.2,0.6C5.7,11.9,5.9,12,6.2,12h8
	c0.2,0,0.4-0.1,0.6-0.2c0.2-0.2,0.2-0.4,0.2-0.6V9.5c0-0.2-0.1-0.4-0.2-0.6C14.6,8.8,14.4,8.7,14.2,8.7z M14.8,0.2
	C14.6,0.1,14.4,0,14.2,0h-8C5.9,0,5.7,0.1,5.6,0.2C5.4,0.4,5.4,0.6,5.4,0.8v1.6c0,0.2,0.1,0.4,0.2,0.6c0.2,0.2,0.3,0.2,0.6,0.2h8
	c0.2,0,0.4-0.1,0.6-0.2C14.9,2.9,15,2.7,15,2.5V0.8C15,0.6,14.9,0.4,14.8,0.2z"/>
</svg>
