<?xml version="1.0" encoding="utf-8"?>
<!-- Generator: Adobe Illustrator 21.0.0, SVG Export Plug-In . SVG Version: 6.00 Build 0)  -->
<svg version="1.1" id="Слой_1" xmlns="http://www.w3.org/2000/svg" xmlns:xlink="http://www.w3.org/1999/xlink" x="0px" y="0px"
	 viewBox="0 0 17 11" style="enable-background:new 0 0 17 11;" xml:space="preserve">
<path style="fill:#393939;" d="M4.7,8C3.9,8,3.2,8.7,3.2,9.5c0,0.8,0.7,1.5,1.5,1.5c0.9,0,1.5-0.7,1.5-1.5C6.3,8.7,5.6,8,4.7,8z
	 M4.7,9.9c-0.3,0-0.5-0.2-0.5-0.4C4.3,9.2,4.5,9,4.7,9C5,9,5.2,9.2,5.2,9.5C5.2,9.7,5,9.9,4.7,9.9z M12.4,8c-0.9,0-1.5,0.7-1.5,1.5
	c0,0.8,0.7,1.5,1.5,1.5s1.5-0.7,1.5-1.5C13.9,8.7,13.3,8,12.4,8z M12.4,9.9c-0.3,0-0.5-0.2-0.5-0.4c0-0.2,0.2-0.4,0.5-0.4
	c0.3,0,0.5,0.2,0.5,0.4C12.9,9.7,12.7,9.9,12.4,9.9z M16.9,8.4C16.9,8.4,16.9,8.4,16.9,8.4c-0.6,0-1-0.4-1-0.9
	c0-0.4,0.3-0.8,0.7-0.9l0-0.3c-0.1-0.5-0.6-1-1.1-1H14l-0.4,0c-0.1,0-0.4-0.1-0.4-0.2l-1.4-2.7c-0.2-0.4-0.8-0.8-1.2-0.8H7.3V0
	l-6,0.1c-0.2,0,0,0.3,0,0.6c0,0,0,0,0.1,0h4.1v1H1.9c-0.6,0-1,0.5-1,1v1.9C0.8,4.4,0.7,4.3,0.5,4.3C0.2,4.3,0,4.5,0,4.8v2.9
	C0,8,0.2,8.2,0.5,8.2c0.2,0,0.3-0.1,0.4-0.2v1c0,0.6,0.5,1,1,1h0.4c0-0.2,0-0.3,0-0.5c0-1.3,1.1-2.4,2.5-2.4c1.4,0,2.5,1.1,2.5,2.4
	c0,0.2,0,0.3,0,0.5H10c0-0.2,0-0.3,0-0.5c0-1.3,1.1-2.4,2.5-2.4c1.4,0,2.5,1.1,2.5,2.4c0,0.2,0,0.3,0,0.4H16c0.3,0,0.6-0.1,0.7-0.3
	C16.9,9.4,17,9.2,17,8.9L16.9,8.4z M5.5,5.3l-1.7,0v-2h1.7V5.3z M8.1,5.3l-1.7,0v-2h1.7V5.3z M9,5.3V3.3h2.2l1,2L9,5.3z M1.3,0.7
	C1.3,0.7,1.3,0.7,1.3,0.7C1.3,0.9,1.2,0.8,1.3,0.7z"/>
</svg>
