<?xml version="1.0" encoding="utf-8"?>
<!-- Generator: Adobe Illustrator 21.0.0, SVG Export Plug-In . SVG Version: 6.00 Build 0)  -->
<svg version="1.1" id="Слой_1" xmlns="http://www.w3.org/2000/svg" xmlns:xlink="http://www.w3.org/1999/xlink" x="0px" y="0px"
	 viewBox="0 0 16 13" style="enable-background:new 0 0 16 13;" xml:space="preserve">
<path style="fill:#393939;" d="M16,6.6c0,0.1,0,0.2-0.1,0.2l-0.6,0.7c-0.1,0.1-0.1,0.1-0.2,0.1h0c-0.1,0-0.2,0-0.2-0.1L8,1.7
	L1.1,7.6C1.1,7.6,1,7.7,0.9,7.7c-0.1,0-0.2-0.1-0.2-0.1L0.1,6.8C0,6.7,0,6.6,0,6.6c0-0.1,0-0.2,0.1-0.2l7.1-6.1C7.5,0.1,7.7,0,8,0
	c0.3,0,0.5,0.1,0.8,0.3l2.4,2.1v-2c0-0.1,0-0.2,0.1-0.2C11.3,0.1,11.4,0,11.5,0h1.9c0.1,0,0.2,0,0.2,0.1c0.1,0.1,0.1,0.1,0.1,0.2
	v4.1l2.2,1.8C16,6.4,16,6.5,16,6.6z M8,2.6L2.3,7.4c0,0,0,0,0,0c0,0,0,0,0,0v4.9c0,0.2,0.1,0.3,0.2,0.5C2.6,12.9,2.7,13,2.9,13h3.8
	V9.1h2.5V13h3.8c0.2,0,0.3-0.1,0.4-0.2c0.1-0.1,0.2-0.3,0.2-0.5V7.5c0,0,0,0,0-0.1L8,2.6z"/>
</svg>
