<svg 
 xmlns="http://www.w3.org/2000/svg"
 xmlns:xlink="http://www.w3.org/1999/xlink"
 width="22px" height="14px">
<path fill-rule="evenodd"  opacity="0.6" fill="rgb(255, 255, 255)"
 d="M21.697,12.255 C21.463,12.511 21.117,12.660 20.749,12.660 L19.189,12.660 C19.226,12.446 19.246,12.282 19.246,12.087 C19.246,10.401 17.811,9.027 16.046,9.027 C14.282,9.027 12.847,10.400 12.847,12.087 C12.847,12.282 12.867,12.446 12.904,12.661 L9.281,12.661 C9.318,12.446 9.338,12.283 9.338,12.088 C9.338,10.401 7.903,9.027 6.138,9.027 C4.374,9.027 2.938,10.400 2.938,12.087 C2.938,12.282 2.959,12.446 2.995,12.661 L2.521,12.661 C1.780,12.661 1.195,12.078 1.195,11.370 L1.195,10.154 C1.046,10.318 0.871,10.426 0.650,10.426 C0.300,10.426 -0.000,10.154 -0.000,9.819 L-0.000,6.106 C-0.000,5.771 0.300,5.499 0.650,5.499 C0.871,5.499 1.046,5.607 1.195,5.771 L1.195,3.349 C1.195,2.641 1.780,2.023 2.521,2.023 L7.097,2.023 L7.097,0.809 L1.805,0.809 C1.745,0.809 1.708,0.825 1.679,0.847 C1.641,0.532 1.385,0.102 1.692,0.102 L9.487,-0.009 L9.487,2.023 L13.677,2.023 C14.316,2.023 15.009,2.452 15.289,3.001 L17.037,6.445 C17.116,6.600 17.391,6.754 17.572,6.755 L18.130,6.735 L20.077,6.735 C20.788,6.735 21.421,7.283 21.516,7.958 L21.567,8.336 C21.018,8.447 20.606,8.913 20.606,9.471 C20.606,10.112 21.149,10.632 21.820,10.632 C21.845,10.632 21.868,10.630 21.892,10.629 L21.988,11.301 C22.037,11.650 21.931,11.998 21.697,12.255 ZM7.097,4.164 L4.930,4.164 L4.930,6.774 L7.097,6.775 L7.097,4.164 ZM10.458,4.164 L8.292,4.164 L8.292,6.775 L10.458,6.775 L10.458,4.164 ZM14.546,4.164 L11.654,4.164 L11.654,6.775 L15.864,6.769 L14.546,4.164 ZM1.679,0.847 C1.682,0.870 1.692,0.897 1.692,0.919 C1.692,1.177 1.552,0.942 1.679,0.847 ZM6.138,10.168 C7.245,10.168 8.143,11.026 8.143,12.084 C8.143,13.142 7.245,14.000 6.138,14.000 C5.031,14.000 4.134,13.142 4.134,12.084 C4.134,11.026 5.031,10.168 6.138,10.168 ZM6.138,12.655 C6.468,12.655 6.736,12.399 6.736,12.084 C6.736,11.768 6.468,11.513 6.138,11.513 C5.808,11.513 5.541,11.768 5.541,12.084 C5.541,12.399 5.808,12.655 6.138,12.655 ZM16.047,10.168 C17.154,10.168 18.051,11.026 18.051,12.084 C18.051,13.142 17.154,14.000 16.047,14.000 C14.940,14.000 14.042,13.142 14.042,12.084 C14.042,11.026 14.940,10.168 16.047,10.168 ZM16.049,12.655 C16.379,12.655 16.646,12.399 16.646,12.084 C16.646,11.768 16.379,11.513 16.049,11.513 C15.719,11.513 15.451,11.768 15.451,12.084 C15.451,12.399 15.719,12.655 16.049,12.655 Z"/>
</svg>