<?xml version="1.0" encoding="utf-8"?>
<!-- Generator: Adobe Illustrator 21.0.0, SVG Export Plug-In . SVG Version: 6.00 Build 0)  -->
<svg version="1.1" id="Слой_1" xmlns="http://www.w3.org/2000/svg" xmlns:xlink="http://www.w3.org/1999/xlink" x="0px" y="0px"
	 viewBox="0 0 16 19" style="enable-background:new 0 0 16 19;" xml:space="preserve">
<path style="fill:#393939;" d="M14.4,13.7c-0.2,0-0.3,0.1-0.5,0.3c-0.3,0.2-0.7,0.6-1.5,0.6c-0.8,0-1.2-0.3-1.5-0.6
	c-0.2-0.2-0.4-0.3-0.7-0.3c-0.3,0-0.5,0.1-0.7,0.3c-0.3,0.2-0.7,0.6-1.5,0.6c-0.8,0-1.2-0.3-1.5-0.6c-0.2-0.2-0.4-0.3-0.7-0.3
	c-0.3,0-0.5,0.1-0.7,0.3c-0.3,0.2-0.7,0.6-1.5,0.6S2.5,14.3,2.2,14c-0.2-0.2-0.3-0.3-0.5-0.3L0,16.2h6.4V19h3.3v-2.8H16L14.4,13.7z
	 M3.3,11.1l-1.1,1.6c0.3,0.1,0.5,0.3,0.6,0.4c0.2,0.2,0.4,0.3,0.7,0.3c0.3,0,0.5-0.1,0.7-0.3c0.3-0.2,0.7-0.6,1.5-0.6
	c0.8,0,1.2,0.3,1.5,0.6c0.2,0.2,0.4,0.3,0.7,0.3c0.3,0,0.5-0.1,0.7-0.3c0.3-0.2,0.7-0.6,1.5-0.6c0.8,0,1.2,0.3,1.5,0.6
	c0.2,0.2,0.4,0.3,0.7,0.3c0.3,0,0.5-0.1,0.7-0.3c0.2-0.1,0.4-0.3,0.6-0.4l-1.1-1.6h2.2l-3.2-4.4h1.8L8,0L2.6,6.7h1.8l-3.2,4.4H3.3z"
	/>
</svg>
