<?xml version="1.0" encoding="utf-8"?>
<!-- Generator: Adobe Illustrator 21.0.0, SVG Export Plug-In . SVG Version: 6.00 Build 0)  -->
<svg version="1.1" id="Слой_1" xmlns="http://www.w3.org/2000/svg" xmlns:xlink="http://www.w3.org/1999/xlink" x="0px" y="0px"
	 viewBox="0 0 16 16" style="enable-background:new 0 0 16 16;" xml:space="preserve">
<path style="fill:#393939;" d="M8,0C3.6,0,0,3.6,0,8c0,4.4,3.6,8,8,8c4.4,0,8-3.6,8-8C16,3.6,12.4,0,8,0z M10.2,11.1
	c-0.4,0.4-1,0.7-1.7,0.8V13H7.5v-1.1c-1.2-0.1-2-0.8-2.3-2.2l1.5-0.4c0.1,0.8,0.6,1.2,1.3,1.2c0.4,0,0.6-0.1,0.8-0.3
	C9,10.1,9.1,9.9,9.1,9.7c0-0.3-0.1-0.5-0.3-0.6C8.7,8.9,8.3,8.8,7.7,8.6C7.2,8.4,6.8,8.2,6.5,8C6.2,7.9,6,7.6,5.8,7.3
	C5.6,7,5.5,6.6,5.5,6.2c0-0.6,0.2-1.1,0.5-1.5C6.3,4.2,6.8,4,7.5,3.9V3h0.9v0.9c1.1,0.1,1.7,0.7,2.1,1.8L9.2,6.2
	C9,5.5,8.6,5.1,8,5.1c-0.3,0-0.5,0.1-0.6,0.2C7.2,5.5,7.2,5.7,7.2,5.9c0,0.2,0.1,0.4,0.2,0.5c0.2,0.1,0.5,0.3,1,0.5
	c0.6,0.2,1,0.4,1.3,0.6C10,7.7,10.3,8,10.5,8.3c0.2,0.3,0.3,0.7,0.3,1.1C10.8,10.1,10.6,10.6,10.2,11.1z"/>
</svg>
