<?xml version="1.0" encoding="utf-8"?>
<!-- Generator: Adobe Illustrator 19.0.1, SVG Export Plug-In . SVG Version: 6.00 Build 0)  -->
<svg version="1.1" id="Layer_1" xmlns="http://www.w3.org/2000/svg" xmlns:xlink="http://www.w3.org/1999/xlink" x="0px" y="0px"
	 viewBox="0 0 25 18" style="enable-background:new 0 0 25 18;" xml:space="preserve">
<style type="text/css">
	.st0{fill:#FFFFFF;}
</style>
<path class="st0" d="M22.6,10.5c0.8-2.2-0.8-8.2-2.7-8.9c-1.9-0.7-3.1-0.8-3.1-0.8s-5.1-2.8-6.3,1.6c0,0-3.3,0.1-6.1,3.3
	C1.7,6.4,0,9.4,0,10.2c0.2,0,1.2-0.5,1.2-0.5c0.5-1.5,1.4-1.8,1.8-1.8L3,7.8C1.7,10.1,0.8,13.4,0.7,18H1h2.5h0.8c0,0,0-0.8-0.5-1.3
	c0.4-1.5,1-3.4,1.3-3.3C5.3,13.5,4.7,18,4.7,18H5h3h0.3c0,0,0-0.8-0.5-1.3c0.1-2.9,1-4.4,3.7-4c0.7,0.1-1.3,5.3-1.3,5.3h0.7h3h0.3
	c0,0,0-1.1-0.9-1.6c0-0.6,0.2-2.2,0.6-2.2c0.4,0,1.9,3.8,1.9,3.8h3.1H19c0,0,0-1.6-1.5-1.8c-0.2-0.5-0.3-0.9-0.5-1.4
	c-0.3-1.1-1.3-4.6-1.3-4.6s-0.1-0.4,0.4-0.6c0.7-0.3,0.8-0.3,0.9,0c0.2,0.3,0.4,0.6,0.7,0.4c0.3-0.2,0.5-0.1,0.7,0.2
	c0.2,0.3,1.5,1.6,1.5,1.6s0,0,0.1,0.1c0.1,0.1,0.1,0.2,0,0.4c-0.2,0.3-0.3,0.4-0.5,0.5c-0.2,0-0.6-0.1-0.4-0.3
	c0.2-0.2,0.1-0.4-0.2-0.6c-0.2-0.2-0.5-0.4-0.7,0c-0.2,0.5-1.1,2.4,1.1,2.4c0.9,0,1.6-0.5,2.2-1.3c1,0.5,2.3,0.9,3.5,0.4
	c-1.3-0.3-2.2-0.5-3-1.2C22.2,11.5,22.4,11,22.6,10.5z"/>
</svg>
