<?xml version="1.0" encoding="utf-8"?>
<!-- Generator: Adobe Illustrator 21.0.0, SVG Export Plug-In . SVG Version: 6.00 Build 0)  -->
<svg version="1.1" id="Слой_1" xmlns="http://www.w3.org/2000/svg" xmlns:xlink="http://www.w3.org/1999/xlink" x="0px" y="0px"
	 viewBox="0 0 21 9" style="enable-background:new 0 0 21 9;" xml:space="preserve">
<style type="text/css">
	.st0{fill:#2E2E2E;}
</style>
<path class="st0" d="M0.5,4.8C0.5,4.8,0.5,4.8,0.5,4.8C0.2,4.8,0,5,0,5.2c0,0.3,0.2,0.5,0.4,0.5L7.7,7L5.5,8.2
	C5.4,8.3,5.3,8.5,5.3,8.7C5.4,8.9,5.5,9,5.7,9l1.5,0c0,0,0.1,0,0.1,0L13,7.1l5.7,0c2.2,0,2.3-0.8,2.3-1.1c0-0.2-0.1-0.5-0.4-0.8
	C20.3,5,19.8,4.7,19,4.5c-0.3-0.1-0.4-0.2-0.5-0.2C18,4,17.7,3.8,15.6,3.8L4.5,3.8L2.1,0.2C2,0.1,1.8,0,1.7,0L0.9,0
	C0.8,0,0.6,0.1,0.5,0.2C0.4,0.3,0.4,0.4,0.4,0.6l0.8,4.2L0.5,4.8z"/>
</svg>
