<?xml version="1.0" encoding="utf-8"?>
<!-- Generator: Adobe Illustrator 19.0.1, SVG Export Plug-In . SVG Version: 6.00 Build 0)  -->
<svg version="1.1" id="Layer_1" xmlns="http://www.w3.org/2000/svg" xmlns:xlink="http://www.w3.org/1999/xlink" x="0px" y="0px"
	 viewBox="0 0 26.7 17.5" style="enable-background:new 0 0 26.7 17.5;" xml:space="preserve">
<style type="text/css">
	.st0{fill:#FFFFFF;}
</style>
<g>
	<g>
		<path class="st0" d="M2,1.5C2,1.4,2,1.4,2,1.5C1.8,1.5,2,1.8,2,1.5z M26,14.2l-0.1-0.8c0,0-0.1,0-0.1,0c-0.8,0-1.4-0.6-1.4-1.4
			c0-0.7,0.5-1.3,1.1-1.4l-0.1-0.5c-0.1-0.8-0.9-1.5-1.7-1.5h-2.3l-0.7,0c-0.2,0-0.5-0.2-0.6-0.4L18.1,4c-0.3-0.7-1.1-1.2-1.9-1.2
			h-5V0.3L2,0.5C1.6,0.5,1.9,1,2,1.4c0,0,0.1,0,0.1,0h6.3v1.5H3c-0.9,0-1.6,0.8-1.6,1.6v3C1.2,7.2,1,7.1,0.8,7.1
			C0.4,7.1,0,7.4,0,7.8v4.5c0,0.4,0.4,0.7,0.8,0.7c0.3,0,0.5-0.1,0.6-0.3v1.5c0,0.9,0.7,1.6,1.6,1.6h0.6c0-0.3-0.1-0.5-0.1-0.7
			c0-2.1,1.7-3.7,3.8-3.7c2.1,0,3.8,1.7,3.8,3.7c0,0.2,0,0.4-0.1,0.7h4.3c0-0.3-0.1-0.5-0.1-0.7c0-2.1,1.7-3.7,3.8-3.7
			s3.8,1.7,3.8,3.7c0,0.2,0,0.4-0.1,0.7h1.8c0.4,0,0.8-0.2,1.1-0.5C25.9,15,26,14.6,26,14.2z M8.4,8.6l-2.6,0V5.4h2.6V8.6z
			 M12.4,8.6l-2.6,0V5.4h2.6V8.6z M13.8,8.6V5.4h3.4l1.6,3.2L13.8,8.6z M7.3,12.8c-1.3,0-2.4,1-2.4,2.3c0,1.3,1.1,2.3,2.4,2.3
			c1.3,0,2.4-1,2.4-2.3C9.6,13.8,8.6,12.8,7.3,12.8z M7.3,15.8c-0.4,0-0.7-0.3-0.7-0.7c0-0.4,0.3-0.7,0.7-0.7c0.4,0,0.7,0.3,0.7,0.7
			C8,15.5,7.6,15.8,7.3,15.8z M19,12.8c-1.3,0-2.4,1-2.4,2.3c0,1.3,1.1,2.3,2.4,2.3c1.3,0,2.4-1,2.4-2.3
			C21.3,13.8,20.3,12.8,19,12.8z M19,15.8c-0.4,0-0.7-0.3-0.7-0.7c0-0.4,0.3-0.7,0.7-0.7c0.4,0,0.7,0.3,0.7,0.7
			C19.7,15.5,19.4,15.8,19,15.8z"/>
	</g>
</g>
</svg>
