<?xml version="1.0" encoding="utf-8"?>
<!-- Generator: Adobe Illustrator 21.0.0, SVG Export Plug-In . SVG Version: 6.00 Build 0)  -->
<svg version="1.1" id="Слой_1" xmlns="http://www.w3.org/2000/svg" xmlns:xlink="http://www.w3.org/1999/xlink" x="0px" y="0px"
	 viewBox="0 0 18 18" style="enable-background:new 0 0 18 18;" xml:space="preserve">
<style type="text/css">
	.st0{fill:#2E2E2E;}
</style>
<g>
	<g>
		<path class="st0" d="M16.9,10.5c-0.6-0.6-1.4-1-2.3-1.1c0.7-0.7,1.2-1.6,1.2-2.7c0-2-1.6-3.7-3.6-3.7c-1.9,0-3.5,1.5-3.6,3.4
			c1.7,0.7,2.9,2.5,2.9,4.5c0,0.7-0.2,1.4-0.5,2.1c0.4,0.2,0.8,0.5,1.2,0.9c0.9,0.9,1.4,2.2,1.4,3.5l0,0l0,0l0,0.6H18l0-4.9
			C18,12.1,17.6,11.2,16.9,10.5z M9.1,13.6c0.7-0.7,1.2-1.6,1.2-2.7c0-2-1.6-3.7-3.6-3.7c-2,0-3.7,1.6-3.7,3.7
			c0,1.1,0.5,2.1,1.2,2.7c-1.9,0.1-3.4,1.7-3.4,3.7l0,0.7h11.6l0-0.7c0-1-0.4-1.9-1.1-2.7C10.8,14,10,13.7,9.1,13.6z M2.4,4.4v1.4
			c0,0.6,0.5,1,1,1c0.6,0,1-0.5,1-1V4.4h1.4c0.6,0,1-0.5,1-1c0-0.6-0.5-1-1-1H4.4V1c0-0.6-0.5-1-1-1c-0.6,0-1,0.5-1,1v1.3H1
			c-0.6,0-1,0.5-1,1c0,0.6,0.5,1,1,1H2.4z"/>
	</g>
</g>
</svg>
