<?xml version="1.0" encoding="utf-8"?>
<!-- Generator: Adobe Illustrator 21.0.0, SVG Export Plug-In . SVG Version: 6.00 Build 0)  -->
<svg version="1.1" id="Слой_1" xmlns="http://www.w3.org/2000/svg" xmlns:xlink="http://www.w3.org/1999/xlink" x="0px" y="0px"
	 viewBox="0 0 14 11" style="enable-background:new 0 0 14 11;" xml:space="preserve">
<style type="text/css">
	.st0{fill:#353535;}
</style>
<g>
	<g>
		<path class="st0" d="M7,2.2L2,6.3c0,0,0,0,0,0c0,0,0,0,0,0v4.1c0,0.1,0.1,0.3,0.2,0.4C2.3,10.9,2.4,11,2.6,11h3.3V7.7h2.2V11h3.3
			c0.2,0,0.3-0.1,0.4-0.2c0.1-0.1,0.2-0.2,0.2-0.4V6.3c0,0,0,0,0-0.1L7,2.2z M13.9,5.4L12,3.8V0.3c0-0.1,0-0.1-0.1-0.2
			C11.9,0,11.8,0,11.7,0h-1.7C10,0,9.9,0,9.9,0.1C9.8,0.2,9.8,0.2,9.8,0.3V2L7.7,0.2C7.5,0.1,7.3,0,7,0C6.7,0,6.5,0.1,6.3,0.2
			L0.1,5.4C0,5.4,0,5.5,0,5.5c0,0.1,0,0.1,0.1,0.2l0.5,0.6c0,0.1,0.1,0.1,0.2,0.1c0.1,0,0.1,0,0.2-0.1l6-4.9l6,4.9
			c0,0,0.1,0.1,0.2,0.1h0c0.1,0,0.1,0,0.2-0.1l0.5-0.6C14,5.7,14,5.6,14,5.5C14,5.5,14,5.4,13.9,5.4z"/>
	</g>
</g>
</svg>
