<?xml version="1.0" encoding="utf-8"?>
<!-- Generator: Adobe Illustrator 21.0.0, SVG Export Plug-In . SVG Version: 6.00 Build 0)  -->
<svg version="1.1" id="Слой_1" xmlns="http://www.w3.org/2000/svg" xmlns:xlink="http://www.w3.org/1999/xlink" x="0px" y="0px"
	 viewBox="0 0 18 18" style="enable-background:new 0 0 18 18;" xml:space="preserve">
<style type="text/css">
	.st0{fill:#353535;}
</style>
<path class="st0" d="M9.2,7.4c-0.7,1.7,3,1.8,4.6,2.7c1.7,0.8,2.4,2.6,2.8,2.6c2.1-2.7-1.2-6.5-1.2-6.5S14.3,5.7,14,4.5
	c-0.3-1.2,0.9-3,0.7-2.1c-0.2,0.9,1.1,1.4,1.3,2c0.1,0.6,0,1.6,0,1.6s3.5,2.1,1.3,7.1c0.8,3.4-1,3.4-1,3.4s0.6,1.2-1.1,1.2
	c-1.7,0-2.7,0-4.3,0c-1.6,0-0.4-1.3,0.3-1.3c0.7,0,1.2,0,1.5,0c-0.1,0-2.1-0.2-1.7-1.5c-2.5,0.2-5.9-0.8-5.9-0.8S3.5,18,2.3,18
	c-1.2,0-2.2,0.1-2.1-0.6c0.2-1.3,2-0.1,2.1-2.5c0.1-1.4,0.9-2.5,0.9-2.5S1.1,11,1.8,6.7c-0.2,0-0.9,0.1-1.2-0.3
	c-0.2-0.4,0-0.9,0-0.9s-0.9-1.2-0.5-2c0.4-0.7,2-0.9,2.8-1c0.3-2.9,1.6-2.9,3.6-2C9.8,0.1,10.7,5.2,9.2,7.4z"/>
</svg>
