<?xml version="1.0" encoding="utf-8"?>
<!-- Generator: Adobe Illustrator 21.0.0, SVG Export Plug-In . SVG Version: 6.00 Build 0)  -->
<svg version="1.1" id="Слой_1" xmlns="http://www.w3.org/2000/svg" xmlns:xlink="http://www.w3.org/1999/xlink" x="0px" y="0px"
	 viewBox="0 0 22 20" style="enable-background:new 0 0 22 20;" xml:space="preserve">
<style type="text/css">
	.st0{fill:#FFFFFF;}
</style>
<g>
	<g>
		<path class="st0" d="M7.5,10.3c0-0.2,0-0.5,0.1-0.7C7.6,9,7.7,8.4,7.8,7.9C7.9,7.6,8,7.3,8.1,7c0.1-0.3,0.2-0.5,0.3-0.8
			c0.2-0.5,0.5-1,0.8-1.4c0.1-0.1,0.2-0.2,0.2-0.3c0.1-0.1,0.2-0.2,0.3-0.3c0.2-0.2,0.3-0.3,0.5-0.5c0.3-0.3,0.7-0.5,1-0.7
			c0.3-0.2,0.6-0.3,0.8-0.4c0.5-0.2,0.7-0.3,0.7-0.3S12.5,2.7,12.1,3c-0.2,0.1-0.4,0.3-0.7,0.6c-0.3,0.2-0.5,0.5-0.8,0.8
			c-0.1,0.1-0.3,0.3-0.4,0.5c-0.1,0.1-0.1,0.2-0.2,0.3C10,5.2,10,5.3,9.9,5.4C9.6,5.8,9.5,6.2,9.3,6.7C9.2,6.9,9.1,7.1,9,7.4
			C9,7.6,8.9,7.9,8.8,8.1c-0.1,0.5-0.2,1-0.2,1.6c0,0.2,0,0.4-0.1,0.6c4.2,0,7.5,0,12.1,0c0-0.2,0-0.4,0-0.6c0-3.9-2.8-7.1-6.4-7.6
			c0.2-0.2,0.4-0.5,0.4-0.9c0-0.7-0.5-1.2-1.2-1.2c-0.7,0-1.2,0.5-1.2,1.2c0,0.4,0.1,0.7,0.4,0.9C9,2.5,6.1,5.8,6.1,9.7
			c0,0.2,0,0.4,0,0.6H7.5z M4.8,10.7v1.5H22v-1.5H4.8z M14.9,13.4c-0.9,0.4-3.9,1.5-3.9,1.5l-3.6-0.2c0,0,2.1-0.6,2.9-0.8
			c0.8-0.2,0.5-1.1,0-1.1C9.9,12.8,6,13,6,13l-2.6,0.9l0.7,4.3c0,0,0.5-0.9,1.1-0.9c0.5,0,5.1,0.1,5.7,0c0.6-0.1,4.4-2.7,4.9-3
			C16.2,14,15.8,12.9,14.9,13.4z M0,14.4V20l3.9-0.7l-1-5.4L0,14.4z"/>
	</g>
</g>
</svg>
