<?xml version="1.0" encoding="utf-8"?>
<!-- Generator: Adobe Illustrator 21.0.0, SVG Export Plug-In . SVG Version: 6.00 Build 0)  -->
<svg version="1.1" id="Слой_1" xmlns="http://www.w3.org/2000/svg" xmlns:xlink="http://www.w3.org/1999/xlink" x="0px" y="0px"
	 viewBox="0 0 25 25" style="enable-background:new 0 0 25 25;" xml:space="preserve">
<style type="text/css">
	.st0{fill:#FFFFFF;}
</style>
<g>
	<g>
		<path class="st0" d="M14.5,14.5v3.7c0.1-0.1,0.1-0.2,0.2-0.2c1.1-1.2,2.4-2.2,3.7-2.7c0.2-0.1,0.3-0.1,0.5-0.2
			c0.2-0.1,0.4-0.2,0.6-0.2v-2.3l-7-7.8l-7.2,7.9v2.1c0.3,0.1,0.6,0.2,0.9,0.3c0.2,0.1,0.3,0.1,0.5,0.2c1.2,0.5,2.6,1.5,3.7,2.7
			c0,0,0,0,0,0v-3.5c0-1.2,1-2.1,2.1-2.1S14.5,13.4,14.5,14.5z M12.5,2.7l7.3,8.1h2.4L12.5,0L2.7,10.8h2.5L12.5,2.7z M24.4,12.8
			c-0.4,0-0.8,0.4-1.1,1.4c-0.5,2.1-2.3,3.7-3.7,4.1c-0.1,0-0.2,0-0.2,0c-0.5,0,2.2-1.3,1.9-1.9C21.1,16.1,21,16,20.7,16
			c-0.5,0-1.1,0.3-1.8,0.6c-1.2,0.4-2.3,1.4-3.1,2.3c-0.9,1.1-2.1,2.5-2.5,6.1h4.1c0.1-1,0.4-1.5,0.8-1.8c0.7-0.6,4.7-2.5,5.6-3.8
			c0.9-1.4,1.4-4.9,1.4-6C25,13.1,24.7,12.8,24.4,12.8z M6.1,16.6C5.4,16.3,4.8,16,4.3,16c-0.3,0-0.5,0.1-0.6,0.4
			c-0.3,0.6,2.5,1.9,1.9,1.9c0,0-0.1,0-0.2,0c-1.5-0.3-3.3-2-3.7-4.1c-0.2-1.1-0.7-1.4-1.1-1.4c-0.4,0-0.6,0.3-0.6,0.7
			c0,1.1,0.5,4.6,1.4,6c0.9,1.4,4.9,3.2,5.6,3.8C7.3,23.5,7.7,24,7.7,25h4.1c-0.4-3.5-1.6-5-2.5-6.1C8.4,18,7.3,17,6.1,16.6z"/>
	</g>
</g>
</svg>
