<?xml version="1.0" encoding="utf-8"?>
<!-- Generator: Adobe Illustrator 21.0.0, SVG Export Plug-In . SVG Version: 6.00 Build 0)  -->
<svg version="1.1" id="Слой_1" xmlns="http://www.w3.org/2000/svg" xmlns:xlink="http://www.w3.org/1999/xlink" x="0px" y="0px"
	 viewBox="0 0 22 19" style="enable-background:new 0 0 22 19;" xml:space="preserve">
<style type="text/css">
	.st0{fill:#FFFFFF;}
</style>
<g>
	<g>
		<path class="st0" d="M13.5,2.3c0.6-0.3,1.4-0.4,2.1-0.4c0.4,0,0.8,0.1,1.2,0.1c0.1,0,0.3-0.1,0.3-0.2L17,1.3C17,0.6,16.1,0,15.1,0
			c-1,0-2,0.6-2,1.4l0,0.7C13.2,2.3,13.4,2.4,13.5,2.3z M22,14.9l0-0.1c0,0,0,0,0,0l-0.8-4.3c-0.1-1-0.8-1.9-1.9-2.4l-0.4-3.1
			c0-1.3-1.5-2.4-3.2-2.4c-1.8,0-3.5,1.1-3.5,2.4c0,0.1,0,0.1,0,0.2l0,0.3c-0.4-0.1-0.8-0.2-1.2-0.2c-0.4,0-0.8,0.1-1.2,0.2l0-0.3
			c0-0.1,0-0.1,0-0.2c0-1.3-1.7-2.4-3.5-2.4c-1.8,0-3.2,1.1-3.2,2.4L2.7,8c-1,0.5-1.7,1.4-1.9,2.4l-0.8,4.3c0,0,0,0,0,0l0,0.1
			c0,0.1,0,0.3,0,0.4c0,2,2.1,3.7,4.7,3.7c2.6,0,4.7-1.7,4.7-3.7v-1.7c0.5,0.2,1,0.3,1.6,0.3c0.6,0,1.1-0.1,1.6-0.3v1.7
			c0,2,2.1,3.7,4.7,3.7c2.6,0,4.7-1.7,4.7-3.7C22,15.2,22,15,22,14.9z M4.7,17.7c-1.8,0-3.4-1.1-3.4-2.4c0-1.3,1.6-2.4,3.4-2.4
			c1.8,0,3.4,1.1,3.4,2.4S6.5,17.7,4.7,17.7z M11,12.8c-0.8,0-1.4-0.4-1.4-1c0-0.5,0.6-1,1.4-1c0.8,0,1.4,0.4,1.4,1
			C12.4,12.3,11.8,12.8,11,12.8z M17.3,17.7c-1.8,0-3.4-1.1-3.4-2.4c0-1.3,1.6-2.4,3.4-2.4c1.8,0,3.4,1.1,3.4,2.4
			S19.1,17.7,17.3,17.7z M5.2,2C5.6,1.9,6,1.9,6.4,1.9c0.7,0,1.4,0.2,2.1,0.4c0.1,0.1,0.3,0,0.3-0.2l0-0.7c0-0.8-1-1.4-2-1.4
			C5.9,0,5,0.6,5,1.3L4.9,1.8C4.9,1.9,5.1,2,5.2,2z"/>
	</g>
</g>
</svg>
