<?xml version="1.0" encoding="utf-8"?>
<!-- Generator: Adobe Illustrator 21.0.0, SVG Export Plug-In . SVG Version: 6.00 Build 0)  -->
<svg version="1.1" id="Слой_1" xmlns="http://www.w3.org/2000/svg" xmlns:xlink="http://www.w3.org/1999/xlink" x="0px" y="0px"
	 viewBox="0 0 25 15" style="enable-background:new 0 0 25 15;" xml:space="preserve">
<style type="text/css">
	.st0{fill:#FFFFFF;}
</style>
<g>
	<g>
		<path class="st0" d="M12.5,0c0,0-3.4,3-3.4,6.7c0,3.7,3.4,6.7,3.4,6.7s3.4-3,3.4-6.7C15.9,3,12.5,0,12.5,0z M10,12.8
			c-0.1-0.2-0.3-0.3-0.4-0.5c-0.6-0.8-1-1.6-1.4-2.4C7.8,8.8,7.6,7.7,7.6,6.7c0-1,0.2-2.1,0.6-3.2c0,0,0,0,0-0.1
			C6.5,2.7,4.8,2.5,4.8,2.5S3.7,7,5.9,10C6.9,11.5,8.6,12.4,10,12.8z M7,13.1c-1-0.6-1.8-1.3-2.4-2.2c-0.6-0.8-1-1.8-1.3-3
			C1.5,8.4,0,9.3,0,9.3s1.8,4.3,5.2,5.4c1.7,0.6,3.6,0.2,5-0.3c-0.2-0.1-0.4-0.1-0.7-0.2C8.6,13.9,7.8,13.6,7,13.1z M17.4,6.7
			c0,1-0.2,2.1-0.6,3.2c-0.3,0.8-0.8,1.6-1.4,2.4c-0.1,0.2-0.3,0.4-0.4,0.5c1.4-0.5,3.1-1.3,4.1-2.8c2.1-3,1.1-7.5,1.1-7.5
			s-1.7,0.1-3.5,0.9c0,0,0,0,0,0.1C17.2,4.6,17.4,5.7,17.4,6.7z M21.6,8c-0.3,1.1-0.7,2.1-1.3,3c-0.6,0.8-1.4,1.6-2.4,2.2
			c-0.7,0.5-1.6,0.9-2.5,1.2c-0.2,0.1-0.5,0.1-0.7,0.2c1.4,0.5,3.2,0.8,5,0.3c3.5-1.1,5.2-5.4,5.2-5.4S23.5,8.4,21.6,8z"/>
	</g>
</g>
</svg>
