<?xml version="1.0" encoding="utf-8"?>
<!-- Generator: Adobe Illustrator 21.0.0, SVG Export Plug-In . SVG Version: 6.00 Build 0)  -->
<svg version="1.1" id="Слой_1" xmlns="http://www.w3.org/2000/svg" xmlns:xlink="http://www.w3.org/1999/xlink" x="0px" y="0px"
	 viewBox="0 0 16 25" style="enable-background:new 0 0 16 25;" xml:space="preserve">
<style type="text/css">
	.st0{fill:#FFFFFF;}
</style>
<g>
	<g>
		<path class="st0" d="M8,0C3.6,0,0,3.6,0,8C0,8,0,8.1,0,8.2c0.4-0.4,0.8-0.8,1.5-0.8c1.2,0,1.7,1,2.1,1.7c0.4,0.8,0.7,1.1,1.1,1.1
			c0.4,0,0.6-0.4,1.1-1.1c0.4-0.8,1-1.7,2.1-1.7s1.7,1,2.1,1.7c0.4,0.8,0.7,1.1,1.1,1.1c0.4,0,0.6-0.4,1.1-1.1
			c0.4-0.8,1-1.7,2.1-1.7c0.7,0,1.2,0.4,1.5,0.8C16,8.1,16,8,16,8C16,3.6,12.4,0,8,0z M14.4,8.6c-0.4,0-0.6,0.4-1.1,1.1
			c-0.4,0.8-1,1.7-2.1,1.7c-1.2,0-1.7-1-2.1-1.7C8.6,9,8.4,8.6,8,8.6C7.6,8.6,7.4,9,6.9,9.8c-0.4,0.8-1,1.7-2.1,1.7
			c-1.2,0-1.7-1-2.1-1.7C2.2,9,2,8.6,1.5,8.6C1.1,8.6,0.9,9,0.5,9.8c0,0-0.1,0.1-0.1,0.1c1,2.7,3.5,6.1,5.3,9h4.5
			c1.9-3,4.4-6.3,5.3-9c0,0-0.1-0.1-0.1-0.1C15.1,9,14.9,8.6,14.4,8.6z M4.9,24c0,0.6,0.5,1,1,1h4.1c0.6,0,1-0.5,1-1v-3.4H4.9V24z"
			/>
	</g>
</g>
</svg>
