<?xml version="1.0" encoding="utf-8"?>
<!-- Generator: Adobe Illustrator 21.0.0, SVG Export Plug-In . SVG Version: 6.00 Build 0)  -->
<svg version="1.1" id="Слой_1" xmlns="http://www.w3.org/2000/svg" xmlns:xlink="http://www.w3.org/1999/xlink" x="0px" y="0px"
	 viewBox="0 0 16 16" style="enable-background:new 0 0 16 16;" xml:space="preserve">
<style type="text/css">
	.st0{fill:#FFFFFF;}
</style>
<path class="st0" d="M16,1.5c0-0.5-0.1-0.9-0.4-1.1l0,0C15.3,0.1,15,0,14.5,0c-1,0-2.3,0.6-2.8,1.2c-0.4,0.4-0.9,0.9-1.4,1.5
	L3.6,1.2c-0.1,0-0.1,0-0.2,0c-0.3,0-0.6,0.1-0.8,0.3L1.8,2.4C1.7,2.5,1.6,2.7,1.6,2.8C1.7,3,1.8,3.1,2,3.2l5.7,2.6
	C7,6.5,6.3,7.3,5.7,8.1c-0.4,0.5-0.8,1-1.2,1.5L1.2,9.2C1,9.2,0.8,9.3,0.7,9.4L0.1,10C0,10,0,10.2,0,10.3c0,0.1,0.1,0.2,0.2,0.3
	L2.8,12c-0.7,1.1-0.7,1.5-0.5,1.7l0,0c0.1,0.1,0.2,0.1,0.3,0.1c0.3,0,0.7-0.2,1.3-0.6l1.4,2.5C5.5,15.9,5.6,16,5.8,16
	C5.9,16,6,16,6,15.9l0.5-0.5c0.1-0.1,0.2-0.4,0.2-0.6l-0.3-3.3c1.2-0.9,2.5-2,3.8-3.1l2.5,5.6c0.1,0.2,0.3,0.3,0.5,0.3
	c0.1,0,0.3-0.1,0.4-0.2l0.8-0.8c0.2-0.2,0.3-0.7,0.3-1l-1.5-6.7c0.6-0.6,1.2-1.1,1.6-1.4C15.4,3.8,16,2.6,16,1.5z"/>
</svg>
