<?xml version="1.0" encoding="utf-8"?>
<!-- Generator: Adobe Illustrator 21.0.0, SVG Export Plug-In . SVG Version: 6.00 Build 0)  -->
<svg version="1.1" id="Слой_1" xmlns="http://www.w3.org/2000/svg" xmlns:xlink="http://www.w3.org/1999/xlink" x="0px" y="0px"
	 viewBox="0 0 28 24" style="enable-background:new 0 0 28 24;" xml:space="preserve">
<style type="text/css">
	.st0{fill:#FFFFFF;}
</style>
<g>
	<g>
		<path class="st0" d="M27.4,14.4c-1.4,0-3.7,0.8-4.8,2.1c-1.5-1.3-4.6-2.3-7.6-3c-1.1-1.6-1.2-2.8-1.1-3.5c0-0.2,0-0.4-0.2-0.5
			c-0.1-0.1-0.3-0.2-0.5-0.1c-1.9,0.4-3,2-3.5,3.3c0,0-0.1,0-0.1,0c-3,0-7.2,2.3-7.2,5.2c0,2.9,4.3,5.2,7.2,5.2c0.1,0,0.2,0,0.3,0
			c1.1,0.6,2.3,0.9,3.2,0.9c1.1,0,0.6-0.5-0.1-1.3c3.3-0.6,7.7-1.9,9.5-3.4c1.1,1.2,3.3,2.1,4.8,2.1c2,0-1.1-1.5-1.1-3.5
			C26.2,16,29.3,14.4,27.4,14.4z M5.7,17.9c-0.5,0-0.8-0.4-0.8-0.8c0-0.4,0.4-0.8,0.8-0.8c0.5,0,0.8,0.4,0.8,0.8
			C6.5,17.6,6.2,17.9,5.7,17.9z M1,13.2c-0.6,0-1,0.4-1,1c0,0.5,0.5,1,1,1c0.6,0,1-0.4,1-1C2,13.7,1.6,13.2,1,13.2z M3.2,10.1
			c-0.4,0-0.8,0.3-0.8,0.8s0.3,0.8,0.8,0.8S4,11.3,4,10.9S3.6,10.1,3.2,10.1z M1.8,7.3c0.8,0,1.4-0.6,1.4-1.3c0-0.7-0.6-1.3-1.4-1.3
			C1,4.6,0.4,5.2,0.4,6C0.4,6.7,1,7.3,1.8,7.3z M3.9,1.5c0.4,0,0.8-0.3,0.8-0.8C4.7,0.3,4.3,0,3.9,0C3.5,0,3.1,0.3,3.1,0.8
			C3.1,1.2,3.5,1.5,3.9,1.5z"/>
	</g>
</g>
</svg>
