<?xml version="1.0" encoding="utf-8"?>
<!-- Generator: Adobe Illustrator 21.0.0, SVG Export Plug-In . SVG Version: 6.00 Build 0)  -->
<svg version="1.1" id="Слой_1" xmlns="http://www.w3.org/2000/svg" xmlns:xlink="http://www.w3.org/1999/xlink" x="0px" y="0px"
	 viewBox="0 0 23 16" style="enable-background:new 0 0 23 16;" xml:space="preserve">
<style type="text/css">
	.st0{fill:#FFFFFF;}
</style>
<path class="st0" d="M22.3,8.9l-2.5-0.4c-1.2-0.3-2.2-0.5-3.1,0.5l-1.4,0c1.3-1.4,1.8-2.4,2.2-3.4c0.2-0.5,0.4-1,0.6-1.6
	c0,0,0,0,0-0.1c0.8-1.8,1.1-3.2,1.1-3.2c0-0.2,0-0.4-0.1-0.5c-0.1-0.1-0.3-0.2-0.5-0.1c-0.1,0-1.4,0.3-3.3,1.1
	c-1.6,0.7-4.9,2.9-7,4.8L6.8,6C6.5,4.8,5.4,3.8,4.2,3.5L1.7,2.7c-0.1,0-0.3,0-0.4,0C1.1,2.8,1.1,3,1,3.1L0.3,5.6
	C0.2,5.9,0.3,6.2,0.6,6.3L3.1,7c1.2,0.4,2.1,0.7,3.2-0.1l1.4,0c-1.1,1.5-1.3,1.9-2,3.2c-0.4,0.7-0.6,1.3-0.9,1.8
	c-0.8,1.9-1.1,3.2-1.1,3.3c0,0.2,0,0.4,0.1,0.5c0.1,0.1,0.2,0.2,0.4,0.2c0,0,0.1,0,0.1,0c0.1,0,1.4-0.3,3.3-1.1
	c1.6-0.7,4.9-2.9,7-4.8l1.6,0.1c0.3,1.2,1.7,2,2.9,2.2l2.5,0.5c0.1,0,0.3,0,0.4-0.1c0.1-0.1-0.9,1.6-0.8,1.5l1.6-4.4
	c0-0.1,0-0.3-0.1-0.4C22.6,9.2,22.5,9,22.3,8.9z M10.7,10.6c-0.5,0.2-0.8,0.3-1.1,0.3c-0.3,0-0.6-0.1-0.7-0.3
	c-0.3-0.3-0.5-0.8,0.1-1.8C9.1,8.4,9,8.5,9.5,8l1.3,0.1c-0.3,0.4-0.6,0.7-0.8,1.1C9.8,9.5,9.7,9.7,9.7,9.8c0.1,0,0.4-0.1,0.7-0.3
	c0.3-0.2,0.8-0.2,1.1-0.5h1C12,9.5,11.1,10.4,10.7,10.6z M13.5,8l-1.3-0.1c0.3-0.4,0.6-0.7,0.8-1.1c0.2-0.3,0.3-0.5,0.3-0.7
	c-0.1,0-0.4,0.1-0.7,0.3c-0.3,0.2-0.7,0.5-1.1,0.8L10.5,7c0.5-0.5,1.4-1.4,1.8-1.6c1-0.5,1.6-0.3,1.8-0.1c0.3,0.3,0.5,0.8-0.1,1.8
	C13.9,7.6,14,7.5,13.5,8z"/>
</svg>
