<?xml version="1.0" encoding="utf-8"?>
<!-- Generator: Adobe Illustrator 21.0.0, SVG Export Plug-In . SVG Version: 6.00 Build 0)  -->
<svg version="1.1" id="Слой_1" xmlns="http://www.w3.org/2000/svg" xmlns:xlink="http://www.w3.org/1999/xlink" x="0px" y="0px"
	 viewBox="0 0 17 19" style="enable-background:new 0 0 17 19;" xml:space="preserve">
<style type="text/css">
	.st0{fill:#FFFFFF;}
</style>
<path class="st0" d="M16.7,14.5L15.1,13c0.1-0.1,0.2-0.1,0.2-0.2c0.4-0.5,0.3-1.1,0.2-1.7c0-0.4-0.1-0.7,0-0.9
	c0.1-0.2,0.3-0.5,0.6-0.7C16.5,9,17,8.5,17,7.9c0-0.6-0.5-1.1-0.9-1.5c-0.2-0.2-0.5-0.5-0.6-0.7c-0.1-0.2,0-0.6,0-0.9
	c0.1-0.6,0.2-1.2-0.2-1.7c-0.4-0.5-1-0.6-1.6-0.7c-0.4-0.1-0.7-0.1-0.9-0.3c-0.2-0.1-0.4-0.5-0.5-0.8c-0.3-0.5-0.6-1.1-1.2-1.3
	C11,0,10.9,0,10.7,0c-0.4,0-0.9,0.2-1.3,0.4C9.1,0.6,8.8,0.7,8.5,0.7c-0.3,0-0.6-0.2-0.9-0.3C7.1,0.2,6.7,0,6.3,0C6.1,0,6,0,5.9,0.1
	C5.3,0.2,5,0.8,4.7,1.3C4.5,1.6,4.4,1.9,4.2,2.1C4,2.2,3.6,2.3,3.2,2.4C2.7,2.5,2,2.6,1.7,3.1C1.3,3.5,1.4,4.2,1.5,4.7
	c0,0.4,0.1,0.7,0,0.9C1.4,5.9,1.2,6.2,0.9,6.4C0.5,6.8,0,7.3,0,7.9C0,8.5,0.5,9,0.9,9.4c0.2,0.2,0.5,0.5,0.6,0.7
	c0.1,0.2,0,0.6,0,0.9c-0.1,0.6-0.2,1.2,0.2,1.7c0.1,0.1,0.2,0.2,0.2,0.2l-1.6,1.5C-0.1,14.9,0,15.3,0,15.5c0.1,0.1,0.2,0.5,0.8,0.5
	l1.5,0.1c0.3,0,0.5,0.3,0.6,0.5l0.1,1.5C3.2,18.8,3.6,19,3.9,19h0c0.2,0,0.4-0.1,0.7-0.3l3.6-3.5c0.1,0,0.2-0.1,0.3-0.1
	c0.1,0,0.2,0,0.3,0.1l3.6,3.5c0.3,0.3,0.5,0.3,0.7,0.3c0.3,0,0.7-0.2,0.8-0.9l0.1-1.5c0-0.3,0.3-0.5,0.6-0.5l1.5-0.1
	c0.6,0,0.8-0.4,0.8-0.5C17,15.3,17.1,14.9,16.7,14.5z M10,8.8l0.9,2.8L8.5,9.8l-2.4,1.7L7,8.8L4.6,7.1h3l0.9-2.8l0.9,2.8h3L10,8.8z"
	/>
</svg>
