<?xml version="1.0" encoding="utf-8"?>
<!-- Generator: Adobe Illustrator 21.0.0, SVG Export Plug-In . SVG Version: 6.00 Build 0)  -->
<svg version="1.1" id="Слой_1" xmlns="http://www.w3.org/2000/svg" xmlns:xlink="http://www.w3.org/1999/xlink" x="0px" y="0px"
	 viewBox="0 0 20 16" style="enable-background:new 0 0 20 16;" xml:space="preserve">
<style type="text/css">
	.st0{fill:#FFFFFF;}
</style>
<path class="st0" d="M20,4c0,1-0.8,1.9-1.8,1.9c-0.1,0-0.2,0-0.3,0l-1.5,5.5v2H3.7v-2.1L2.2,5.8c-0.1,0-0.2,0-0.3,0C0.8,5.9,0,5,0,4
	c0-1,0.8-1.9,1.8-1.9c1,0,1.8,0.8,1.8,1.9c0,0.3-0.1,0.5-0.1,0.7c1.8,0.6,4.6,1.2,5.9-1c-0.7-0.2-1.3-1-1.3-1.8C8.2,0.8,9,0,10,0
	c1,0,1.8,0.8,1.8,1.9c0,0.8-0.5,1.5-1.3,1.8c0.7,1.4,2.4,2.9,6,1.2c-0.1-0.3-0.2-0.6-0.2-0.9c0-1,0.8-1.9,1.8-1.9S20,2.9,20,4z
	 M3.7,16h12.7v-1.8H3.7V16z"/>
</svg>
