<?xml version="1.0" encoding="utf-8"?>
<!-- Generator: Adobe Illustrator 21.0.0, SVG Export Plug-In . SVG Version: 6.00 Build 0)  -->
<svg version="1.1" id="Слой_1" xmlns="http://www.w3.org/2000/svg" xmlns:xlink="http://www.w3.org/1999/xlink" x="0px" y="0px"
	 viewBox="0 0 20 20" style="enable-background:new 0 0 20 20;" xml:space="preserve">
<style type="text/css">
	.st0{fill:#FFFFFF;}
</style>
<g>
	<g>
		<path class="st0" d="M20,18.1l-1.8-7.3c-0.1-0.5-0.6-0.8-1.1-0.7c0,0-3.5,0.7-3.6,0.7c-0.7,1.3-1.4,2.5-2,3.6
			c-0.3,0.5-0.8,0.8-1.4,0.8c-0.6,0-1.1-0.3-1.4-0.8c-1-1.7-2.1-3.7-3-5.5l-3.2,1.3c-0.3,0.1-0.5,0.4-0.6,0.7L0,18
			c-0.1,0.3,0,0.7,0.3,0.9c0.2,0.2,0.6,0.3,0.9,0.2l5-1.4c0.2,0,0.4,0,0.5,0l6.4,2.1c0.1,0,0.3,0,0.4,0l5.5-0.7
			c0.3,0,0.5-0.2,0.7-0.4C20,18.6,20.1,18.3,20,18.1z M10,13.8c0.1,0,0.2-0.1,0.3-0.2c1-1.7,4.1-7.1,4.1-9.1C14.4,2,12.4,0,10,0
			C7.6,0,5.6,2,5.6,4.5c0,2.1,3.1,7.5,4.1,9.1C9.8,13.7,9.9,13.8,10,13.8z M7.8,4.5c0-1.2,0.9-2.2,2.1-2.2c1.2,0,2.1,0.9,2.1,2.2
			c0,1.2-0.9,2.2-2.1,2.2C8.8,6.6,7.8,5.7,7.8,4.5z"/>
	</g>
</g>
</svg>
