<?xml version="1.0" encoding="utf-8"?>
<!-- Generator: Adobe Illustrator 21.0.0, SVG Export Plug-In . SVG Version: 6.00 Build 0)  -->
<svg version="1.1" id="Слой_1" xmlns="http://www.w3.org/2000/svg" xmlns:xlink="http://www.w3.org/1999/xlink" x="0px" y="0px"
	 viewBox="0 0 22 21" style="enable-background:new 0 0 22 21;" xml:space="preserve">
<path style="fill:#FFFFFF;" d="M12.8,6c1.4,0.5,3.2,1,3.6-1.2c0.3-1.7,2.6-1.1,3.6-1.2c1.8-0.2,0.4-3.6-1.8-3.6C16,0,15,0.9,14,3
	c-0.4,1-0.8,1.7-2.4,1.2C10,3.7,8.9,5,9.8,6.6c0.9,1.4,0,3,0,3h2.4c0,0,0-0.9-0.6-1.8C11,6.8,11.4,5.5,12.8,6z M0,21
	c6.2-4.5,7.8-10.8,7.8-10.8h6.4c0,0,1.6,6.3,7.8,10.8H0z"/>
</svg>
