<?xml version="1.0" encoding="utf-8"?>
<!-- Generator: Adobe Illustrator 21.0.0, SVG Export Plug-In . SVG Version: 6.00 Build 0)  -->
<svg version="1.1" id="Слой_1" xmlns="http://www.w3.org/2000/svg" xmlns:xlink="http://www.w3.org/1999/xlink" x="0px" y="0px"
	 viewBox="0 0 26 16" style="enable-background:new 0 0 26 16;" xml:space="preserve">
<g>
	<g>
		<path style="fill:#FFFFFF;" d="M4.2,2.1c0.4,2.2,0.1,4.5,0.5,6.3C3.4,8.3,1.9,8.6,0,9.3c2.8,3.6,3.6,8.5,9.5,6
			c-0.1-0.4-0.1-0.8-0.1-1.2c-1.5-0.6-4.4-2.1-6.6-3.5c2-0.1,4.9,1.3,6.5,2.9c0-0.5-0.1-1.1-0.1-1.6l0,0v-0.2l0,0v-0.1l0,0v-0.2l0,0
			v0l0,0l0,0v0l0-0.1v0l0-0.1c0-0.1,0-0.1,0-0.2l0-0.1l0,0l0,0v0l0,0v0l0,0l0,0l0,0c0-0.2,0-0.4,0-0.7C8.3,8.6,7,6.5,6.1,4.7
			c1.3,0.7,2.6,2.3,3.5,3.9c0.2-1.2,0.6-2.3,1.2-3.3C9.6,3.8,7.6,2.6,4.2,2.1z M11.1,15.3C25.2,17.4,23.1,8.1,26,0
			C13-0.2,9.8,6.2,11.1,15.3z M12.2,14.2c1.1-3.9,5.9-9.1,9.8-10.3C18.8,8.1,14.1,13,12.2,14.2z"/>
	</g>
</g>
</svg>
