<?xml version="1.0" encoding="utf-8"?>
<!-- Generator: Adobe Illustrator 21.0.0, SVG Export Plug-In . SVG Version: 6.00 Build 0)  -->
<svg version="1.1" id="Слой_1" xmlns="http://www.w3.org/2000/svg" xmlns:xlink="http://www.w3.org/1999/xlink" x="0px" y="0px"
	 viewBox="0 0 21 21" style="enable-background:new 0 0 21 21;" xml:space="preserve">
<style type="text/css">
	.st0{fill:#FFFFFF;}
</style>
<g>
	<g>
		<path class="st0" d="M8.6,3.7L8.4,5.1C8.3,5.6,8.8,5.9,9.3,5.7l1.2-0.6l1.2,0.6c0.5,0.2,1-0.2,0.9-0.7l-0.2-1.3l1-0.9
			c0.4-0.4,0.2-1-0.3-1.1l-1.4-0.2L11,0.3c-0.2-0.4-0.9-0.4-1.1,0L9.3,1.5L8,1.7C7.4,1.8,7.2,2.4,7.6,2.8L8.6,3.7z M20.5,5.5
			l-1.4-0.2l-0.6-1.2c-0.2-0.4-0.9-0.4-1.1,0l-0.6,1.2l-1.4,0.2c-0.5,0.1-0.7,0.7-0.3,1.1l1,0.9l-0.2,1.3c-0.1,0.5,0.4,0.9,0.9,0.7
			l1.2-0.6l1.2,0.6c0.5,0.2,1-0.2,0.9-0.7l-0.2-1.3l1-0.9C21.2,6.2,21,5.6,20.5,5.5z M5.2,8.8L5,7.5l1-0.9c0.4-0.4,0.2-1-0.3-1.1
			L4.2,5.3L3.6,4.1c-0.2-0.4-0.9-0.4-1.1,0L1.9,5.3L0.5,5.5C0,5.6-0.2,6.2,0.2,6.5l1,0.9L0.9,8.8C0.9,9.3,1.4,9.7,1.8,9.5l1.2-0.6
			l1.2,0.6C4.8,9.7,5.3,9.3,5.2,8.8z M12.7,13.5c0.9-0.7,1.5-1.7,1.5-2.9c0-2-1.7-3.7-3.7-3.7c-2,0-3.7,1.7-3.7,3.7
			c0,1.2,0.6,2.3,1.5,2.9c-2,0.9-3.3,2.8-3.3,5.1v1.8C5,20.7,5.2,21,5.6,21h9.8c0.3,0,0.6-0.3,0.6-0.6v-1.8
			C16,16.3,14.7,14.3,12.7,13.5z"/>
	</g>
</g>
</svg>
