<?xml version="1.0" encoding="utf-8"?>
<!-- Generator: Adobe Illustrator 21.0.0, SVG Export Plug-In . SVG Version: 6.00 Build 0)  -->
<svg version="1.1" id="Слой_1" xmlns="http://www.w3.org/2000/svg" xmlns:xlink="http://www.w3.org/1999/xlink" x="0px" y="0px"
	 viewBox="0 0 30 9" style="enable-background:new 0 0 30 9;" xml:space="preserve">
<g>
	<g>
		<path style="fill:#FFFFFF;" d="M3.1,6.6c0,0.3-0.1,0.5-0.2,0.7C2.8,7.4,2.7,7.5,2.4,7.5c-0.3,0-0.5-0.1-0.6-0.3
			C1.7,7.1,1.7,6.9,1.7,6.7V0.3H0.4v6.4c0,0.7,0.2,1.2,0.5,1.6c0.3,0.4,0.8,0.5,1.6,0.5c0.7,0,1.2-0.2,1.6-0.6
			c0.3-0.4,0.5-0.9,0.5-1.7V0.3H3.1V6.6z M8.8,5.1C8.8,5.1,8.8,5.1,8.8,5.1C8.8,5.2,8.7,5.2,8.8,5.1L8.3,4C8.2,3.8,8.1,3.6,8,3.4
			C8,3.2,7.9,3,7.8,2.8l-1-2.5H5.6v8.4h1.3V3.8h0C7.1,4.2,7.3,4.6,7.4,5c0.2,0.4,0.3,0.8,0.5,1.2l1,2.5h1.1V0.3H8.8V5.1z M11.3,8.7
			H15V7.5h-2.4V5h2.1V3.8h-2.1V1.5H15V0.3h-3.7V8.7z M17.2,1.8c0.1-0.1,0.1-0.2,0.2-0.3c0.1-0.1,0.2-0.1,0.4-0.1
			c0.3,0,0.5,0.1,0.6,0.3c0.1,0.2,0.2,0.4,0.2,0.7l1.3-0.3c0-0.2,0-0.4-0.1-0.7c-0.1-0.2-0.2-0.4-0.3-0.6c-0.2-0.2-0.4-0.4-0.6-0.5
			c-0.3-0.1-0.6-0.2-1-0.2c-0.4,0-0.7,0.1-0.9,0.2c-0.3,0.1-0.5,0.3-0.7,0.5C16.1,1,16,1.3,15.9,1.6c-0.1,0.3-0.1,0.6-0.1,0.9
			c0,0.3,0,0.5,0.1,0.7c0,0.2,0.1,0.4,0.3,0.6c0.1,0.2,0.3,0.4,0.6,0.6c0.2,0.2,0.6,0.4,1,0.5C17.8,5,18,5.1,18.1,5.2
			c0.1,0.1,0.2,0.2,0.3,0.3c0.1,0.1,0.1,0.2,0.1,0.4c0,0.1,0,0.3,0,0.5c0,0.2,0,0.3,0,0.5c0,0.1,0,0.3-0.1,0.4
			c-0.1,0.1-0.1,0.2-0.2,0.3c-0.1,0.1-0.2,0.1-0.4,0.1c-0.3,0-0.5-0.1-0.6-0.3C17.1,7,17,6.8,17,6.5l-1.3,0.3c0,0.3,0,0.5,0.1,0.8
			C15.9,7.8,16,8,16.2,8.2c0.2,0.2,0.4,0.3,0.7,0.4c0.3,0.1,0.6,0.2,0.9,0.2c0.4,0,0.7-0.1,1-0.2c0.3-0.1,0.5-0.3,0.7-0.5
			c0.2-0.2,0.3-0.5,0.3-0.8c0.1-0.3,0.1-0.6,0.1-1c0-0.3,0-0.6-0.1-0.8c0-0.2-0.1-0.5-0.2-0.7c-0.1-0.2-0.3-0.4-0.5-0.5
			c-0.2-0.2-0.5-0.3-0.9-0.5c-0.3-0.1-0.5-0.2-0.6-0.3c-0.2-0.1-0.3-0.2-0.3-0.3c-0.1-0.1-0.1-0.2-0.1-0.3c0-0.1,0-0.2,0-0.4
			c0-0.1,0-0.2,0-0.4C17.1,2,17.1,1.9,17.2,1.8z M22.1,2.1c0-0.1,0.1-0.2,0.1-0.3c0.1-0.1,0.1-0.2,0.2-0.2c0.1-0.1,0.2-0.1,0.4-0.1
			c0.3,0,0.4,0.1,0.6,0.3c0.1,0.2,0.2,0.4,0.2,0.7l1.3-0.3c0-0.3,0-0.5-0.1-0.8c-0.1-0.2-0.2-0.4-0.4-0.6c-0.2-0.2-0.4-0.3-0.6-0.4
			c-0.3-0.1-0.5-0.1-0.9-0.1c-0.4,0-0.7,0.1-1,0.2c-0.3,0.1-0.5,0.3-0.6,0.5c-0.2,0.2-0.3,0.5-0.3,0.7c-0.1,0.3-0.1,0.6-0.1,0.9v4.2
			c0,0.7,0.2,1.2,0.5,1.5c0.3,0.4,0.8,0.5,1.5,0.5c0.7,0,1.1-0.2,1.5-0.6c0.3-0.4,0.5-0.9,0.5-1.5c-0.2,0-0.4-0.1-0.7-0.1
			c-0.2,0-0.4-0.1-0.7-0.1c0,0.7-0.3,1-0.7,1c-0.1,0-0.3,0-0.4-0.1c-0.1-0.1-0.2-0.1-0.2-0.2c-0.1-0.1-0.1-0.2-0.1-0.3
			c0-0.1,0-0.2,0-0.3V2.4C22.1,2.3,22.1,2.2,22.1,2.1z M29.7,1.5c-0.1-0.3-0.2-0.5-0.3-0.7c-0.2-0.2-0.4-0.3-0.6-0.4
			c-0.3-0.1-0.6-0.2-1-0.2c-0.4,0-0.7,0.1-0.9,0.2c-0.3,0.1-0.5,0.3-0.6,0.5C26,1,25.9,1.2,25.8,1.5c-0.1,0.3-0.1,0.6-0.1,0.9v4.2
			c0,0.7,0.2,1.2,0.5,1.6c0.3,0.4,0.8,0.5,1.5,0.5c0.7,0,1.2-0.2,1.6-0.6c0.3-0.4,0.5-0.9,0.5-1.7V2.4C29.8,2.1,29.8,1.8,29.7,1.5z
			 M28.5,6.6c0,0.3-0.1,0.5-0.2,0.7c-0.1,0.2-0.3,0.3-0.6,0.3c-0.3,0-0.5-0.1-0.6-0.3C27.1,7.1,27,6.9,27,6.7V2.4c0-0.1,0-0.2,0-0.3
			c0-0.1,0.1-0.2,0.1-0.3c0.1-0.1,0.1-0.2,0.2-0.3c0.1-0.1,0.2-0.1,0.4-0.1c0.3,0,0.5,0.1,0.6,0.3c0.1,0.2,0.2,0.4,0.2,0.6V6.6z"/>
	</g>
</g>
</svg>
