<?xml version="1.0" encoding="utf-8"?>
<!-- Generator: Adobe Illustrator 21.0.0, SVG Export Plug-In . SVG Version: 6.00 Build 0)  -->
<svg version="1.1" id="Слой_1" xmlns="http://www.w3.org/2000/svg" xmlns:xlink="http://www.w3.org/1999/xlink" x="0px" y="0px"
	 viewBox="0 0 24 24" style="enable-background:new 0 0 24 24;" xml:space="preserve">
<path style="fill:#FFFFFF;" d="M23.7,7.9c-1.5-1.2-3.9-2.1-7.4-0.8c-0.6-0.6-1.2-1.1-1.9-1.5c0.2-0.6,0.4-1.2,0.4-1.9
	C14.8,1.7,13.5,0,12,0l0,0l0,0c-1.5,0-2.8,1.7-2.8,3.8c0,0.7,0.1,1.4,0.4,1.9C8.9,6,8.2,6.5,7.7,7.2C4.2,5.8,1.8,6.7,0.3,7.9
	C0,8.1-0.1,8.5,0,8.8c0.1,0.3,0.4,0.5,0.8,0.5c1.7,0,3.5,0.6,4.9,1.2c-0.3,1-0.5,2.2-0.5,3.4c0,2.1,0.5,4,1.5,5.5
	c-1,1.2-1.3,2.6-1.4,3.7c0,0.3,0.2,0.7,0.5,0.8c0.3,0.1,0.7,0,0.9-0.2C7.4,23,8.1,22.4,9,21.8c0.9,0.6,1.9,0.9,3,0.9s2.1-0.3,3-0.9
	c0.8,0.5,1.6,1.1,2.2,1.9c0.2,0.3,0.6,0.4,0.9,0.2c0.3-0.1,0.5-0.4,0.5-0.8c-0.1-1.1-0.4-2.5-1.4-3.7c0.9-1.5,1.5-3.4,1.5-5.5
	c0-1.2-0.2-2.4-0.5-3.4c1.4-0.6,3.2-1.2,4.9-1.2c0.4,0,0.7-0.2,0.8-0.5C24.1,8.5,24,8.1,23.7,7.9z"/>
</svg>
