<?xml version="1.0" encoding="utf-8"?>
<!-- Generator: Adobe Illustrator 21.0.0, SVG Export Plug-In . SVG Version: 6.00 Build 0)  -->
<svg version="1.1" id="Слой_1" xmlns="http://www.w3.org/2000/svg" xmlns:xlink="http://www.w3.org/1999/xlink" x="0px" y="0px"
	 viewBox="0 0 17 19" style="enable-background:new 0 0 17 19;" xml:space="preserve">
<g>
	<g>
		<path style="fill:#FFFFFF;" d="M5.9,9.6c0.6-0.6,1-1.4,1-2.4c0-0.3-0.1-0.7-0.3-1.1C6.5,5.7,6.2,5.3,5.9,4.9c0,0,0,0,0,0
			C5.3,4,4.5,3.1,3.9,2.4L3.5,1.9L3.1,2.4C1.8,3.8,0,5.8,0,7.2C0,8.2,0.4,9,1,9.6c0.6,0.6,1.5,1,2.5,1C4.4,10.6,5.3,10.2,5.9,9.6z
			 M15.2,0.1L15.1,0L15,0.1c-0.8,0.9-1.8,2-1.8,2.9c0,0.5,0.2,1,0.6,1.3c0.4,0.3,0.8,0.5,1.4,0.5c0.5,0,1-0.2,1.4-0.5
			C16.8,4,17,3.5,17,3C17,2.1,15.9,1,15.2,0.1z M8.6,2.9C8.3,3.2,7.9,3.6,7.6,4L7,4.6C7.3,5,7.5,5.4,7.6,5.8C7.9,6.3,8,6.8,8,7.2
			c0,1.2-0.5,2.3-1.3,3.1c-0.8,0.8-1.9,1.3-3.2,1.3c-0.3,0-0.6,0-0.8-0.1c-0.1,0-0.2,0-0.3-0.1c0,0.2-0.1,0.3-0.1,0.5
			c-0.1,0.3-0.1,0.6-0.1,0.9c0,1.7,0.7,3.3,1.9,4.4C5.2,18.3,6.8,19,8.6,19c1.8,0,3.4-0.7,4.6-1.8c1.2-1.1,1.9-2.7,1.9-4.4
			c0-2.7-3.2-6.2-5.4-8.8C9.2,3.6,8.9,3.2,8.6,2.9z"/>
	</g>
</g>
</svg>
