<?xml version="1.0" encoding="utf-8"?>
<!-- Generator: Adobe Illustrator 21.0.0, SVG Export Plug-In . SVG Version: 6.00 Build 0)  -->
<svg version="1.1" id="Слой_1" xmlns="http://www.w3.org/2000/svg" xmlns:xlink="http://www.w3.org/1999/xlink" x="0px" y="0px"
	 viewBox="0 0 22 16" style="enable-background:new 0 0 22 16;" xml:space="preserve">
<style type="text/css">
	.st0{fill:#FFFFFF;}
</style>
<g>
	<g>
		<path class="st0" d="M3.9,12.2l0.4-0.1c-0.1-0.2-0.1-0.3-0.2-0.5C3.7,10.1,4.5,8.5,6,8.1s3,0.5,3.4,2c0.1,0.2,0.1,0.3,0.1,0.5
			l3-0.9c-0.1-0.2-0.1-0.3-0.2-0.5c-0.4-1.5,0.4-3.1,1.9-3.5c1.5-0.4,3,0.5,3.4,2c0.1,0.2,0.1,0.3,0.1,0.5L19,7.8
			c0.3-0.1,0.6-0.3,0.7-0.6s0.1-0.6,0-0.9l-0.3-0.6c0,0,0,0-0.1,0c-0.6,0.2-1.1-0.2-1.3-0.7c-0.1-0.5,0.1-1,0.5-1.2l-0.1-0.3
			c-0.3-0.6-0.9-0.9-1.5-0.7l-1.6,0.5l-0.5,0.2c-0.2,0-0.4,0-0.5-0.1L12,0.5c-0.4-0.4-1.1-0.6-1.6-0.5L6.9,1L5,1.5L1.2,2.6
			c-0.7,0.2-1,0.9-0.8,1.5L1,6.3C0.9,6.2,0.7,6.1,0.5,6.2C0.2,6.3,0,6.6,0.1,6.9l1,3.3c0.1,0.3,0.4,0.5,0.7,0.4
			c0.2-0.1,0.3-0.2,0.4-0.4l0.3,1.1C2.7,12,3.3,12.4,3.9,12.2z M11.7,1.7l1.8,2l-3.5,1L9.3,2.4L11.7,1.7z M8.3,2.6L9,5L7.2,5.5
			L6.5,3.2L8.3,2.6z M5.5,3.5l0.7,2.3L4.4,6.3L3.7,4L5.5,3.5z M6.3,9.1c-0.9,0.3-1.4,1.2-1.2,2.2c0.3,0.9,1.2,1.5,2.2,1.2
			c0.9-0.3,1.4-1.2,1.2-2.2C8.2,9.4,7.2,8.9,6.3,9.1z M6.9,11.4c-0.3,0.1-0.6-0.1-0.6-0.4c-0.1-0.3,0.1-0.6,0.3-0.7
			c0.3-0.1,0.6,0.1,0.6,0.4C7.3,11,7.2,11.3,6.9,11.4z M14.5,6.7C13.6,7,13.1,8,13.3,9c0.3,0.9,1.2,1.5,2.2,1.2
			C16.4,9.9,16.9,9,16.7,8C16.4,6.9,15.4,6.4,14.5,6.7z M15.1,9c-0.3,0.1-0.6-0.1-0.6-0.4c-0.1-0.3,0.1-0.6,0.3-0.7
			c0.3-0.1,0.6,0.1,0.6,0.4C15.6,8.6,15.4,8.9,15.1,9z M21.9,9.8c-0.2-0.5-0.7-0.8-1.2-0.7l-16.8,5c-0.5,0.2-0.8,0.7-0.7,1.2
			c0.2,0.5,0.7,0.8,1.2,0.7l16.8-5C21.7,10.9,22,10.4,21.9,9.8z"/>
	</g>
</g>
</svg>
