<?xml version="1.0" encoding="utf-8"?>
<!-- Generator: Adobe Illustrator 19.0.1, SVG Export Plug-In . SVG Version: 6.00 Build 0)  -->
<svg version="1.1" id="Layer_1" xmlns="http://www.w3.org/2000/svg" xmlns:xlink="http://www.w3.org/1999/xlink" x="0px" y="0px"
	 viewBox="0 0 22 22.8" style="enable-background:new 0 0 22 22.8;" xml:space="preserve">
<style type="text/css">
	.st0{fill:#FFFFFF;}
</style>
<g>
	<g>
		<path class="st0" d="M7.4,2.8c0.3,0,0.7,0,1,0.1c0-0.2,0.1-0.4,0.1-0.6c0,0-0.5-1.5-1-1.5h0c-0.6,0-1,1.5-1,1.5
			c0,0.2,0,0.4,0.1,0.6C6.8,2.9,7.1,2.8,7.4,2.8z M11.9,7.3c0,0.3,0,0.7-0.1,1c0.2,0,0.4,0.1,0.6,0.1c0,0,1.5-0.5,1.5-1v0
			c0-0.6-1.5-1-1.5-1c-0.2,0-0.4,0-0.6,0.1C11.8,6.6,11.9,7,11.9,7.3z M6.5,11.6c0,0.2-0.1,0.4-0.1,0.6c0,0,0.5,1.5,1,1.5h0
			c0.6,0,1-1.5,1-1.5c0-0.2,0-0.4-0.1-0.6c-0.3,0.1-0.6,0.1-1,0.1C7.1,11.8,6.8,11.7,6.5,11.6z M3.8,9.8c-0.2,0.1-0.3,0.2-0.4,0.4
			c0,0-0.7,1.4-0.3,1.8l0,0c0.4,0.4,1.8-0.4,1.8-0.4c0.1-0.2,0.2-0.3,0.3-0.5C4.7,10.8,4.2,10.4,3.8,9.8z M3.8,4.7
			c0.4-0.5,0.9-1,1.4-1.3C5.2,3.3,5,3.1,4.9,2.9c0,0-1.4-0.8-1.8-0.4l0,0C2.7,2.9,3.4,4.4,3.4,4.4C3.5,4.5,3.6,4.6,3.8,4.7z
			 M11.1,4.7c0.2-0.1,0.3-0.2,0.4-0.4c0,0,0.7-1.4,0.3-1.8l0,0c-0.4-0.4-1.8,0.4-1.8,0.4C9.8,3.1,9.7,3.3,9.6,3.4
			C10.2,3.8,10.7,4.2,11.1,4.7z M11.1,9.8c-0.4,0.5-0.9,1-1.4,1.3c0.1,0.2,0.2,0.3,0.3,0.5c0,0,1.4,0.8,1.8,0.4l0,0
			c0.4-0.4-0.3-1.8-0.3-1.8C11.4,10.1,11.2,9.9,11.1,9.8z M2.5,8.4c0.2,0,0.4,0,0.6-0.1C3,8,3,7.6,3,7.3c0-0.3,0-0.7,0.1-1
			c-0.2,0-0.4-0.1-0.6-0.1c0,0-1.5,0.5-1.5,1v0C1,7.9,2.5,8.4,2.5,8.4z M4.5,5C4.2,5.5,3.9,6.1,3.8,6.7c0,0.2-0.1,0.4-0.1,0.6
			c0,0.2,0,0.4,0.1,0.6c0.1,0.6,0.4,1.2,0.7,1.7c0.3,0.3,0.6,0.6,0.9,0.8c0.4,0.3,0.9,0.5,1.4,0.5C7,11,7.2,11,7.4,11
			C7.6,11,7.8,11,8,11c0.5-0.1,1-0.3,1.4-0.5c0.3-0.2,0.6-0.5,0.9-0.8c0.4-0.5,0.6-1.1,0.7-1.7c0-0.2,0.1-0.4,0.1-0.6
			c0-0.2,0-0.4-0.1-0.6C11,6.1,10.7,5.5,10.3,5c-0.3-0.3-0.5-0.6-0.9-0.8C9,3.9,8.5,3.7,8,3.6c-0.2,0-0.4-0.1-0.6-0.1
			c-0.2,0-0.4,0-0.6,0.1c-0.5,0.1-1,0.3-1.4,0.5C5.1,4.4,4.8,4.7,4.5,5z M18,15.4l-0.1-0.1c-0.3-0.3-0.8-0.5-1.2-0.5
			c-0.4,0-0.7,0.1-1,0.3l-5,2.6l1.3,0.8l1.3,0.8l1.3,0.7l2.3,1.3l2.1,1.2l0.2,0.1H22L18,15.4z M16.1,21.3L13.8,20l-0.9-0.5l-1.3-0.8
			L10.2,18l-4.6-2.6c-0.2-0.2-0.4-0.2-0.6-0.2c-0.2,0-0.4,0.1-0.6,0.2L0,22.8h18.7l-0.3-0.2L16.1,21.3z"/>
	</g>
</g>
</svg>
