<svg xmlns="http://www.w3.org/2000/svg" width="24" height="24" viewBox="0 0 24 24">
  <defs>
    <style>
      .cls-1 {
        fill: #fff;
        fill-rule: evenodd;
      }
    </style>
  </defs>
  <path id="Forma_1" data-name="Forma 1" class="cls-1" d="M490,300a12,12,0,1,0,12,12A12,12,0,0,0,490,300Zm0.726,17.345v1.389a0.372,0.372,0,0,1-.386.375h-0.925a0.378,0.378,0,0,1-.393-0.375v-1.267A7.914,7.914,0,0,1,486.66,317a0.741,0.741,0,0,1-.456-0.876l0.151-.588a0.742,0.742,0,0,1,.987-0.508,5.952,5.952,0,0,0,2.134.414c1,0,1.677-.385,1.677-1.083,0-.664-0.559-1.083-1.852-1.521-1.869-.628-3.149-1.5-3.149-3.2,0-1.537,1.088-2.742,2.948-3.109v-1.267a0.417,0.417,0,0,1,.4-0.411h0.926a0.4,0.4,0,0,1,.376.411v1.144a6.887,6.887,0,0,1,1.891.316,0.743,0.743,0,0,1,.493.889l-0.132.526a0.741,0.741,0,0,1-.959.518,5.344,5.344,0,0,0-1.765-.292c-1.135,0-1.5.489-1.5,0.979,0,0.576.611,0.943,2.1,1.5,2.078,0.734,2.913,1.694,2.913,3.266A3.347,3.347,0,0,1,490.726,317.345Z" transform="translate(-478 -300)"/>
</svg>
