<?xml version="1.0" encoding="utf-8"?>
<!-- Generator: Adobe Illustrator 21.0.0, SVG Export Plug-In . SVG Version: 6.00 Build 0)  -->
<svg version="1.1" id="Слой_1" xmlns="http://www.w3.org/2000/svg" xmlns:xlink="http://www.w3.org/1999/xlink" x="0px" y="0px"
	 viewBox="0 0 32 32" style="enable-background:new 0 0 32 32;" xml:space="preserve">
<style type="text/css">
	.st0{fill:#E42C66;}
</style>
<g>
	<g>
		<path class="st0" d="M16,19.2c1.8,0,3.2-1.4,3.2-3.2c0-0.7-0.2-1.3-0.6-1.9c-0.6-0.8-1.5-1.3-2.6-1.3c-1.1,0-2,0.5-2.6,1.3
			c-0.4,0.5-0.6,1.2-0.6,1.9C12.8,17.8,14.2,19.2,16,19.2z M23,12.1V9l-0.4,0l-2.7,0l0,3.1L23,12.1z M16,0C7.2,0,0,7.2,0,16
			c0,8.8,7.2,16,16,16c8.8,0,16-7.2,16-16C32,7.2,24.8,0,16,0z M25.1,21.6c0,1.9-1.6,3.5-3.5,3.5H10.4c-1.9,0-3.5-1.6-3.5-3.5V10.4
			c0-1.9,1.6-3.5,3.5-3.5h11.2c1.9,0,3.5,1.6,3.5,3.5V21.6z M21,16c0,2.7-2.2,5-5,5c-2.7,0-5-2.2-5-5c0-0.7,0.1-1.3,0.4-1.9H8.7v7.4
			c0,1,0.8,1.7,1.7,1.7h11.2c1,0,1.7-0.8,1.7-1.7v-7.4h-2.7C20.8,14.7,21,15.3,21,16z"/>
	</g>
</g>
</svg>
