<?xml version="1.0" encoding="utf-8"?>
<!-- Generator: Adobe Illustrator 21.0.0, SVG Export Plug-In . SVG Version: 6.00 Build 0)  -->
<svg version="1.1" id="Слой_1" xmlns="http://www.w3.org/2000/svg" xmlns:xlink="http://www.w3.org/1999/xlink" x="0px" y="0px"
	 viewBox="0 0 12 12" style="enable-background:new 0 0 12 12;" xml:space="preserve">
<style type="text/css">
	.st0{fill:#A7A7A7;}
</style>
<path class="st0" d="M1.5,0h8.9C11.3,0,12,0.6,12,1.5v8.9c0,0.9-0.7,1.5-1.5,1.5H1.5C0.7,12,0,11.4,0,10.5V1.5C0,0.6,0.7,0,1.5,0
	L1.5,0z M8.7,1.3c-0.3,0-0.5,0.2-0.5,0.5v1.3c0,0.3,0.2,0.5,0.5,0.5h1.4c0.3,0,0.5-0.2,0.5-0.5V1.9c0-0.3-0.2-0.5-0.5-0.5H8.7
	L8.7,1.3z M10.6,5.1H9.6c0.1,0.3,0.2,0.7,0.2,1c0,2-1.7,3.6-3.7,3.6C4,9.7,2.3,8.1,2.3,6.1c0-0.4,0.1-0.7,0.2-1H1.3v5.1
	c0,0.3,0.2,0.5,0.5,0.5h8.4c0.3,0,0.5-0.2,0.5-0.5L10.6,5.1L10.6,5.1z M6,3.6c-1.3,0-2.4,1-2.4,2.3S4.7,8.3,6,8.3
	c1.3,0,2.4-1,2.4-2.3S7.3,3.6,6,3.6z"/>
</svg>
