<?xml version="1.0" encoding="utf-8"?>
<!-- Generator: Adobe Illustrator 21.0.0, SVG Export Plug-In . SVG Version: 6.00 Build 0)  -->
<svg version="1.1" id="Слой_1" xmlns="http://www.w3.org/2000/svg" xmlns:xlink="http://www.w3.org/1999/xlink" x="0px" y="0px"
	 viewBox="0 0 16 16" style="enable-background:new 0 0 16 16;" xml:space="preserve">
<g>
	<g>
		<path style="fill:#FFFFFF;" d="M10.1,1.2L9.8,0.5C9.6,0.1,9-0.1,8.6,0.1L2.9,3h0.9L10.1,1.2z M13.2,3L13,2
			c-0.1-0.4-0.5-0.7-0.9-0.7c-0.1,0-0.2,0-0.2,0l-1.5,0.4L5.8,3H13.2z M8.2,10.9V8.8c0-0.4,0.2-0.8,0.4-1.1c0.2-0.3,0.6-0.4,0.9-0.5
			c0.1,0,0.1,0,0.2,0h5.3V4.6c0-0.5-0.4-0.9-0.9-0.9H0.9c-0.3,0-0.5,0.1-0.7,0.4C0.1,4.2,0.1,4.3,0,4.4c0,0.1,0,0.2,0,0.2v10.4
			C0,15.6,0.4,16,0.9,16h13.3c0.5,0,0.9-0.4,0.9-0.9v-2.6H9.7C8.9,12.5,8.2,11.7,8.2,10.9z M15.7,8.1c-0.1-0.1-0.2-0.2-0.3-0.2
			c-0.1,0-0.2-0.1-0.3-0.1H9.7c-0.5,0-0.9,0.4-0.9,0.9v2.1c0,0.5,0.4,0.9,0.9,0.9h5.4c0.1,0,0.2,0,0.3-0.1c0.1,0,0.2-0.1,0.3-0.2
			c0.2-0.2,0.3-0.4,0.3-0.7V8.8C16,8.5,15.9,8.3,15.7,8.1z M11.6,10c0,0.3-0.2,0.5-0.4,0.5h-0.3c-0.2,0-0.4-0.2-0.4-0.5V9.7
			c0-0.1,0.1-0.3,0.2-0.4c0.1-0.1,0.2-0.1,0.3-0.1h0.3c0.2,0,0.4,0.2,0.4,0.5V10z"/>
	</g>
</g>
</svg>
