<?xml version="1.0" encoding="utf-8"?>
<!-- Generator: Adobe Illustrator 21.0.0, SVG Export Plug-In . SVG Version: 6.00 Build 0)  -->
<svg version="1.1" id="Слой_1" xmlns="http://www.w3.org/2000/svg" xmlns:xlink="http://www.w3.org/1999/xlink" x="0px" y="0px"
	 viewBox="0 0 16 16" style="enable-background:new 0 0 16 16;" xml:space="preserve">
<path style="fill:#393939;" d="M16,5c0-0.7-0.1-1.3-0.4-2c-0.3-0.6-0.6-1.1-1.1-1.6c-0.5-0.5-1-0.8-1.6-1.1c-0.6-0.3-1.3-0.4-2-0.4
	c-0.7,0-1.4,0.1-2,0.4C8.2,0.7,7.7,1,7.2,1.5s-0.8,1-1.1,1.6C5.8,3.7,5.7,4.4,5.7,5c0,0.9,0.2,1.7,0.6,2.4l-6.2,6
	C0,13.6,0,13.9,0,14.1c0,0,0,0.1,0.1,0.1l1.4,1.4c0,0,0.1,0.1,0.1,0.1c0.2,0.1,0.4,0,0.6-0.1L3,14.7l1.2,1.2c0,0,0.1,0.1,0.1,0.1
	C4.6,16,4.8,16,5,15.9l1.4-1.3c0,0,0.1-0.1,0.1-0.1c0.1-0.2,0-0.4-0.1-0.6l-1.2-1.2l3.3-3.2c0.8,0.4,1.6,0.6,2.5,0.6
	c0.7,0,1.4-0.1,2-0.4c0.6-0.3,1.2-0.6,1.6-1.1c0.5-0.5,0.8-1,1.1-1.6C15.9,6.4,16,5.7,16,5z M12.6,6.8c-0.5,0.5-1.1,0.7-1.8,0.7
	c-0.7,0-1.3-0.3-1.8-0.7C8.5,6.3,8.3,5.7,8.3,5c0-0.7,0.3-1.3,0.7-1.8c0.5-0.5,1.1-0.7,1.8-0.7c0.7,0,1.3,0.3,1.8,0.7
	c0.5,0.5,0.7,1.1,0.7,1.8C13.4,5.7,13.1,6.3,12.6,6.8z"/>
</svg>
