<?xml version="1.0" encoding="utf-8"?>
<!-- Generator: Adobe Illustrator 21.0.0, SVG Export Plug-In . SVG Version: 6.00 Build 0)  -->
<svg version="1.1" id="Слой_1" xmlns="http://www.w3.org/2000/svg" xmlns:xlink="http://www.w3.org/1999/xlink" x="0px" y="0px"
	 viewBox="0 0 135 14" style="enable-background:new 0 0 135 14;" xml:space="preserve">
<g id="Kilimanjaro_Climbing" style="enable-background:new    ;">
	<path style="fill:#FFFEFE;" d="M0,10.9V0.1h1.4v5.3l5.3-5.3h1.9L4.2,4.5l4.7,6.4H7L3.2,5.4L1.4,7.1v3.7H0z"/>
	<path style="fill:#FFFEFE;" d="M9.9,1.6V0.1h1.3v1.5H9.9z M9.9,10.9V3.1h1.3v7.8H9.9z"/>
	<path style="fill:#FFFEFE;" d="M13.2,10.9V0.1h1.3v10.7H13.2z"/>
	<path style="fill:#FFFEFE;" d="M16.6,1.6V0.1h1.3v1.5H16.6z M16.6,10.9V3.1h1.3v7.8H16.6z"/>
	<path style="fill:#FFFEFE;" d="M20,10.9V3.1h1.2v1.1c0.2-0.4,0.6-0.7,1-0.9C22.5,3,23,2.9,23.5,2.9c0.6,0,1.1,0.1,1.4,0.4
		c0.4,0.2,0.6,0.6,0.8,1c0.6-0.9,1.4-1.4,2.4-1.4c0.8,0,1.4,0.2,1.8,0.6c0.4,0.4,0.6,1.1,0.6,2v5.3h-1.3V6c0-0.5,0-0.9-0.1-1.1
		c-0.1-0.2-0.2-0.4-0.5-0.6c-0.2-0.1-0.5-0.2-0.8-0.2c-0.5,0-1,0.2-1.4,0.5c-0.4,0.4-0.5,0.9-0.5,1.7v4.5h-1.3v-5
		c0-0.6-0.1-1-0.3-1.3s-0.6-0.4-1.1-0.4c-0.4,0-0.7,0.1-1,0.3c-0.3,0.2-0.5,0.5-0.7,0.9c-0.1,0.4-0.2,0.9-0.2,1.6v4H20z"/>
	<path style="fill:#FFFEFE;" d="M37.6,9.9c-0.5,0.4-1,0.7-1.4,0.9c-0.5,0.2-0.9,0.3-1.5,0.3c-0.9,0-1.5-0.2-2-0.6
		C32.3,10,32,9.5,32,8.8c0-0.4,0.1-0.7,0.3-1C32.5,7.4,32.7,7.2,33,7c0.3-0.2,0.6-0.3,1-0.4c0.3-0.1,0.7-0.1,1.2-0.2
		c1.1-0.1,1.9-0.3,2.4-0.5c0-0.2,0-0.3,0-0.3c0-0.5-0.1-0.9-0.4-1.1C36.8,4.1,36.3,4,35.6,4c-0.6,0-1.1,0.1-1.4,0.3
		c-0.3,0.2-0.5,0.6-0.7,1.2l-1.3-0.2c0.1-0.6,0.3-1,0.6-1.3c0.3-0.3,0.7-0.6,1.2-0.8c0.5-0.2,1.1-0.3,1.8-0.3c0.7,0,1.2,0.1,1.6,0.2
		c0.4,0.2,0.7,0.4,0.9,0.6c0.2,0.2,0.3,0.5,0.4,0.9c0,0.2,0.1,0.6,0.1,1.2v1.8c0,1.2,0,2,0.1,2.3c0.1,0.3,0.2,0.6,0.3,0.9h-1.4
		C37.7,10.6,37.6,10.3,37.6,9.9z M37.5,7c-0.5,0.2-1.2,0.4-2.2,0.5c-0.5,0.1-0.9,0.2-1.2,0.3c-0.2,0.1-0.4,0.2-0.5,0.4
		c-0.1,0.2-0.2,0.4-0.2,0.6c0,0.4,0.1,0.6,0.4,0.9C34.1,9.9,34.5,10,35,10c0.5,0,1-0.1,1.4-0.3c0.4-0.2,0.7-0.5,0.9-0.9
		c0.1-0.3,0.2-0.7,0.2-1.3V7z"/>
	<path style="fill:#FFFEFE;" d="M40.8,10.9V3.1H42v1.1c0.6-0.9,1.4-1.3,2.5-1.3c0.5,0,0.9,0.1,1.3,0.3c0.4,0.2,0.7,0.4,0.9,0.7
		c0.2,0.3,0.3,0.6,0.4,1c0,0.2,0.1,0.7,0.1,1.3v4.8h-1.3V6.1c0-0.5-0.1-0.9-0.2-1.2c-0.1-0.3-0.3-0.5-0.5-0.6
		c-0.3-0.2-0.6-0.2-0.9-0.2c-0.6,0-1,0.2-1.5,0.5c-0.4,0.4-0.6,1-0.6,2v4.2H40.8z"/>
	<path style="fill:#FFFEFE;" d="M47.5,13.9l0.2-1.1c0.3,0.1,0.5,0.1,0.6,0.1c0.3,0,0.5-0.1,0.6-0.3c0.1-0.2,0.2-0.6,0.2-1.3V3.1h1.3
		v8.2c0,1-0.1,1.6-0.4,2c-0.3,0.5-0.8,0.7-1.6,0.7C48.2,14,47.9,14,47.5,13.9z M49.2,1.7V0.1h1.3v1.5H49.2z"/>
	<path style="fill:#FFFEFE;" d="M57.6,9.9c-0.5,0.4-1,0.7-1.4,0.9c-0.5,0.2-0.9,0.3-1.5,0.3c-0.9,0-1.5-0.2-2-0.6
		c-0.5-0.4-0.7-0.9-0.7-1.6c0-0.4,0.1-0.7,0.3-1c0.2-0.3,0.4-0.6,0.7-0.8c0.3-0.2,0.6-0.3,1-0.4c0.3-0.1,0.7-0.1,1.2-0.2
		c1.1-0.1,1.9-0.3,2.4-0.5c0-0.2,0-0.3,0-0.3c0-0.5-0.1-0.9-0.4-1.1C56.8,4.1,56.3,4,55.7,4c-0.6,0-1.1,0.1-1.4,0.3
		c-0.3,0.2-0.5,0.6-0.7,1.2l-1.3-0.2c0.1-0.6,0.3-1,0.6-1.3c0.3-0.3,0.7-0.6,1.2-0.8c0.5-0.2,1.1-0.3,1.8-0.3c0.7,0,1.2,0.1,1.6,0.2
		c0.4,0.2,0.7,0.4,0.9,0.6c0.2,0.2,0.3,0.5,0.4,0.9c0,0.2,0.1,0.6,0.1,1.2v1.8c0,1.2,0,2,0.1,2.3c0.1,0.3,0.2,0.6,0.3,0.9h-1.4
		C57.8,10.6,57.7,10.3,57.6,9.9z M57.5,7c-0.5,0.2-1.2,0.4-2.2,0.5c-0.5,0.1-0.9,0.2-1.2,0.3C54,7.8,53.8,8,53.7,8.1
		c-0.1,0.2-0.2,0.4-0.2,0.6c0,0.4,0.1,0.6,0.4,0.9c0.3,0.2,0.7,0.4,1.2,0.4c0.5,0,1-0.1,1.4-0.3c0.4-0.2,0.7-0.5,0.9-0.9
		c0.1-0.3,0.2-0.7,0.2-1.3V7z"/>
	<path style="fill:#FFFEFE;" d="M60.9,10.9V3.1h1.2v1.2c0.3-0.5,0.6-0.9,0.8-1.1c0.3-0.2,0.5-0.3,0.8-0.3c0.4,0,0.9,0.1,1.4,0.4
		l-0.5,1.2c-0.3-0.2-0.6-0.3-1-0.3c-0.3,0-0.5,0.1-0.8,0.3c-0.2,0.2-0.4,0.4-0.5,0.7c-0.1,0.5-0.2,1-0.2,1.5v4.1H60.9z"/>
	<path style="fill:#FFFEFE;" d="M65.4,7c0-1.4,0.4-2.5,1.2-3.2c0.7-0.6,1.5-0.9,2.5-0.9c1.1,0,1.9,0.3,2.6,1c0.7,0.7,1,1.7,1,2.9
		c0,1-0.1,1.8-0.5,2.4c-0.3,0.6-0.7,1-1.3,1.3c-0.6,0.3-1.2,0.5-1.9,0.5c-1.1,0-2-0.3-2.6-1C65.8,9.3,65.4,8.3,65.4,7z M66.8,7
		c0,1,0.2,1.7,0.7,2.2c0.4,0.5,1,0.7,1.6,0.7c0.7,0,1.2-0.2,1.6-0.7c0.4-0.5,0.7-1.3,0.7-2.3c0-1-0.2-1.7-0.7-2.2
		c-0.4-0.5-1-0.7-1.6-0.7c-0.7,0-1.2,0.2-1.6,0.7C67,5.2,66.8,6,66.8,7z"/>
	<path style="fill:#FFFEFE;" d="M86.3,7.1l1.4,0.4c-0.3,1.2-0.8,2.1-1.6,2.7c-0.8,0.6-1.7,0.9-2.8,0.9c-1.2,0-2.1-0.2-2.8-0.7
		c-0.7-0.5-1.3-1.2-1.7-2c-0.4-0.9-0.6-1.9-0.6-2.9c0-1.1,0.2-2.1,0.6-2.9c0.4-0.8,1-1.5,1.8-1.9C81.5,0.2,82.4,0,83.3,0
		c1.1,0,2,0.3,2.7,0.8s1.2,1.3,1.5,2.3l-1.4,0.3c-0.2-0.8-0.6-1.3-1.1-1.7c-0.5-0.4-1.1-0.5-1.8-0.5c-0.8,0-1.5,0.2-2.1,0.6
		c-0.6,0.4-0.9,0.9-1.2,1.6c-0.2,0.7-0.3,1.4-0.3,2.1c0,0.9,0.1,1.7,0.4,2.4c0.3,0.7,0.7,1.2,1.2,1.5c0.6,0.3,1.2,0.5,1.8,0.5
		c0.8,0,1.5-0.2,2-0.7C85.8,8.7,86.1,8,86.3,7.1z"/>
	<path style="fill:#FFFEFE;" d="M89.3,10.9V0.1h1.3v10.7H89.3z"/>
	<path style="fill:#FFFEFE;" d="M92.7,1.6V0.1H94v1.5H92.7z M92.7,10.9V3.1H94v7.8H92.7z"/>
	<path style="fill:#FFFEFE;" d="M96,10.9V3.1h1.2v1.1c0.2-0.4,0.6-0.7,1-0.9c0.4-0.2,0.9-0.3,1.4-0.3c0.6,0,1.1,0.1,1.4,0.4
		c0.4,0.2,0.6,0.6,0.8,1c0.6-0.9,1.4-1.4,2.4-1.4c0.8,0,1.4,0.2,1.8,0.6c0.4,0.4,0.6,1.1,0.6,2v5.3h-1.3V6c0-0.5,0-0.9-0.1-1.1
		c-0.1-0.2-0.2-0.4-0.5-0.6c-0.2-0.1-0.5-0.2-0.8-0.2c-0.5,0-1,0.2-1.4,0.5C102.2,5,102,5.5,102,6.3v4.5h-1.3v-5
		c0-0.6-0.1-1-0.3-1.3c-0.2-0.3-0.6-0.4-1.1-0.4c-0.4,0-0.7,0.1-1,0.3c-0.3,0.2-0.5,0.5-0.7,0.9c-0.1,0.4-0.2,0.9-0.2,1.6v4H96z"/>
	<path style="fill:#FFFEFE;" d="M109.8,10.9h-1.2V0.1h1.3V4c0.6-0.7,1.3-1,2.1-1c0.5,0,0.9,0.1,1.4,0.3c0.4,0.2,0.8,0.5,1.1,0.8
		c0.3,0.3,0.5,0.8,0.6,1.3s0.2,1,0.2,1.6c0,1.3-0.3,2.4-1,3.1c-0.7,0.7-1.5,1.1-2.4,1.1c-0.9,0-1.6-0.4-2.2-1.1V10.9z M109.8,6.9
		c0,0.9,0.1,1.6,0.4,2c0.4,0.7,1,1,1.7,1c0.6,0,1.1-0.2,1.5-0.7C113.8,8.7,114,8,114,7c0-1-0.2-1.8-0.6-2.2C113,4.2,112.5,4,111.9,4
		c-0.6,0-1.1,0.2-1.5,0.7C110,5.2,109.8,6,109.8,6.9z"/>
	<path style="fill:#FFFEFE;" d="M116.9,1.6V0.1h1.3v1.5H116.9z M116.9,10.9V3.1h1.3v7.8H116.9z"/>
	<path style="fill:#FFFEFE;" d="M120.3,10.9V3.1h1.2v1.1c0.6-0.9,1.4-1.3,2.5-1.3c0.5,0,0.9,0.1,1.3,0.3c0.4,0.2,0.7,0.4,0.9,0.7
		c0.2,0.3,0.3,0.6,0.4,1c0,0.2,0.1,0.7,0.1,1.3v4.8h-1.3V6.1c0-0.5-0.1-0.9-0.2-1.2c-0.1-0.3-0.3-0.5-0.5-0.6
		c-0.3-0.2-0.6-0.2-0.9-0.2c-0.6,0-1,0.2-1.5,0.5c-0.4,0.4-0.6,1-0.6,2v4.2H120.3z"/>
	<path style="fill:#FFFEFE;" d="M128.4,11.5l1.3,0.2c0.1,0.4,0.2,0.7,0.4,0.9c0.3,0.2,0.8,0.4,1.3,0.4c0.6,0,1.1-0.1,1.4-0.4
		s0.6-0.6,0.7-1c0.1-0.3,0.1-0.8,0.1-1.7c-0.6,0.7-1.3,1-2.2,1c-1.1,0-1.9-0.4-2.5-1.2c-0.6-0.8-0.9-1.7-0.9-2.8
		c0-0.7,0.1-1.4,0.4-2c0.3-0.6,0.7-1.1,1.2-1.5c0.5-0.3,1.1-0.5,1.8-0.5c0.9,0,1.7,0.4,2.3,1.1V3.1h1.2v6.7c0,1.2-0.1,2.1-0.4,2.6
		c-0.2,0.5-0.6,0.9-1.2,1.2c-0.5,0.3-1.2,0.4-2,0.4c-0.9,0-1.7-0.2-2.3-0.6C128.6,13,128.4,12.3,128.4,11.5z M129.5,6.8
		c0,1,0.2,1.8,0.6,2.2c0.4,0.5,0.9,0.7,1.5,0.7c0.6,0,1.1-0.2,1.5-0.7c0.4-0.5,0.6-1.2,0.6-2.2c0-1-0.2-1.7-0.6-2.1
		c-0.4-0.5-0.9-0.7-1.5-0.7c-0.6,0-1.1,0.2-1.5,0.7C129.7,5.2,129.5,5.9,129.5,6.8z"/>
</g>
</svg>
