<?xml version="1.0" encoding="utf-8"?>
<!-- Generator: Adobe Illustrator 21.0.0, SVG Export Plug-In . SVG Version: 6.00 Build 0)  -->
<svg version="1.1" id="Слой_1" xmlns="http://www.w3.org/2000/svg" xmlns:xlink="http://www.w3.org/1999/xlink" x="0px" y="0px"
	 viewBox="0 0 64 20" style="enable-background:new 0 0 64 20;" xml:space="preserve">
<path id="High_success_rate" style="fill:#FFFFFF;enable-background:new    ;" d="M0.4,7.7V0.5h1.4v2.8h2.8V0.5h1.4v7.2H4.6V4.6H1.8
	v3.1H0.4z M7.6,1.8V0.5h1.4v1.3H7.6z M7.6,7.7V2.5h1.4v5.2H7.6z M10.2,8l1.6,0.2c0,0.2,0.1,0.3,0.2,0.4c0.1,0.1,0.3,0.1,0.6,0.1
	c0.4,0,0.6-0.1,0.8-0.2c0.1-0.1,0.2-0.2,0.3-0.3c0-0.1,0.1-0.3,0.1-0.6V6.8c-0.4,0.6-0.9,0.8-1.6,0.8c-0.7,0-1.2-0.3-1.7-0.9
	c-0.3-0.5-0.5-1-0.5-1.7c0-0.9,0.2-1.5,0.6-2s0.9-0.7,1.6-0.7c0.6,0,1.2,0.3,1.6,0.8V2.5h1.3v4.7c0,0.6-0.1,1.1-0.2,1.4
	s-0.2,0.5-0.4,0.7s-0.4,0.3-0.7,0.4s-0.7,0.1-1.2,0.1c-0.9,0-1.5-0.2-1.9-0.5c-0.4-0.3-0.6-0.7-0.6-1.1C10.2,8.1,10.2,8.1,10.2,8z
	 M11.4,5c0,0.5,0.1,1,0.3,1.2c0.2,0.3,0.5,0.4,0.8,0.4c0.3,0,0.6-0.1,0.8-0.4c0.2-0.3,0.3-0.6,0.3-1.2c0-0.5-0.1-0.9-0.3-1.2
	s-0.5-0.4-0.8-0.4c-0.3,0-0.6,0.1-0.8,0.4C11.5,4.1,11.4,4.5,11.4,5z M17.8,0.5v2.6c0.4-0.5,1-0.8,1.6-0.8c0.3,0,0.6,0.1,0.9,0.2
	s0.4,0.3,0.6,0.4s0.2,0.4,0.3,0.6s0.1,0.6,0.1,1v3h-1.4V4.9c0-0.5,0-0.9-0.1-1s-0.1-0.3-0.3-0.3c-0.1-0.1-0.3-0.1-0.5-0.1
	c-0.2,0-0.4,0.1-0.6,0.2S18,3.9,17.9,4.1c-0.1,0.2-0.1,0.6-0.1,1v2.6h-1.4V0.5H17.8z M24.9,6.2L26.2,6c0.1,0.3,0.2,0.5,0.4,0.6
	c0.2,0.1,0.4,0.2,0.8,0.2c0.4,0,0.6-0.1,0.8-0.2c0.1-0.1,0.2-0.2,0.2-0.4c0-0.1,0-0.2-0.1-0.3c-0.1-0.1-0.2-0.1-0.5-0.2
	c-1.1-0.2-1.8-0.5-2.1-0.7C25.3,4.9,25,4.5,25,4c0-0.4,0.2-0.8,0.5-1.1s0.9-0.5,1.7-0.5c0.7,0,1.2,0.1,1.6,0.3s0.6,0.6,0.7,1L28.2,4
	c-0.1-0.2-0.2-0.4-0.3-0.5s-0.4-0.2-0.7-0.2c-0.4,0-0.6,0.1-0.8,0.2c-0.1,0.1-0.2,0.2-0.2,0.3c0,0.1,0,0.2,0.1,0.2
	c0.1,0.1,0.6,0.2,1.3,0.4S29,4.8,29.3,5c0.3,0.2,0.4,0.6,0.4,1c0,0.5-0.2,0.9-0.6,1.2s-1,0.5-1.8,0.5c-0.7,0-1.3-0.1-1.7-0.4
	S25,6.7,24.9,6.2z M34.3,7.7V6.9c-0.2,0.3-0.4,0.5-0.7,0.7s-0.6,0.2-1,0.2c-0.3,0-0.7-0.1-0.9-0.2s-0.5-0.4-0.6-0.6
	s-0.2-0.7-0.2-1.1V2.5h1.4v2.4c0,0.7,0,1.2,0.1,1.3c0.1,0.2,0.1,0.3,0.3,0.4c0.1,0.1,0.3,0.1,0.5,0.1c0.2,0,0.4-0.1,0.6-0.2
	c0.2-0.1,0.3-0.3,0.4-0.5c0.1-0.2,0.1-0.7,0.1-1.4V2.5h1.4v5.2H34.3z M41.5,4l-1.4,0.2c0-0.3-0.1-0.5-0.3-0.6s-0.4-0.2-0.6-0.2
	c-0.3,0-0.6,0.1-0.8,0.4c-0.2,0.2-0.3,0.6-0.3,1.2c0,0.6,0.1,1,0.3,1.3c0.2,0.3,0.5,0.4,0.8,0.4c0.3,0,0.5-0.1,0.6-0.2
	c0.2-0.1,0.3-0.4,0.4-0.8l1.3,0.2c-0.1,0.6-0.4,1.1-0.8,1.4c-0.4,0.3-0.9,0.5-1.6,0.5c-0.8,0-1.4-0.2-1.8-0.7s-0.7-1.1-0.7-2
	c0-0.9,0.2-1.5,0.7-2c0.5-0.5,1.1-0.7,1.8-0.7c0.6,0,1.1,0.1,1.5,0.4C41.1,3.1,41.4,3.5,41.5,4z M47.1,4l-1.4,0.2
	c0-0.3-0.1-0.5-0.3-0.6s-0.4-0.2-0.6-0.2c-0.3,0-0.6,0.1-0.8,0.4c-0.2,0.2-0.3,0.6-0.3,1.2c0,0.6,0.1,1,0.3,1.3
	c0.2,0.3,0.5,0.4,0.8,0.4c0.3,0,0.5-0.1,0.6-0.2c0.2-0.1,0.3-0.4,0.4-0.8l1.3,0.2C47,6.5,46.8,7,46.4,7.3c-0.4,0.3-0.9,0.5-1.6,0.5
	c-0.8,0-1.4-0.2-1.8-0.7c-0.5-0.5-0.7-1.1-0.7-2c0-0.9,0.2-1.5,0.7-2c0.5-0.5,1.1-0.7,1.8-0.7c0.6,0,1.1,0.1,1.5,0.4
	C46.7,3.1,46.9,3.5,47.1,4z M51.1,6l1.4,0.2c-0.2,0.5-0.5,0.9-0.8,1.1c-0.4,0.3-0.9,0.4-1.4,0.4c-0.9,0-1.6-0.3-2-0.9
	c-0.3-0.5-0.5-1.1-0.5-1.8c0-0.9,0.2-1.5,0.7-2c0.4-0.5,1-0.7,1.7-0.7c0.8,0,1.4,0.3,1.8,0.8c0.4,0.5,0.7,1.3,0.6,2.3h-3.4
	c0,0.4,0.1,0.7,0.3,0.9c0.2,0.2,0.5,0.3,0.8,0.3c0.2,0,0.4-0.1,0.5-0.2S51.1,6.3,51.1,6z M51.2,4.6c0-0.4-0.1-0.7-0.3-0.9
	c-0.2-0.2-0.4-0.3-0.7-0.3c-0.3,0-0.5,0.1-0.7,0.3s-0.3,0.5-0.3,0.9H51.2z M53.2,6.2L54.6,6c0.1,0.3,0.2,0.5,0.4,0.6
	c0.2,0.1,0.4,0.2,0.8,0.2c0.4,0,0.6-0.1,0.8-0.2c0.1-0.1,0.2-0.2,0.2-0.4c0-0.1,0-0.2-0.1-0.3c-0.1-0.1-0.2-0.1-0.5-0.2
	C55,5.6,54.3,5.3,54,5.1c-0.4-0.3-0.6-0.7-0.6-1.2c0-0.4,0.2-0.8,0.5-1.1c0.4-0.3,0.9-0.5,1.7-0.5c0.7,0,1.2,0.1,1.6,0.3
	c0.3,0.2,0.6,0.6,0.7,1L56.6,4c-0.1-0.2-0.2-0.4-0.3-0.5c-0.2-0.1-0.4-0.2-0.7-0.2c-0.4,0-0.6,0.1-0.8,0.2c-0.1,0.1-0.2,0.2-0.2,0.3
	c0,0.1,0,0.2,0.1,0.2c0.1,0.1,0.6,0.2,1.3,0.4c0.7,0.2,1.2,0.4,1.5,0.6c0.3,0.2,0.4,0.6,0.4,1c0,0.5-0.2,0.9-0.6,1.2
	c-0.4,0.3-1,0.5-1.8,0.5c-0.7,0-1.3-0.1-1.7-0.4C53.6,7.1,53.3,6.7,53.2,6.2z M58.8,6.2L60.1,6c0.1,0.3,0.2,0.5,0.4,0.6
	c0.2,0.1,0.4,0.2,0.8,0.2c0.4,0,0.6-0.1,0.8-0.2c0.1-0.1,0.2-0.2,0.2-0.4c0-0.1,0-0.2-0.1-0.3c-0.1-0.1-0.2-0.1-0.5-0.2
	c-1.1-0.2-1.8-0.5-2.1-0.7C59.2,4.9,59,4.5,59,4c0-0.4,0.2-0.8,0.5-1.1c0.4-0.3,0.9-0.5,1.7-0.5c0.7,0,1.2,0.1,1.6,0.3
	c0.3,0.2,0.6,0.6,0.7,1L62.1,4c-0.1-0.2-0.2-0.4-0.3-0.5c-0.2-0.1-0.4-0.2-0.7-0.2c-0.4,0-0.6,0.1-0.8,0.2c-0.1,0.1-0.2,0.2-0.2,0.3
	c0,0.1,0,0.2,0.1,0.2c0.1,0.1,0.6,0.2,1.3,0.4c0.7,0.2,1.2,0.4,1.5,0.6c0.3,0.2,0.4,0.6,0.4,1c0,0.5-0.2,0.9-0.6,1.2
	c-0.4,0.3-1,0.5-1.8,0.5c-0.7,0-1.3-0.1-1.7-0.4C59.2,7.1,58.9,6.7,58.8,6.2z M1.7,19.7H0.3v-5.2h1.3v0.7c0.2-0.3,0.4-0.6,0.6-0.7
	s0.4-0.2,0.6-0.2c0.3,0,0.6,0.1,0.9,0.3l-0.4,1.2c-0.2-0.1-0.4-0.2-0.6-0.2c-0.2,0-0.4,0.1-0.5,0.2c-0.1,0.1-0.2,0.3-0.3,0.6
	s-0.1,0.9-0.1,1.7V19.7z M5.3,16.1L4,15.9c0.1-0.5,0.4-0.9,0.7-1.1s0.8-0.4,1.5-0.4c0.6,0,1.1,0.1,1.4,0.2c0.3,0.1,0.5,0.3,0.6,0.6
	c0.1,0.2,0.2,0.6,0.2,1.2l0,1.6c0,0.5,0,0.8,0.1,1c0,0.2,0.1,0.4,0.2,0.7H7.4c0-0.1-0.1-0.2-0.1-0.4c0-0.1,0-0.1,0-0.2
	c-0.2,0.2-0.5,0.4-0.8,0.5s-0.6,0.2-0.9,0.2c-0.5,0-1-0.1-1.3-0.4s-0.5-0.7-0.5-1.1c0-0.3,0.1-0.6,0.2-0.8c0.1-0.2,0.3-0.4,0.6-0.5
	c0.3-0.1,0.6-0.2,1.1-0.3c0.6-0.1,1.1-0.2,1.3-0.3v-0.1c0-0.3-0.1-0.5-0.2-0.6c-0.1-0.1-0.4-0.2-0.7-0.2c-0.2,0-0.4,0-0.6,0.1
	C5.5,15.7,5.3,15.8,5.3,16.1z M7.1,17.2c-0.2,0.1-0.5,0.1-0.8,0.2s-0.6,0.2-0.7,0.2c-0.2,0.1-0.3,0.3-0.3,0.5c0,0.2,0.1,0.4,0.2,0.5
	s0.3,0.2,0.5,0.2c0.2,0,0.5-0.1,0.7-0.2C6.9,18.5,7,18.3,7,18.1c0-0.1,0.1-0.3,0.1-0.7V17.2z M12.2,14.5v1.1h-0.9v2.1
	c0,0.4,0,0.7,0,0.7c0,0.1,0.1,0.1,0.1,0.2s0.1,0.1,0.2,0.1c0.1,0,0.3,0,0.6-0.1l0.1,1.1c-0.3,0.1-0.7,0.2-1.1,0.2
	c-0.2,0-0.5,0-0.7-0.1c-0.2-0.1-0.3-0.2-0.4-0.3C10,19.2,9.9,19,9.9,18.8c0-0.2,0-0.5,0-1v-2.3H9.2v-1.1h0.6v-1l1.4-0.8v1.8H12.2z
	 M16.1,18l1.4,0.2c-0.2,0.5-0.5,0.9-0.8,1.1c-0.4,0.3-0.9,0.4-1.4,0.4c-0.9,0-1.6-0.3-2-0.9c-0.3-0.5-0.5-1.1-0.5-1.8
	c0-0.9,0.2-1.5,0.7-2c0.4-0.5,1-0.7,1.7-0.7c0.8,0,1.4,0.3,1.8,0.8c0.4,0.5,0.7,1.3,0.6,2.3h-3.4c0,0.4,0.1,0.7,0.3,0.9
	c0.2,0.2,0.5,0.3,0.8,0.3c0.2,0,0.4-0.1,0.5-0.2S16.1,18.3,16.1,18z M16.2,16.6c0-0.4-0.1-0.7-0.3-0.9c-0.2-0.2-0.4-0.3-0.7-0.3
	c-0.3,0-0.5,0.1-0.7,0.3s-0.3,0.5-0.3,0.9H16.2z"/>
</svg>
