<?xml version="1.0" encoding="utf-8"?>
<!-- Generator: Adobe Illustrator 22.0.0, SVG Export Plug-In . SVG Version: 6.00 Build 0)  -->
<svg version="1.1" id="Livello_1" xmlns="http://www.w3.org/2000/svg" xmlns:xlink="http://www.w3.org/1999/xlink" x="0px" y="0px"
	 viewBox="0 0 192.5 14.3" style="enable-background:new 0 0 192.5 14.3;" xml:space="preserve">
<style type="text/css">
	.st0{fill:#FFFFFF;}
</style>
<g>
	<g>
		<path class="st0" d="M1.2,1h-1.5v12H7v-1.3H1.2V1z M11.9,3.8c-2.5,0-4,1.8-4,4.6c0,2.8,1.6,4.6,4,4.6c2,0,3.3-0.9,3.8-2.5h-1.4
			c-0.4,0.8-1.2,1.2-2.3,1.2c-1.5,0-2.5-1.1-2.6-2.9V8.9h6.4V8.3C15.8,5.5,14.3,3.8,11.9,3.8z M9.4,7.7c0.1-1.6,1.1-2.6,2.5-2.6
			c1.4,0,2.4,1,2.4,2.6H9.4z M21,3.8c-1.9,0-3.3,0.9-3.5,2.4h1.4c0.2-0.7,0.9-1.1,2-1.1c1.3,0,2,0.6,2,1.7v0.8l-2.6,0.2
			c-2.1,0.1-3.3,1-3.3,2.6c0,1.6,1.3,2.7,3,2.7c1.2,0,2.2-0.5,2.8-1.5H23v1.3h1.4V6.8C24.4,5,23.2,3.8,21,3.8z M22.9,9.6
			c0,1.3-1.1,2.2-2.6,2.2c-1,0-1.8-0.5-1.8-1.4c0-0.9,0.6-1.4,2-1.5l2.4-0.2V9.6z M28.1,5.3h-0.1V4h-1.4v8.9H28V7.4
			c0-1.3,1-2.2,2.3-2.2c0.3,0,0.8,0,0.9,0.1V3.9c-0.2,0-0.5,0-0.7,0C29.4,3.8,28.3,4.4,28.1,5.3z M37,3.8c-1.4,0-2.4,0.6-2.9,1.6H34
			V4h-1.4v8.9h1.4V7.6c0-1.6,0.9-2.5,2.5-2.5c1.4,0,2.1,0.8,2.1,2.4v5.4h1.4V7.1C40.2,5,39,3.8,37,3.8z M52.9,10.9h-0.1L48.6,1h-1.7
			v12h1.4V3.8h0.1l3.8,9.1h1.3l3.8-9.1h0.1v9.1h1.4V1H57L52.9,10.9z M64.8,3.8c-2.5,0-4.1,1.8-4.1,4.6c0,2.9,1.6,4.6,4.1,4.6
			c2.5,0,4.1-1.8,4.1-4.6C68.9,5.6,67.4,3.8,64.8,3.8z M64.8,11.8c-1.7,0-2.6-1.2-2.6-3.3c0-2.1,1-3.3,2.6-3.3
			c1.7,0,2.6,1.2,2.6,3.3C67.5,10.6,66.5,11.8,64.8,11.8z M72.3,5.3h-0.1V4h-1.4v8.9h1.4V7.4c0-1.3,1-2.2,2.3-2.2
			c0.3,0,0.8,0,0.9,0.1V3.9c-0.2,0-0.5,0-0.7,0C73.6,3.8,72.5,4.4,72.3,5.3z M80.2,3.8c-2.5,0-4,1.8-4,4.6c0,2.8,1.6,4.6,4,4.6
			c2,0,3.3-0.9,3.8-2.5h-1.4c-0.4,0.8-1.2,1.2-2.3,1.2c-1.5,0-2.5-1.1-2.6-2.9V8.9H84V8.3C84,5.5,82.6,3.8,80.2,3.8z M77.6,7.7
			c0.1-1.6,1.1-2.6,2.5-2.6c1.4,0,2.4,1,2.4,2.6H77.6z M93.9,1l-4.4,12H91l1.2-3.4H97l1.2,3.4h1.6L95.3,1H93.9z M92.7,8.2l1.9-5.3
			h0.1l1.9,5.3H92.7z M105.7,3.8c-1.2,0-2.3,0.6-2.8,1.6h-0.1v-5h-1.4v12.5h1.4v-1.4h0.1c0.6,1,1.6,1.6,2.9,1.6
			c2.3,0,3.8-1.8,3.8-4.6C109.5,5.6,108,3.8,105.7,3.8z M105.4,11.8c-1.6,0-2.6-1.3-2.6-3.3s1-3.3,2.6-3.3c1.6,0,2.6,1.3,2.6,3.3
			S107,11.8,105.4,11.8z M114.9,3.8c-2.5,0-4.1,1.8-4.1,4.6c0,2.9,1.6,4.6,4.1,4.6s4.1-1.8,4.1-4.6C119.1,5.6,117.5,3.8,114.9,3.8z
			 M114.9,11.8c-1.7,0-2.6-1.2-2.6-3.3c0-2.1,1-3.3,2.6-3.3s2.6,1.2,2.6,3.3C117.6,10.6,116.6,11.8,114.9,11.8z M126.9,9.3
			c0,1.6-0.9,2.5-2.5,2.5c-1.4,0-2.1-0.7-2.1-2.4V4h-1.4v5.8c0,2.1,1.1,3.3,3.1,3.3c1.4,0,2.4-0.6,2.9-1.6h0.1v1.4h1.4V4h-1.4V9.3z
			 M132.6,1.8h-1.4V4h-1.5v1.2h1.5v5.4c0,1.7,0.7,2.4,2.6,2.4c0.3,0,0.5,0,0.8-0.1v-1.2c-0.3,0-0.4,0-0.6,0c-0.9,0-1.3-0.4-1.3-1.5
			V5.2h2.1V4h-2.1V1.8z M145.7,6.3l-1.3-0.3c-1.7-0.4-2.3-1-2.3-1.9c0-1.2,1.1-2,2.6-2c1.5,0,2.5,0.7,2.7,2h1.5
			c-0.1-1.9-1.9-3.3-4.2-3.3c-2.5,0-4.2,1.4-4.2,3.4c0,1.7,0.9,2.7,3.1,3.2l1.5,0.4c1.7,0.4,2.4,1.1,2.4,2.1c0,1.2-1.2,2.1-2.8,2.1
			c-1.7,0-2.9-0.8-3.1-2.1h-1.5c0.2,2.1,1.9,3.4,4.4,3.4c2.7,0,4.5-1.4,4.5-3.6C149.2,7.9,148.2,6.9,145.7,6.3z M154.4,3.8
			c-1.9,0-3.3,0.9-3.5,2.4h1.4c0.2-0.7,0.9-1.1,2-1.1c1.3,0,2,0.6,2,1.7v0.8l-2.6,0.2c-2.1,0.1-3.3,1-3.3,2.6c0,1.6,1.3,2.7,3,2.7
			c1.2,0,2.2-0.5,2.8-1.5h0.1v1.3h1.4V6.8C157.8,5,156.6,3.8,154.4,3.8z M156.4,9.6c0,1.3-1.1,2.2-2.6,2.2c-1,0-1.8-0.5-1.8-1.4
			c0-0.9,0.6-1.4,2-1.5l2.4-0.2V9.6z M160.6,3.1V4h-1.5v1.2h1.5v7.8h1.4V5.2h2.1V4h-2.1V3.2c0-1,0.5-1.4,1.3-1.4
			c0.3,0,0.6,0,0.8,0.1V0.6c-0.3-0.1-0.6-0.1-0.9-0.1C161.6,0.5,160.6,1.3,160.6,3.1z M168.9,3.8c-1.9,0-3.3,0.9-3.5,2.4h1.4
			c0.2-0.7,0.9-1.1,2-1.1c1.3,0,2,0.6,2,1.7v0.8l-2.6,0.2c-2.1,0.1-3.3,1-3.3,2.6c0,1.6,1.3,2.7,3,2.7c1.2,0,2.2-0.5,2.8-1.5h0.1
			v1.3h1.4V6.8C172.3,5,171,3.8,168.9,3.8z M170.8,9.6c0,1.3-1.1,2.2-2.6,2.2c-1,0-1.8-0.5-1.8-1.4c0-0.9,0.6-1.4,2-1.5l2.4-0.2V9.6
			z M176,5.3h-0.1V4h-1.4v8.9h1.4V7.4c0-1.3,1-2.2,2.3-2.2c0.3,0,0.8,0,0.9,0.1V3.9c-0.2,0-0.5,0-0.7,0C177.3,3.8,176.2,4.4,176,5.3
			z M181.3,0.2c-0.5,0-1,0.4-1,1c0,0.5,0.4,1,1,1c0.5,0,1-0.4,1-1C182.3,0.6,181.9,0.2,181.3,0.2z M180.6,12.9h1.4V4h-1.4V12.9z
			 M188.5,8l-1.4-0.3c-1.1-0.3-1.6-0.6-1.6-1.3c0-0.8,0.8-1.3,1.9-1.3c1.1,0,1.8,0.5,2,1.2h1.4c-0.2-1.5-1.5-2.4-3.4-2.4
			c-1.9,0-3.3,1.1-3.3,2.6c0,1.3,0.8,2,2.4,2.4l1.5,0.4c1,0.2,1.4,0.6,1.4,1.3c0,0.8-0.9,1.4-2.1,1.4c-1.1,0-1.9-0.5-2.1-1.2h-1.5
			c0.2,1.5,1.5,2.4,3.5,2.4c2,0,3.6-1.1,3.6-2.7C191,9.1,190.2,8.4,188.5,8z"/>
	</g>
</g>
</svg>
