<?xml version="1.0" encoding="utf-8"?>
<!-- Generator: Adobe Illustrator 21.0.0, SVG Export Plug-In . SVG Version: 6.00 Build 0)  -->
<svg version="1.1" id="Слой_1" xmlns="http://www.w3.org/2000/svg" xmlns:xlink="http://www.w3.org/1999/xlink" x="0px" y="0px"
	 viewBox="0 0 63 63" style="enable-background:new 0 0 63 63;" xml:space="preserve">
<g>
	<g>
		<linearGradient id="SVGID_1_" gradientUnits="userSpaceOnUse" x1="31.4999" y1="62.5001" x2="31.4999" y2="3.898099e-02">
			<stop  offset="0" style="stop-color:#004C73"/>
			<stop  offset="0.22" style="stop-color:#2E52C9"/>
			<stop  offset="1" style="stop-color:#34ACD8"/>
		</linearGradient>
		<path style="fill:url(#SVGID_1_);" d="M34.3,32c-1.3-0.3-2.6,0.6-2.9,1.9l-3.7,17.2c-0.3,1.3,0.6,2.6,1.9,2.9
			c0.2,0,0.3,0.1,0.5,0.1c1.1,0,2.2-0.8,2.4-1.9L36.2,35C36.5,33.6,35.6,32.3,34.3,32z M23.6,32c-1.3-0.3-2.6,0.6-2.9,1.9
			c0,0-1.6,7.3-2.6,12.4c-0.6,2.8-1,4.9-1,4.9c-0.3,1.3,0.6,2.6,1.9,2.9c0.2,0,0.3,0.1,0.5,0.1c1.1,0,2.2-0.8,2.4-1.9L25.5,35
			C25.7,33.6,24.9,32.3,23.6,32z M17.6,58.1c-1.4,0-2.5,1.1-2.5,2.5c0,1.4,1.1,2.5,2.5,2.5c0.5,0,1-0.2,1.4-0.5c0.6-0.4,1-1.2,1-2
			C20.1,59.2,19,58.1,17.6,58.1z M39,58.1c-0.6,0-1.2,0.2-1.7,0.6c-0.5,0.5-0.8,1.1-0.8,1.8c0,1.4,1.1,2.5,2.5,2.5
			c1.4,0,2.5-1.1,2.5-2.5C41.5,59.2,40.4,58.1,39,58.1z M28.3,58.1c-1.4,0-2.5,1.1-2.5,2.5c0,1.4,1.1,2.5,2.5,2.5
			c1.4,0,2.5-1.1,2.5-2.5C30.7,59.2,29.6,58.1,28.3,58.1z M45,32c-1.3-0.3-2.6,0.6-2.9,1.9l-3.7,17.2c-0.3,1.3,0.6,2.6,1.9,2.9
			c0.2,0,0.3,0.1,0.5,0.1c1.1,0,2.2-0.8,2.4-1.9c0,0,0.4-2,1-4.6c1.1-5.1,2.7-12.6,2.7-12.6C47.2,33.6,46.4,32.3,45,32z M56.8,18.4
			v-1.6C56.8,7.5,49.3,0,40.1,0c-4,0-7.9,1.4-11,4.1c-2,1.7-3.6,3.9-4.6,6.3c-1.5-0.8-3.2-1.2-5-1.2c-6,0-11,4.9-11,11v2.2
			C3.7,23.5,0,27.9,0,33.1c0,5.3,3.8,9.9,8.9,10.8c0.1,0,0.3,0,0.4,0c1.2,0,2.2-0.8,2.4-2c0.2-1.3-0.7-2.6-2-2.8
			c-2.8-0.5-4.9-3-4.9-5.9c0-3.3,2.8-6,6.1-6h0c1.4,0,2.5-1.1,2.5-2.5v-4.4c0-3.3,2.7-6,6-6c1.7,0,3.4,0.7,4.5,2
			c0.6,0.7,1.6,1,2.5,0.7c0.9-0.3,1.6-1,1.7-2c0.9-5.7,5.9-10,11.7-10c6.5,0,11.9,5.3,11.9,11.9v3c0,0.9,0.5,1.7,1.3,2.2
			c3,1.6,4.8,4.7,4.8,8c0,3.2-1.7,6.3-4.6,7.9c-0.2,0.1-0.3,0.2-0.5,0.3c-1.2,0.6-1.7,2.1-1.1,3.3c0.6,1.2,2.1,1.7,3.3,1.1
			c0.2-0.1,0.5-0.3,0.7-0.4c4.3-2.5,7-7.2,7-12.1C63,25.3,60.7,21,56.8,18.4z"/>
	</g>
</g>
</svg>
