<?xml version="1.0" encoding="utf-8"?>
<!-- Generator: Adobe Illustrator 21.0.0, SVG Export Plug-In . SVG Version: 6.00 Build 0)  -->
<svg version="1.1" id="Слой_1" xmlns="http://www.w3.org/2000/svg" xmlns:xlink="http://www.w3.org/1999/xlink" x="0px" y="0px"
	 viewBox="0 0 22 24" style="enable-background:new 0 0 22 24;" xml:space="preserve">
<style type="text/css">
	.st0{fill:#FFFFFF;}
</style>
<path class="st0" d="M1.5,11.1c0,0.1,0.1,0.1,0.1,0.2c0,0,0,0,0,0c-0.3-0.1-0.5-0.3-0.7-0.4c0,0-0.1,0-0.1,0c0,0,0,0,0,0
	c0,0,0,0.1,0,0.1c0.1,0.2,0.2,0.4,0.4,0.6c0.1,0.2,0.3,0.3,0.5,0.4c0.5,0.4,1.1,0.7,1.6,1c0.2,0.1,0.5,0.2,0.8,0.2
	c2,0.5,1.5,0.3,2.8,1.6c0.1,0.1,0.2,0.3,0.2,0.4c0,0.1,0,0.2-0.1,0.4c-0.3,0.5-0.8,0.9-1.2,1.3c0,0,0,0.1,0,0.1
	c0,0.4-0.1,0.7-0.1,1.1c0,0.2,0,0.4,0.1,0.6c0.1,0.3,0.2,0.5,0.3,0.8c0.1,0.3,0.3,0.3,0.6,0.3c0,0,0.1,0,0-0.1
	c0-0.6,0.3-0.9,0.7-1.3C7.7,18,8.1,18,8.6,18c0,0,0.1,0,0.1,0.1c0.2,0.6,0,1.3,0,1.9c0,0.3,0,0.7,0,1c0,0.5-0.1,0.9-0.4,1.3
	c-0.2,0.2-0.3,0.2-0.4,0c-0.1-0.2-0.2-0.4-0.3-0.6c-0.1-0.2-0.2-0.3-0.4-0.1c0,0,0,0,0,0.1c0.2,0.1,0.2,0.2,0.1,0.4
	c0,0.1,0,0.2,0.1,0.3c0.1,0.1,0.3,0.3,0.5,0.4c0,0,0,0,0,0c-0.4,0.1-0.8-0.1-1.1-0.3c-0.3-0.2-0.6-0.1-0.7,0.3c0,0,0,0,0,0
	c0.1-0.1,0.2-0.1,0.3-0.2c0,0,0.1,0,0.1,0c0,0,0,0,0,0.1c0,0.2,0.1,0.2,0.3,0.3C6.9,23,7,23,7.2,23c0.1,0,0.3,0,0.4,0.1c0,0,0,0,0,0
	c-0.1,0-0.2,0.1-0.3,0.1c-0.2,0.1-0.4,0.1-0.7,0.2c-0.2,0.1-0.3,0.2-0.3,0.4c0,0,0,0.1,0,0.1c0,0,0,0,0,0c0,0,0,0,0,0
	c0-0.2,0-0.2,0.3-0.2c0.3,0,0.8-0.2,1.1-0.3c0.3-0.2,0.6-0.3,1-0.2c0.2,0.1,0.4,0.1,0.6,0.1c0,0,0.1,0,0.2,0
	c0.2-0.3,0.4-0.1,0.6,0.1c0,0,0,0,0,0c0.1-0.2-0.1-0.4-0.3-0.4c-0.2-0.1-0.4-0.1-0.5,0c-0.3,0.1-0.5,0-0.7-0.2c0,0,0-0.1,0-0.1
	c0.4-0.6,0.8-1.2,1.1-1.8c0,0,0-0.1,0-0.1c0,0,0,0,0,0c0,0,0.1,0,0.2,0.1c0,0,0,0,0,0c0-0.1,0-0.2,0-0.4c0,0,0,0,0,0
	c0.1,0,0.1,0.1,0.2,0.1c0,0,0.1,0,0.1,0c0,0,0,0,0,0c0,0,0,0,0-0.1c0-0.2,0-0.3-0.1-0.5c0,0,0,0,0,0c0.2,0,0.4-0.1,0.3-0.4
	c-0.1-0.3-0.2-0.7-0.3-1c0-0.1,0-0.3,0-0.4c0,0,0,0,0,0c0,0,0,0,0.1,0c0,0,0,0,0,0c0,0,0-0.1,0-0.1c0,0,0-0.1,0,0c0.1,0,0.3,0,0.4,0
	c0,0,0.1,0,0.1,0.1c0.3,1,0.5,2-0.3,2.9c0,0-0.1,0-0.1,0c-0.1-0.1-0.2-0.2-0.4-0.3c0,0,0,0,0,0c0,0.1,0,0.1,0,0.2
	c0,0.1,0.1,0.3,0,0.3c-0.1,0.1-0.2,0.1-0.3,0.1c0,0-0.1,0-0.1,0c0,0,0,0,0,0c0,0,0,0,0,0c0,0.1-0.1,0.1-0.1,0.2c0,0,0,0,0,0.1
	c0.1,0,0.2,0.1,0.3,0.1c0,0,0,0,0,0c-0.2,0.1-0.6-0.1-0.7,0.3c0,0,0,0.1,0,0c0.2,0,0.5,0,0.7-0.1c0.4-0.1,0.8,0,1.1,0.3
	c0.1,0.1,0.2,0.4,0.5,0.2c0,0,0,0,0,0c0,0.1,0,0.2,0,0.2c0,0,0,0,0,0c0.2-0.1,0.2-0.3,0.1-0.5c-0.1-0.1-0.2-0.2-0.4-0.3
	c-0.1-0.1-0.2-0.1-0.3-0.2c-0.3-0.3-0.3-0.3,0-0.6c0.3-0.3,0.5-0.6,0.8-0.8c0,0,0.1-0.1,0.2-0.1c0,0,0-0.1,0.1-0.1
	c0-0.1,0-0.2,0.1-0.3c0,0,0,0,0.1,0c0,0,0.1,0.1,0.1,0.1c0,0,0,0,0.1,0c0,0,0-0.1,0-0.1c0-0.2,0.1-0.4,0.2-0.6c0,0,0-0.1,0-0.2
	c0-0.2-0.1-0.3-0.1-0.5c0,0,0,0,0,0c0,0,0.1,0,0.1,0c0,0,0,0,0,0c-0.1-0.2-0.1-0.4-0.2-0.5c0,0,0,0,0,0c0,0,0.1,0,0.1,0.1
	c0,0,0.1,0,0.1,0c0,0,0,0,0-0.1c0-0.1-0.1-0.3-0.1-0.4c0,0,0-0.1,0-0.1c0.2-0.1,0.4-0.2,0.5-0.5c0-0.1,0.2-0.2,0.2-0.2
	c0.4-0.2,0.8-0.4,1.2-0.5c0.1,0,0.3,0,0.4,0.1c0.4,0.1,0.9,0.3,1.3,0.4c0.3,0.1,0.7,0,1-0.2c0.4-0.3,0.7-0.5,1.1-0.8
	c0.4-0.3,0.8-0.7,1.2-1c0.2-0.2,0.5-0.4,0.7-0.6c0.2-0.2,0.5-0.4,0.7-0.7c0.1-0.1,0.1-0.2,0.2-0.3c0.1-0.1,0.1-0.2,0.2-0.3
	c0.1-0.1,0.2-0.2,0.3-0.3c0-0.1,0-0.2,0-0.3c0,0,0-0.1,0-0.1c0.1-0.3,0.1-0.3-0.2-0.5c-0.3-0.2-0.5-0.2-0.8-0.1
	c-1.1,0.5-2.1,0.9-3.2,1.4c-1.4,0.6-1.4,0.6-2.8,0.6c-0.8,0-1.7,0-2.5,0c0,0,0,0,0,0c0.1-0.1,0.3-0.2,0.4-0.3c0,0,0.1,0,0.1-0.1
	c0.2-0.1,0.5-0.2,0.7-0.3c0.1,0,0.2,0,0.2-0.1c0.4-0.1,0.7-0.2,0.9-0.6c0,0,0.1-0.1,0.1-0.1c0.1-0.1,0.2-0.1,0.2-0.2
	c0.1-0.2,0.1-0.3,0.3-0.4c0,0,0-0.2,0-0.3c0,0,0-0.1,0-0.1c0.1-0.1,0.2-0.2,0.1-0.4c0-0.2,0.1-0.3,0.2-0.5c0-0.3,0.2-0.6,0-0.9
	c-0.1-0.1,0-0.3-0.1-0.5c0-0.4-0.1-0.8-0.2-1.1c0-0.1-0.2-0.3-0.2-0.4c0,0,0-0.1,0-0.1c0.1-0.1,0.1-0.2,0.2-0.2c0,0,0-0.1,0-0.1
	c-0.1-0.1-0.2-0.2-0.3-0.3c0,0,0-0.1,0-0.1c0.1,0,0.2-0.1,0.2-0.2c0.1,0,0.1-0.1,0.1-0.2c0,0-0.1-0.1-0.2-0.1c-0.1,0-0.2,0-0.3-0.1
	c0,0,0,0,0,0c0.2-0.1,0.3-0.3,0.5-0.4c0,0,0-0.1,0-0.1c0,0,0-0.1-0.1-0.1c-0.2,0-0.3-0.1-0.5-0.1c0,0,0,0,0,0
	c0.1-0.1,0.2-0.2,0.4-0.3c0.2-0.1,0.1-0.3-0.1-0.3c-0.2,0-0.3-0.1-0.5,0c-0.3,0.1-0.6,0.2-0.9,0.2c0,0,0,0,0,0
	c1.4-1.1,1.5-1.2,1.5-1.5c0,0,0,0,0,0c-0.8,0.4-1.5,0.7-2.3,1.1c0,0,0,0,0,0c0.8-0.8,1.6-1.4,2.1-2.5c0,0,0,0,0,0
	c-0.8,0.6-1.6,1.1-2.4,1.7c0,0-0.1,0-0.1,0c0,0,0,0,0-0.1c0.2-0.3,0.4-0.6,0.7-0.8c0.3-0.4,0.6-0.9,0.9-1.3c0.1-0.2,0.2-0.4,0.2-0.6
	c0,0,0-0.1,0-0.1l0,0c0,0-0.1,0-0.1,0c-0.7,0.7-1.4,1.5-2.1,2.2c0,0,0,0,0,0c0,0,0,0,0-0.1c0.4-0.6,0.8-1.2,1.1-1.9
	c0.2-0.4,0.2-0.8,0.1-1.2c0,0,0,0-0.1-0.1c0,0,0,0,0,0c-0.1,1.1-1,1.8-1.6,2.5c0,0,0,0,0,0c0.3-0.7,0.6-1.5,0.3-2.3c0,0,0,0,0,0
	c-0.2,0.5-0.3,1-0.6,1.4c-0.2,0.5-0.6,0.9-0.9,1.3c0,0,0,0,0,0c0.1-0.8,0.2-1.7-0.3-2.4c0,0,0,0,0,0c0,0.2,0,0.3,0,0.5
	c0,0.7-0.1,1.3-0.4,2C9.8,4,9.5,4.9,9.4,5.8c0,0.1,0,0.2-0.1,0.4c0,0,0,0,0,0C9.2,6.1,9.1,6,9,5.8c0,0,0,0,0,0C9,6,8.9,6,8.9,6.1
	C8.9,6.4,9,6.7,9,7c0.1,0.5,0.3,0.9,0.4,1.4c0,0.1,0,0.1,0.1,0.2c0,0,0,0.1,0,0.1c0,0,0,0,0,0c0,0,0,0.1,0,0.1c0,0,0,0-0.1,0
	c0,0-0.1,0-0.1-0.1c-0.1,0-0.2,0-0.2-0.1C8.9,8.4,8.6,8.4,8.3,8.5c0,0,0,0,0,0c0-0.2,0.1-0.4,0.1-0.6c0-0.1,0-0.2-0.1-0.3
	c0,0,0,0-0.1,0C8.1,7.6,8,7.6,7.9,7.6c-0.1,0-0.1,0.1-0.2,0.1c0,0,0,0,0,0c0-0.4,0.2-0.7,0-1.1c0,0,0,0-0.1,0
	C7.5,6.7,7.5,6.8,7.4,6.9c0,0,0,0,0,0c0-0.3,0-0.5,0-0.7c0,0,0-0.1,0-0.1c0,0-0.1,0-0.1,0C7,6.3,6.8,6.4,6.7,6.6c0,0,0,0-0.1,0
	c0,0,0,0,0-0.1c0.1-0.3,0.1-0.6,0.2-1c0,0,0-0.1,0-0.1c0,0,0,0,0,0c0,0-0.1,0-0.1,0C6.5,5.6,6.4,5.7,6.3,5.8c-0.3,0.3-0.5,0.7-0.8,1
	c0,0,0,0-0.1,0c0,0,0,0,0-0.1c0-0.1,0.1-0.2,0.1-0.3c0.2-0.4,0.4-0.8,0.5-1.2c0-0.1,0-0.2,0-0.3c0,0,0,0-0.1,0
	C5.4,5.5,5.2,6.3,4.6,6.8c0,0,0,0,0,0c0-0.2,0.1-0.3,0.1-0.5c0.2-0.5,0.4-1,0.6-1.5c0-0.1,0-0.2,0-0.3c0,0,0,0-0.1,0
	C4.9,4.6,4.7,5,4.5,5.3C4.3,5.6,4.1,6,3.9,6.3c0,0,0,0-0.1,0c0,0,0,0,0-0.1C4,5.5,4.3,4.7,4.5,3.9c0,0,0-0.1,0-0.1c0,0,0,0,0,0
	c0,0-0.1,0-0.1,0C3.6,4.4,3.5,5.4,2.9,6.2c0,0,0,0,0,0c0-0.2,0-0.3,0-0.5C3,5.1,3.2,4.5,3.3,3.9c0-0.2,0-0.3,0-0.5c0,0,0-0.1,0-0.1
	c0,0,0,0,0,0c0,0-0.1,0-0.1,0C3.1,3.5,3,3.6,2.9,3.7C2.5,4.4,2.3,5.3,2,6.1C2,6.3,2,6.4,1.9,6.6c0,0,0,0,0,0
	C1.7,6.2,1.7,5.8,1.7,5.4C1.8,5,1.9,4.5,1.9,4c0-0.1,0-0.2,0-0.3c0,0,0-0.1,0-0.1c0,0,0,0,0,0c0,0-0.1,0-0.1,0
	C1.8,3.8,1.7,3.9,1.6,4C1.5,4.4,1.3,4.9,1.1,5.4C1,5.7,1,6.1,0.9,6.5c0,0,0,0.1,0,0.1c0,0,0,0,0,0C0.7,5.9,0.6,5.3,0.5,4.7
	c0,0,0-0.1-0.1-0.1c0,0,0,0,0,0c0,0-0.1,0-0.1,0C0.3,4.8,0.2,5,0.2,5.1c-0.1,0.8-0.1,1.6,0,2.3C0.4,8.7,0.9,9.9,1.5,11.1z"/>
</svg>
