<?xml version="1.0" encoding="utf-8"?>
<!-- Generator: Adobe Illustrator 21.0.0, SVG Export Plug-In . SVG Version: 6.00 Build 0)  -->
<svg version="1.1" id="Слой_1" xmlns="http://www.w3.org/2000/svg" xmlns:xlink="http://www.w3.org/1999/xlink" x="0px" y="0px"
	 viewBox="0 0 11 15" style="enable-background:new 0 0 11 15;" xml:space="preserve">
<style type="text/css">
	.st0{fill:#262626;}
</style>
<path class="st0" d="M0,5.2C0,6,0.2,6.8,0.6,7.8c0.4,1,0.8,1.8,1.3,2.6c0.5,0.8,1,1.5,1.7,2.4c0.6,0.8,1.1,1.4,1.3,1.6
	c0.2,0.3,0.4,0.5,0.6,0.6l0.6-0.6c0.4-0.4,0.8-1,1.4-1.7C8,12,8.5,11.2,9.1,10.4c0.5-0.8,1-1.7,1.4-2.6C10.8,6.8,11,6,11,5.2
	c0-1.5-0.5-2.7-1.6-3.7C8.3,0.5,7,0,5.5,0C4,0,2.7,0.5,1.6,1.5C0.5,2.6,0,3.8,0,5.2L0,5.2z M3.5,5.2c0-0.5,0.2-1,0.6-1.3
	c0.4-0.4,0.8-0.5,1.4-0.5c0.5,0,1,0.2,1.4,0.5c0.4,0.4,0.6,0.8,0.6,1.3c0,0.5-0.2,1-0.6,1.3C6.5,6.9,6,7.1,5.5,7.1
	c-0.5,0-1-0.2-1.4-0.5C3.7,6.2,3.5,5.8,3.5,5.2z"/>
</svg>
