<?xml version="1.0" encoding="utf-8"?>
<!-- Generator: Adobe Illustrator 21.0.0, SVG Export Plug-In . SVG Version: 6.00 Build 0)  -->
<svg version="1.1" id="Слой_1" xmlns="http://www.w3.org/2000/svg" xmlns:xlink="http://www.w3.org/1999/xlink" x="0px" y="0px"
	 viewBox="0 0 8 12" style="enable-background:new 0 0 8 12;" xml:space="preserve">
<style type="text/css">
	.st0{fill:#353535;}
</style>
<path class="st0" d="M0,4.2c0,0.6,0.1,1.3,0.4,2C0.7,7,1,7.7,1.4,8.3c0.4,0.6,0.8,1.2,1.2,1.9c0.5,0.6,0.8,1.1,0.9,1.3
	C3.7,11.7,3.9,11.9,4,12l0.4-0.5c0.3-0.3,0.6-0.8,1-1.4C5.8,9.6,6.2,9,6.6,8.3C7,7.7,7.3,7,7.6,6.2C7.9,5.4,8,4.8,8,4.2
	C8,3,7.6,2,6.8,1.2C6,0.4,5.1,0,4,0c-1.1,0-2,0.4-2.8,1.2C0.4,2,0,3,0,4.2L0,4.2z M2.6,4.2c0-0.4,0.1-0.8,0.4-1.1
	c0.3-0.3,0.6-0.4,1-0.4c0.4,0,0.7,0.1,1,0.4c0.3,0.3,0.4,0.6,0.4,1.1C5.4,4.6,5.3,5,5,5.3C4.7,5.5,4.4,5.7,4,5.7
	c-0.4,0-0.7-0.1-1-0.4C2.7,5,2.6,4.6,2.6,4.2z"/>
</svg>
