<?xml version="1.0" encoding="utf-8"?>
<!-- Generator: Adobe Illustrator 21.0.0, SVG Export Plug-In . SVG Version: 6.00 Build 0)  -->
<svg version="1.1" id="Слой_1" xmlns="http://www.w3.org/2000/svg" xmlns:xlink="http://www.w3.org/1999/xlink" x="0px" y="0px"
	 viewBox="0 0 24 26" style="enable-background:new 0 0 24 26;" xml:space="preserve">
<style type="text/css">
	.st0{fill:#FFFFFF;}
</style>
<path class="st0" d="M23,9.2c-0.4-0.4-0.8-0.8-1.3-1.1c-0.4-0.4-0.8-0.7-1.3-1c-0.4-0.3-0.8-0.4-1.2-0.6c-0.2-0.1-0.4-0.2-0.6-0.3
	c-0.2-0.1-0.4-0.3-0.6-0.5c-0.3-0.5-0.8-0.9-1.3-1.2c-0.3-0.2-0.7-0.4-1.1-0.6c-0.1,0-0.2-0.1-0.2-0.2c0.3-0.1,0.6,0,0.8,0.2
	c-0.1-0.3-0.4-0.5-0.6-0.7c0,0,0,0,0,0c0.2,0,0.4,0.1,0.6,0.1c0-0.1-0.1-0.2-0.3-0.3c-0.7-0.5-1.4-0.7-2.3-0.6
	c-0.3,0-0.6,0.1-0.9,0.1c-0.6,0.1-1.2,0.3-1.8,0.5c-0.1,0-0.2,0.1-0.4,0.2c-0.6,0.4-1.2,0.8-1.8,1.2C8.4,4.6,8,5.1,7.6,5.6
	C7.1,6.4,7,7.2,7.1,8.1c0,0.3,0,0.6,0.1,1c0,0.6-0.2,1-0.7,1.3c-0.5,0.3-1,0.3-1.5,0c-0.3-0.2-0.5-0.4-0.6-0.7
	C4.1,8.9,4,8.3,4.3,7.6C4.5,7,4.8,6.4,5.1,5.8c0.3-0.8,0.7-1.5,1-2.3c0.2-0.7,0.2-1.4,0-2.1C5.8,0.9,5.4,0.5,4.9,0.3
	C4.1,0,3.4-0.1,2.6,0.1C2,0.1,1.6,0.4,1.4,0.8C1.3,1,1.1,1.2,1,1.5C0.8,1.9,0.6,2.2,0.4,2.6C0.3,2.7,0.2,2.8,0.2,2.9
	C0,3.2,0,3.6,0.1,3.9c0.2,0.4,0.3,0.8,0.5,1.2C0.7,5.3,0.9,5.5,1,5.7c0,0,0.1,0.1,0.2,0.1c0-0.1,0.1-0.1,0.1-0.2c0-0.2,0-0.4,0-0.6
	C1.2,4.4,1.4,3.8,1.7,3.3c0.1-0.2,0.3-0.4,0.5-0.5c0.2-0.1,0.4-0.2,0.5-0.2c0.4-0.1,0.6-0.4,0.9-0.7c0.1-0.1,0.2-0.2,0.2-0.3
	C3.9,1.5,4,1.5,4.2,1.5c0.3,0,0.5,0.1,0.8,0.2c0.2,0.1,0.2,0.3,0.2,0.5c0,0.4,0,0.8-0.1,1.1C4.8,3.8,4.6,4.4,4.3,5C3.8,6,3.4,7,3,8
	C2.8,8.6,2.8,9.1,3,9.7C3,10,3.1,10.3,3.2,10.6c0.2,0.5,0.7,0.9,1.2,1.1c1,0.4,2,0.4,3,0c0.5-0.2,0.9-0.6,1.2-1
	c0.2-0.3,0.5-0.5,0.9-0.6c0.2,0,0.4-0.1,0.7-0.1c0.1,0,0.3,0.1,0.3,0.2c0.1,0.2,0.3,0.5,0.3,0.7c0.2,0.5,0.3,1.1,0.3,1.6
	c0.1,0.7,0.1,1.4,0.1,2.2c0,0.4,0,0.8-0.1,1.2c0,0.3,0,0.7,0.1,1c0.2,0.7,0.2,1.3,0.2,2c0,0.8,0,1.5,0.1,2.3c0,1,0.1,1.9,0.1,2.9
	c0,0.1,0,0.3,0,0.4c0,0.1-0.1,0.1-0.2,0.2c-0.6,0.1-1.1,0.1-1.7,0.2c0,0-0.1,0-0.1,0c-0.3,0-0.6,0-0.8,0c-0.2,0-0.4,0.2-0.4,0.4
	c0,0.1,0.1,0.2,0.2,0.3c0,0.1,0.2,0.2,0.3,0.2c0.5,0,1.1,0,1.6,0c0.2,0,0.3,0.1,0.5,0.1c0.3,0,0.6-0.1,0.8-0.2
	c0.5-0.2,0.7-1,0.3-1.4c0-0.1-0.1-0.1-0.1-0.2c0-0.5,0-1-0.1-1.4c0-1-0.1-2-0.1-3c0-0.7,0-1.3,0-2c0-0.2,0.1-0.4,0.1-0.6
	c0-0.3,0.1-0.6,0.1-0.9c0-0.6-0.1-1.1-0.2-1.7c0-0.1,0-0.1,0-0.2c0.1,0.2,0.2,0.3,0.4,0.4c0.1,0.1,0.2,0.1,0.4,0.1c0,0,0.1,0,0.1,0
	c0.2-0.1,0.2-0.3,0.1-0.5c-0.1-0.2-0.2-0.5-0.3-0.7c0-0.1,0-0.1,0-0.2c0,0,0-0.1,0-0.1c0,0,0,0,0,0c0-0.1,0.1-0.2,0.1-0.4
	c0,0,0-0.1,0-0.1c0.2,0,0.3-0.1,0.5-0.1c0.3-0.1,0.7-0.2,1-0.3c1.2-0.3,2.4-0.7,3.7-1c0.1,0,0.1,0,0.2,0c0.2-0.1,0.4-0.1,0.5-0.2
	c0.1,0,0.1,0.1,0.2,0.1h0c0.1,0,0.2,0,0.3-0.1c0.1-0.1,0.1-0.2,0.1-0.3c0,0,0-0.1,0-0.1c0-0.1,0-0.2-0.1-0.3c0-0.1-0.1-0.1-0.2-0.2
	c-0.1,0-0.1-0.1-0.2-0.1c0,0,0,0,0,0c-0.3-0.2-0.6-0.3-0.9-0.5c0.2-0.1,0.5-0.2,0.7-0.2c1.8-0.5,3.5-0.3,5.2,0.7
	c0.1,0,0.1,0.1,0.2,0.1c0,0,0,0,0,0c-0.1-0.1-0.1-0.3-0.2-0.4C23.6,9.8,23.3,9.5,23,9.2z M13.6,12c-0.4,0.1-0.7,0.2-1.1,0.3
	c-0.2,0.1-0.5,0.2-0.7,0.3c0-0.3-0.1-0.7-0.1-1c0-0.2,0-0.3,0-0.5c0-0.2,0.1-0.3,0.3-0.3c0.2,0,0.5,0,0.7,0c0.5,0,1.1,0,1.6-0.1
	c0.4,0,0.8-0.1,1.2-0.1c0,0,1.5-0.2,1.4-0.2c0.1,0,0.2-0.1,0.3-0.1c0.3,0.2,0.6,0.3,0.9,0.5C16.4,11.2,15,11.6,13.6,12z"/>
</svg>
