<?xml version="1.0" encoding="utf-8"?>
<!-- Generator: Adobe Illustrator 22.0.0, SVG Export Plug-In . SVG Version: 6.00 Build 0)  -->
<svg version="1.1" id="Livello_1" xmlns="http://www.w3.org/2000/svg" xmlns:xlink="http://www.w3.org/1999/xlink" x="0px" y="0px"
	 viewBox="0 0 370 46" style="enable-background:new 0 0 370 46;" xml:space="preserve">
<style type="text/css">
	.st0{opacity:0.84;fill:#2E2E2E;enable-background:new    ;}
	.st1{enable-background:new    ;}
	.st2{fill:#FFFEFE;}
	.st3{fill:#FFFFFF;}
</style>
<path id="Rounded_Rectangle_119_copy_3" class="st0" d="M0,43.7h370V46H0V43.7z M5,0h360c2.8,0,5,0.5,5,1.1V45c0,0.6-2.2,1.1-5,1.1
	H5c-2.8,0-5-0.5-5-1.1V1.1C0,0.5,2.2,0,5,0z"/>
<g class="st1">
	<path class="st2" d="M18.1,25.8c0.1,1,1.1,1.6,2.5,1.6c1.3,0,2.3-0.7,2.3-1.6c0-0.8-0.6-1.3-2-1.6l-1.4-0.3
		c-1.9-0.4-2.8-1.4-2.8-2.9c0-1.9,1.5-3.1,3.8-3.1c2.1,0,3.7,1.3,3.8,3h-1.6c-0.2-1-1-1.6-2.2-1.6c-1.3,0-2.2,0.6-2.2,1.6
		c0,0.8,0.6,1.2,1.9,1.5l1.2,0.3c2.2,0.5,3.1,1.4,3.1,3c0,2-1.6,3.3-4.1,3.3c-2.3,0-3.9-1.2-4-3.1H18.1z"/>
	<path class="st2" d="M26,26.4c0-1.4,1.1-2.3,3-2.4l2.2-0.1v-0.7c0-0.8-0.6-1.3-1.6-1.3c-0.9,0-1.5,0.3-1.7,0.9h-1.5
		c0.2-1.4,1.5-2.2,3.3-2.2c2,0,3.1,1,3.1,2.7v5.4h-1.5v-1.1h-0.1c-0.5,0.8-1.3,1.3-2.4,1.3C27.2,28.8,26,27.9,26,26.4z M31.2,25.8
		v-0.7l-1.9,0.1c-1.1,0.1-1.6,0.4-1.6,1.1c0,0.7,0.6,1.1,1.5,1.1C30.3,27.5,31.2,26.7,31.2,25.8z"/>
	<path class="st2" d="M35.5,22.1h-1.3v-1.3h1.3V20c0-1.6,0.8-2.3,2.5-2.3c0.3,0,0.6,0,0.9,0.1V19c-0.2,0-0.4-0.1-0.7-0.1
		c-0.7,0-1.1,0.3-1.1,1.1v0.7h1.8v1.3h-1.8v6.6h-1.6V22.1z"/>
	<path class="st2" d="M40,26.4c0-1.4,1.1-2.3,3-2.4l2.2-0.1v-0.7c0-0.8-0.6-1.3-1.6-1.3c-0.9,0-1.5,0.3-1.7,0.9h-1.5
		c0.2-1.4,1.5-2.2,3.3-2.2c2,0,3.1,1,3.1,2.7v5.4h-1.5v-1.1H45c-0.5,0.8-1.3,1.3-2.4,1.3C41.1,28.8,40,27.9,40,26.4z M45.1,25.8
		v-0.7l-1.9,0.1c-1.1,0.1-1.6,0.4-1.6,1.1c0,0.7,0.6,1.1,1.5,1.1C44.2,27.5,45.1,26.7,45.1,25.8z"/>
	<path class="st2" d="M48.9,20.7h1.5v1.2h0.1c0.2-0.8,1.1-1.4,2.1-1.4c0.2,0,0.5,0,0.7,0.1v1.6c-0.1,0-0.6-0.1-0.9-0.1
		c-1.2,0-2,0.8-2,1.9v4.7h-1.6V20.7z"/>
	<path class="st2" d="M54.7,18.4c0-0.5,0.4-1,1-1s1,0.4,1,1c0,0.5-0.4,1-1,1S54.7,18.9,54.7,18.4z M55,20.7h1.6v8H55V20.7z"/>
	<path class="st2" d="M62.7,18.4c0-0.5,0.4-1,1-1s1,0.4,1,1c0,0.5-0.4,1-1,1S62.7,18.9,62.7,18.4z M63,20.7h1.6v8H63V20.7z"/>
	<path class="st2" d="M66.9,20.7h1.5V22h0.1c0.4-0.9,1.3-1.4,2.5-1.4c1.8,0,2.8,1.1,2.8,3v5.2h-1.6v-4.8c0-1.3-0.6-1.9-1.7-1.9
		c-1.3,0-2,0.8-2,2v4.7h-1.6V20.7z"/>
	<path class="st2" d="M83,28.7v-9.1h-3.3v-1.5h8.3v1.5h-3.3v9.1H83z"/>
	<path class="st2" d="M88.2,26.4c0-1.4,1.1-2.3,3-2.4l2.2-0.1v-0.7c0-0.8-0.6-1.3-1.6-1.3c-0.9,0-1.5,0.3-1.7,0.9h-1.5
		c0.2-1.4,1.5-2.2,3.3-2.2c2,0,3.1,1,3.1,2.7v5.4h-1.5v-1.1h-0.1c-0.5,0.8-1.3,1.3-2.4,1.3C89.3,28.8,88.2,27.9,88.2,26.4z
		 M93.3,25.8v-0.7l-1.9,0.1c-1.1,0.1-1.6,0.4-1.6,1.1c0,0.7,0.6,1.1,1.5,1.1C92.5,27.5,93.3,26.7,93.3,25.8z"/>
	<path class="st2" d="M97.2,20.7h1.5V22h0.1c0.4-0.9,1.3-1.4,2.5-1.4c1.8,0,2.8,1.1,2.8,3v5.2h-1.6v-4.8c0-1.3-0.6-1.9-1.7-1.9
		c-1.3,0-2,0.8-2,2v4.7h-1.6V20.7z"/>
	<path class="st2" d="M106.1,27.6l4.4-5.4V22h-4.4v-1.3h6.2v1.2l-4.3,5.4v0.1h4.3v1.3h-6.3V27.6z"/>
	<path class="st2" d="M114.1,26.4c0-1.4,1.1-2.3,3-2.4l2.2-0.1v-0.7c0-0.8-0.6-1.3-1.6-1.3c-0.9,0-1.5,0.3-1.7,0.9h-1.5
		c0.2-1.4,1.5-2.2,3.3-2.2c2,0,3.1,1,3.1,2.7v5.4h-1.5v-1.1h-0.1c-0.5,0.8-1.3,1.3-2.4,1.3C115.2,28.8,114.1,27.9,114.1,26.4z
		 M119.2,25.8v-0.7l-1.9,0.1c-1.1,0.1-1.6,0.4-1.6,1.1c0,0.7,0.6,1.1,1.5,1.1C118.3,27.5,119.2,26.7,119.2,25.8z"/>
	<path class="st2" d="M123,20.7h1.5V22h0.1c0.4-0.9,1.3-1.4,2.5-1.4c1.8,0,2.8,1.1,2.8,3v5.2h-1.6v-4.8c0-1.3-0.6-1.9-1.7-1.9
		c-1.3,0-2,0.8-2,2v4.7H123V20.7z"/>
	<path class="st2" d="M132,18.4c0-0.5,0.4-1,1-1s1,0.4,1,1c0,0.5-0.4,1-1,1S132,18.9,132,18.4z M132.2,20.7h1.6v8h-1.6V20.7z"/>
	<path class="st2" d="M135.6,26.4c0-1.4,1.1-2.3,3-2.4l2.2-0.1v-0.7c0-0.8-0.6-1.3-1.6-1.3c-0.9,0-1.5,0.3-1.7,0.9h-1.5
		c0.2-1.4,1.5-2.2,3.3-2.2c2,0,3.1,1,3.1,2.7v5.4h-1.5v-1.1h-0.1c-0.5,0.8-1.3,1.3-2.4,1.3C136.7,28.8,135.6,27.9,135.6,26.4z
		 M140.7,25.8v-0.7l-1.9,0.1c-1.1,0.1-1.6,0.4-1.6,1.1c0,0.7,0.6,1.1,1.5,1.1C139.9,27.5,140.7,26.7,140.7,25.8z"/>
</g>
<g class="st1">
	<path class="st3" d="M270.9,18.2c0,2.3-1.3,3.7-3.4,3.7c-2.1,0-3.4-1.4-3.4-3.7s1.3-3.7,3.4-3.7C269.6,14.5,270.9,15.9,270.9,18.2z
		 M265.7,18.2c0,1.5,0.7,2.4,1.9,2.4c1.1,0,1.9-0.9,1.9-2.4c0-1.5-0.7-2.4-1.9-2.4C266.4,15.8,265.7,16.7,265.7,18.2z"/>
	<path class="st3" d="M274,21.7l-2.4-7h1.7l1.6,5.4h0.1l1.6-5.4h1.6l-2.3,7H274z"/>
	<path class="st3" d="M284,21.7h-4.7v-7h4.7v1.3h-3.2v1.6h3v1.2h-3v1.7h3.2V21.7z"/>
	<path class="st3" d="M287,21.7h-1.5v-7h3c1.5,0,2.5,0.9,2.5,2.3c0,0.9-0.5,1.7-1.3,2l1.5,2.8h-1.7l-1.3-2.6H287V21.7z M287,18h1.3
		c0.7,0,1.2-0.4,1.2-1.1c0-0.7-0.5-1.1-1.2-1.1H287V18z"/>
	<path class="st3" d="M296.7,17.5h0.9c0.7,0,1.1-0.4,1.1-1c0-0.6-0.4-0.9-1.1-0.9c-0.7,0-1.1,0.4-1.2,1H295c0-1.3,1-2.2,2.6-2.2
		c1.4,0,2.5,0.8,2.5,1.9c0,0.8-0.5,1.5-1.3,1.6v0.1c1,0.1,1.6,0.8,1.6,1.7c0,1.2-1.2,2.1-2.8,2.1c-1.6,0-2.6-0.9-2.7-2.2h1.4
		c0,0.6,0.5,1,1.3,1c0.7,0,1.3-0.4,1.3-1c0-0.6-0.5-1-1.3-1h-0.9V17.5z"/>
	<path class="st3" d="M301.5,18.2c0-2.3,1.1-3.7,2.8-3.7c1.7,0,2.8,1.4,2.8,3.7c0,2.3-1.1,3.7-2.8,3.7S301.5,20.5,301.5,18.2z
		 M305.6,18.2c0-1.6-0.5-2.5-1.3-2.5c-0.8,0-1.3,0.8-1.3,2.5c0,1.6,0.5,2.5,1.3,2.5C305.1,20.7,305.6,19.8,305.6,18.2z"/>
	<path class="st3" d="M308.3,18.2c0-2.3,1.1-3.7,2.8-3.7c1.7,0,2.8,1.4,2.8,3.7c0,2.3-1.1,3.7-2.8,3.7S308.3,20.5,308.3,18.2z
		 M312.4,18.2c0-1.6-0.5-2.5-1.3-2.5c-0.8,0-1.3,0.8-1.3,2.5c0,1.6,0.5,2.5,1.3,2.5C311.9,20.7,312.4,19.8,312.4,18.2z"/>
</g>
<g class="st1">
	<path class="st3" d="M265.6,31.7c0.1,0.6,0.6,0.9,1.5,0.9c0.8,0,1.3-0.4,1.3-0.9c0-0.4-0.4-0.7-1.2-0.9l-0.9-0.2
		c-1.3-0.3-1.9-0.9-1.9-2c0-1.3,1.1-2.2,2.7-2.2c1.6,0,2.7,0.9,2.7,2.1h-1.4c-0.1-0.6-0.6-0.9-1.3-0.9c-0.7,0-1.2,0.3-1.2,0.9
		c0,0.4,0.3,0.7,1.2,0.9l0.8,0.2c1.4,0.3,2,0.9,2,2c0,1.4-1.1,2.3-2.9,2.3c-1.7,0-2.8-0.8-2.8-2.1H265.6z"/>
	<path class="st3" d="M275.2,32h-2.5l-0.5,1.7h-1.5l2.4-7h1.7l2.4,7h-1.6L275.2,32z M273.1,30.9h1.8l-0.9-2.8H274L273.1,30.9z"/>
	<path class="st3" d="M278.6,33.7v-7h4.6v1.3H280v1.8h2.9v1.2H280v2.7H278.6z"/>
	<path class="st3" d="M288.1,32h-2.5l-0.5,1.7h-1.5l2.4-7h1.7l2.4,7h-1.6L288.1,32z M286,30.9h1.8l-0.9-2.8h-0.1L286,30.9z"/>
	<path class="st3" d="M292.9,33.7h-1.5v-7h3c1.5,0,2.5,0.9,2.5,2.3c0,0.9-0.5,1.7-1.3,2l1.5,2.8h-1.7l-1.3-2.6h-1.2V33.7z M292.9,30
		h1.3c0.7,0,1.2-0.4,1.2-1.1c0-0.7-0.5-1.1-1.2-1.1h-1.3V30z"/>
	<path class="st3" d="M298.4,33.7v-7h1.5v7H298.4z"/>
	<path class="st3" d="M308.2,32h-2.5l-0.5,1.7h-1.5l2.4-7h1.7l2.4,7h-1.6L308.2,32z M306,30.9h1.8l-0.9-2.8h-0.1L306,30.9z"/>
	<path class="st3" d="M311.5,33.7v-7h1.2L316,31h0.1v-4.4h1.4v7h-1.2l-3.3-4.4h-0.1v4.4H311.5z"/>
	<path class="st3" d="M319.2,33.7v-7h1.2l3.2,4.4h0.1v-4.4h1.4v7h-1.2l-3.3-4.4h-0.1v4.4H319.2z"/>
	<path class="st3" d="M328.3,31.1c0,0.9,0.5,1.5,1.5,1.5c0.9,0,1.5-0.6,1.5-1.5v-4.5h1.5v4.6c0,1.6-1.1,2.6-3,2.6
		c-1.8,0-2.9-1-2.9-2.6v-4.6h1.5V31.1z"/>
	<path class="st3" d="M338.3,32h-2.5l-0.5,1.7h-1.5l2.4-7h1.7l2.4,7h-1.6L338.3,32z M336.2,30.9h1.8l-0.9-2.8H337L336.2,30.9z"/>
	<path class="st3" d="M346.3,33.7h-4.6v-7h1.5v5.8h3.1V33.7z"/>
	<path class="st3" d="M352.2,33.7h-4.6v-7h1.5v5.8h3.1V33.7z"/>
	<path class="st3" d="M354.5,33.7v-2.6l-2.5-4.5h1.6l1.6,2.9h0.1l1.5-2.9h1.6l-2.5,4.5v2.6H354.5z"/>
</g>
<path id="Forma_1" class="st3" d="M243.3,21c-0.9,2.1,3.6,2.2,5.7,3.3s3,3.1,3.4,3.1c2.5-3.3-1.4-7.9-1.4-7.9
	c-0.9-0.3-1.6-1-1.8-1.9c-0.3-1.5,1.1-3.6,0.8-2.5s1.4,1.7,1.5,2.4c0.1,0.7,0.1,1.3,0,2c0,0,4.3,2.6,1.6,8.7c1,4.1-1.2,4.1-1.2,4.1
	s0.8,1.5-1.4,1.5h-5.3c-1.9,0-0.5-1.6,0.3-1.6s1.5,0,1.9,0c-0.1,0-2.5-0.2-2-1.8c-2.4,0-4.8-0.3-7.2-1c0,0-2,4.7-3.4,4.6
	s-2.6,0.1-2.5-0.7c0.2-1.6,2.4-0.1,2.6-3c0.1-1.1,0.5-2.1,1.1-3c0,0-2.7-1.8-1.8-7c-0.3,0-1.1,0.2-1.4-0.4c-0.1-0.4-0.1-0.8,0-1.1
	c0,0-1.1-1.5-0.6-2.4s2.5-1.1,3.4-1.2c0.4-3.6,2-3.5,4.4-2.5C244,12.1,245.1,18.4,243.3,21z"/>
</svg>
