<?xml version="1.0" encoding="utf-8"?>
<!-- Generator: Adobe Illustrator 22.0.0, SVG Export Plug-In . SVG Version: 6.00 Build 0)  -->
<svg version="1.1" id="Livello_1" xmlns="http://www.w3.org/2000/svg" xmlns:xlink="http://www.w3.org/1999/xlink" x="0px" y="0px"
	 viewBox="0 0 370 46" style="enable-background:new 0 0 370 46;" xml:space="preserve">
<style type="text/css">
	.st0{opacity:0.84;fill:#2E2E2E;enable-background:new    ;}
	.st1{fill:#FFFFFF;}
	.st2{enable-background:new    ;}
	.st3{fill:#FFFEFE;}
</style>
<path id="Rounded_Rectangle_119_copy_3" class="st0" d="M0,43.7h370V46H0V43.7z M5,0h360c2.8,0,5,0.5,5,1.1V45c0,0.6-2.2,1.1-5,1.1
	H5c-2.8,0-5-0.5-5-1.1V1.1C0,0.5,2.2,0,5,0z"/>
<path class="st1" d="M261.8,24.8l-1.5,2.4l-3.2-5.2v-4.5h4.3l-1.2-1.8l1.2-1.8h-6.1V22l-3.2,5.2l-1.5-2.4l-5.5,9.1h22L261.8,24.8z
	 M257.4,32.1h-2.2l-1.9-3.2l3-5l3,5L257.4,32.1z"/>
<g class="st2">
	<path class="st1" d="M283.1,21.7v-2.9H280v2.9h-1.5v-7h1.5v2.8h3.2v-2.8h1.5v7H283.1z"/>
	<path class="st1" d="M286.3,21.7v-7h1.5v7H286.3z"/>
	<path class="st1" d="M292.6,21.9c-2.1,0-3.4-1.4-3.4-3.7c0-2.3,1.3-3.7,3.3-3.7c1.7,0,2.9,1,3.1,2.4h-1.5c-0.2-0.7-0.8-1.1-1.6-1.1
		c-1.1,0-1.8,0.9-1.8,2.4c0,1.5,0.7,2.4,1.9,2.4c1,0,1.6-0.6,1.7-1.4l0-0.1h-1.5v-1.1h3v0.9C295.7,20.7,294.5,21.9,292.6,21.9z"/>
	<path class="st1" d="M297.1,21.7v-7h1.2l3.2,4.4h0.1v-4.4h1.4v7h-1.2l-3.3-4.4h-0.1v4.4H297.1z"/>
	<path class="st1" d="M308.5,19.7c0.1,0.6,0.6,0.9,1.5,0.9c0.8,0,1.3-0.4,1.3-0.9c0-0.4-0.4-0.7-1.2-0.9l-0.9-0.2
		c-1.3-0.3-1.9-0.9-1.9-2c0-1.3,1.1-2.2,2.7-2.2c1.6,0,2.7,0.9,2.7,2.1h-1.4c-0.1-0.6-0.6-0.9-1.3-0.9c-0.7,0-1.2,0.3-1.2,0.9
		c0,0.4,0.3,0.7,1.2,0.9l0.8,0.2c1.4,0.3,2,0.9,2,2c0,1.4-1.1,2.3-2.9,2.3c-1.7,0-2.8-0.8-2.8-2.1H308.5z"/>
	<path class="st1" d="M315.6,19.1c0,0.9,0.5,1.5,1.5,1.5c0.9,0,1.5-0.6,1.5-1.5v-4.5h1.5v4.6c0,1.6-1.1,2.6-3,2.6
		c-1.8,0-2.9-1-2.9-2.6v-4.6h1.5V19.1z"/>
	<path class="st1" d="M321.4,18.2c0-2.3,1.3-3.7,3.3-3.7c1.7,0,2.9,1.1,3.1,2.6h-1.4c-0.1-0.8-0.8-1.3-1.6-1.3
		c-1.1,0-1.8,0.9-1.8,2.4s0.7,2.4,1.8,2.4c0.8,0,1.5-0.5,1.6-1.3h1.4c-0.1,1.5-1.4,2.6-3.1,2.6C322.7,21.9,321.4,20.5,321.4,18.2z"
		/>
	<path class="st1" d="M328.8,18.2c0-2.3,1.3-3.7,3.3-3.7c1.7,0,2.9,1.1,3.1,2.6h-1.4c-0.1-0.8-0.8-1.3-1.6-1.3
		c-1.1,0-1.8,0.9-1.8,2.4s0.7,2.4,1.8,2.4c0.8,0,1.5-0.5,1.6-1.3h1.4c-0.1,1.5-1.4,2.6-3.1,2.6C330.1,21.9,328.8,20.5,328.8,18.2z"
		/>
	<path class="st1" d="M341.2,21.7h-4.7v-7h4.7v1.3H338v1.6h3v1.2h-3v1.7h3.2V21.7z"/>
	<path class="st1" d="M343.9,19.7c0.1,0.6,0.6,0.9,1.5,0.9c0.8,0,1.3-0.4,1.3-0.9c0-0.4-0.4-0.7-1.2-0.9l-0.9-0.2
		c-1.3-0.3-1.9-0.9-1.9-2c0-1.3,1.1-2.2,2.7-2.2c1.6,0,2.7,0.9,2.7,2.1h-1.4c-0.1-0.6-0.6-0.9-1.3-0.9c-0.7,0-1.2,0.3-1.2,0.9
		c0,0.4,0.3,0.7,1.2,0.9l0.8,0.2c1.4,0.3,2,0.9,2,2c0,1.4-1.1,2.3-2.9,2.3c-1.7,0-2.8-0.8-2.8-2.1H343.9z"/>
	<path class="st1" d="M350.7,19.7c0.1,0.6,0.6,0.9,1.5,0.9c0.8,0,1.3-0.4,1.3-0.9c0-0.4-0.4-0.7-1.2-0.9l-0.9-0.2
		c-1.3-0.3-1.9-0.9-1.9-2c0-1.3,1.1-2.2,2.7-2.2c1.6,0,2.7,0.9,2.7,2.1h-1.4c-0.1-0.6-0.6-0.9-1.3-0.9c-0.7,0-1.2,0.3-1.2,0.9
		c0,0.4,0.3,0.7,1.2,0.9l0.8,0.2c1.4,0.3,2,0.9,2,2c0,1.4-1.1,2.3-2.9,2.3c-1.7,0-2.8-0.8-2.8-2.1H350.7z"/>
</g>
<g class="st2">
	<path class="st1" d="M280,33.7h-1.5v-7h3c1.5,0,2.5,0.9,2.5,2.3c0,0.9-0.5,1.7-1.3,2l1.5,2.8h-1.7l-1.3-2.6H280V33.7z M280,30h1.3
		c0.7,0,1.2-0.4,1.2-1.1c0-0.7-0.5-1.1-1.2-1.1H280V30z"/>
	<path class="st1" d="M289.4,32h-2.5l-0.5,1.7h-1.5l2.4-7h1.7l2.4,7H290L289.4,32z M287.3,30.9h1.8l-0.9-2.8h-0.1L287.3,30.9z"/>
	<path class="st1" d="M293.7,33.7v-5.8h-2.1v-1.3h5.7v1.3h-2.1v5.8H293.7z"/>
	<path class="st1" d="M303.3,33.7h-4.7v-7h4.7v1.3h-3.2v1.6h3v1.2h-3v1.7h3.2V33.7z"/>
</g>
<g class="st2">
	<path class="st3" d="M17,28.7V18.1h1.6v5h0.1l4.4-5H25l-4.1,4.6l4.4,6h-2.1l-3.5-4.8l-1.2,1.3v3.5H17z"/>
	<path class="st3" d="M26.7,18.4c0-0.5,0.4-1,1-1s1,0.4,1,1c0,0.5-0.4,1-1,1S26.7,18.9,26.7,18.4z M26.9,20.7h1.6v8h-1.6V20.7z"/>
	<path class="st3" d="M30.9,17.6h1.6v11.1h-1.6V17.6z"/>
	<path class="st3" d="M34.6,18.4c0-0.5,0.4-1,1-1s1,0.4,1,1c0,0.5-0.4,1-1,1S34.6,18.9,34.6,18.4z M34.9,20.7h1.6v8h-1.6V20.7z"/>
	<path class="st3" d="M38.7,20.7h1.5V22h0.1c0.4-0.9,1.2-1.4,2.2-1.4c1.1,0,1.8,0.6,2.2,1.4h0.1c0.4-0.9,1.3-1.4,2.4-1.4
		c1.6,0,2.5,1,2.5,2.6v5.5h-1.6v-5.1c0-1.1-0.5-1.6-1.5-1.6c-1,0-1.7,0.7-1.7,1.7v5h-1.5v-5.2c0-0.9-0.6-1.5-1.5-1.5
		c-1,0-1.7,0.8-1.7,1.8v4.9h-1.6V20.7z"/>
	<path class="st3" d="M51.7,26.4c0-1.4,1.1-2.3,3-2.4l2.2-0.1v-0.7c0-0.8-0.6-1.3-1.6-1.3c-0.9,0-1.5,0.3-1.7,0.9H52
		c0.2-1.4,1.5-2.2,3.3-2.2c2,0,3.1,1,3.1,2.7v5.4h-1.5v-1.1h-0.1c-0.5,0.8-1.3,1.3-2.4,1.3C52.8,28.8,51.7,27.9,51.7,26.4z
		 M56.8,25.8v-0.7l-1.9,0.1c-1.1,0.1-1.6,0.4-1.6,1.1c0,0.7,0.6,1.1,1.5,1.1C55.9,27.5,56.8,26.7,56.8,25.8z"/>
	<path class="st3" d="M60.6,20.7h1.5V22h0.1c0.4-0.9,1.3-1.4,2.5-1.4c1.8,0,2.8,1.1,2.8,3v5.2h-1.6v-4.8c0-1.3-0.6-1.9-1.7-1.9
		c-1.3,0-2,0.8-2,2v4.7h-1.6V20.7z"/>
	<path class="st3" d="M71.3,29.1c0,1.6-0.8,2.4-2.6,2.4c-0.1,0-0.3,0-0.4,0v-1.3c0,0,0.2,0,0.2,0c0.8,0,1.1-0.3,1.1-1.1v-8.4h1.6
		V29.1z M69.5,18.4c0-0.5,0.4-1,1-1s1,0.4,1,1c0,0.5-0.4,1-1,1S69.5,18.9,69.5,18.4z"/>
	<path class="st3" d="M73.2,26.4c0-1.4,1.1-2.3,3-2.4l2.2-0.1v-0.7c0-0.8-0.6-1.3-1.6-1.3c-0.9,0-1.5,0.3-1.7,0.9h-1.5
		c0.2-1.4,1.5-2.2,3.3-2.2c2,0,3.1,1,3.1,2.7v5.4h-1.5v-1.1h-0.1c-0.5,0.8-1.3,1.3-2.4,1.3C74.3,28.8,73.2,27.9,73.2,26.4z
		 M78.3,25.8v-0.7l-1.9,0.1c-1.1,0.1-1.6,0.4-1.6,1.1c0,0.7,0.6,1.1,1.5,1.1C77.4,27.5,78.3,26.7,78.3,25.8z"/>
	<path class="st3" d="M82.1,20.7h1.5v1.2h0.1c0.2-0.8,1.1-1.4,2.1-1.4c0.2,0,0.5,0,0.7,0.1v1.6c-0.1,0-0.6-0.1-0.9-0.1
		c-1.2,0-2,0.8-2,1.9v4.7h-1.6V20.7z"/>
	<path class="st3" d="M87.5,24.7c0-2.6,1.4-4.1,3.8-4.1c2.3,0,3.8,1.6,3.8,4.1c0,2.6-1.4,4.1-3.8,4.1C88.9,28.8,87.5,27.3,87.5,24.7
		z M93.4,24.7c0-1.7-0.8-2.7-2.1-2.7c-1.4,0-2.1,1-2.1,2.7c0,1.7,0.8,2.7,2.1,2.7C92.6,27.4,93.4,26.4,93.4,24.7z"/>
	<path class="st3" d="M100.8,23.4c0-3.4,1.8-5.5,4.8-5.5c2.3,0,4.1,1.5,4.4,3.7h-1.6c-0.3-1.3-1.4-2.1-2.8-2.1c-1.9,0-3.1,1.5-3.1,4
		c0,2.5,1.2,4,3.1,4c1.4,0,2.5-0.8,2.8-1.9h1.6c-0.3,2.1-2,3.5-4.4,3.5C102.6,28.9,100.8,26.8,100.8,23.4z"/>
	<path class="st3" d="M112,17.6h1.6v11.1H112V17.6z"/>
	<path class="st3" d="M115.7,18.4c0-0.5,0.4-1,1-1s1,0.4,1,1c0,0.5-0.4,1-1,1S115.7,18.9,115.7,18.4z M115.9,20.7h1.6v8h-1.6V20.7z"
		/>
	<path class="st3" d="M119.8,20.7h1.5V22h0.1c0.4-0.9,1.2-1.4,2.2-1.4c1.1,0,1.8,0.6,2.2,1.4h0.1c0.4-0.9,1.3-1.4,2.4-1.4
		c1.6,0,2.5,1,2.5,2.6v5.5h-1.6v-5.1c0-1.1-0.5-1.6-1.5-1.6c-1,0-1.7,0.7-1.7,1.7v5h-1.5v-5.2c0-0.9-0.6-1.5-1.5-1.5
		c-1,0-1.7,0.8-1.7,1.8v4.9h-1.6V20.7z"/>
	<path class="st3" d="M134.9,27.4h-0.1v1.3h-1.5V17.6h1.6V22h0.1c0.4-0.9,1.4-1.4,2.5-1.4c2,0,3.3,1.6,3.3,4.1
		c0,2.5-1.3,4.1-3.3,4.1C136.3,28.8,135.4,28.3,134.9,27.4z M134.8,24.7c0,1.7,0.8,2.7,2.2,2.7c1.3,0,2.1-1,2.1-2.7
		c0-1.7-0.8-2.7-2.1-2.7C135.6,22,134.8,23,134.8,24.7z"/>
	<path class="st3" d="M142.4,18.4c0-0.5,0.4-1,1-1s1,0.4,1,1c0,0.5-0.4,1-1,1S142.4,18.9,142.4,18.4z M142.6,20.7h1.6v8h-1.6V20.7z"
		/>
	<path class="st3" d="M146.5,20.7h1.5V22h0.1c0.4-0.9,1.3-1.4,2.5-1.4c1.8,0,2.8,1.1,2.8,3v5.2h-1.6v-4.8c0-1.3-0.6-1.9-1.7-1.9
		c-1.3,0-2,0.8-2,2v4.7h-1.6V20.7z"/>
	<path class="st3" d="M155.6,29.5h1.6c0.1,0.6,0.8,1,1.9,1c1.3,0,2.1-0.6,2.1-1.7v-1.5H161c-0.5,0.9-1.4,1.3-2.5,1.3
		c-2,0-3.3-1.6-3.3-4c0-2.4,1.3-4,3.3-4c1.1,0,2.1,0.5,2.5,1.4h0.1v-1.3h1.5v8c0,1.8-1.4,3-3.7,3C157,31.7,155.7,30.8,155.6,29.5z
		 M159,22c-1.4,0-2.1,1-2.1,2.6c0,1.6,0.8,2.6,2.1,2.6c1.3,0,2.2-1,2.2-2.6C161.2,23,160.3,22,159,22z"/>
</g>
</svg>
