<?xml version="1.0" encoding="utf-8"?>
<!-- Generator: Adobe Illustrator 22.0.0, SVG Export Plug-In . SVG Version: 6.00 Build 0)  -->
<svg version="1.1" id="Livello_1" xmlns="http://www.w3.org/2000/svg" xmlns:xlink="http://www.w3.org/1999/xlink" x="0px" y="0px"
	 viewBox="0 0 370 46" style="enable-background:new 0 0 370 46;" xml:space="preserve">
<style type="text/css">
	.st0{opacity:0.84;fill:#2E2E2E;enable-background:new    ;}
	.st1{fill:#FFFFFF;}
	.st2{enable-background:new    ;}
	.st3{fill:#FFFEFE;}
</style>
<path id="Rounded_Rectangle_119_copy_3" class="st0" d="M0,43.7h370V46H0V43.7z M5,0h360c2.8,0,5,0.5,5,1.1V45c0,0.6-2.2,1.1-5,1.1
	H5c-2.8,0-5-0.5-5-1.1V1.1C0,0.5,2.2,0,5,0z"/>
<path id="Forma_1_copy_10" class="st1" d="M283.4,15.2l2,4.7l5.2,0.4c0.2,0,0.4,0.2,0.4,0.4c0,0.1-0.1,0.2-0.1,0.3l-3.9,3.4l1.2,5
	c0,0.2-0.1,0.4-0.3,0.5c-0.1,0-0.2,0-0.3-0.1l-4.5-2.7l-4.5,2.7c-0.2,0.1-0.4,0.1-0.6-0.1c-0.1-0.1-0.1-0.2,0-0.3l1.2-5l-3.9-3.4
	c-0.2-0.1-0.2-0.4-0.1-0.6c0.1-0.1,0.2-0.1,0.3-0.1l5.2-0.4l2-4.7c0.1-0.2,0.3-0.3,0.5-0.2C283.3,15.1,283.3,15.1,283.4,15.2z"/>
<g class="st2">
	<path class="st3" d="M17.7,27.5l5.7-7.8v-0.1h-5.6v-1.5h7.6v1.2l-5.7,7.8v0.1h5.9v1.5h-7.9V27.5z"/>
	<path class="st3" d="M27.3,26.4c0-1.4,1.1-2.3,3-2.4l2.2-0.1v-0.7c0-0.8-0.6-1.3-1.6-1.3c-0.9,0-1.5,0.3-1.7,0.9h-1.5
		c0.2-1.4,1.5-2.2,3.3-2.2c2,0,3.1,1,3.1,2.7v5.4h-1.5v-1.1h-0.1c-0.5,0.8-1.3,1.3-2.4,1.3C28.4,28.8,27.3,27.9,27.3,26.4z
		 M32.4,25.8v-0.7l-1.9,0.1c-1.1,0.1-1.6,0.4-1.6,1.1c0,0.7,0.6,1.1,1.5,1.1C31.6,27.5,32.4,26.7,32.4,25.8z"/>
	<path class="st3" d="M36.2,20.7h1.5V22h0.1c0.4-0.9,1.3-1.4,2.5-1.4c1.8,0,2.8,1.1,2.8,3v5.2h-1.6v-4.8c0-1.3-0.6-1.9-1.7-1.9
		c-1.3,0-2,0.8-2,2v4.7h-1.6V20.7z"/>
	<path class="st3" d="M45.2,27.6l4.4-5.4V22h-4.4v-1.3h6.2v1.2l-4.3,5.4v0.1h4.3v1.3h-6.3V27.6z"/>
	<path class="st3" d="M53.4,18.4c0-0.5,0.4-1,1-1s1,0.4,1,1c0,0.5-0.4,1-1,1S53.4,18.9,53.4,18.4z M53.7,20.7h1.6v8h-1.6V20.7z"/>
	<path class="st3" d="M59.2,27.4h-0.1v1.3h-1.5V17.6h1.6V22h0.1c0.4-0.9,1.4-1.4,2.5-1.4c2,0,3.3,1.6,3.3,4.1c0,2.5-1.3,4.1-3.3,4.1
		C60.7,28.8,59.7,28.3,59.2,27.4z M59.2,24.7c0,1.7,0.8,2.7,2.2,2.7c1.3,0,2.1-1,2.1-2.7c0-1.7-0.8-2.7-2.1-2.7
		C60,22,59.2,23,59.2,24.7z"/>
	<path class="st3" d="M66.5,26.4c0-1.4,1.1-2.3,3-2.4l2.2-0.1v-0.7c0-0.8-0.6-1.3-1.6-1.3c-0.9,0-1.5,0.3-1.7,0.9h-1.5
		c0.2-1.4,1.5-2.2,3.3-2.2c2,0,3.1,1,3.1,2.7v5.4h-1.5v-1.1h-0.1c-0.5,0.8-1.3,1.3-2.4,1.3C67.6,28.8,66.5,27.9,66.5,26.4z
		 M71.6,25.8v-0.7l-1.9,0.1c-1.1,0.1-1.6,0.4-1.6,1.1c0,0.7,0.6,1.1,1.5,1.1C70.7,27.5,71.6,26.7,71.6,25.8z"/>
	<path class="st3" d="M75.4,20.7h1.5v1.2h0.1c0.2-0.8,1.1-1.4,2.1-1.4c0.2,0,0.5,0,0.7,0.1v1.6c-0.1,0-0.6-0.1-0.9-0.1
		c-1.2,0-2,0.8-2,1.9v4.7h-1.6V20.7z"/>
	<path class="st3" d="M88.6,28.7l-3.8-10.6h1.8l2.8,8.5h0.1l2.8-8.5h1.7l-3.8,10.6H88.6z"/>
	<path class="st3" d="M94.6,26.4c0-1.4,1.1-2.3,3-2.4l2.2-0.1v-0.7c0-0.8-0.6-1.3-1.6-1.3c-0.9,0-1.5,0.3-1.7,0.9h-1.5
		c0.2-1.4,1.5-2.2,3.3-2.2c2,0,3.1,1,3.1,2.7v5.4h-1.5v-1.1h-0.1c-0.5,0.8-1.3,1.3-2.4,1.3C95.7,28.8,94.6,27.9,94.6,26.4z
		 M99.7,25.8v-0.7l-1.9,0.1c-1.1,0.1-1.6,0.4-1.6,1.1c0,0.7,0.6,1.1,1.5,1.1C98.8,27.5,99.7,26.7,99.7,25.8z"/>
	<path class="st3" d="M108.7,23.3c-0.2-0.8-0.8-1.4-1.9-1.4c-1.3,0-2.1,1-2.1,2.7c0,1.7,0.8,2.8,2.1,2.8c1,0,1.7-0.5,1.9-1.3h1.5
		c-0.2,1.6-1.4,2.7-3.4,2.7c-2.3,0-3.7-1.6-3.7-4.2c0-2.6,1.4-4.1,3.7-4.1c2,0,3.2,1.2,3.4,2.8H108.7z"/>
	<path class="st3" d="M111.6,26.4c0-1.4,1.1-2.3,3-2.4l2.2-0.1v-0.7c0-0.8-0.6-1.3-1.6-1.3c-0.9,0-1.5,0.3-1.7,0.9h-1.5
		c0.2-1.4,1.5-2.2,3.3-2.2c2,0,3.1,1,3.1,2.7v5.4h-1.5v-1.1h-0.1c-0.5,0.8-1.3,1.3-2.4,1.3C112.7,28.8,111.6,27.9,111.6,26.4z
		 M116.7,25.8v-0.7l-1.9,0.1c-1.1,0.1-1.6,0.4-1.6,1.1c0,0.7,0.6,1.1,1.5,1.1C115.8,27.5,116.7,26.7,116.7,25.8z"/>
	<path class="st3" d="M122.7,18.8v2h1.8v1.3h-1.8v4.1c0,0.8,0.3,1.2,1.1,1.2c0.2,0,0.4,0,0.6,0v1.3c-0.2,0-0.5,0.1-0.8,0.1
		c-1.8,0-2.4-0.6-2.4-2.2v-4.5h-1.3v-1.3h1.3v-2H122.7z"/>
	<path class="st3" d="M126,18.4c0-0.5,0.4-1,1-1s1,0.4,1,1c0,0.5-0.4,1-1,1S126,18.9,126,18.4z M126.3,20.7h1.6v8h-1.6V20.7z"/>
	<path class="st3" d="M129.8,24.7c0-2.6,1.4-4.1,3.8-4.1c2.3,0,3.8,1.6,3.8,4.1c0,2.6-1.4,4.1-3.8,4.1
		C131.2,28.8,129.8,27.3,129.8,24.7z M135.7,24.7c0-1.7-0.8-2.7-2.1-2.7c-1.4,0-2.1,1-2.1,2.7c0,1.7,0.8,2.7,2.1,2.7
		C134.9,27.4,135.7,26.4,135.7,24.7z"/>
	<path class="st3" d="M139.2,20.7h1.5V22h0.1c0.4-0.9,1.3-1.4,2.5-1.4c1.8,0,2.8,1.1,2.8,3v5.2h-1.6v-4.8c0-1.3-0.6-1.9-1.7-1.9
		c-1.3,0-2,0.8-2,2v4.7h-1.6V20.7z"/>
</g>
<g class="st2">
	<path class="st1" d="M303.2,21.7v-5.8h-2.1v-1.3h5.7v1.3h-2.1v5.8H303.2z"/>
	<path class="st1" d="M312.7,21.7v-2.9h-3.2v2.9h-1.5v-7h1.5v2.8h3.2v-2.8h1.5v7H312.7z"/>
	<path class="st1" d="M320.6,21.7h-4.7v-7h4.7v1.3h-3.2v1.6h3v1.2h-3v1.7h3.2V21.7z"/>
	<path class="st1" d="M324.7,21.7v-7h3.1c1.4,0,2.2,0.7,2.2,1.8c0,0.7-0.6,1.4-1.3,1.5V18c0.9,0.1,1.6,0.8,1.6,1.7
		c0,1.2-0.9,2-2.4,2H324.7z M326.2,17.6h1.1c0.8,0,1.2-0.3,1.2-0.9c0-0.6-0.4-0.9-1.1-0.9h-1.2V17.6z M327.5,20.6
		c0.8,0,1.3-0.4,1.3-1c0-0.6-0.5-1-1.3-1h-1.3v2H327.5z"/>
	<path class="st1" d="M336.3,21.7h-4.7v-7h4.7v1.3h-3.2v1.6h3v1.2h-3v1.7h3.2V21.7z"/>
	<path class="st1" d="M339,19.7c0.1,0.6,0.6,0.9,1.5,0.9c0.8,0,1.3-0.4,1.3-0.9c0-0.4-0.4-0.7-1.2-0.9l-0.9-0.2
		c-1.3-0.3-1.9-0.9-1.9-2c0-1.3,1.1-2.2,2.7-2.2c1.6,0,2.7,0.9,2.7,2.1h-1.4c-0.1-0.6-0.6-0.9-1.3-0.9c-0.7,0-1.2,0.3-1.2,0.9
		c0,0.4,0.3,0.7,1.2,0.9l0.8,0.2c1.4,0.3,2,0.9,2,2c0,1.4-1.1,2.3-2.9,2.3c-1.7,0-2.8-0.8-2.8-2.1H339z"/>
	<path class="st1" d="M346.3,21.7v-5.8h-2.1v-1.3h5.7v1.3h-2.1v5.8H346.3z"/>
</g>
<g class="st2">
	<path class="st1" d="M307.9,30.2c0,2.3-1.3,3.7-3.4,3.7c-2.1,0-3.4-1.4-3.4-3.7s1.3-3.7,3.4-3.7C306.6,26.5,307.9,27.9,307.9,30.2z
		 M302.7,30.2c0,1.5,0.7,2.4,1.9,2.4c1.1,0,1.9-0.9,1.9-2.4c0-1.5-0.7-2.4-1.9-2.4C303.4,27.8,302.7,28.7,302.7,30.2z"/>
	<path class="st1" d="M309.3,33.7v-7h4.6v1.3h-3.1v1.8h2.9v1.2h-2.9v2.7H309.3z"/>
	<path class="st1" d="M315.3,33.7v-7h4.6v1.3h-3.1v1.8h2.9v1.2h-2.9v2.7H315.3z"/>
	<path class="st1" d="M326,33.7h-4.7v-7h4.7v1.3h-3.2v1.6h3v1.2h-3v1.7h3.2V33.7z"/>
	<path class="st1" d="M329,33.7h-1.5v-7h3c1.5,0,2.5,0.9,2.5,2.3c0,0.9-0.5,1.7-1.3,2l1.5,2.8h-1.7l-1.3-2.6H329V33.7z M329,30h1.3
		c0.7,0,1.2-0.4,1.2-1.1c0-0.7-0.5-1.1-1.2-1.1H329V30z"/>
	<path class="st1" d="M335.6,31.7c0.1,0.6,0.6,0.9,1.5,0.9c0.8,0,1.3-0.4,1.3-0.9c0-0.4-0.4-0.7-1.2-0.9l-0.9-0.2
		c-1.3-0.3-1.9-0.9-1.9-2c0-1.3,1.1-2.2,2.7-2.2c1.6,0,2.7,0.9,2.7,2.1h-1.4c-0.1-0.6-0.6-0.9-1.3-0.9c-0.7,0-1.2,0.3-1.2,0.9
		c0,0.4,0.3,0.7,1.2,0.9l0.8,0.2c1.4,0.3,2,0.9,2,2c0,1.4-1.1,2.3-2.9,2.3c-1.7,0-2.8-0.8-2.8-2.1H335.6z"/>
</g>
</svg>
