<?xml version="1.0" encoding="utf-8"?>
<!-- Generator: Adobe Illustrator 19.0.1, SVG Export Plug-In . SVG Version: 6.00 Build 0)  -->
<svg version="1.1" id="Слой_1" xmlns="http://www.w3.org/2000/svg" xmlns:xlink="http://www.w3.org/1999/xlink" x="0px" y="0px"
	 viewBox="0 0 34 34" style="enable-background:new 0 0 34 34;" xml:space="preserve">
<style type="text/css">
	.st0{fill-rule:evenodd;clip-rule:evenodd;fill:#353535;}
	.st1{fill:#FFFFFF;}
</style>
<path class="st0" d="M17,0c9.4,0,17,7.6,17,17c0,9.4-7.6,17-17,17C7.6,34,0,26.4,0,17C0,7.6,7.6,0,17,0z"/>
<g>
	<g>
		<path class="st1" d="M26.9,15.6l-9.6-9.7c-0.1-0.1-0.2-0.1-0.3-0.1c-0.1,0-0.2,0-0.3,0.1l-9.6,9.7C7,15.7,7,15.8,7,15.9
			c0.1,0.1,0.2,0.2,0.3,0.2l1.8,0l0,9.1c0,0.2,0.2,0.5,0.5,0.5h7.1l-0.4-0.5c0,0-0.6-0.7-1.1-1.3c-0.3-0.3-0.5-0.7-0.8-1
			c-0.9-1.1-2-2.7-2-4.1c0-2.6,2-4.6,4.5-4.6c2.5,0,4.5,2.1,4.5,4.6c0,1.4-1.1,3-2,4.1l0,0.1c-0.2,0.3-0.5,0.6-0.7,0.9
			c-0.4,0.6-1.1,1.3-1.1,1.3l-0.4,0.5h7.1c0.3,0,0.5-0.2,0.5-0.5l0-9.1l1.8,0c0.2,0,0.3-0.2,0.3-0.2C27,15.9,27.1,15.7,26.9,15.6z
			 M19.7,18.9c0-1.5-1.2-2.7-2.6-2.7c-1.5,0-2.6,1.2-2.6,2.7s1.2,2.7,2.6,2.7C18.5,21.6,19.7,20.4,19.7,18.9z"/>
	</g>
</g>
</svg>
