<?xml version="1.0" encoding="utf-8"?>
<!-- Generator: Adobe Illustrator 19.0.1, SVG Export Plug-In . SVG Version: 6.00 Build 0)  -->
<svg version="1.1" id="Layer_1" xmlns="http://www.w3.org/2000/svg" xmlns:xlink="http://www.w3.org/1999/xlink" x="0px" y="0px"
	 viewBox="0 0 22 22.8" style="enable-background:new 0 0 22 22.8;" xml:space="preserve">
<style type="text/css">
	.st0{fill:#FFFFFF;}
</style>
<g>
	<g>
		<path class="st0" d="M20.2,7.4l-1.3-1.3l0.4-0.4c0.7-0.7,0.7-1.9,0-2.6c-0.7-0.7-1.9-0.7-2.6,0l-0.4,0.4l-1.1-1.1L15.6,2
			c0.2-0.2,0.2-0.6,0-0.9c-0.2-0.2-0.6-0.2-0.9,0L13,2.8c-0.2,0.2-0.2,0.6,0,0.9c0.2,0.2,0.6,0.2,0.9,0l0.4-0.4l1.1,1.1l-1.2,1.2
			c-1.5-0.5-3.3-0.2-4.5,1L7.6,8.8l6.1,6.1l2.2-2.2c0.8-0.8,1.3-1.9,1.3-3c0-0.5-0.1-1-0.3-1.4L18.1,7l1.3,1.3
			c1.2,1.2,1.2,3.1,0,4.4l-3.1,3.1c-0.7-0.3-1.5-0.2-2.1,0.3c-0.7,0.7-0.7,1.9,0,2.6c0.7,0.7,1.9,0.7,2.6,0l0,0
			c0.6-0.6,0.7-1.4,0.3-2.1l3.1-3.1C21.9,11.9,21.9,9.1,20.2,7.4z M15.9,17.9c-0.2,0.2-0.6,0.2-0.9,0c-0.2-0.2-0.2-0.6,0-0.9
			c0.2-0.2,0.6-0.2,0.9,0C16.1,17.3,16.1,17.6,15.9,17.9z M4.8,11.5l6.1,6.1l1.9-1.9L6.8,9.6L4.8,11.5z M1.8,14.6
			c-1.7,1.7-1.7,4.4,0,6.1c1.7,1.7,4.4,1.7,6.1,0l2.2-2.2l-6.1-6.1L1.8,14.6z"/>
	</g>
</g>
</svg>
