<?xml version="1.0" encoding="utf-8"?>
<!-- Generator: Adobe Illustrator 21.0.0, SVG Export Plug-In . SVG Version: 6.00 Build 0)  -->
<svg version="1.1" id="Слой_1" xmlns="http://www.w3.org/2000/svg" xmlns:xlink="http://www.w3.org/1999/xlink" x="0px" y="0px"
	 viewBox="0 0 69 66" style="enable-background:new 0 0 69 66;" xml:space="preserve">
<style type="text/css">
	.st0{fill:url(#SVGID_1_);}
</style>
<g>
	<g>
		<linearGradient id="SVGID_1_" gradientUnits="userSpaceOnUse" x1="34.5" y1="67" x2="34.5" y2="-1.0294">
			<stop  offset="0" style="stop-color:#2584B5"/>
			<stop  offset="0.22" style="stop-color:#E18BBB"/>
			<stop  offset="1" style="stop-color:#FFC600"/>
		</linearGradient>
		<path class="st0" d="M41,9.3c1.5,0,2.7-1.2,2.7-2.7V2.7C43.7,1.2,42.5,0,41,0c-1.5,0-2.7,1.2-2.7,2.7v3.8C38.3,8,39.5,9.3,41,9.3z
			 M50.7,12c0.4,0.3,0.9,0.4,1.4,0.4c0.9,0,1.8-0.5,2.3-1.3l1.9-3.3c0.8-1.3,0.4-3-0.9-3.7c-1.3-0.8-2.9-0.4-3.7,0.9l-1.9,3.3
			C49,9.5,49.4,11.2,50.7,12z M59.6,20.1c0.5,0,0.9-0.1,1.3-0.4l3.3-1.9c1.3-0.8,1.7-2.4,1-3.7c-0.7-1.3-2.4-1.7-3.7-1l-3.3,1.9
			c-1.3,0.8-1.7,2.4-1,3.7C57.8,19.7,58.7,20.1,59.6,20.1z M27.9,10.8c0.5,0.9,1.4,1.4,2.3,1.4c0.5,0,0.9-0.1,1.3-0.4
			c1.3-0.8,1.7-2.4,1-3.7l-1.9-3.3c-0.7-1.3-2.4-1.7-3.7-1c-1.3,0.8-1.7,2.4-1,3.7L27.9,10.8z M64.1,39.2l-3.2-2
			c-1.3-0.8-2.9-0.4-3.7,0.9c-0.8,1.3-0.4,3,0.9,3.7l3.2,2c0.4,0.3,0.9,0.4,1.4,0.4c0.9,0,1.8-0.5,2.3-1.3
			C65.7,41.6,65.3,39.9,64.1,39.2z M18,17.1l3.2,2c0.4,0.3,0.9,0.4,1.4,0.4c0.9,0,1.8-0.5,2.3-1.3c0.8-1.3,0.4-3-0.9-3.7l-3.2-2
			c-1.3-0.8-2.9-0.4-3.7,0.9C16.4,14.7,16.7,16.4,18,17.1z M66.3,25.6h-3.8c-1.5,0-2.7,1.2-2.7,2.7c0,1.5,1.2,2.7,2.7,2.7h3.8
			c1.5,0,2.7-1.2,2.7-2.7C69,26.8,67.8,25.6,66.3,25.6z M52.6,44.4c0-0.6,0-1.2,0-1.7c0-1.5-0.3-2.9-0.8-4.2c2.6-2.8,4-6.4,4-10.3
			c0-8.3-6.7-15-14.8-15c-3.5,0-6.9,1.3-9.6,3.6c-2.1,1.8-3.6,4.1-4.4,6.7c-1.5-0.5-3.1-0.7-4.7-0.7c-9.1,0-16.4,7.4-16.4,16.5v1.4
			C2.2,43.3,0,47.5,0,52.1v0.1C0,59.6,5.9,65.7,13.3,66c0.1,0,0.1,0,0.2,0h36.6c1.5,0,2.7-1.2,2.7-2.7c0-1.5-1.2-2.7-2.7-2.7H13.8
			l-0.2,0c-4.5-0.1-8.1-3.8-8.1-8.4c0-3.1,1.7-6,4.4-7.4c0.9-0.5,1.4-1.4,1.4-2.4v-2.9c0-6.1,4.9-11.1,11-11.1c5.4,0,10,4,10.8,9.4
			c0.2,1,0.9,1.9,1.9,2.2c1,0.3,2.1,0,2.8-0.8c1-1.2,2.5-1.8,4.1-1.8c3,0,5.4,2.4,5.4,5.5c0,1.6,0,4.1,0,4.1c0,1.5,1.2,2.7,2.7,2.7
			c3,0,5.5,2.5,5.5,5.6c0,1.5,1.2,2.7,2.7,2.7c1.5,0,2.7-1.2,2.7-2.7c0-2.9-1.1-5.7-3.2-7.8C56.2,45.9,54.4,44.9,52.6,44.4z
			 M48.4,34.2c-1.8-1.5-4.1-2.3-6.6-2.3c-1.6,0-3.2,0.4-4.6,1c-1-2.3-2.4-4.3-4.3-5.9c-0.4-0.3-0.7-0.6-1.1-0.9
			c1-4.2,4.8-7.3,9.2-7.3c5.2,0,9.4,4.3,9.4,9.5C50.4,30.4,49.7,32.5,48.4,34.2z"/>
	</g>
</g>
</svg>
