<?xml version="1.0" encoding="utf-8"?>
<!-- Generator: Adobe Illustrator 21.0.0, SVG Export Plug-In . SVG Version: 6.00 Build 0)  -->
<svg version="1.1" id="Слой_1" xmlns="http://www.w3.org/2000/svg" xmlns:xlink="http://www.w3.org/1999/xlink" x="0px" y="0px"
	 viewBox="0 0 14 16" style="enable-background:new 0 0 14 16;" xml:space="preserve">
<style type="text/css">
	.st0{fill:#77AA1F;}
</style>
<g>
	<g>
		<path class="st0" d="M9.6,10.2C8.7,9.1,8.4,7.7,6.9,7.7c-1.4,0-1.7,1.4-2.6,2.4c-0.8,0.9-2.3,1.1-2.3,2.8c0,2,2.2,3.1,4.9,3.1
			s4.9-1.2,4.9-3.1C11.8,11.3,10.3,11.1,9.6,10.2z M13.5,3.8c0,0-3,3.5-3,4.5c0,1,0.8,1.8,1.7,1.8c1,0,1.7-0.8,1.7-1.8
			C14,7.3,13.5,3.8,13.5,3.8z M3.5,8.3c0-1-3-4.5-3-4.5S0,7.3,0,8.3c0,1,0.8,1.8,1.7,1.8C2.7,10.1,3.5,9.3,3.5,8.3z M9.2,6.3
			c1,0,1.7-0.8,1.7-1.8c0-1-1.7-4.5-1.7-4.5S7.5,3.5,7.5,4.5C7.5,5.5,8.2,6.3,9.2,6.3z M4.9,6.3c1,0,1.7-0.8,1.7-1.8
			c0-1-1.7-4.5-1.7-4.5S3.1,3.5,3.1,4.5C3.1,5.5,3.9,6.3,4.9,6.3z"/>
	</g>
</g>
</svg>
