<?xml version="1.0" encoding="utf-8"?>
<!-- Generator: Adobe Illustrator 21.0.0, SVG Export Plug-In . SVG Version: 6.00 Build 0)  -->
<svg version="1.1" id="Слой_1" xmlns="http://www.w3.org/2000/svg" xmlns:xlink="http://www.w3.org/1999/xlink" x="0px" y="0px"
	 viewBox="0 0 14 14" style="enable-background:new 0 0 14 14;" xml:space="preserve">
<style type="text/css">
	.st0{fill:#262626;}
</style>
<path class="st0" d="M4.5,4.4C4.8,4.2,4.8,4,4.7,3.7C4.4,2.8,4.3,1.9,4.3,1c0-0.2-0.1-0.4-0.2-0.5C3.9,0.3,3.8,0.2,3.6,0.2H0.9
	c-0.2,0-0.4,0.1-0.5,0.2C0.2,0.6,0.2,0.8,0.2,1c0,2.4,0.6,4.5,1.7,6.5c1.1,2,2.7,3.5,4.7,4.7c2,1.2,4.1,1.7,6.4,1.7
	c0.2,0,0.4-0.1,0.5-0.2c0.2-0.2,0.2-0.3,0.2-0.5v-2.7c0-0.2-0.1-0.4-0.2-0.5c-0.2-0.1-0.3-0.2-0.5-0.2c-0.9,0-1.8-0.1-2.7-0.4
	C10,9.2,9.7,9.2,9.5,9.5l-1.7,1.7c-2.2-1.1-3.9-2.8-5-5L4.5,4.4z"/>
</svg>
