<?xml version="1.0" encoding="utf-8"?>
<!-- Generator: Adobe Illustrator 19.0.1, SVG Export Plug-In . SVG Version: 6.00 Build 0)  -->
<svg version="1.1" id="Layer_1" xmlns="http://www.w3.org/2000/svg" xmlns:xlink="http://www.w3.org/1999/xlink" x="0px" y="0px"
	 viewBox="0 0 16 14.5" style="enable-background:new 0 0 16 14.5;" xml:space="preserve">
<style type="text/css">
	.st0{fill:#76B042;}
</style>
<path class="st0" d="M13.6,4.4H2.4C1,4.4,0,5.4,0,6.7v4.7h3.2v3.1h9.6v-3.1H16V6.7C16,5.4,15,4.4,13.6,4.4z M11.2,12.9H4.8V9.1h6.4
	V12.9z M13.6,7.5c-0.5,0-0.8-0.3-0.8-0.8c0-0.5,0.3-0.8,0.8-0.8c0.5,0,0.8,0.3,0.8,0.8C14.4,7.2,14.1,7.5,13.6,7.5z M12.8,0.5H3.2
	v3.1h9.6V0.5z"/>
</svg>
