<?xml version="1.0" encoding="utf-8"?>
<!-- Generator: Adobe Illustrator 21.0.0, SVG Export Plug-In . SVG Version: 6.00 Build 0)  -->
<svg version="1.1" id="Слой_1" xmlns="http://www.w3.org/2000/svg" xmlns:xlink="http://www.w3.org/1999/xlink" x="0px" y="0px"
	 viewBox="0 0 16 14" style="enable-background:new 0 0 16 14;" xml:space="preserve">
<style type="text/css">
	.st0{fill:#FFFFFF;}
</style>
<path class="st0" d="M13.6,3.9H2.4C1,3.9,0,4.9,0,6.2v4.7h3.2V14h9.6v-3.1H16V6.2C16,4.9,15,3.9,13.6,3.9z M11.2,12.4H4.8V8.6h6.4
	V12.4z M13.6,7c-0.5,0-0.8-0.3-0.8-0.8c0-0.5,0.3-0.8,0.8-0.8c0.5,0,0.8,0.3,0.8,0.8C14.4,6.7,14.1,7,13.6,7z M12.8,0H3.2v3.1h9.6V0
	z"/>
</svg>
