<?xml version="1.0" encoding="utf-8"?>
<!-- Generator: Adobe Illustrator 21.0.0, SVG Export Plug-In . SVG Version: 6.00 Build 0)  -->
<svg version="1.1" id="Слой_1" xmlns="http://www.w3.org/2000/svg" xmlns:xlink="http://www.w3.org/1999/xlink" x="0px" y="0px"
	 viewBox="0 0 25 25" style="enable-background:new 0 0 25 25;" xml:space="preserve">
<g>
	<g>
		<path style="fill-rule:evenodd;clip-rule:evenodd;fill:#FECD64;" d="M3.3,8c0,2.6,2.1,4.7,4.8,4.7c2.6,0,4.8-2.1,4.8-4.7
			c0-2.6-2.1-4.7-4.8-4.7C5.5,3.3,3.3,5.4,3.3,8z M8.1,0L6.8,2.6h2.7L8.1,0z M13.8,2.3L11,3.3l1.9,1.9L13.8,2.3z M5.2,3.3L2.4,2.3
			l0.9,2.8L5.2,3.3z M2.7,6.7L0,8l2.7,1.3V6.7z M13.5,9.3L16.2,8l-2.7-1.3V9.3z M8.1,16l1.3-2.6H6.8L8.1,16z M11,12.7l2.8,0.9
			l-0.9-2.8L11,12.7z M2.4,13.7l2.8-0.9l-1.9-1.9L2.4,13.7z"/>
	</g>
</g>
<g>
	<g>
		<path style="fill-rule:evenodd;clip-rule:evenodd;fill:#72A3C0;" d="M16.9,19c0,1,0.8,1.8,1.8,1.8c1,0,1.8-0.8,1.8-1.8
			c0-0.2-0.1-0.5-0.2-0.8h-3.1C17,18.6,16.9,18.8,16.9,19z M11.8,19.4c0,0-2.2,2.2-2.2,3.4c0,1.2,1,2.2,2.2,2.2c1.2,0,2.2-1,2.2-2.2
			C14,21.6,11.8,19.4,11.8,19.4z M25,14.9c0-1.6-1-2.3-2.5-2.8c0.1-0.3,0.1-0.6,0.1-0.9c0-1.7-1.6-3.1-3.3-3.1c-1,0-1.7,0.4-2.3,1
			C16.3,7.6,15.5,6,13.6,6c-2.5,0-4.4,1.4-4.4,3.9c0,0.4,0.1,0.8,0.1,1.1c-1.5,0.5-2.6,1.9-2.6,3.6c0,2.1,1.7,3.7,3.8,3.7h6.6
			c0.5-1,1.5-2.1,1.6-2.1c0,0,1.1,1.1,1.6,2.1h1.9C24.2,18.3,25,16.9,25,14.9z M23.4,19.8c0,0-1.3,1.3-1.3,2c0,0.7,0.6,1.3,1.3,1.3
			c0.7,0,1.3-0.6,1.3-1.3C24.7,21.1,23.4,19.8,23.4,19.8z"/>
	</g>
</g>
</svg>
