<?xml version="1.0" encoding="utf-8"?>
<!-- Generator: Adobe Illustrator 21.0.0, SVG Export Plug-In . SVG Version: 6.00 Build 0)  -->
<svg version="1.1" id="Слой_1" xmlns="http://www.w3.org/2000/svg" xmlns:xlink="http://www.w3.org/1999/xlink" x="0px" y="0px"
	 viewBox="0 0 64 64" style="enable-background:new 0 0 64 64;" xml:space="preserve">
<style type="text/css">
	.st0{fill:url(#SVGID_1_);}
	.st1{fill:url(#SVGID_2_);}
</style>
<g>
	<g>
		<linearGradient id="SVGID_1_" gradientUnits="userSpaceOnUse" x1="32" y1="44.6416" x2="32" y2="-0.3488">
			<stop  offset="0" style="stop-color:#004C73"/>
			<stop  offset="0.22" style="stop-color:#2E52C9"/>
			<stop  offset="1" style="stop-color:#34ACD8"/>
		</linearGradient>
		<path class="st0" d="M57.8,18.7V17c0-9.4-7.6-17-17-17c-4.1,0-8,1.5-11.1,4.1c-2,1.8-3.6,4-4.6,6.4c-1.6-0.8-3.3-1.2-5.1-1.2
			c-6.1,0-11.1,5-11.1,11.1v2.3C3.7,23.9,0,28.3,0,33.6c0,5.5,3.9,10.1,9.2,11c0.1,0,0.3,0,0.4,0c1.2,0,2.3-0.9,2.5-2.1
			c0.2-1.4-0.7-2.6-2.1-2.9c-2.9-0.5-5-3-5-6c0-3.4,2.8-6.1,6.2-6.1h0c1.4,0,2.5-1.1,2.5-2.5v-4.5c0-3.4,2.7-6.1,6.1-6.1
			c1.8,0,3.4,0.8,4.6,2.1c0.6,0.7,1.6,1,2.6,0.7c0.9-0.3,1.6-1.1,1.8-2C29.7,9.4,34.8,5,40.7,5c6.6,0,12,5.4,12,12v3.1
			c0,0.9,0.5,1.8,1.3,2.2c3,1.6,4.9,4.7,4.9,8.2c0,3.7-2.1,7-5.4,8.5c-1.3,0.6-1.8,2-1.3,3.3c0.6,1.3,2,1.8,3.3,1.3
			c5.1-2.2,8.4-7.4,8.4-13C64,25.7,61.6,21.3,57.8,18.7z"/>
	</g>
</g>
<linearGradient id="SVGID_2_" gradientUnits="userSpaceOnUse" x1="32.187" y1="64.5" x2="32.187" y2="22.8077">
	<stop  offset="0" style="stop-color:#CA4854"/>
	<stop  offset="1" style="stop-color:#3267D3"/>
</linearGradient>
<path class="st1" d="M42.8,34h-4.1l4.5-7.3c0.5-0.8,0.5-1.7,0-2.5c-0.4-0.8-1.3-1.3-2.2-1.3H27.9c-0.9,0-1.7,0.5-2.2,1.3l-8.5,15.3
	c-1.1,2-1.1,4.3,0.1,6.2c1.1,1.9,3.1,3.1,5.4,3.1h3.9l-3.8,10.4c-0.5,1.1-0.4,2.2,0.2,3.2c0.7,1,1.9,1.6,3.2,1.6c0,0,0,0,0,0
	c1.1,0,2.2-0.5,3-1.2c0,0,0.1-0.1,0.1-0.1l10-11.2c0.9-1,0.8-2.6-0.2-3.5c-1-0.9-2.6-0.8-3.5,0.2l-5.9,6.6l2.8-7.6
	c0.3-0.8,0.2-1.6-0.3-2.3c-0.5-0.7-1.2-1.1-2-1.1h-7.4c-0.6,0-1-0.4-1.1-0.6c-0.1-0.2-0.3-0.7,0-1.2l7.8-14h7.2l-4.5,7.3
	c-0.5,0.8-0.5,1.7,0,2.5c0.4,0.8,1.3,1.3,2.2,1.3h8.6c0.1,0,0.2,0,0.2,0.1c0,0,0,0.1-0.1,0.2c0,0,0,0,0,0l-0.8,1
	c-0.9,1.1-0.8,2.6,0.3,3.5c1.1,0.9,2.6,0.7,3.5-0.3l0.8-1c1.3-1.6,1.6-3.7,0.8-5.5C46.7,35.1,44.9,34,42.8,34z"/>
</svg>
