<?xml version="1.0" encoding="utf-8"?>
<!-- Generator: Adobe Illustrator 21.0.0, SVG Export Plug-In . SVG Version: 6.00 Build 0)  -->
<svg version="1.1" id="Слой_1" xmlns="http://www.w3.org/2000/svg" xmlns:xlink="http://www.w3.org/1999/xlink" x="0px" y="0px"
	 viewBox="0 0 70 22" style="enable-background:new 0 0 70 22;" xml:space="preserve">
<g style="enable-background:new    ;">
	<path style="fill:#FFFFFF;" d="M0.2,4.6c0-0.5,0.1-0.9,0.3-1.4s0.5-0.8,1-1C1.9,2,2.3,1.9,2.9,1.9c0.8,0,1.4,0.3,1.9,0.8
		c0.5,0.5,0.8,1.2,0.8,2c0,0.8-0.3,1.5-0.8,2C4.3,7.2,3.6,7.5,2.9,7.5c-0.5,0-0.9-0.1-1.4-0.3c-0.4-0.2-0.8-0.5-1-1
		C0.3,5.8,0.2,5.2,0.2,4.6z M1.6,4.7c0,0.5,0.1,0.9,0.4,1.2s0.5,0.4,0.9,0.4s0.7-0.1,0.9-0.4s0.4-0.7,0.4-1.2c0-0.5-0.1-0.9-0.4-1.2
		S3.2,3.1,2.9,3.1S2.2,3.2,1.9,3.5S1.6,4.2,1.6,4.7z"/>
	<path style="fill:#FFFFFF;" d="M8.1,7.4L6,2h1.4l1,2.7l0.3,0.9c0.1-0.2,0.1-0.4,0.1-0.5c0-0.1,0.1-0.3,0.1-0.4L10,2h1.4L9.3,7.4
		H8.1z"/>
	<path style="fill:#FFFFFF;" d="M15.2,5.7l1.4,0.2c-0.2,0.5-0.5,0.9-0.8,1.2c-0.4,0.3-0.9,0.4-1.4,0.4c-0.9,0-1.6-0.3-2-0.9
		c-0.3-0.5-0.5-1.1-0.5-1.8c0-0.9,0.2-1.6,0.7-2.1c0.5-0.5,1-0.7,1.7-0.7c0.8,0,1.4,0.3,1.8,0.8c0.4,0.5,0.7,1.3,0.6,2.4h-3.5
		c0,0.4,0.1,0.7,0.3,1c0.2,0.2,0.5,0.3,0.8,0.3c0.2,0,0.4-0.1,0.5-0.2S15.2,5.9,15.2,5.7z M15.3,4.2c0-0.4-0.1-0.7-0.3-0.9
		C14.8,3.1,14.6,3,14.3,3c-0.3,0-0.5,0.1-0.7,0.3c-0.2,0.2-0.3,0.5-0.3,0.9H15.3z"/>
	<path style="fill:#FFFFFF;" d="M19.1,7.4h-1.4V2H19v0.8c0.2-0.4,0.4-0.6,0.6-0.7C19.8,2,20,1.9,20.2,1.9c0.3,0,0.6,0.1,0.9,0.3
		l-0.4,1.2c-0.2-0.2-0.4-0.2-0.6-0.2c-0.2,0-0.4,0.1-0.5,0.2c-0.1,0.1-0.2,0.3-0.3,0.6c-0.1,0.3-0.1,0.9-0.1,1.8V7.4z"/>
	<path style="fill:#FFFFFF;" d="M24.2,5.4l1.3-0.2c0,0.3,0.2,0.6,0.3,0.8c0.2,0.2,0.4,0.3,0.7,0.3c0.3,0,0.5-0.1,0.7-0.3
		c0.2-0.2,0.3-0.5,0.3-0.9c0-0.4-0.1-0.6-0.3-0.8c-0.2-0.2-0.4-0.3-0.7-0.3c-0.2,0-0.4,0-0.6,0.1l0.2-1.1c0.4,0,0.7-0.1,0.9-0.2
		c0.2-0.2,0.3-0.4,0.3-0.7c0-0.2-0.1-0.4-0.2-0.6c-0.1-0.1-0.3-0.2-0.6-0.2c-0.2,0-0.4,0.1-0.6,0.2c-0.2,0.2-0.3,0.4-0.3,0.7
		l-1.3-0.2c0.1-0.4,0.2-0.8,0.4-1.1c0.2-0.3,0.4-0.5,0.7-0.6S26.1,0,26.5,0c0.7,0,1.2,0.2,1.6,0.7c0.3,0.4,0.5,0.8,0.5,1.2
		c0,0.6-0.3,1.2-1,1.5c0.4,0.1,0.7,0.3,1,0.6C28.8,4.3,29,4.7,29,5.2c0,0.6-0.2,1.2-0.7,1.6c-0.5,0.5-1,0.7-1.7,0.7
		c-0.7,0-1.2-0.2-1.6-0.6C24.5,6.5,24.2,6,24.2,5.4z"/>
	<path style="fill:#FFFFFF;" d="M32.1,0c0.7,0,1.2,0.3,1.6,0.8c0.5,0.6,0.7,1.6,0.7,3c0,1.4-0.2,2.4-0.7,3c-0.4,0.5-0.9,0.7-1.6,0.7
		c-0.7,0-1.3-0.3-1.7-0.8c-0.4-0.5-0.6-1.5-0.6-2.9c0-1.4,0.2-2.4,0.7-3C30.9,0.2,31.4,0,32.1,0z M32.1,1.2c-0.2,0-0.3,0.1-0.4,0.2
		c-0.1,0.1-0.2,0.3-0.3,0.6c-0.1,0.4-0.1,1-0.1,1.8s0,1.5,0.1,1.8c0.1,0.3,0.2,0.5,0.3,0.6s0.3,0.2,0.4,0.2s0.3-0.1,0.4-0.2
		c0.1-0.1,0.2-0.3,0.3-0.6C33,5.2,33,4.6,33,3.7s0-1.5-0.1-1.8c-0.1-0.3-0.2-0.5-0.3-0.6C32.5,1.2,32.3,1.2,32.1,1.2z"/>
	<path style="fill:#FFFFFF;" d="M37.7,0c0.7,0,1.2,0.3,1.6,0.8c0.5,0.6,0.7,1.6,0.7,3c0,1.4-0.2,2.4-0.7,3c-0.4,0.5-0.9,0.7-1.6,0.7
		c-0.7,0-1.3-0.3-1.7-0.8c-0.4-0.5-0.6-1.5-0.6-2.9c0-1.4,0.2-2.4,0.7-3C36.5,0.2,37,0,37.7,0z M37.7,1.2c-0.2,0-0.3,0.1-0.4,0.2
		c-0.1,0.1-0.2,0.3-0.3,0.6c-0.1,0.4-0.1,1-0.1,1.8s0,1.5,0.1,1.8c0.1,0.3,0.2,0.5,0.3,0.6s0.3,0.2,0.4,0.2s0.3-0.1,0.4-0.2
		c0.1-0.1,0.2-0.3,0.3-0.6c0.1-0.4,0.1-1,0.1-1.8s0-1.5-0.1-1.8c-0.1-0.3-0.2-0.5-0.3-0.6C38,1.2,37.9,1.2,37.7,1.2z"/>
</g>
<g style="enable-background:new    ;">
	<path style="fill:#FFFFFF;" d="M0,18.1l1.4-0.2c0.1,0.3,0.2,0.5,0.4,0.6c0.2,0.1,0.4,0.2,0.8,0.2c0.4,0,0.6-0.1,0.8-0.2
		c0.1-0.1,0.2-0.2,0.2-0.4c0-0.1,0-0.2-0.1-0.3c-0.1-0.1-0.2-0.1-0.5-0.2c-1.1-0.2-1.8-0.5-2.1-0.7c-0.4-0.3-0.6-0.7-0.6-1.2
		c0-0.5,0.2-0.8,0.5-1.2c0.4-0.3,0.9-0.5,1.7-0.5c0.7,0,1.2,0.1,1.6,0.4c0.3,0.2,0.6,0.6,0.7,1l-1.3,0.2c-0.1-0.2-0.2-0.4-0.3-0.5
		c-0.2-0.1-0.4-0.2-0.7-0.2c-0.4,0-0.6,0.1-0.8,0.2c-0.1,0.1-0.2,0.2-0.2,0.3c0,0.1,0,0.2,0.1,0.3c0.1,0.1,0.6,0.2,1.3,0.4
		s1.2,0.4,1.5,0.6c0.3,0.2,0.4,0.6,0.4,1c0,0.5-0.2,0.9-0.6,1.3c-0.4,0.3-1,0.5-1.8,0.5c-0.7,0-1.3-0.1-1.7-0.4
		C0.4,19,0.1,18.6,0,18.1z"/>
	<path style="fill:#FFFFFF;" d="M7.1,15.9l-1.3-0.2c0.1-0.5,0.4-0.9,0.7-1.1s0.9-0.4,1.5-0.4c0.6,0,1.1,0.1,1.4,0.2
		c0.3,0.1,0.5,0.3,0.6,0.6c0.1,0.2,0.2,0.6,0.2,1.3l0,1.6c0,0.5,0,0.8,0.1,1c0,0.2,0.1,0.5,0.2,0.7H9.2c0-0.1-0.1-0.2-0.1-0.4
		c0-0.1,0-0.1,0-0.2c-0.2,0.2-0.5,0.4-0.8,0.5c-0.3,0.1-0.6,0.2-0.9,0.2c-0.5,0-1-0.1-1.3-0.4c-0.3-0.3-0.5-0.7-0.5-1.1
		c0-0.3,0.1-0.6,0.2-0.8c0.1-0.2,0.3-0.4,0.6-0.5c0.3-0.1,0.6-0.2,1.1-0.3c0.6-0.1,1.1-0.2,1.3-0.3V16c0-0.3-0.1-0.5-0.2-0.6
		c-0.1-0.1-0.4-0.2-0.7-0.2c-0.2,0-0.4,0-0.6,0.1C7.3,15.5,7.2,15.7,7.1,15.9z M9,17.1c-0.2,0.1-0.5,0.1-0.8,0.2
		c-0.4,0.1-0.6,0.2-0.8,0.2c-0.2,0.1-0.3,0.3-0.3,0.5c0,0.2,0.1,0.4,0.2,0.5c0.1,0.1,0.3,0.2,0.5,0.2c0.2,0,0.5-0.1,0.7-0.2
		c0.2-0.1,0.3-0.3,0.3-0.5c0-0.1,0.1-0.3,0.1-0.7V17.1z"/>
	<path style="fill:#FFFFFF;" d="M11.1,14.3h0.8v-0.4c0-0.4,0-0.8,0.1-1c0.1-0.2,0.3-0.4,0.5-0.5c0.3-0.1,0.6-0.2,0.9-0.2
		c0.4,0,0.8,0.1,1.2,0.2l-0.2,1c-0.2-0.1-0.4-0.1-0.6-0.1c-0.2,0-0.3,0-0.4,0.1c-0.1,0.1-0.1,0.3-0.1,0.5v0.4h1v1.1h-1v4.2h-1.4
		v-4.2h-0.8V14.3z"/>
	<path style="fill:#FFFFFF;" d="M16,15.9l-1.3-0.2c0.1-0.5,0.4-0.9,0.7-1.1s0.9-0.4,1.5-0.4c0.6,0,1.1,0.1,1.4,0.2
		c0.3,0.1,0.5,0.3,0.6,0.6c0.1,0.2,0.2,0.6,0.2,1.3l0,1.6c0,0.5,0,0.8,0.1,1c0,0.2,0.1,0.5,0.2,0.7h-1.4c0-0.1-0.1-0.2-0.1-0.4
		c0-0.1,0-0.1,0-0.2c-0.2,0.2-0.5,0.4-0.8,0.5c-0.3,0.1-0.6,0.2-0.9,0.2c-0.5,0-1-0.1-1.3-0.4c-0.3-0.3-0.5-0.7-0.5-1.1
		c0-0.3,0.1-0.6,0.2-0.8c0.1-0.2,0.3-0.4,0.6-0.5c0.3-0.1,0.6-0.2,1.1-0.3c0.6-0.1,1.1-0.2,1.3-0.3V16c0-0.3-0.1-0.5-0.2-0.6
		c-0.1-0.1-0.4-0.2-0.7-0.2c-0.2,0-0.4,0-0.6,0.1C16.2,15.5,16.1,15.7,16,15.9z M17.9,17.1c-0.2,0.1-0.5,0.1-0.8,0.2
		c-0.4,0.1-0.6,0.2-0.8,0.2C16.1,17.7,16,17.8,16,18c0,0.2,0.1,0.4,0.2,0.5c0.1,0.1,0.3,0.2,0.5,0.2c0.2,0,0.5-0.1,0.7-0.2
		c0.2-0.1,0.3-0.3,0.3-0.5c0-0.1,0.1-0.3,0.1-0.7V17.1z"/>
	<path style="fill:#FFFFFF;" d="M21.9,19.6h-1.4v-5.3h1.3v0.8c0.2-0.4,0.4-0.6,0.6-0.7c0.2-0.1,0.4-0.2,0.6-0.2
		c0.3,0,0.6,0.1,0.9,0.3l-0.4,1.2c-0.2-0.2-0.4-0.2-0.6-0.2c-0.2,0-0.4,0.1-0.5,0.2c-0.1,0.1-0.2,0.3-0.3,0.6
		c-0.1,0.3-0.1,0.9-0.1,1.8V19.6z"/>
	<path style="fill:#FFFFFF;" d="M24.5,13.6v-1.3h1.4v1.3H24.5z M24.5,19.6v-5.3h1.4v5.3H24.5z"/>
	<path style="fill:#FFFFFF;" d="M31.1,15.9l-1.3-0.2c0.1-0.5,0.4-0.9,0.7-1.1c0.3-0.2,0.9-0.4,1.5-0.4c0.6,0,1.1,0.1,1.4,0.2
		c0.3,0.1,0.5,0.3,0.6,0.6c0.1,0.2,0.2,0.6,0.2,1.3l0,1.6c0,0.5,0,0.8,0.1,1c0,0.2,0.1,0.5,0.2,0.7h-1.4c0-0.1-0.1-0.2-0.1-0.4
		c0-0.1,0-0.1,0-0.2c-0.2,0.2-0.5,0.4-0.8,0.5c-0.3,0.1-0.6,0.2-0.9,0.2c-0.5,0-1-0.1-1.3-0.4c-0.3-0.3-0.5-0.7-0.5-1.1
		c0-0.3,0.1-0.6,0.2-0.8c0.1-0.2,0.3-0.4,0.6-0.5c0.3-0.1,0.6-0.2,1.1-0.3c0.6-0.1,1.1-0.2,1.3-0.3V16c0-0.3-0.1-0.5-0.2-0.6
		c-0.1-0.1-0.4-0.2-0.7-0.2c-0.2,0-0.4,0-0.6,0.1C31.3,15.5,31.2,15.7,31.1,15.9z M33,17.1c-0.2,0.1-0.5,0.1-0.8,0.2
		c-0.4,0.1-0.6,0.2-0.8,0.2c-0.2,0.1-0.3,0.3-0.3,0.5c0,0.2,0.1,0.4,0.2,0.5c0.1,0.1,0.3,0.2,0.5,0.2c0.2,0,0.5-0.1,0.7-0.2
		c0.2-0.1,0.3-0.3,0.3-0.5c0-0.1,0.1-0.3,0.1-0.7V17.1z"/>
	<path style="fill:#FFFFFF;" d="M40.4,19.6h-1.4v-2.7c0-0.6,0-0.9-0.1-1.1c-0.1-0.2-0.2-0.3-0.3-0.4c-0.1-0.1-0.3-0.1-0.5-0.1
		c-0.2,0-0.5,0.1-0.6,0.2c-0.2,0.1-0.3,0.3-0.4,0.5c-0.1,0.2-0.1,0.6-0.1,1.2v2.4h-1.4v-5.3H37v0.8c0.5-0.6,1-0.9,1.7-0.9
		c0.3,0,0.6,0.1,0.8,0.2c0.3,0.1,0.4,0.3,0.6,0.4c0.1,0.2,0.2,0.4,0.3,0.6c0.1,0.2,0.1,0.5,0.1,0.9V19.6z"/>
	<path style="fill:#FFFFFF;" d="M46.6,19.6h-1.4v-2.7c0-0.6,0-0.9-0.1-1.1c-0.1-0.2-0.2-0.3-0.3-0.4s-0.3-0.1-0.5-0.1
		c-0.2,0-0.5,0.1-0.6,0.2c-0.2,0.1-0.3,0.3-0.4,0.5c-0.1,0.2-0.1,0.6-0.1,1.2v2.4h-1.4v-5.3h1.3v0.8c0.5-0.6,1-0.9,1.7-0.9
		c0.3,0,0.6,0.1,0.8,0.2c0.3,0.1,0.4,0.3,0.6,0.4c0.1,0.2,0.2,0.4,0.3,0.6c0.1,0.2,0.1,0.5,0.1,0.9V19.6z"/>
	<path style="fill:#FFFFFF;" d="M51.4,19.6v-0.8c-0.2,0.3-0.4,0.5-0.7,0.7s-0.6,0.2-1,0.2c-0.3,0-0.7-0.1-0.9-0.2
		c-0.3-0.2-0.5-0.4-0.6-0.7c-0.1-0.3-0.2-0.7-0.2-1.2v-3.4h1.4v2.4c0,0.7,0,1.2,0.1,1.4c0.1,0.2,0.1,0.3,0.3,0.4
		c0.1,0.1,0.3,0.1,0.5,0.1c0.2,0,0.4-0.1,0.6-0.2c0.2-0.1,0.3-0.3,0.4-0.5c0.1-0.2,0.1-0.7,0.1-1.4v-2.2h1.4v5.3H51.4z"/>
	<path style="fill:#FFFFFF;" d="M55.1,15.9l-1.3-0.2c0.1-0.5,0.4-0.9,0.7-1.1s0.9-0.4,1.5-0.4c0.6,0,1.1,0.1,1.4,0.2
		c0.3,0.1,0.5,0.3,0.6,0.6c0.1,0.2,0.2,0.6,0.2,1.3l0,1.6c0,0.5,0,0.8,0.1,1c0,0.2,0.1,0.5,0.2,0.7h-1.4c0-0.1-0.1-0.2-0.1-0.4
		c0-0.1,0-0.1,0-0.2c-0.2,0.2-0.5,0.4-0.8,0.5c-0.3,0.1-0.6,0.2-0.9,0.2c-0.5,0-1-0.1-1.3-0.4c-0.3-0.3-0.5-0.7-0.5-1.1
		c0-0.3,0.1-0.6,0.2-0.8c0.1-0.2,0.3-0.4,0.6-0.5c0.3-0.1,0.6-0.2,1.1-0.3c0.6-0.1,1.1-0.2,1.3-0.3V16c0-0.3-0.1-0.5-0.2-0.6
		c-0.1-0.1-0.4-0.2-0.7-0.2c-0.2,0-0.4,0-0.6,0.1C55.3,15.5,55.2,15.7,55.1,15.9z M57,17.1c-0.2,0.1-0.5,0.1-0.8,0.2
		s-0.6,0.2-0.8,0.2c-0.2,0.1-0.3,0.3-0.3,0.5c0,0.2,0.1,0.4,0.2,0.5c0.1,0.1,0.3,0.2,0.5,0.2c0.2,0,0.5-0.1,0.7-0.2
		c0.2-0.1,0.3-0.3,0.3-0.5c0-0.1,0.1-0.3,0.1-0.7V17.1z"/>
	<path style="fill:#FFFFFF;" d="M59.7,19.6v-7.3h1.4v7.3H59.7z"/>
	<path style="fill:#FFFFFF;" d="M62.5,19.6v-7.3h1.4v7.3H62.5z"/>
	<path style="fill:#FFFFFF;" d="M64.6,14.3h1.5l1.2,3.8l1.2-3.8H70l-1.8,5.1l-0.3,0.9c-0.1,0.3-0.2,0.5-0.3,0.7
		c-0.1,0.2-0.2,0.3-0.4,0.4c-0.1,0.1-0.3,0.2-0.5,0.2c-0.2,0.1-0.4,0.1-0.7,0.1c-0.3,0-0.5,0-0.8-0.1L65,20.6c0.2,0,0.4,0.1,0.6,0.1
		c0.3,0,0.6-0.1,0.7-0.3c0.2-0.2,0.3-0.4,0.4-0.7L64.6,14.3z"/>
</g>
</svg>
