<?xml version="1.0" encoding="utf-8"?>
<!-- Generator: Adobe Illustrator 21.0.0, SVG Export Plug-In . SVG Version: 6.00 Build 0)  -->
<svg version="1.1" id="Слой_1" xmlns="http://www.w3.org/2000/svg" xmlns:xlink="http://www.w3.org/1999/xlink" x="0px" y="0px"
	 viewBox="0 0 118 12" style="enable-background:new 0 0 118 12;" xml:space="preserve">
<g id="Safari_in_Tanzania" style="enable-background:new    ;">
	<path style="fill:#FFFFFF;" d="M0,8.1l1.3-0.1C1.4,8.5,1.6,9,1.8,9.4C2,9.7,2.4,10,2.9,10.3c0.5,0.2,1,0.3,1.7,0.3
		c0.5,0,1-0.1,1.4-0.3s0.7-0.4,0.9-0.7c0.2-0.3,0.3-0.6,0.3-1c0-0.4-0.1-0.7-0.3-1C6.7,7.4,6.4,7.2,5.9,7C5.6,6.9,5,6.7,4,6.4
		C3,6.2,2.3,5.9,1.9,5.7C1.4,5.4,1,5.1,0.8,4.6C0.5,4.2,0.4,3.7,0.4,3.2c0-0.6,0.2-1.1,0.5-1.6C1.2,1,1.6,0.7,2.2,0.4
		C2.8,0.1,3.5,0,4.2,0C5,0,5.7,0.1,6.3,0.4c0.6,0.3,1.1,0.7,1.4,1.2C8,2.2,8.2,2.8,8.2,3.5L6.9,3.6C6.8,2.8,6.6,2.3,6.1,1.9
		c-0.4-0.4-1-0.6-1.9-0.6c-0.9,0-1.5,0.2-1.9,0.5C2,2.2,1.8,2.6,1.8,3.1c0,0.4,0.1,0.8,0.4,1c0.3,0.3,1,0.5,2.1,0.8
		c1.2,0.3,2,0.5,2.4,0.7C7.4,6,7.8,6.4,8.1,6.9c0.3,0.5,0.4,1,0.4,1.7c0,0.6-0.2,1.2-0.5,1.7c-0.3,0.5-0.8,1-1.4,1.3
		C6.1,11.8,5.4,12,4.6,12c-1,0-1.8-0.2-2.5-0.5c-0.7-0.3-1.2-0.8-1.5-1.4C0.2,9.5,0,8.8,0,8.1z"/>
	<path style="fill:#FFFFFF;" d="M15.4,10.8c-0.5,0.4-1,0.8-1.4,0.9c-0.5,0.2-0.9,0.3-1.5,0.3c-0.9,0-1.5-0.2-2-0.7
		c-0.5-0.5-0.7-1-0.7-1.7c0-0.4,0.1-0.8,0.3-1.1c0.2-0.3,0.4-0.6,0.7-0.8c0.3-0.2,0.6-0.4,1-0.5C12.1,7.1,12.4,7,13,7
		c1.1-0.1,1.9-0.3,2.4-0.5c0-0.2,0-0.3,0-0.4c0-0.6-0.1-1-0.4-1.2c-0.3-0.3-0.8-0.5-1.5-0.5c-0.6,0-1.1,0.1-1.4,0.4
		C11.8,5,11.6,5.4,11.4,6l-1.3-0.2c0.1-0.6,0.3-1.1,0.6-1.4C11,4,11.4,3.7,11.9,3.5c0.5-0.2,1.1-0.3,1.8-0.3c0.7,0,1.2,0.1,1.6,0.3
		c0.4,0.2,0.7,0.4,0.9,0.6c0.2,0.3,0.3,0.6,0.4,1c0,0.2,0.1,0.7,0.1,1.3v1.9c0,1.3,0,2.2,0.1,2.5c0.1,0.4,0.2,0.7,0.3,1h-1.4
		C15.6,11.5,15.5,11.2,15.4,10.8z M15.3,7.6c-0.5,0.2-1.2,0.4-2.2,0.5c-0.5,0.1-0.9,0.2-1.2,0.3c-0.2,0.1-0.4,0.3-0.5,0.5
		c-0.1,0.2-0.2,0.4-0.2,0.7c0,0.4,0.1,0.7,0.4,0.9c0.3,0.3,0.7,0.4,1.2,0.4c0.5,0,1-0.1,1.4-0.4c0.4-0.2,0.7-0.6,0.9-1
		c0.1-0.3,0.2-0.8,0.2-1.4V7.6z"/>
	<path style="fill:#FFFFFF;" d="M19,11.8V4.5h-1.2V3.4H19V2.5c0-0.6,0-1,0.1-1.3c0.1-0.4,0.4-0.7,0.7-0.9C20.2,0.1,20.6,0,21.2,0
		c0.4,0,0.8,0,1.2,0.1l-0.2,1.2c-0.3-0.1-0.5-0.1-0.8-0.1c-0.4,0-0.7,0.1-0.9,0.3c-0.2,0.2-0.2,0.5-0.2,1v0.8h1.5v1.1h-1.5v7.3H19z"
		/>
	<path style="fill:#FFFFFF;" d="M28,10.8c-0.5,0.4-1,0.8-1.4,0.9c-0.5,0.2-0.9,0.3-1.5,0.3c-0.9,0-1.5-0.2-2-0.7
		c-0.5-0.5-0.7-1-0.7-1.7c0-0.4,0.1-0.8,0.3-1.1c0.2-0.3,0.4-0.6,0.7-0.8c0.3-0.2,0.6-0.4,1-0.5C24.6,7.1,25,7,25.5,7
		c1.1-0.1,1.9-0.3,2.4-0.5c0-0.2,0-0.3,0-0.4c0-0.6-0.1-1-0.4-1.2c-0.3-0.3-0.8-0.5-1.5-0.5c-0.6,0-1.1,0.1-1.4,0.4
		C24.3,5,24.1,5.4,24,6l-1.3-0.2c0.1-0.6,0.3-1.1,0.6-1.4c0.3-0.4,0.7-0.6,1.2-0.8c0.5-0.2,1.1-0.3,1.8-0.3c0.7,0,1.2,0.1,1.6,0.3
		s0.7,0.4,0.9,0.6c0.2,0.3,0.3,0.6,0.4,1c0,0.2,0.1,0.7,0.1,1.3v1.9c0,1.3,0,2.2,0.1,2.5c0.1,0.4,0.2,0.7,0.3,1h-1.4
		C28.1,11.5,28,11.2,28,10.8z M27.9,7.6c-0.5,0.2-1.2,0.4-2.2,0.5c-0.5,0.1-0.9,0.2-1.2,0.3c-0.2,0.1-0.4,0.3-0.5,0.5
		c-0.1,0.2-0.2,0.4-0.2,0.7c0,0.4,0.1,0.7,0.4,0.9c0.3,0.3,0.7,0.4,1.2,0.4c0.5,0,1-0.1,1.4-0.4c0.4-0.2,0.7-0.6,0.9-1
		c0.1-0.3,0.2-0.8,0.2-1.4V7.6z"/>
	<path style="fill:#FFFFFF;" d="M31.2,11.8V3.4h1.2v1.3c0.3-0.6,0.6-1,0.8-1.2c0.3-0.2,0.5-0.3,0.8-0.3c0.4,0,0.9,0.2,1.4,0.5L35,5
		c-0.3-0.2-0.6-0.3-1-0.3c-0.3,0-0.5,0.1-0.8,0.3c-0.2,0.2-0.4,0.4-0.5,0.8c-0.1,0.5-0.2,1.1-0.2,1.7v4.4H31.2z"/>
	<path style="fill:#FFFFFF;" d="M36.3,1.8V0.2h1.3v1.6H36.3z M36.3,11.8V3.4h1.3v8.4H36.3z"/>
	<path style="fill:#FFFFFF;" d="M43.8,1.8V0.2h1.3v1.6H43.8z M43.8,11.8V3.4h1.3v8.4H43.8z"/>
	<path style="fill:#FFFFFF;" d="M47.1,11.8V3.4h1.2v1.2c0.6-0.9,1.4-1.4,2.5-1.4c0.5,0,0.9,0.1,1.3,0.3c0.4,0.2,0.7,0.4,0.9,0.7
		c0.2,0.3,0.3,0.6,0.4,1.1c0,0.3,0.1,0.7,0.1,1.4v5.2h-1.3V6.7c0-0.6-0.1-1-0.2-1.3c-0.1-0.3-0.3-0.5-0.5-0.7
		c-0.3-0.2-0.6-0.3-0.9-0.3c-0.6,0-1,0.2-1.5,0.6c-0.4,0.4-0.6,1.1-0.6,2.2v4.6H47.1z"/>
	<path style="fill:#FFFFFF;" d="M62.3,11.8V1.6h-3.5V0.2h8.5v1.4h-3.6v10.2H62.3z"/>
	<path style="fill:#FFFFFF;" d="M72,10.8c-0.5,0.4-1,0.8-1.4,0.9c-0.5,0.2-0.9,0.3-1.5,0.3c-0.9,0-1.5-0.2-2-0.7
		c-0.5-0.5-0.7-1-0.7-1.7c0-0.4,0.1-0.8,0.3-1.1c0.2-0.3,0.4-0.6,0.7-0.8c0.3-0.2,0.6-0.4,1-0.5C68.6,7.1,69,7,69.6,7
		c1.1-0.1,1.9-0.3,2.4-0.5c0-0.2,0-0.3,0-0.4c0-0.6-0.1-1-0.4-1.2c-0.3-0.3-0.8-0.5-1.5-0.5c-0.6,0-1.1,0.1-1.4,0.4
		C68.4,5,68.1,5.4,68,6l-1.3-0.2c0.1-0.6,0.3-1.1,0.6-1.4C67.6,4,68,3.7,68.5,3.5c0.5-0.2,1.1-0.3,1.8-0.3c0.7,0,1.2,0.1,1.6,0.3
		c0.4,0.2,0.7,0.4,0.9,0.6c0.2,0.3,0.3,0.6,0.4,1c0,0.2,0.1,0.7,0.1,1.3v1.9c0,1.3,0,2.2,0.1,2.5c0.1,0.4,0.2,0.7,0.3,1h-1.4
		C72.2,11.5,72.1,11.2,72,10.8z M71.9,7.6c-0.5,0.2-1.2,0.4-2.2,0.5c-0.5,0.1-0.9,0.2-1.2,0.3c-0.2,0.1-0.4,0.3-0.5,0.5
		c-0.1,0.2-0.2,0.4-0.2,0.7c0,0.4,0.1,0.7,0.4,0.9c0.3,0.3,0.7,0.4,1.2,0.4c0.5,0,1-0.1,1.4-0.4c0.4-0.2,0.7-0.6,0.9-1
		c0.1-0.3,0.2-0.8,0.2-1.4V7.6z"/>
	<path style="fill:#FFFFFF;" d="M75.3,11.8V3.4h1.2v1.2c0.6-0.9,1.4-1.4,2.5-1.4c0.5,0,0.9,0.1,1.3,0.3c0.4,0.2,0.7,0.4,0.9,0.7
		c0.2,0.3,0.3,0.6,0.4,1.1c0,0.3,0.1,0.7,0.1,1.4v5.2h-1.3V6.7c0-0.6-0.1-1-0.2-1.3c-0.1-0.3-0.3-0.5-0.5-0.7
		c-0.3-0.2-0.6-0.3-0.9-0.3c-0.6,0-1,0.2-1.5,0.6c-0.4,0.4-0.6,1.1-0.6,2.2v4.6H75.3z"/>
	<path style="fill:#FFFFFF;" d="M83,11.8v-1.2l5-6.1c-0.6,0-1.1,0-1.5,0h-3.2V3.4h6.4v0.9l-4.2,5.3l-0.8,1c0.6,0,1.1-0.1,1.7-0.1
		h3.6v1.2H83z"/>
	<path style="fill:#FFFFFF;" d="M96.3,10.8c-0.5,0.4-1,0.8-1.4,0.9c-0.5,0.2-0.9,0.3-1.5,0.3c-0.9,0-1.5-0.2-2-0.7
		c-0.5-0.5-0.7-1-0.7-1.7c0-0.4,0.1-0.8,0.3-1.1c0.2-0.3,0.4-0.6,0.7-0.8c0.3-0.2,0.6-0.4,1-0.5C92.9,7.1,93.3,7,93.8,7
		c1.1-0.1,1.9-0.3,2.4-0.5c0-0.2,0-0.3,0-0.4c0-0.6-0.1-1-0.4-1.2c-0.3-0.3-0.8-0.5-1.5-0.5c-0.6,0-1.1,0.1-1.4,0.4
		C92.6,5,92.4,5.4,92.3,6L91,5.8c0.1-0.6,0.3-1.1,0.6-1.4c0.3-0.4,0.7-0.6,1.2-0.8c0.5-0.2,1.1-0.3,1.8-0.3c0.7,0,1.2,0.1,1.6,0.3
		c0.4,0.2,0.7,0.4,0.9,0.6c0.2,0.3,0.3,0.6,0.4,1c0,0.2,0.1,0.7,0.1,1.3v1.9c0,1.3,0,2.2,0.1,2.5c0.1,0.4,0.2,0.7,0.3,1h-1.4
		C96.4,11.5,96.3,11.2,96.3,10.8z M96.2,7.6C95.7,7.8,95,8,94,8.1c-0.5,0.1-0.9,0.2-1.2,0.3c-0.2,0.1-0.4,0.3-0.5,0.5
		c-0.1,0.2-0.2,0.4-0.2,0.7c0,0.4,0.1,0.7,0.4,0.9c0.3,0.3,0.7,0.4,1.2,0.4c0.5,0,1-0.1,1.4-0.4c0.4-0.2,0.7-0.6,0.9-1
		c0.1-0.3,0.2-0.8,0.2-1.4V7.6z"/>
	<path style="fill:#FFFFFF;" d="M99.6,11.8V3.4h1.2v1.2c0.6-0.9,1.4-1.4,2.5-1.4c0.5,0,0.9,0.1,1.3,0.3c0.4,0.2,0.7,0.4,0.9,0.7
		c0.2,0.3,0.3,0.6,0.4,1.1c0,0.3,0.1,0.7,0.1,1.4v5.2h-1.3V6.7c0-0.6-0.1-1-0.2-1.3c-0.1-0.3-0.3-0.5-0.5-0.7
		c-0.3-0.2-0.6-0.3-0.9-0.3c-0.6,0-1,0.2-1.5,0.6c-0.4,0.4-0.6,1.1-0.6,2.2v4.6H99.6z"/>
	<path style="fill:#FFFFFF;" d="M107.9,1.8V0.2h1.3v1.6H107.9z M107.9,11.8V3.4h1.3v8.4H107.9z"/>
	<path style="fill:#FFFFFF;" d="M116.4,10.8c-0.5,0.4-1,0.8-1.4,0.9c-0.5,0.2-0.9,0.3-1.5,0.3c-0.9,0-1.5-0.2-2-0.7
		c-0.5-0.5-0.7-1-0.7-1.7c0-0.4,0.1-0.8,0.3-1.1c0.2-0.3,0.4-0.6,0.7-0.8c0.3-0.2,0.6-0.4,1-0.5c0.3-0.1,0.7-0.1,1.2-0.2
		c1.1-0.1,1.9-0.3,2.4-0.5c0-0.2,0-0.3,0-0.4c0-0.6-0.1-1-0.4-1.2c-0.3-0.3-0.8-0.5-1.5-0.5c-0.6,0-1.1,0.1-1.4,0.4
		c-0.3,0.2-0.5,0.7-0.7,1.2L111,5.8c0.1-0.6,0.3-1.1,0.6-1.4c0.3-0.4,0.7-0.6,1.2-0.8c0.5-0.2,1.1-0.3,1.8-0.3
		c0.7,0,1.2,0.1,1.6,0.3c0.4,0.2,0.7,0.4,0.9,0.6c0.2,0.3,0.3,0.6,0.4,1c0,0.2,0.1,0.7,0.1,1.3v1.9c0,1.3,0,2.2,0.1,2.5
		c0.1,0.4,0.2,0.7,0.3,1h-1.4C116.5,11.5,116.4,11.2,116.4,10.8z M116.2,7.6c-0.5,0.2-1.2,0.4-2.2,0.5c-0.5,0.1-0.9,0.2-1.2,0.3
		c-0.2,0.1-0.4,0.3-0.5,0.5c-0.1,0.2-0.2,0.4-0.2,0.7c0,0.4,0.1,0.7,0.4,0.9c0.3,0.3,0.7,0.4,1.2,0.4c0.5,0,1-0.1,1.4-0.4
		c0.4-0.2,0.7-0.6,0.9-1c0.1-0.3,0.2-0.8,0.2-1.4V7.6z"/>
</g>
</svg>
