<?xml version="1.0" encoding="utf-8"?>
<!-- Generator: Adobe Illustrator 21.0.0, SVG Export Plug-In . SVG Version: 6.00 Build 0)  -->
<svg version="1.1" id="Слой_1" xmlns="http://www.w3.org/2000/svg" xmlns:xlink="http://www.w3.org/1999/xlink" x="0px" y="0px"
	 viewBox="0 0 14 16" style="enable-background:new 0 0 14 16;" xml:space="preserve">
<path style="fill:#FFFFFF;" d="M9.6,10.1c-0.9-1-1.2-2.4-2.7-2.4c-1.4,0-1.7,1.3-2.6,2.3c-0.8,0.9-2.3,1.1-2.3,2.7
	c0,1.9,2.2,3,4.9,3s4.9-1.1,4.9-3C11.8,11.2,10.3,11,9.6,10.1z M13.5,3.9c0,0-3,3.4-3,4.3c0,1,0.8,1.7,1.7,1.7c1,0,1.7-0.8,1.7-1.7
	C14,7.3,13.5,3.9,13.5,3.9z M3.5,8.3c0-1-3-4.3-3-4.3S0,7.3,0,8.3c0,1,0.8,1.7,1.7,1.7C2.7,10,3.5,9.2,3.5,8.3z M9.2,6.3
	c1,0,1.7-0.8,1.7-1.7c0-1-1.7-4.3-1.7-4.3S7.5,3.6,7.5,4.6C7.5,5.5,8.2,6.3,9.2,6.3z M4.9,6.3c1,0,1.7-0.8,1.7-1.7
	c0-1-1.7-4.3-1.7-4.3S3.1,3.6,3.1,4.6C3.1,5.5,3.9,6.3,4.9,6.3z"/>
</svg>
