<?xml version="1.0" encoding="utf-8"?>
<!-- Generator: Adobe Illustrator 21.0.0, SVG Export Plug-In . SVG Version: 6.00 Build 0)  -->
<svg version="1.1" id="Слой_1" xmlns="http://www.w3.org/2000/svg" xmlns:xlink="http://www.w3.org/1999/xlink" x="0px" y="0px"
	 viewBox="0 0 13 13" style="enable-background:new 0 0 13 13;" xml:space="preserve">
<path style="fill:#FFFFFF;" d="M12.7,11.3L10,8.6c0.6-0.9,1-2,1-3.1c0-0.7-0.1-1.5-0.4-2.1c-0.3-0.7-0.7-1.3-1.2-1.8
	C8.9,1.1,8.3,0.7,7.6,0.4C7,0.1,6.2,0,5.5,0C4.8,0,4,0.1,3.4,0.4C2.7,0.7,2.1,1.1,1.6,1.6C1.1,2.1,0.7,2.7,0.4,3.4
	C0.1,4,0,4.8,0,5.5S0.1,7,0.4,7.6c0.3,0.7,0.7,1.3,1.2,1.8c0.5,0.5,1.1,0.9,1.8,1.2C4,10.9,4.8,11,5.5,11c1.1,0,2.2-0.3,3.1-1
	l2.7,2.7c0.2,0.2,0.4,0.3,0.7,0.3c0.3,0,0.5-0.1,0.7-0.3c0.2-0.2,0.3-0.4,0.3-0.7C13,11.7,12.9,11.5,12.7,11.3z M8,8
	C7.3,8.7,6.5,9,5.5,9C4.5,9,3.7,8.7,3,8C2.3,7.3,2,6.5,2,5.5c0-1,0.3-1.8,1-2.5c0.7-0.7,1.5-1,2.5-1S7.3,2.3,8,3
	c0.7,0.7,1,1.5,1,2.5C9,6.5,8.7,7.3,8,8z"/>
</svg>
