<?xml version="1.0" encoding="utf-8"?>
<!-- Generator: Adobe Illustrator 21.0.0, SVG Export Plug-In . SVG Version: 6.00 Build 0)  -->
<svg version="1.1" id="Слой_1" xmlns="http://www.w3.org/2000/svg" xmlns:xlink="http://www.w3.org/1999/xlink" x="0px" y="0px"
	 viewBox="0 0 22 22" style="enable-background:new 0 0 22 22;" xml:space="preserve">
<style type="text/css">
	.st0{fill:#FFFFFF;}
</style>
<path class="st0" d="M11.3,9c-0.9,2.1,3.6,2.2,5.7,3.3c2,1,3,3.1,3.4,3.1C22.9,12,19,7.4,19,7.4S17.5,7,17.2,5.5
	C16.8,4.1,18.2,1.9,18,3c-0.2,1.1,1.4,1.7,1.5,2.4c0.2,0.7,0,2,0,2s4.3,2.6,1.6,8.7c1,4.1-1.2,4.1-1.2,4.1s0.8,1.4-1.4,1.4
	c-2.1,0-3.4,0-5.3,0c-1.9,0-0.5-1.6,0.3-1.6c0.8,0,1.5,0,1.9,0c-0.1,0-2.5-0.2-2-1.8c-3.1,0.3-7.2-1-7.2-1s-2,4.7-3.4,4.6
	c-1.5,0-2.6,0.1-2.5-0.7c0.2-1.6,2.4-0.1,2.6-3c0.1-1.7,1.1-3,1.1-3s-2.7-1.8-1.8-7C1.9,8.2,1,8.4,0.8,7.9c-0.3-0.5,0-1.1,0-1.1
	s-1.1-1.5-0.6-2.4c0.5-0.9,2.5-1.1,3.4-1.2c0.4-3.6,2-3.5,4.4-2.5C12,0.1,13.1,6.4,11.3,9z"/>
</svg>
