<?xml version="1.0" encoding="utf-8"?>
<!-- Generator: Adobe Illustrator 21.0.0, SVG Export Plug-In . SVG Version: 6.00 Build 0)  -->
<svg version="1.1" id="Слой_1" xmlns="http://www.w3.org/2000/svg" xmlns:xlink="http://www.w3.org/1999/xlink" x="0px" y="0px"
	 viewBox="0 0 16 16" style="enable-background:new 0 0 16 16;" xml:space="preserve">
<path style="fill:#FFFFFF;" d="M15.9,7.1c0-0.2-0.3-0.4-0.5-0.4c-0.7,0-1.4-0.4-1.7-1.1c-0.3-0.7-0.1-1.5,0.4-2
	c0.2-0.2,0.2-0.4,0-0.6c-0.4-0.5-0.8-0.9-1.3-1.3c-0.2-0.1-0.4-0.1-0.6,0c-0.5,0.5-1.3,0.7-2,0.4C9.7,2,9.3,1.3,9.3,0.5
	c0-0.2-0.2-0.4-0.4-0.5C8.3,0,7.7,0,7.1,0c-0.2,0-0.4,0.2-0.4,0.5c0,0.7-0.4,1.4-1.1,1.7C5,2.5,4.1,2.3,3.7,1.8
	C3.5,1.6,3.2,1.6,3.1,1.7C2.6,2.1,2.1,2.5,1.8,3c-0.1,0.2-0.1,0.5,0,0.6c0.6,0.5,0.7,1.3,0.4,2C2,6.3,1.3,6.7,0.5,6.7
	c-0.3,0-0.4,0.2-0.5,0.4C0,7.7,0,8.3,0.1,8.9c0,0.2,0.3,0.4,0.5,0.4c0.7,0,1.4,0.4,1.6,1.1c0.3,0.7,0.1,1.5-0.4,2
	c-0.2,0.2-0.2,0.4,0,0.6c0.4,0.5,0.8,0.9,1.3,1.3c0.2,0.1,0.5,0.1,0.6,0c0.5-0.5,1.3-0.7,2-0.4c0.7,0.3,1.1,1,1.1,1.7
	c0,0.2,0.2,0.4,0.4,0.5C7.4,16,7.7,16,8,16c0.3,0,0.6,0,0.9,0c0.2,0,0.4-0.2,0.4-0.5c0-0.7,0.4-1.4,1.1-1.7c0.7-0.3,1.5-0.1,2,0.5
	c0.2,0.2,0.4,0.2,0.6,0.1c0.5-0.4,0.9-0.8,1.3-1.3c0.1-0.2,0.1-0.5,0-0.6c-0.6-0.5-0.7-1.3-0.4-2c0.3-0.6,0.9-1.1,1.6-1.1l0.1,0
	c0.2,0,0.4-0.2,0.5-0.4C16,8.3,16,7.7,15.9,7.1z M8,10.7c-1.5,0-2.7-1.2-2.7-2.7c0-1.5,1.2-2.7,2.7-2.7s2.7,1.2,2.7,2.7
	C10.7,9.5,9.5,10.7,8,10.7z"/>
</svg>
