<?xml version="1.0" encoding="utf-8"?>
<!-- Generator: Adobe Illustrator 21.0.0, SVG Export Plug-In . SVG Version: 6.00 Build 0)  -->
<svg version="1.1" id="Слой_1" xmlns="http://www.w3.org/2000/svg" xmlns:xlink="http://www.w3.org/1999/xlink" x="0px" y="0px"
	 viewBox="0 0 15 15" style="enable-background:new 0 0 15 15;" xml:space="preserve">
<style type="text/css">
	.st0{fill:#262626;}
</style>
<path class="st0" d="M14.7,7.6c0-1.9-0.7-3.6-2.1-5c-1.4-1.4-3.1-2.1-5-2.1c-0.4,0-0.8,0-1.2,0.1C5.7,0.2,4.9,0,4.1,0
	C3,0,2,0.4,1.2,1.2C0.4,2,0,3,0,4.1c0,0.8,0.2,1.4,0.6,2.1C0.5,6.6,0.4,7.1,0.4,7.6c0,1.9,0.7,3.6,2.1,5c1.4,1.4,3.1,2.1,5.1,2.1
	c0.4,0,0.9,0,1.3-0.1c0.6,0.3,1.3,0.5,2,0.5c1.1,0,2.1-0.4,2.9-1.2C14.6,13,15,12,15,10.9c0-0.6-0.2-1.2-0.5-1.8
	C14.7,8.6,14.7,8.1,14.7,7.6L14.7,7.6z M9.7,12c-0.6,0.3-1.4,0.4-2.2,0.4c-1,0-1.9-0.2-2.5-0.5c-0.5-0.3-0.9-0.6-1.2-1
	C3.5,10.4,3.3,10,3.3,9.6c0-0.3,0.1-0.5,0.3-0.7c0.2-0.2,0.5-0.3,0.8-0.3c0.2,0,0.4,0.1,0.6,0.2C5.2,9,5.3,9.2,5.4,9.4
	c0.1,0.3,0.2,0.6,0.4,0.7c0.1,0.2,0.3,0.3,0.6,0.5c0.3,0.1,0.6,0.2,1,0.2c0.6,0,1.1-0.1,1.4-0.4c0.4-0.3,0.5-0.6,0.5-0.9
	c0-0.3-0.1-0.5-0.3-0.7C8.9,8.7,8.7,8.6,8.4,8.5C8,8.4,7.6,8.3,7.1,8.2C6.3,8,5.7,7.8,5.2,7.6C4.7,7.4,4.3,7.1,4,6.7
	C3.7,6.3,3.5,5.8,3.5,5.3c0-0.5,0.2-1,0.5-1.4c0.3-0.4,0.8-0.7,1.4-1C6,2.7,6.7,2.6,7.5,2.6c0.6,0,1.2,0.1,1.7,0.2
	C9.6,3,10,3.2,10.3,3.4c0.3,0.2,0.6,0.5,0.7,0.8c0.2,0.3,0.2,0.5,0.2,0.8c0,0.3-0.1,0.5-0.3,0.7C10.7,5.9,10.5,6,10.2,6
	C9.9,6,9.7,5.9,9.6,5.8C9.4,5.7,9.3,5.5,9.2,5.2C9,4.9,8.8,4.6,8.5,4.4C8.3,4.2,7.9,4.2,7.3,4.2c-0.5,0-0.9,0.1-1.3,0.3
	C5.8,4.6,5.7,4.8,5.7,5.1c0,0.2,0,0.3,0.1,0.4C5.9,5.6,6,5.8,6.2,5.8C6.4,5.9,6.6,6,6.8,6.1c0.2,0.1,0.5,0.2,1,0.2
	c0.6,0.1,1.1,0.3,1.6,0.4c0.5,0.1,0.9,0.3,1.2,0.6c0.4,0.2,0.6,0.5,0.8,0.8c0.2,0.3,0.3,0.8,0.3,1.2c0,0.6-0.2,1.1-0.5,1.6
	C10.8,11.4,10.4,11.7,9.7,12L9.7,12z"/>
</svg>
