<?xml version="1.0" encoding="utf-8"?>
<!-- Generator: Adobe Illustrator 21.0.0, SVG Export Plug-In . SVG Version: 6.00 Build 0)  -->
<svg version="1.1" id="Слой_1" xmlns="http://www.w3.org/2000/svg" xmlns:xlink="http://www.w3.org/1999/xlink" x="0px" y="0px"
	 viewBox="0 0 63 65" style="enable-background:new 0 0 63 65;" xml:space="preserve">
<g>
	<g>
		<linearGradient id="SVGID_1_" gradientUnits="userSpaceOnUse" x1="31.5" y1="65.5011" x2="31.5" y2="-0.2187">
			<stop  offset="0" style="stop-color:#ADE7F8"/>
			<stop  offset="1" style="stop-color:#81A6F1"/>
		</linearGradient>
		<path style="fill:url(#SVGID_1_);" d="M56.8,18.4v-1.6C56.8,7.5,49.3,0,40.1,0c-4,0-7.9,1.4-11,4.1c-2,1.7-3.6,3.9-4.6,6.3
			c-1.5-0.8-3.2-1.2-5-1.2c-6,0-11,4.9-11,11v2.2C3.7,23.5,0,27.9,0,33.1c0,2.9,1.1,5.7,3.1,7.7c2,2.1,4.8,3.2,7.7,3.2H13
			c1.4,0,2.5-1.1,2.5-2.5c0-1.4-1.1-2.5-2.5-2.5h-2.2c-3.3,0-5.9-2.6-5.9-6c0-3.3,2.8-6,6.1-6h0c1.4,0,2.5-1.1,2.5-2.5v-4.4
			c0-3.3,2.7-6,6-6c1.7,0,3.4,0.7,4.5,2c0.6,0.7,1.6,1,2.5,0.7c0.9-0.3,1.6-1,1.7-2c0.9-5.7,5.9-10,11.7-10
			c6.5,0,11.9,5.3,11.9,11.9v3c0,0.9,0.5,1.7,1.3,2.2c3,1.6,4.8,4.7,4.8,8c0,4.3-2.9,7.9-7.1,8.9c-0.2,0-0.4,0.1-0.7,0.1
			c-0.1,0-0.3,0-0.4,0c-1.4,0.1-2.4,1.3-2.2,2.7c0.1,1.4,1.3,2.4,2.7,2.2c0.1,0,0.2,0,0.3,0c0.4,0,0.9-0.1,1.5-0.2
			c3-0.7,5.8-2.4,7.8-4.9c2-2.5,3.1-5.6,3.1-8.8C63,25.3,60.7,21,56.8,18.4z M31.5,37l-2.2-1.3l2.2-1.3c0.4-0.2,0.7-0.9,0.4-1.6
			c-0.2-0.4-0.9-0.7-1.6-0.4l-2.2,1.3v-2.5c0-0.7-0.4-1.1-1.1-1.1s-1.1,0.4-1.1,1.1v2.5l-2.2-1.3c-0.4-0.2-1.1,0-1.6,0.4
			c-0.2,0.4-0.2,1.1,0.4,1.6l2.2,1.3L22.6,37c-0.4,0.2-0.7,0.9-0.4,1.6c0.4,0.4,1.1,0.7,1.6,0.2l2.2-1.3v2.5c0,0.7,0.4,1.1,1.1,1.1
			s1.1-0.4,1.1-1.1v-2.5l2.2,1.3c0.4,0.2,1.1,0,1.6-0.4C32.1,37.9,31.9,37.2,31.5,37z M43.9,41.7c-0.2-0.4-0.9-0.7-1.6-0.4l-2.2,1.3
			v-2.5c0-0.7-0.4-1.1-1.1-1.1s-1.1,0.4-1.1,1.1v2.5l-2.2-1.3c-0.4-0.2-1.1,0-1.6,0.4c-0.2,0.4-0.2,1.1,0.4,1.6l2.2,1.3L34.6,46
			c-0.4,0.2-0.7,0.9-0.4,1.6c0.4,0.4,1.1,0.7,1.6,0.2l2.2-1.3v2.5c0,0.7,0.4,1.1,1.1,1.1s1.1-0.4,1.1-1.1v-2.5l2.2,1.3
			c0.4,0.2,1.1,0,1.6-0.4c0.2-0.4,0-1.1-0.4-1.3l-2.2-1.3l2.2-1.3C43.9,43,44.1,42.4,43.9,41.7z M28.9,47.7
			c-0.2-0.4-0.9-0.7-1.6-0.4l-2.2,1.3v-2.5c0-0.7-0.4-1.1-1.1-1.1s-1.1,0.4-1.1,1.1v2.5l-2.2-1.3c-0.4-0.2-1.1,0-1.6,0.4
			c-0.2,0.4-0.2,1.1,0.4,1.6l2.2,1.3L19.6,52c-0.4,0.2-0.7,0.9-0.4,1.6c0.4,0.4,1.1,0.7,1.6,0.2l2.2-1.3v2.5c0,0.7,0.4,1.1,1.1,1.1
			s1.1-0.4,1.1-1.1v-2.5l2.2,1.3c0.4,0.2,1.1,0,1.6-0.4c0.2-0.4,0-1.1-0.4-1.3l-2.2-1.3l2.2-1.3C28.9,49,29.1,48.4,28.9,47.7z
			 M40.9,56.7c-0.2-0.4-0.9-0.7-1.6-0.4l-2.2,1.3v-2.5c0-0.7-0.4-1.1-1.1-1.1s-1.1,0.4-1.1,1.1v2.5l-2.2-1.3c-0.4-0.2-1.1,0-1.6,0.4
			c-0.2,0.4-0.2,1.1,0.4,1.6l2.2,1.3L31.6,61c-0.4,0.2-0.7,0.9-0.4,1.6c0.4,0.4,1.1,0.7,1.6,0.2l2.2-1.3v2.5c0,0.7,0.4,1.1,1.1,1.1
			s1.1-0.4,1.1-1.1v-2.5l2.2,1.3c0.4,0.2,1.1,0,1.6-0.4c0.2-0.4,0-1.1-0.4-1.3l-2.2-1.3l2.2-1.3C40.9,58,41.1,57.4,40.9,56.7z"/>
	</g>
</g>
</svg>
