<?xml version="1.0" encoding="utf-8"?>
<!-- Generator: Adobe Illustrator 21.0.0, SVG Export Plug-In . SVG Version: 6.00 Build 0)  -->
<svg version="1.1" id="Слой_1" xmlns="http://www.w3.org/2000/svg" xmlns:xlink="http://www.w3.org/1999/xlink" x="0px" y="0px"
	 viewBox="0 0 50 55" style="enable-background:new 0 0 50 55;" xml:space="preserve">
<style type="text/css">
	.st0{fill:url(#SVGID_1_);}
</style>
<g>
	<g>
		<linearGradient id="SVGID_1_" gradientUnits="userSpaceOnUse" x1="25" y1="55.5" x2="25" y2="-2.0021">
			<stop  offset="0" style="stop-color:#ADE7F8"/>
			<stop  offset="1" style="stop-color:#81A6F1"/>
		</linearGradient>
		<path class="st0" d="M16.8,15.1c1.2,0,2.1-1,2.1-2.1c0-1.2-1-2.1-2.1-2.1c-1.2,0-2.1,1-2.1,2.1C14.7,14.1,15.6,15.1,16.8,15.1z
			 M31,12.9c0,1.2,1,2.1,2.1,2.1c1.2,0,2.1-1,2.1-2.1c0-1.2-1-2.1-2.1-2.1C31.9,10.8,31,11.7,31,12.9z M18.9,42.1
			c0-1.2-1-2.1-2.1-2.1s-2.1,1-2.1,2.1c0,1.2,1,2.1,2.1,2.1S18.9,43.3,18.9,42.1z M39.4,27.5c0,1.2,1,2.1,2.1,2.1
			c1.2,0,2.1-1,2.1-2.1c0-1.2-1-2.1-2.1-2.1C40.3,25.4,39.4,26.3,39.4,27.5z M33.1,39.9c-1.2,0-2.1,1-2.1,2.1c0,1.2,1,2.1,2.1,2.1
			c1.2,0,2.1-1,2.1-2.1C35.2,40.9,34.3,39.9,33.1,39.9z M10.5,27.5c0-1.2-1-2.1-2.1-2.1c-1.2,0-2.1,1-2.1,2.1c0,1.2,1,2.1,2.1,2.1
			C9.6,29.6,10.5,28.7,10.5,27.5z M47.3,31.5l-7.8,2.1l-4.2-2.5v-7.4l4.1-2.4l7.9,2.1c0.2,0,0.4,0.1,0.6,0.1c0.9,0,1.8-0.6,2-1.6
			c0.3-1.1-0.4-2.3-1.5-2.6l-3.9-1.1l3.2-1.9c1-0.6,1.3-1.9,0.7-2.9c-0.6-1-1.9-1.4-2.9-0.8l-3,1.8c0.4-1.4,0.7-2.8,0.9-3.7
			c0.3-1.2-0.4-2.3-1.5-2.6c-1.1-0.3-2.3,0.4-2.6,1.6l-2,7.9l-4.3,2.6l-5.9-3.4v-4.9L33,5.9c0.8-0.8,0.8-2.2,0-3
			c-0.8-0.8-2.2-0.9-3,0l-2.9,2.9V2.1c0-1.2-1-2.1-2.1-2.1c-1.2,0-2.1,1-2.1,2.1v3.6c-1.1-1.1-2.2-2.2-2.9-2.9c-0.8-0.8-2.2-0.8-3,0
			c-0.8,0.8-0.8,2.2,0,3l5.8,5.8v4.9l-6,3.4l-4.2-2.5l-2.1-8C10.4,8.4,9.2,7.7,8.1,8c-1.1,0.3-1.8,1.5-1.5,2.6
			c0.2,0.9,0.6,2.4,1,3.8l-3.1-1.8c-1-0.6-2.3-0.3-2.9,0.8c-0.6,1-0.3,2.3,0.7,2.9l3.1,1.9l-3.8,1c-1.1,0.3-1.8,1.5-1.5,2.6
			c0.2,1,1.1,1.6,2.1,1.6c0.2,0,0.3,0,0.5-0.1l8-2l4.1,2.5v7.3l-4.2,2.5l-7.9-2.1c-1.1-0.3-2.3,0.4-2.6,1.5
			c-0.3,1.1,0.4,2.3,1.5,2.6l3.9,1l-3,1.8c-1,0.6-1.3,1.9-0.7,2.9c0.4,0.7,1.1,1.1,1.8,1.1c0.4,0,0.7-0.1,1.1-0.3l3-1.8
			c-0.4,1.5-0.8,2.9-1,3.8c-0.3,1.1,0.4,2.3,1.5,2.6c0.2,0,0.4,0.1,0.5,0.1c0.9,0,1.8-0.6,2.1-1.6l2.1-8l4.1-2.5l6,3.5v4.9l-5.8,5.8
			c-0.8,0.8-0.8,2.2,0,3c0.4,0.4,1,0.6,1.5,0.6c0.5,0,1.1-0.2,1.5-0.6l2.9-2.9v3.6c0,1.2,1,2.1,2.1,2.1c1.2,0,2.1-1,2.1-2.1v-3.5
			c1.1,1.1,2.1,2.1,2.7,2.8c0.4,0.4,1,0.6,1.5,0.6c0.5,0,1.1-0.2,1.5-0.6c0.8-0.8,0.8-2.2,0-3l-3.2-3.2l-2.6-2.6v-6.2c0,0,0,0,0-0.1
			c0,0,0-0.1,0-0.1c0,0,0-0.1,0-0.1c0,0,0-0.1,0-0.1c0,0,0-0.1,0-0.1c0,0,0-0.1,0-0.1c0,0,0-0.1,0-0.1c0,0,0-0.1,0-0.1
			c0,0,0-0.1,0-0.1c0,0,0-0.1,0-0.1c0,0,0-0.1-0.1-0.1c0,0,0-0.1-0.1-0.1c0,0,0-0.1-0.1-0.1c0,0,0-0.1-0.1-0.1c0,0,0,0-0.1-0.1
			c0,0-0.1-0.1-0.1-0.1c0,0,0,0-0.1-0.1c0,0-0.1-0.1-0.1-0.1c0,0-0.1,0-0.1-0.1c0,0-0.1,0-0.1-0.1c0,0-0.1-0.1-0.1-0.1c0,0,0,0,0,0
			l0,0c0,0,0,0,0,0L19,31.1v-7.2l6.1-3.5l5.9,3.4c0,0,0,0,0,0.1c0,0.1,0.1,0.1,0.1,0.1v8.4c0,0,0,0,0,0.1c0,0,0,0.1,0,0.1
			c0,0,0,0.1,0,0.1c0,0,0,0.1,0,0.1c0,0,0,0.1,0,0.1c0,0,0,0.1,0,0.1c0,0,0,0.1,0,0.1c0,0,0,0.1,0,0.1c0,0,0,0.1,0,0.1
			c0,0,0,0.1,0,0.1c0,0,0,0.1,0.1,0.1c0,0,0,0.1,0.1,0.1c0,0,0,0.1,0.1,0.1c0,0,0,0.1,0.1,0.1c0,0,0,0,0.1,0.1c0,0,0.1,0.1,0.1,0.1
			c0,0,0,0,0.1,0.1c0,0,0.1,0.1,0.1,0.1c0,0,0.1,0,0.1,0.1c0,0,0.1,0,0.1,0.1c0,0,0.1,0,0.1,0.1c0,0,0,0,0,0l5.2,3.1l2.1,8.1
			c0.3,1,1.1,1.6,2.1,1.6c0.2,0,0.4,0,0.5-0.1c1.1-0.3,1.8-1.5,1.5-2.6c-0.2-0.9-0.6-2.4-1-4l3.1,1.8c0.3,0.2,0.7,0.3,1.1,0.3
			c0.7,0,1.4-0.4,1.8-1.1c0.6-1,0.3-2.3-0.8-2.9l-3.1-1.8l3.7-1c1.1-0.3,1.8-1.5,1.5-2.6C49.6,31.9,48.5,31.2,47.3,31.5z"/>
	</g>
</g>
</svg>
