<?xml version="1.0" encoding="utf-8"?>
<!-- Generator: Adobe Illustrator 21.0.0, SVG Export Plug-In . SVG Version: 6.00 Build 0)  -->
<svg version="1.1" id="Слой_1" xmlns="http://www.w3.org/2000/svg" xmlns:xlink="http://www.w3.org/1999/xlink" x="0px" y="0px"
	 viewBox="0 0 65 65" style="enable-background:new 0 0 65 65;" xml:space="preserve">
<style type="text/css">
	.st0{fill:url(#SVGID_1_);}
</style>
<linearGradient id="SVGID_1_" gradientUnits="userSpaceOnUse" x1="32.5" y1="65" x2="32.5" y2="-1.818989e-12">
	<stop  offset="0" style="stop-color:#347DB5"/>
	<stop  offset="1" style="stop-color:#34ACD8"/>
</linearGradient>
<path class="st0" d="M65,31c0-4.8-2.4-9.3-6.3-12v-1.7C58.7,7.8,50.9,0,41.3,0C37.2,0,33.2,1.5,30,4.2c-2.1,1.8-3.7,4-4.7,6.5
	C23.7,10,22,9.5,20.2,9.5C14,9.5,8.9,14.6,8.9,20.8v2.3C3.8,24.3,0,28.8,0,34.2c0,5,3.1,9.3,7.7,10.7c-1.7,0.5-3.3,1.4-4.7,2.7
	c-1.9,2-3,4.5-3,7.2c0,2.7,1,5.3,2.9,7.2c1.9,1.9,4.4,3,7.2,3h34.5c0.1,0,0.1,0,0.2,0c1.4,0,2.8-0.3,4.2-0.8c1.3-0.5,2-2,1.5-3.3
	c-0.5-1.3-2-2-3.3-1.5c-0.8,0.3-1.7,0.5-2.6,0.5c0,0,0,0-0.1,0H10.1c-2.8,0-5-2.2-5-5.1c0-2.8,2.4-5.2,5.2-5.2
	c1.4,0,2.5-1.1,2.5-2.5c0,0,0-2.4,0-3.8c0-2.8,2.3-5.1,5.1-5.1c1.5,0,2.9,0.6,3.8,1.7c0.7,0.7,1.7,1,2.6,0.8c0.9-0.3,1.6-1.1,1.8-2
	c0.8-5,5.2-8.8,10.2-8.8c5.7,0,10.4,4.6,10.4,10.3v2.7c0,0.9,0.5,1.8,1.3,2.2c2.5,1.3,4.1,4,4.1,6.9c0,1.4,1.1,2.5,2.5,2.5
	c1.4,0,2.5-1.1,2.5-2.5c0-4.3-2.1-8.2-5.5-10.6v-1.3c0-8.5-6.9-15.4-15.5-15.4c-3.7,0-7.3,1.3-10.1,3.8c-1.8,1.5-3.1,3.4-4.1,5.5
	c-1.3-0.6-2.8-0.9-4.3-0.9c-4.3,0-8.1,2.7-9.5,6.6c-2-1-3.3-3.1-3.3-5.6c0-3.4,2.8-6.2,6.3-6.2h0c1.4,0,2.5-1.1,2.5-2.5v-4.6
	c0-3.4,2.8-6.2,6.2-6.2c1.8,0,3.5,0.8,4.7,2.1c0.7,0.7,1.7,1,2.6,0.8c0.9-0.3,1.6-1.1,1.8-2c0.9-5.9,6.1-10.3,12.1-10.3
	c6.7,0,12.2,5.5,12.2,12.2v3.1c0,0.9,0.5,1.8,1.3,2.2c3.1,1.6,5,4.8,5,8.3c0,0,0,0,0,0.1c0,0,0,0,0,0.1c0,1.7-0.4,3.4-1.3,4.8
	c-0.7,1.2-0.3,2.8,0.9,3.5c0.4,0.2,0.8,0.3,1.3,0.3c0.9,0,1.7-0.5,2.2-1.3c1.3-2.2,1.9-4.8,1.9-7.4C65,31.1,65,31.1,65,31
	C65,31,65,31,65,31z"/>
</svg>
