<?xml version="1.0" encoding="utf-8"?>
<!-- Generator: Adobe Illustrator 21.0.0, SVG Export Plug-In . SVG Version: 6.00 Build 0)  -->
<svg version="1.1" id="Слой_1" xmlns="http://www.w3.org/2000/svg" xmlns:xlink="http://www.w3.org/1999/xlink" x="0px" y="0px"
	 viewBox="0 0 16 15" style="enable-background:new 0 0 16 15;" xml:space="preserve">
<style type="text/css">
	.st0{fill:none;}
</style>
<path class="st0" d="M15.8,6.4C16.2,6,16,5.2,15.3,5.1l-4.4-0.4c-0.3,0-0.5-0.2-0.6-0.5L8.7,0.5c-0.3-0.6-1.1-0.6-1.4,0L5.7,4.2
	C5.6,4.5,5.4,4.7,5.1,4.7L0.7,5.1C0,5.2-0.2,6,0.3,6.4l3.3,2.9C3.8,9.5,3.9,9.8,3.8,10l-1,4c-0.2,0.6,0.5,1.2,1.1,0.8l3.7-2.1
	c0.2-0.1,0.5-0.1,0.8,0l3.7,2.1c0.6,0.3,1.3-0.2,1.1-0.8l-1-4c-0.1-0.3,0-0.5,0.2-0.7L15.8,6.4z"/>
</svg>
