<?xml version="1.0" encoding="utf-8"?>
<!-- Generator: Adobe Illustrator 21.0.0, SVG Export Plug-In . SVG Version: 6.00 Build 0)  -->
<svg version="1.1" id="Слой_1" xmlns="http://www.w3.org/2000/svg" xmlns:xlink="http://www.w3.org/1999/xlink" x="0px" y="0px"
	 viewBox="0 0 22 22" style="enable-background:new 0 0 22 22;" xml:space="preserve">
<g>
	<g>
		<path style="fill-rule:evenodd;clip-rule:evenodd;fill:#FECD64;" d="M4.6,11c0,3.6,2.9,6.5,6.5,6.5c3.6,0,6.5-2.9,6.5-6.5
			c0-3.6-2.9-6.5-6.5-6.5C7.5,4.5,4.6,7.4,4.6,11z M11,0L9.2,3.6h3.6L11,0z M18.8,3.2l-3.9,1.3l2.6,2.6L18.8,3.2z M7.1,4.5L3.3,3.2
			l1.3,3.9L7.1,4.5z M3.6,9.1L0,11l3.6,1.8V9.1z M18.4,12.8L22,11l-3.6-1.8V12.8z M11,22l1.8-3.6H9.2L11,22z M14.9,17.5l3.9,1.3
			l-1.3-3.9L14.9,17.5z M3.3,18.8l3.9-1.3l-2.6-2.6L3.3,18.8z"/>
	</g>
</g>
</svg>
