<?xml version="1.0" encoding="utf-8"?>
<!-- Generator: Adobe Illustrator 21.0.0, SVG Export Plug-In . SVG Version: 6.00 Build 0)  -->
<svg version="1.1" id="Слой_1" xmlns="http://www.w3.org/2000/svg" xmlns:xlink="http://www.w3.org/1999/xlink" x="0px" y="0px"
	 viewBox="0 0 56 57" style="enable-background:new 0 0 56 57;" xml:space="preserve">
<style type="text/css">
	.st0{fill:url(#SVGID_1_);}
</style>
<g>
	<g>
		<linearGradient id="SVGID_1_" gradientUnits="userSpaceOnUse" x1="28" y1="57" x2="28" y2="0">
			<stop  offset="0" style="stop-color:#FF8E1F"/>
			<stop  offset="1" style="stop-color:#FFC819"/>
		</linearGradient>
		<path class="st0" d="M28,9.3c1.5,0,2.7-1.2,2.7-2.7V2.7C30.7,1.2,29.5,0,28,0c-1.5,0-2.7,1.2-2.7,2.7v3.8C25.3,8,26.5,9.3,28,9.3z
			 M42.4,4.1c-1.3-0.8-2.9-0.4-3.7,0.9l-1.9,3.3c-0.8,1.3-0.4,3,0.9,3.7c0.4,0.3,0.9,0.4,1.4,0.4c0.9,0,1.8-0.5,2.3-1.3l1.9-3.3
			C44.1,6.5,43.7,4.8,42.4,4.1z M46.7,20.1c0.5,0,0.9-0.1,1.3-0.4l3.3-1.9c1.3-0.8,1.7-2.4,1-3.7c-0.7-1.3-2.4-1.7-3.7-1l-3.3,1.9
			c-1.3,0.8-1.7,2.4-1,3.7C44.8,19.7,45.7,20.1,46.7,20.1z M14.9,10.8c0.5,0.9,1.4,1.4,2.3,1.4c0.5,0,0.9-0.1,1.3-0.4
			c1.3-0.8,1.7-2.4,1-3.7l-1.9-3.3c-0.7-1.3-2.4-1.7-3.7-1c-1.3,0.8-1.7,2.4-1,3.7L14.9,10.8z M51.1,39.2l-3.2-2
			c-1.3-0.8-2.9-0.4-3.7,0.9c-0.8,1.3-0.4,3,0.9,3.7l3.2,2c0.4,0.3,0.9,0.4,1.4,0.4c0.9,0,1.8-0.5,2.3-1.3
			C52.8,41.6,52.3,40,51.1,39.2z M5,17.1l3.2,2c0.4,0.3,0.9,0.4,1.4,0.4c0.9,0,1.8-0.5,2.3-1.3c0.8-1.3,0.4-3-0.9-3.7l-3.2-2
			c-1.3-0.8-2.9-0.4-3.7,0.9C3.4,14.7,3.8,16.4,5,17.1z M53.3,25.6h-3.8c-1.5,0-2.7,1.2-2.7,2.7c0,1.5,1.2,2.7,2.7,2.7h3.8
			c1.5,0,2.7-1.2,2.7-2.7C56,26.8,54.8,25.6,53.3,25.6z M7.6,36.4l-3.4,1.7c-1.3,0.7-1.9,2.3-1.2,3.6c0.7,1.3,2.3,1.8,3.6,1.2
			l3.4-1.7c1.3-0.7,1.9-2.3,1.2-3.6C10.6,36.3,8.9,35.7,7.6,36.4z M18.1,45c-1.3-0.8-2.9-0.4-3.7,0.9l-2,3.2
			c-0.8,1.3-0.4,2.9,0.9,3.7c1.3,0.8,2.9,0.4,3.7-0.9l2-3.2c0.5-0.8,0.5-1.8,0.1-2.7C18.8,45.7,18.5,45.3,18.1,45z M27.1,47.8
			c-1.5-0.1-2.8,1.1-2.9,2.6l-0.2,3.8c-0.1,1.5,1.1,2.8,2.6,2.8c1.5,0.1,2.8-1.1,2.9-2.6l0.2-3.8c0-0.5-0.1-1-0.3-1.4
			C29,48.5,28.1,47.9,27.1,47.8z M9.2,28c0-0.5-0.1-1-0.3-1.4c-0.4-0.8-1.3-1.4-2.3-1.5L2.9,25c-1.5-0.1-2.8,1.1-2.9,2.6
			c-0.1,1.5,1.1,2.8,2.6,2.8l3.8,0.2C7.9,30.7,9.1,29.5,9.2,28z M40.4,46.9c-0.7-1.3-2.3-1.8-3.6-1.2c-1.3,0.7-1.9,2.3-1.2,3.6
			l1.7,3.4c0.7,1.3,2.3,1.8,3.6,1.2c1.3-0.7,1.9-2.3,1.2-3.6L40.4,46.9z M28,14c-8.3,0-15,6.7-15,15c0,8.3,6.7,15,15,15
			c8.3,0,15-6.7,15-15C43,20.7,36.3,14,28,14z M28,39c-5.5,0-10-4.5-10-10c0-5.5,4.5-10,10-10s10,4.5,10,10C38,34.5,33.5,39,28,39z"
			/>
	</g>
</g>
</svg>
