<?xml version="1.0" encoding="utf-8"?>
<!-- Generator: Adobe Illustrator 21.0.0, SVG Export Plug-In . SVG Version: 6.00 Build 0)  -->
<svg version="1.1" id="Слой_1" xmlns="http://www.w3.org/2000/svg" xmlns:xlink="http://www.w3.org/1999/xlink" x="0px" y="0px"
	 viewBox="0 0 18 23" style="enable-background:new 0 0 18 23;" xml:space="preserve">
<g>
	<g>
		<path style="fill:#FFFFFF;" d="M4.7,10.2c1,2.3,3.2,3.3,4.3,3.3c0.7,0,1.9-0.4,2.9-1.4c-0.4,0-0.8,0-1.2,0c-0.1,0-0.2,0-0.3,0
			c-0.2,0.2-0.5,0.3-0.8,0.3H8.7c-0.7,0-1.2-0.6-1.2-1.3c0-0.7,0.6-1.3,1.2-1.3h0.9c0.3,0,0.6,0.1,0.9,0.4c0.1,0,0.2,0,0.2,0
			c1.2,0,1.9-0.1,2.5-0.2c-0.1-0.2-0.1-0.3-0.1-0.5V6.3c0-0.3,0.1-0.7,0.3-0.9c-0.1-0.9-0.3-1.6-0.6-2.1C12.2,2.2,11,1.7,9,1.7
			c-1.6,0-2.8,0.3-3.4,1.1C5,3.3,4.7,4.1,4.6,5.3c0.2,0.3,0.3,0.6,0.3,0.9v3.2C4.9,9.8,4.8,10,4.7,10.2z M2.5,10.3h1.1
			c0.4,0,0.7-0.3,0.7-0.8V6.3c0-0.3-0.1-0.5-0.4-0.7C4.2,2.9,5.2,1.1,9,1.1c2.2,0,3.6,0.6,4.3,1.8c0.4,0.7,0.6,1.7,0.7,2.7
			c-0.2,0.1-0.4,0.4-0.4,0.7v3.2c0,0.4,0.2,0.7,0.6,0.7c-0.5,0.3-1.5,0.7-3.5,0.7c-0.2,0-0.3,0-0.5,0c-0.1-0.2-0.3-0.4-0.6-0.4H8.7
			c-0.4,0-0.6,0.3-0.6,0.7c0,0.4,0.3,0.7,0.6,0.7h0.9c0.2,0,0.4-0.1,0.5-0.3c0.2,0,0.4,0,0.6,0c2.3,0,3.8-0.4,4.4-1.2
			c0,0,0-0.1,0.1-0.1h0.3c0.4,0,0.7-0.3,0.7-0.8V6.3c0-0.4-0.3-0.8-0.7-0.8h-0.4c-0.1-1.2-0.4-2.3-0.9-3.1C13.3,0.8,11.6,0,9,0
			C6.4,0,4.7,0.8,3.8,2.3C3.2,3.2,3,4.3,2.9,5.5H2.5c-0.4,0-0.7,0.3-0.7,0.8v3.2C1.7,9.9,2.1,10.3,2.5,10.3z M16.2,15.5
			c-0.7-0.5-3.1-1.8-4.2-2.4l0,0c-0.1-0.1-0.3-0.1-0.4,0c-0.5,0.4-1.1,0.7-1.8,0.9c-0.1,0-0.2,0.1-0.2,0.2L9,15.9l-0.6-1.7
			c0-0.1-0.1-0.2-0.2-0.2c-0.6-0.1-1.2-0.4-1.8-0.9C6.2,13,6.1,13,6,13.1c-1,0.6-3.5,1.9-4.2,2.4c-1.2,0.8-1.7,3.8-1.8,4.4
			c0,0.1,0,0.1,0,0.2c0,0.1,1.1,3,9,3c7.9,0,8.9-2.9,9-3c0-0.1,0-0.1,0-0.2C17.7,18.2,17.2,16.2,16.2,15.5z"/>
	</g>
</g>
</svg>
