<?xml version="1.0" encoding="utf-8"?>
<!-- Generator: Adobe Illustrator 21.0.0, SVG Export Plug-In . SVG Version: 6.00 Build 0)  -->
<svg version="1.1" id="Слой_1" xmlns="http://www.w3.org/2000/svg" xmlns:xlink="http://www.w3.org/1999/xlink" x="0px" y="0px"
	 viewBox="0 0 17 19" style="enable-background:new 0 0 17 19;" xml:space="preserve">
<style type="text/css">
	.st0{fill:#76AC1B;}
</style>
<g>
	<g>
		<path class="st0" d="M7.3,12.8H5.8V0.4C5.8,0.2,5.6,0,5.4,0H2.3C2.1,0,1.9,0.2,1.9,0.4v12.4H0.4c-0.1,0-0.3,0.1-0.3,0.2
			c-0.1,0.1,0,0.3,0,0.4l3.5,5.2c0.1,0.1,0.2,0.1,0.3,0.1c0.1,0,0.2-0.1,0.3-0.1l3.5-5.2c0.1-0.1,0.1-0.3,0-0.4
			C7.6,12.8,7.4,12.8,7.3,12.8z M16.9,7.6l-2.5-7.3C14.3,0.1,14.2,0,14,0h-0.7c0,0,0,0-0.1,0c0,0,0,0-0.1,0h-0.7
			c-0.2,0-0.3,0.1-0.4,0.3L9.5,7.6c0,0.1,0,0.3,0,0.4c0.1,0.1,0.2,0.2,0.3,0.2H11c0.2,0,0.3-0.1,0.4-0.3l0.5-1.6h2.8l0.5,1.6
			c0,0.2,0.2,0.3,0.4,0.3h1.1c0.1,0,0.2-0.1,0.3-0.2C16.9,7.9,17,7.8,16.9,7.6z M12.3,4.7c0.5-1.5,0.8-2.6,0.9-3.1l0.9,3.1H12.3z
			 M15.8,17.5h-3.4l3.6-5.3c0-0.1,0.1-0.1,0.1-0.2v-0.7c0-0.2-0.2-0.4-0.4-0.4h-5c-0.2,0-0.4,0.2-0.4,0.4V12c0,0.2,0.2,0.4,0.4,0.4
			h3.2l-3.6,5.3c0,0.1-0.1,0.1-0.1,0.2v0.7c0,0.2,0.2,0.4,0.4,0.4h5.2c0.2,0,0.4-0.2,0.4-0.4v-0.7C16.2,17.6,16,17.5,15.8,17.5z"/>
	</g>
</g>
</svg>
