<?xml version="1.0" encoding="utf-8"?>
<!-- Generator: Adobe Illustrator 21.0.0, SVG Export Plug-In . SVG Version: 6.00 Build 0)  -->
<svg version="1.1" id="Слой_1" xmlns="http://www.w3.org/2000/svg" xmlns:xlink="http://www.w3.org/1999/xlink" x="0px" y="0px"
	 viewBox="0 0 8 18" style="enable-background:new 0 0 8 18;" xml:space="preserve">
<style type="text/css">
	.st0{fill:#69951E;}
</style>
<g>
	<g>
		<path class="st0" d="M4.7,4.1C4.5,4.1,4.3,4,4,4c1.1,0,2-0.9,2-2c0-1.1-0.9-2-2-2C2.9,0,2,0.9,2,2c0,1.1,0.9,2,2,2
			c-0.2,0-0.5,0-0.7,0.1C2.7,4.3,0.3,5.4,0,10c0,0.4,0.3,0.5,0.8,0.5c0,0,0,0.3,0,0.3c0.4,0,0.7-0.3,0.7-0.7C1.6,9.1,1.8,8.3,2,7.6
			V10c0,0.2,0,0.3,0.1,0.5v6.6c0,0.5,0.4,0.9,0.9,0.9c0.5,0,0.9-0.4,0.9-0.9v-5c0.1,0,0.1,0,0.2,0c0.1,0,0.1,0,0.2,0v5
			c0,0.5,0.4,0.9,0.9,0.9c0.5,0,0.9-0.4,0.9-0.9v-6.6C6,10.4,6,10.2,6,10V7.6c0.2,0.6,0.4,1.4,0.5,2.5c0,0.4,0.4,0.7,0.7,0.7
			c0,0,0,0,0.1,0C7.7,10.8,8,10.5,8,10C7.7,5.4,5.3,4.3,4.7,4.1z"/>
	</g>
</g>
</svg>
