<?xml version="1.0" encoding="utf-8"?>
<!-- Generator: Adobe Illustrator 21.0.0, SVG Export Plug-In . SVG Version: 6.00 Build 0)  -->
<svg version="1.1" id="Слой_1" xmlns="http://www.w3.org/2000/svg" xmlns:xlink="http://www.w3.org/1999/xlink" x="0px" y="0px"
	 viewBox="0 0 14 11" style="enable-background:new 0 0 14 11;" xml:space="preserve">
<path style="fill:#FFFFFF;" d="M3.3,4H0.7C0.5,4,0.4,4.1,0.2,4.2C0.1,4.4,0,4.5,0,4.8v1.5c0,0.2,0.1,0.4,0.2,0.5
	C0.4,6.9,0.5,7,0.7,7h2.5c0.2,0,0.4-0.1,0.5-0.2C3.9,6.6,4,6.5,4,6.3V4.8c0-0.2-0.1-0.4-0.2-0.5C3.6,4.1,3.5,4,3.3,4z M3.3,0H0.7
	C0.5,0,0.4,0.1,0.2,0.2C0.1,0.4,0,0.5,0,0.8v1.5c0,0.2,0.1,0.4,0.2,0.5C0.4,2.9,0.5,3,0.7,3h2.5c0.2,0,0.4-0.1,0.5-0.2
	C3.9,2.6,4,2.5,4,2.3V0.8c0-0.2-0.1-0.4-0.2-0.5C3.6,0.1,3.5,0,3.3,0z M3.3,8H0.7C0.5,8,0.4,8.1,0.2,8.2C0.1,8.4,0,8.5,0,8.8v1.5
	c0,0.2,0.1,0.4,0.2,0.5C0.4,10.9,0.5,11,0.7,11h2.5c0.2,0,0.4-0.1,0.5-0.2C3.9,10.6,4,10.5,4,10.3V8.8c0-0.2-0.1-0.4-0.2-0.5
	C3.6,8.1,3.5,8,3.3,8z M13.2,4H5.7C5.5,4,5.4,4.1,5.2,4.2C5.1,4.4,5,4.5,5,4.8v1.5c0,0.2,0.1,0.4,0.2,0.5C5.4,6.9,5.5,7,5.7,7h7.5
	c0.2,0,0.4-0.1,0.5-0.2C13.9,6.6,14,6.5,14,6.3V4.8c0-0.2-0.1-0.4-0.2-0.5C13.6,4.1,13.5,4,13.2,4z M13.2,8H5.7
	C5.5,8,5.4,8.1,5.2,8.2C5.1,8.4,5,8.5,5,8.8v1.5c0,0.2,0.1,0.4,0.2,0.5C5.4,10.9,5.5,11,5.7,11h7.5c0.2,0,0.4-0.1,0.5-0.2
	c0.1-0.1,0.2-0.3,0.2-0.5V8.8c0-0.2-0.1-0.4-0.2-0.5C13.6,8.1,13.5,8,13.2,8z M13.8,0.2C13.6,0.1,13.5,0,13.2,0H5.7
	C5.5,0,5.4,0.1,5.2,0.2C5.1,0.4,5,0.5,5,0.8v1.5c0,0.2,0.1,0.4,0.2,0.5C5.4,2.9,5.5,3,5.7,3h7.5c0.2,0,0.4-0.1,0.5-0.2
	C13.9,2.6,14,2.5,14,2.3V0.8C14,0.5,13.9,0.4,13.8,0.2z"/>
</svg>
