<?xml version="1.0" encoding="utf-8"?>
<!-- Generator: Adobe Illustrator 21.0.0, SVG Export Plug-In . SVG Version: 6.00 Build 0)  -->
<svg version="1.1" id="Слой_1" xmlns="http://www.w3.org/2000/svg" xmlns:xlink="http://www.w3.org/1999/xlink" x="0px" y="0px"
	 viewBox="0 0 15 11" style="enable-background:new 0 0 15 11;" xml:space="preserve">
<path style="fill:#393939;" d="M12.7,3.5c0-0.5-0.2-1-0.5-1.4c-0.4-0.4-0.8-0.6-1.3-0.6c-0.5,0-1,0.2-1.3,0.6C9.2,2.5,9,3,9,3.5
	c0,0.5,0.2,1,0.5,1.4c0.4,0.4,0.8,0.6,1.3,0.6c0.5,0,1-0.2,1.3-0.6C12.5,4.5,12.7,4.1,12.7,3.5z M7.5,2.3c0-0.7-0.2-1.2-0.6-1.7
	C6.4,0.2,5.9,0,5.3,0C4.6,0,4.1,0.2,3.7,0.7C3.2,1.1,3,1.7,3,2.3C3,3,3.2,3.6,3.7,4c0.4,0.5,1,0.7,1.6,0.7c0.6,0,1.1-0.2,1.6-0.7
	C7.3,3.6,7.5,3,7.5,2.3z M6.7,9.2V11H15V9.2c0-0.6-0.5-1.2-1.4-1.6c-0.9-0.4-1.9-0.6-2.7-0.6c-0.9,0-1.8,0.2-2.7,0.6
	C7.2,8.1,6.7,8.6,6.7,9.2L6.7,9.2z M3.1,6.6C2.3,6.8,1.6,7.1,1,7.5C0.3,8,0,8.5,0,9v2h5.2V9.2c0-1.1,0.6-2,1.8-2.7
	C6.3,6.3,5.7,6.3,5.2,6.3C4.6,6.3,3.9,6.4,3.1,6.6z"/>
</svg>
