<?xml version="1.0" encoding="utf-8"?>
<!-- Generator: Adobe Illustrator 21.0.0, SVG Export Plug-In . SVG Version: 6.00 Build 0)  -->
<svg version="1.1" id="Слой_1" xmlns="http://www.w3.org/2000/svg" xmlns:xlink="http://www.w3.org/1999/xlink" x="0px" y="0px"
	 viewBox="0 0 14 13" style="enable-background:new 0 0 14 13;" xml:space="preserve">
<path style="fill:#FFFFFF;" d="M7.4,0c-2.7,0-5,1.6-6.1,3.9L0.6,3.6c-0.2-0.1-0.3,0-0.5,0.1C0,3.8,0,4,0,4.2l1.1,2.5
	c0,0.1,0.1,0.2,0.2,0.2c0.1,0,0.2,0,0.3,0l2.5-1.1c0.2-0.1,0.3-0.2,0.3-0.4c0-0.2-0.1-0.3-0.3-0.4L3.4,4.7c0.7-1.5,2.2-2.5,4-2.5
	c2.4,0,4.4,1.9,4.4,4.3c0,2.4-2,4.3-4.4,4.3c-1.1,0-2.1-0.4-2.8-1C4.1,9.4,3.4,9.5,3,9.9c0,0,0,0,0,0c-0.5,0.4-0.4,1.2,0.1,1.6
	c1.2,1,2.7,1.5,4.3,1.5C11,13,14,10.1,14,6.5C14,2.9,11,0,7.4,0z"/>
</svg>
