<?xml version="1.0" encoding="utf-8"?>
<!-- Generator: Adobe Illustrator 19.0.1, SVG Export Plug-In . SVG Version: 6.00 Build 0)  -->
<svg version="1.1" id="Layer_1" xmlns="http://www.w3.org/2000/svg" xmlns:xlink="http://www.w3.org/1999/xlink" x="0px" y="0px"
	 viewBox="0 0 14.6 8" style="enable-background:new 0 0 14.6 8;" xml:space="preserve">
<style type="text/css">
	.st0{fill:#A7A7A7;}
</style>
<path class="st0" d="M12.9,5.1c0.5,0.5,1,0.9,1.5,1.4c0.2,0.2,0.4,0.5,0.5,0.7c0.2,0.4,0,0.8-0.3,0.8l-2.2,0c-0.6,0-1-0.2-1.4-0.5
	c-0.3-0.3-0.6-0.6-0.9-0.9C10,6.4,9.9,6.3,9.7,6.2C9.4,6.1,9.2,6.1,9,6.4C8.8,6.7,8.8,7,8.8,7.4C8.7,7.9,8.6,8,8.1,8
	C7,8.1,5.9,7.9,4.9,7.4C4.1,6.9,3.4,6.3,2.8,5.5c-1.1-1.4-2-3-2.8-4.7c-0.2-0.4,0-0.6,0.4-0.6c0.7,0,1.4,0,2.1,0
	c0.3,0,0.5,0.2,0.6,0.4C3.6,1.6,4,2.4,4.6,3.2C4.8,3.4,5,3.7,5.2,3.8C5.4,4,5.6,3.9,5.8,3.6c0.1-0.2,0.1-0.4,0.1-0.5
	c0.1-0.6,0.1-1.2,0-1.9C5.8,0.9,5.6,0.6,5.1,0.5C4.9,0.5,5,0.4,5.1,0.3C5.2,0.1,5.4,0,5.7,0h2.5c0.4,0.1,0.5,0.2,0.5,0.6l0,2.6
	c0,0.1,0.1,0.6,0.3,0.7c0.2,0.1,0.4-0.1,0.5-0.2c0.6-0.6,1-1.3,1.4-2c0.2-0.3,0.3-0.6,0.5-1c0.1-0.2,0.3-0.4,0.6-0.4l2.4,0
	c0.1,0,0.1,0,0.2,0C15,0.3,15.1,0.5,15,0.9c-0.2,0.6-0.6,1.1-0.9,1.5c-0.4,0.5-0.8,1-1.2,1.5C12.4,4.4,12.5,4.7,12.9,5.1L12.9,5.1z"
	/>
</svg>
