<?xml version="1.0" encoding="utf-8"?>
<!-- Generator: Adobe Illustrator 21.0.0, SVG Export Plug-In . SVG Version: 6.00 Build 0)  -->
<svg version="1.1" id="Слой_1" xmlns="http://www.w3.org/2000/svg" xmlns:xlink="http://www.w3.org/1999/xlink" x="0px" y="0px"
	 viewBox="0 0 16 14" style="enable-background:new 0 0 16 14;" xml:space="preserve">
<path style="fill:#E58218;" d="M8,4.8c0.5,0,0.9,0.4,0.9,0.9c0,0,0,0.1,0,0.1L8.4,8.4c0,0.2-0.2,0.4-0.4,0.4c-0.2,0-0.4-0.2-0.4-0.4
	L7.1,5.8c0,0,0-0.1,0-0.1C7.1,5.2,7.5,4.8,8,4.8z M8,9.6c-0.5,0-0.9,0.4-0.9,0.9c0,0.5,0.4,0.9,0.9,0.9c0.5,0,0.9-0.4,0.9-0.9
	C8.9,10,8.5,9.6,8,9.6z M16,12.7c0,0.7-0.6,1.3-1.3,1.3H1.3C0.6,14,0,13.4,0,12.7c0-0.2,0.1-0.5,0.2-0.7L6.8,0.7C7.1,0.3,7.5,0,8,0
	c0.5,0,0.9,0.3,1.2,0.7L15.8,12C15.9,12.2,16,12.4,16,12.7z M14.7,12.7L8,1.3l0,0h0L1.3,12.7L14.7,12.7z"/>
</svg>
