<?xml version="1.0" encoding="utf-8"?>
<!-- Generator: Adobe Illustrator 21.0.0, SVG Export Plug-In . SVG Version: 6.00 Build 0)  -->
<svg version="1.1" id="Слой_1" xmlns="http://www.w3.org/2000/svg" xmlns:xlink="http://www.w3.org/1999/xlink" x="0px" y="0px"
	 viewBox="0 0 16 15" style="enable-background:new 0 0 16 15;" xml:space="preserve">
<style type="text/css">
	.st0{fill:#77AA1F;}
</style>
<g>
	<g>
		<path class="st0" d="M9.8,11.4l-0.1-1.1c0-0.1-0.1-0.2-0.2-0.2H6.6c-0.1,0-0.2,0.1-0.2,0.2l-0.1,1.1c-1.4,0.4-2.6,1.4-3.3,2.7
			C2.7,14.5,3,15,3.5,15h9c0.5,0,0.8-0.5,0.6-0.9C12.4,12.8,11.2,11.8,9.8,11.4z M16,3.5c-0.9-4.3-6.3-4.7-8-1.1
			C6.3-1.1,0.9-0.8,0,3.5c-0.1,0.6,0.6,1,1.1,0.6C2,3.2,3.3,2.8,4.6,2.9C2,3.8,0.7,7.1,3.1,9.7c0.4,0.5,1.2,0.1,1.1-0.5
			c-0.4-2,1-4,2.9-4.7L6.5,8.6c0,0.1,0.1,0.2,0.2,0.2h2.5c0.1,0,0.2-0.1,0.2-0.2L9,4.5c1.9,0.7,3.2,2.7,2.9,4.7
			c-0.1,0.6,0.7,1,1.1,0.5c2.4-2.6,1-5.9-1.6-6.8c1.3-0.1,2.6,0.3,3.5,1.2C15.3,4.5,16.1,4.2,16,3.5z"/>
	</g>
</g>
</svg>
