<svg xmlns="http://www.w3.org/2000/svg" width="16" height="18" viewBox="0 0 16 18">
  <defs>
    <style>
      .cls-1 {
        fill: #353535;
        fill-rule: evenodd;
      }
    </style>
  </defs>
  <path id="Forma_1_copy" data-name="Forma 1 copy" class="cls-1" d="M464.78,1459.93a0.39,0.39,0,0,0-.371-0.41h-1.3a0.39,0.39,0,0,0-.372.41v1.42a0.39,0.39,0,0,0,.372.41h1.3a0.39,0.39,0,0,0,.371-0.41v-1.42h0Zm3.239,0a0.39,0.39,0,0,0-.371-0.41h-1.3a0.39,0.39,0,0,0-.371.41v1.42a0.39,0.39,0,0,0,.371.41h1.3a0.39,0.39,0,0,0,.371-0.41v-1.42Zm3.239,0a0.39,0.39,0,0,0-.371-0.41h-1.3a0.39,0.39,0,0,0-.371.41v1.42a0.39,0.39,0,0,0,.371.41h1.3a0.39,0.39,0,0,0,.371-0.41v-1.42Zm-6.478,3.56a0.4,0.4,0,0,0-.371-0.41h-1.3a0.4,0.4,0,0,0-.372.41v1.43a0.4,0.4,0,0,0,.372.41h1.3a0.4,0.4,0,0,0,.371-0.41v-1.43h0Zm3.239,0a0.4,0.4,0,0,0-.371-0.41h-1.3a0.4,0.4,0,0,0-.371.41v1.43a0.4,0.4,0,0,0,.371.41h1.3a0.4,0.4,0,0,0,.371-0.41v-1.43Zm3.239,0a0.4,0.4,0,0,0-.371-0.41h-1.3a0.4,0.4,0,0,0-.371.41v1.43a0.4,0.4,0,0,0,.371.41h1.3a0.4,0.4,0,0,0,.371-0.41v-1.43h0Zm2.318-11.49v2.18a1.708,1.708,0,0,1-1.621,1.78h-1.022a1.716,1.716,0,0,1-1.63-1.78V1452H464.7v2.18a1.715,1.715,0,0,1-1.629,1.78h-1.023a1.708,1.708,0,0,1-1.62-1.78V1452a1.564,1.564,0,0,0-1.424,1.62v12.76a1.552,1.552,0,0,0,1.466,1.62h13.067a1.553,1.553,0,0,0,1.467-1.62v-12.76A1.564,1.564,0,0,0,473.576,1452Zm-0.475,13.58a0.667,0.667,0,0,1-.634.7H461.505a0.667,0.667,0,0,1-.634-0.7v-6.59a0.667,0.667,0,0,1,.634-0.7h10.962a0.667,0.667,0,0,1,.634.7v6.59h0Zm-11.06-10.79h1.011a0.583,0.583,0,0,0,.555-0.61v-3.57a0.583,0.583,0,0,0-.555-0.61h-1.011a0.583,0.583,0,0,0-.556.61v3.57A0.583,0.583,0,0,0,462.041,1454.79Zm8.879,0h1.011a0.583,0.583,0,0,0,.556-0.61v-3.57a0.583,0.583,0,0,0-.556-0.61H470.92a0.582,0.582,0,0,0-.555.61v3.57A0.582,0.582,0,0,0,470.92,1454.79Z" transform="translate(-459 -1450)"/>
</svg>
