<svg xmlns="http://www.w3.org/2000/svg" width="15" height="10.5" viewBox="0 0 15 10.5">
  <defs>
    <style>
      .cls-1 {
        fill: #c8c8c8;
        fill-rule: evenodd;
      }
    </style>
  </defs>
  <path id="_" data-name="" class="cls-1" d="M584.039,2164.26a1.843,1.843,0,0,0-.545-1.33,1.81,1.81,0,0,0-2.637,0,1.843,1.843,0,0,0-.545,1.33A1.864,1.864,0,1,0,584.039,2164.26Zm-5.238-1.14a2.221,2.221,0,0,0-2.233-2.23,2.184,2.184,0,0,0-1.6.65,2.114,2.114,0,0,0-.668,1.58,2.284,2.284,0,0,0,2.267,2.27,2.148,2.148,0,0,0,1.582-.67A2.221,2.221,0,0,0,578.8,2163.12Zm-0.739,6.56v1.68h8.262v-1.68a1.769,1.769,0,0,0-1.424-1.48,6.823,6.823,0,0,0-5.414,0,1.771,1.771,0,0,0-1.424,1.48h0Zm-3.638-2.54a6.851,6.851,0,0,0-2.145.92,1.76,1.76,0,0,0-.967,1.44v1.86h5.239v-1.68a2.947,2.947,0,0,1,1.793-2.61,9.035,9.035,0,0,0-1.793-.21A9.666,9.666,0,0,0,574.424,2167.14Z" transform="translate(-571.313 -2160.88)"/>
</svg>
