<svg xmlns="http://www.w3.org/2000/svg" width="12" height="12" viewBox="0 0 12 12">
  <defs>
    <style>
      .cls-1 {
        fill: #c8c8c8;
        fill-rule: evenodd;
      }
    </style>
  </defs>
  <path id="_" data-name="" class="cls-1" d="M581.375,2096.56a3,3,0,1,0-.879,2.12A2.9,2.9,0,0,0,581.375,2096.56Zm-7.893,5.87a2,2,0,0,0-1.107,1.63v1.51h11.988v-1.51a2,2,0,0,0-1.107-1.63,7.683,7.683,0,0,0-2.444-1.04,9.485,9.485,0,0,0-4.886,0A7.693,7.693,0,0,0,573.482,2102.43Z" transform="translate(-572.375 -2093.56)"/>
</svg>
