<svg xmlns="http://www.w3.org/2000/svg" width="15.438" height="15.97" viewBox="0 0 15.438 15.97">
  <defs>
    <style>
      .cls-1 {
        fill: #0bae2d;
        fill-rule: evenodd;
      }
    </style>
  </defs>
  <path id="_4_copy_13" data-name="4 copy 13" class="cls-1" d="M343.2,1172.55a7.713,7.713,0,0,1-3.469,6.45l0.814,0.81a0.578,0.578,0,1,1-.814.82l-1.048-1.05a7.772,7.772,0,0,1-6.636-.11l-1.159,1.16a0.578,0.578,0,0,1-.814-0.82l0.954-.95a7.715,7.715,0,0,1,4.068-14.01l0.683-.01A7.721,7.721,0,0,1,343.2,1172.55Zm-7.72-5.88a5.885,5.885,0,1,0,5.886,5.88A5.881,5.881,0,0,0,335.48,1166.67Zm2.474,6.57H335.4a0.514,0.514,0,0,1-.512-0.52v-3.88a0.512,0.512,0,0,1,1.024,0v3.37h2.047A0.515,0.515,0,0,1,337.954,1173.24Z" transform="translate(-327.75 -1164.84)"/>
</svg>
