<svg xmlns="http://www.w3.org/2000/svg" width="21" height="25" viewBox="0 0 21 25">
  <defs>
    <style>
      .cls-1 {
        fill: #fff;
        fill-rule: evenodd;
      }
    </style>
  </defs>
  <path id="Forma_1" data-name="Forma 1" class="cls-1" d="M298.5,299.009A10.71,10.71,0,0,0,288,309.918a10.973,10.973,0,0,0,5.443,9.561l-0.123,4.508,4.954-3.172c0.075,0,.15.012,0.226,0.012A10.917,10.917,0,0,0,298.5,299.009Zm-0.471,17.47a1.677,1.677,0,1,1,1.6-1.674A1.567,1.567,0,0,1,298.029,316.479Zm2.143-6.847a3.231,3.231,0,0,0-.9,2.3v0.329h-2.356l-0.018-.477a4.142,4.142,0,0,1,1.047-2.888,3.447,3.447,0,0,0,1.027-1.915,1.114,1.114,0,0,0-1.3-1.1,3.234,3.234,0,0,0-1.75.551l-0.6-2.008a5.9,5.9,0,0,1,2.957-.751c2.339,0,3.4,1.342,3.4,2.87A4.626,4.626,0,0,1,300.172,309.632Z" transform="translate(-288 -299)"/>
</svg>
