<svg 
 xmlns="http://www.w3.org/2000/svg"
 xmlns:xlink="http://www.w3.org/1999/xlink"
 width="20px" height="20px">
<path fill-rule="evenodd"  opacity="1" fill="rgb(255, 255, 255)"
 d="M10.011,0.010 C4.488,0.010 0.010,4.488 0.010,10.010 C0.010,15.533 4.488,20.011 10.011,20.011 C15.534,20.011 20.012,15.533 20.012,10.010 C20.012,4.488 15.534,0.010 10.011,0.010 ZM12.093,15.509 C11.578,15.712 11.168,15.867 10.861,15.973 C10.555,16.080 10.198,16.134 9.792,16.134 C9.169,16.134 8.684,15.980 8.338,15.677 C7.993,15.373 7.821,14.988 7.821,14.520 C7.821,14.338 7.834,14.151 7.859,13.962 C7.886,13.772 7.927,13.559 7.984,13.319 L8.628,11.044 C8.685,10.824 8.734,10.616 8.773,10.423 C8.812,10.229 8.830,10.050 8.830,9.888 C8.830,9.598 8.770,9.395 8.651,9.281 C8.530,9.166 8.302,9.110 7.963,9.110 C7.796,9.110 7.626,9.135 7.450,9.187 C7.277,9.240 7.126,9.288 7.002,9.336 L7.173,8.635 C7.594,8.463 7.998,8.315 8.383,8.194 C8.769,8.070 9.133,8.009 9.476,8.009 C10.095,8.009 10.572,8.160 10.908,8.458 C11.243,8.757 11.411,9.145 11.411,9.623 C11.411,9.722 11.400,9.896 11.377,10.145 C11.353,10.395 11.310,10.622 11.247,10.832 L10.607,13.101 C10.555,13.284 10.508,13.491 10.465,13.724 C10.424,13.957 10.403,14.134 10.403,14.255 C10.403,14.555 10.470,14.761 10.606,14.871 C10.740,14.980 10.975,15.036 11.305,15.036 C11.462,15.036 11.638,15.008 11.836,14.952 C12.033,14.898 12.175,14.850 12.264,14.808 L12.093,15.509 ZM11.979,6.300 C11.681,6.577 11.320,6.716 10.899,6.716 C10.480,6.716 10.117,6.577 9.816,6.300 C9.516,6.022 9.364,5.684 9.364,5.289 C9.364,4.896 9.517,4.557 9.816,4.277 C10.117,3.996 10.480,3.856 10.899,3.856 C11.320,3.856 11.681,3.996 11.979,4.277 C12.278,4.557 12.428,4.896 12.428,5.289 C12.428,5.685 12.278,6.022 11.979,6.300 Z"/>
</svg>