<svg 
 xmlns="http://www.w3.org/2000/svg"
 xmlns:xlink="http://www.w3.org/1999/xlink"
 width="22px" height="12px">
<path fill-rule="evenodd"  opacity="1" fill="rgb(255, 255, 255)"
 d="M21.621,11.801 L20.871,11.652 L21.250,9.732 L22.000,9.881 L21.621,11.801 ZM19.753,11.726 C19.753,11.726 18.647,11.726 17.542,11.726 C16.439,11.726 15.583,11.801 15.583,11.801 L14.697,8.290 C15.437,7.184 17.451,5.150 18.178,3.897 C18.199,3.946 18.230,3.998 18.245,4.045 L20.436,10.780 C20.607,11.303 20.301,11.726 19.753,11.726 ZM17.417,3.631 C17.265,3.495 15.376,5.695 14.367,6.735 C13.805,5.444 12.510,4.539 11.000,4.539 C9.490,4.539 8.195,5.444 7.633,6.736 C7.537,6.637 7.435,6.530 7.325,6.413 C6.269,5.291 4.686,3.477 4.583,3.631 C4.567,3.655 4.258,3.586 4.001,3.556 C4.240,3.164 4.585,2.778 4.912,2.575 C4.912,2.575 5.988,1.512 7.333,0.908 C8.611,0.334 10.161,0.217 10.161,0.217 C10.626,-0.072 11.381,-0.072 11.846,0.217 C11.846,0.217 13.458,0.365 14.667,0.908 C16.068,1.538 17.095,2.575 17.095,2.575 C17.430,2.784 17.788,3.184 18.027,3.587 C17.814,3.666 17.553,3.754 17.417,3.631 ZM6.417,11.801 L2.253,11.726 C1.705,11.726 1.400,11.303 1.570,10.780 L3.761,4.045 C3.774,4.004 3.802,3.958 3.820,3.915 C4.493,5.057 6.399,7.393 7.244,8.524 L6.417,11.801 ZM3.667,3.631 C3.620,3.532 3.794,3.532 4.001,3.556 C3.926,3.678 3.869,3.797 3.820,3.915 C3.758,3.810 3.706,3.714 3.667,3.631 ZM18.333,3.631 C18.296,3.711 18.230,3.809 18.178,3.897 C18.135,3.795 18.090,3.693 18.027,3.587 C18.255,3.503 18.428,3.428 18.333,3.631 ZM-0.000,9.880 L0.750,9.731 L1.128,11.651 L0.379,11.801 L-0.000,9.880 ZM9.167,8.170 C9.167,7.096 9.987,6.355 11.000,6.355 C12.013,6.355 12.833,7.096 12.833,8.170 L13.750,11.801 C13.750,11.780 12.013,11.801 11.000,11.801 C9.987,11.801 8.250,11.780 8.250,11.801 C8.250,11.801 8.757,9.793 9.017,8.764 C9.106,8.409 9.167,8.170 9.167,8.170 Z"/>
</svg>