<svg 
 xmlns="http://www.w3.org/2000/svg"
 xmlns:xlink="http://www.w3.org/1999/xlink"
 width="16px" height="16px">
<path fill-rule="evenodd"  fill="#6fa514"
 d="M7.893,0.001 C3.475,0.060 -0.058,3.689 0.001,8.108 C0.060,12.524 3.689,16.058 8.107,15.999 C12.524,15.940 16.058,12.310 15.999,7.892 C15.940,3.476 12.310,-0.058 7.893,0.001 ZM7.869,12.870 L7.825,12.869 C7.145,12.849 6.665,12.347 6.685,11.677 C6.704,11.018 7.195,10.540 7.853,10.540 L7.892,10.541 C8.592,10.561 9.066,11.058 9.046,11.747 C9.027,12.408 8.543,12.870 7.869,12.870 ZM10.731,7.190 C10.571,7.417 10.219,7.699 9.776,8.045 L9.288,8.382 C9.020,8.590 8.858,8.786 8.798,8.979 C8.750,9.131 8.726,9.171 8.722,9.480 L8.721,9.558 L6.857,9.558 L6.863,9.400 C6.885,8.752 6.901,8.371 7.170,8.056 C7.592,7.561 8.522,6.962 8.561,6.936 C8.694,6.836 8.807,6.722 8.890,6.600 C9.086,6.330 9.173,6.118 9.173,5.909 C9.173,5.619 9.087,5.352 8.917,5.113 C8.753,4.883 8.443,4.767 7.994,4.767 C7.550,4.767 7.245,4.908 7.063,5.197 C6.875,5.495 6.780,5.808 6.780,6.128 L6.780,6.207 L4.858,6.207 L4.862,6.124 C4.911,4.947 5.332,4.100 6.110,3.605 C6.599,3.290 7.208,3.130 7.918,3.130 C8.848,3.130 9.633,3.356 10.251,3.802 C10.877,4.253 11.195,4.929 11.195,5.812 C11.195,6.305 11.039,6.768 10.731,7.190 Z"/>
</svg>