<?xml version="1.0" encoding="utf-8"?>
<!-- Generator: Adobe Illustrator 19.0.1, SVG Export Plug-In . SVG Version: 6.00 Build 0)  -->
<svg version="1.1" xmlns="http://www.w3.org/2000/svg" xmlns:xlink="http://www.w3.org/1999/xlink" x="0px" y="0px"
	 viewBox="0 0 351 51.8" style="enable-background:new 0 0 351 51.8;" xml:space="preserve">
<style type="text/css">
	.st0{enable-background:new    ;}
	.st1{fill:url(#SVGID_1_);}
	.st2{opacity:0;}
	.st3{fill:#4F4F4F;}
	.st4{opacity:0.5;fill:url(#SVGID_2_);}
	.st5{fill:url(#SVGID_3_);}
	.st6{fill-rule:evenodd;clip-rule:evenodd;fill:#036319;}
</style>
<g id="Rectangle_615_copy_1_" class="st0">
	<g id="Rectangle_615_copy">
		<g>
			<linearGradient id="SVGID_1_" gradientUnits="userSpaceOnUse" x1="175.5" y1="1.602577e-005" x2="175.5" y2="47">
				<stop  offset="0" style="stop-color:#11AB34"/>
				<stop  offset="1" style="stop-color:#119A34"/>
			</linearGradient>
			<polygon class="st1" points="342.5,20.5 351,0 294,0 57,0 0,0 8.5,20.5 0.4,41 0.5,41 16.5,47 16.5,41 57,41 294,41 335.5,41 
				335.5,47 350.5,41 350.6,41 			"/>
		</g>
	</g>
	<g>
		<g id="Rectangle_615_copy_8_" class="st2">
			<g>
				<polygon class="st3" points="342.5,22.9 351,2.4 0,2.4 8.5,22.9 0.4,43.4 0.5,43.4 16.5,49.4 16.5,43.4 335.5,43.4 335.5,49.4 
					350.5,43.4 350.6,43.4 				"/>
			</g>
		</g>
		<linearGradient id="SVGID_2_" gradientUnits="userSpaceOnUse" x1="175.7501" y1="1.125" x2="175.7501" y2="48.125">
			<stop  offset="0" style="stop-color:#307D42"/>
			<stop  offset="1" style="stop-color:#307542"/>
		</linearGradient>
		<polygon class="st4" points="0.3,1.1 8.8,21.6 0.6,42.1 0.8,42.1 16.8,48.1 16.8,42.1 57.2,42.1 294.3,42.1 335.8,42.1 
			335.8,48.1 350.8,42.1 350.9,42.1 342.8,21.6 351.3,1.1 294.2,1.1 57.3,1.1 		"/>
		<g id="Rectangle_615_copy_7_">
			<g>
				<linearGradient id="SVGID_3_" gradientUnits="userSpaceOnUse" x1="176.0001" y1="-0.125" x2="176.0001" y2="46.875">
					<stop  offset="0" style="stop-color:#11AB34"/>
					<stop  offset="1" style="stop-color:#119A34"/>
				</linearGradient>
				<polygon class="st5" points="343,20.4 351.5,-0.1 294.5,-0.1 57.5,-0.1 0.5,-0.1 9,20.4 0.9,40.9 1,40.9 17,46.9 17,40.9 
					57.5,40.9 294.5,40.9 336,40.9 336,46.9 351,40.9 351.1,40.9 				"/>
			</g>
		</g>
	</g>
</g>
<g id="Shape_616_1_" class="st0">
	<g id="Shape_616">
		<g>
			<polygon class="st6" points="0.5,41 16.5,47 16.5,41 			"/>
		</g>
	</g>
</g>
<g id="Shape_616_copy_1_" class="st0">
	<g id="Shape_616_copy">
		<g>
			<polygon class="st6" points="335.5,41 335.5,47 350.5,41 			"/>
		</g>
	</g>
</g>
</svg>
