<?xml version="1.0" encoding="utf-8"?>
<!-- Generator: Adobe Illustrator 19.0.1, SVG Export Plug-In . SVG Version: 6.00 Build 0)  -->
<svg version="1.1" id="Слой_1" xmlns="http://www.w3.org/2000/svg" xmlns:xlink="http://www.w3.org/1999/xlink" x="0px" y="0px"
	 viewBox="0 0 174.5 151.9" style="enable-background:new 0 0 174.5 151.9;" xml:space="preserve">
<style type="text/css">
	.st0{fill:#11AB34;}
</style>
<g>
	<path class="st0" d="M150.2,43.1c0.7-0.6,1.4-1.3,2.1-1.9c8.3-5.9,9.5-17.2,2.2-25.3c-0.5,0.7-0.9,1.5-1.4,2.1
		C147.5,25.8,147.9,34.3,150.2,43.1c-1.5-1-3.1-1.8-4.4-3c-5-4.5-14.6-4.7-19.9,2c1.7,0.8,3.3,1.6,4.9,2.2
		C137.5,46.6,143.9,44.8,150.2,43.1z M140,27.9c0.7-1.1,1.4-2.2,2.2-3.2c5.7-7.6,3.2-19.8-5.6-24.3c-0.6,2.8-1.4,5.5-1.8,8.1
		C133.8,15.7,136.9,21.8,140,27.9c-1.3-0.6-2.7-1-4.1-1.7c-7.4-3.5-15.3-0.9-19.7,6.9c1.9,0.4,3.8,1.4,5.2,1
		C127.7,32.3,133.8,30,140,27.9z M127.3,123.8c0.6-1.5,1-3,1.7-4.4c3.8-7.1,2.2-13.6-4.8-18.2c-3.9,7.3-2.4,18,3.2,22.5
		c2.7,9,15.8,12.5,27,1.6c-4.2-1.2-7.9-3.1-11.5-3.2C137.7,122,132.5,123.2,127.3,123.8z M34.8,27.9c4.5,2,8.8,4.4,13.5,5.7
		c3.1,0.8,6.6,0,11.1-0.1c-5.1-6.9-10.2-9.8-16.9-8.5C39.9,25.5,37.4,26.9,34.8,27.9c4.6-8.9,8-17.9,2.7-27.9c-6.2,5.2-9,11-7.6,18
		C30.6,21.5,33.1,24.6,34.8,27.9z M20.2,78.5c-1.5-2.6-3.1-5.1-4.6-7.7C12.1,64.8,7.3,60.7,0,59.2c0.3,2.3,0.5,4.1,0.8,5.8
		c2.1,10.1,10.3,15.8,19.3,13.3c8.8-1,16.7-6.7,18.2-13.2C27.4,64,23.1,67.3,20.2,78.5z M19.8,16.1c-6,8.1-5.5,17.5,0.7,23.5
		c6.1,5.9,22.4,8.1,28.2,1.9c-7.1-6.5-11.1-6.3-23.5,0.9C26.4,33,27.7,23.6,19.8,16.1z M7.7,106.1c7.7,10.4,15.3,12.8,23.7,8
		c8.3-4.8,14.4-17.2,11.4-24.1c-9.4,4.6-12.4,11.7-8.3,22C26.2,106.4,18,102.7,7.7,106.1z M105.1,1.6c3,11.1,11.9,17.2,21.6,14.9
		C123.8,5.6,114.6-0.7,105.1,1.6z M47.8,16.5c9,2.5,20.4-4.8,21.6-15.3C59.2,0.1,52.1,5,47.8,16.5z M150.9,96.6
		c11.1,4.1,21.2-2,22.8-13.7C163.4,82.9,156.5,88.2,150.9,96.6z M23.8,96.7c-6.4-10-15.5-15.1-22.8-13
		C4.6,95.8,12.9,100.7,23.8,96.7z M91.8,136.1c0.1,6,2.9,10.1,7.4,12.9c4.3,2.7,9.1,3.6,14.3,2.3
		C110.2,142.4,101.7,136.4,91.8,136.1z M156.2,59.9c11.4-3.3,16.8-14.9,11.2-23.1C159.5,41.1,155,50.4,156.2,59.9z M21.1,125.7
		c8.4,9.1,19.7,8.6,26.4-1.1C38.4,121.1,29.8,120,21.1,125.7z M39.4,141.2c9.8,6.2,20.9,2.8,24.4-7.5
		C56.5,130.1,45.1,133.6,39.4,141.2z M110.9,133.3c2.8,10.2,12.8,13.6,24.7,8.3C130.3,134.1,120.1,130.7,110.9,133.3z M82.6,136.4
		c-8.6-0.5-17.5,5.6-21.2,14.5C71.7,154.5,83.8,146,82.6,136.4z M6.7,36.7c-3.6,12,1.9,21.5,11.8,23.1C20.1,50.6,14.9,40.2,6.7,36.7
		z M174.5,59.8c-8-0.7-17.7,11.3-18.1,19C166.6,79.1,173.9,73.8,174.5,59.8z M141.7,112.6c8.9,6.8,18.6,4.2,25.3-6.4
		C159.7,102.8,147.5,105.4,141.7,112.6z M50.4,100.6c-8.4,8.5-8.8,15.9-1.1,22.3C52.6,115.6,54.8,108.5,50.4,100.6z M39.5,78
		c-8.6,0.3-14.4,5.7-14.7,13.7c0,1,0.4,2.3,1,3.1c0.3,0.3,1.8,0.1,2.5-0.3C34.3,90.6,38.4,85.3,39.5,78z M139.1,110.9
		c5.6-8.2,1.3-19.3-8.3-20.3C130.7,98.6,133.7,105.1,139.1,110.9z M64.7,130.5c3-6.9,0.9-16.7-4.4-21.3
		C54.4,117.4,56.2,125.9,64.7,130.5z M83.2,133.4c-1.2-8.3-3.5-15.3-11.1-19.6C69.4,124.9,73.1,131.8,83.2,133.4z M92,133.4
		c9.8-1.9,13.3-8.5,10.6-19.4C96.3,117.3,91.8,125.3,92,133.4z M109.3,130.7c8.7-4,11.7-13.3,4.8-21.7
		C108.7,115.3,108,122.5,109.3,130.7z M152.9,60.3c-0.4-9-13.3-12.6-20.3-7.2C138.1,58.9,145,60.9,152.9,60.3z M135.8,78
		c0.2,7.3,5.7,14.4,12.9,17.1C152.3,87.5,145.4,78.5,135.8,78z M153.6,78.3c0.1-10-9-15.9-17.7-12.6
		C139.9,72.5,145.4,76.8,153.6,78.3z M42.3,52.7C33.4,48,23.1,51.4,22,60.1C29.8,61,36.6,59.2,42.3,52.7z"/>
	<path class="st0" d="M19.8,16.1c7.9,7.5,6.6,16.9,5.5,26.4c12.4-7.3,16.4-7.4,23.5-0.9c-5.8,6.2-22.2,4-28.2-1.9
		C14.2,33.6,13.8,24.2,19.8,16.1z"/>
	<path class="st0" d="M7.7,106.1c10.3-3.5,18.5,0.2,26.9,5.9c-4.1-10.3-1.1-17.4,8.3-22c2.9,6.9-3.1,19.3-11.4,24.1
		C23,119,15.4,116.5,7.7,106.1z"/>
	<path class="st0" d="M105.1,1.6c9.5-2.3,18.7,4,21.6,14.9C117,18.8,108.1,12.7,105.1,1.6z"/>
	<path class="st0" d="M47.8,16.5C52.1,5,59.2,0.1,69.4,1.3C68.3,11.8,56.8,19,47.8,16.5z"/>
	<path class="st0" d="M20.1,78.4c-8.9,2.5-17.2-3.2-19.2-13.3c-0.4-1.7-0.5-3.5-0.8-5.8c7.3,1.4,12.1,5.5,15.6,11.6
		c1.5,2.6,3.1,5.1,4.6,7.7L20.1,78.4z"/>
	<path class="st0" d="M150.9,96.6c5.6-8.4,12.5-13.7,22.8-13.7C172,94.6,162,100.7,150.9,96.6z"/>
	<path class="st0" d="M23.8,96.7c-10.9,3.9-19.2-0.9-22.8-13C8.3,81.6,17.4,86.7,23.8,96.7z"/>
	<path class="st0" d="M34.8,27.9c-1.7-3.3-4.2-6.4-4.9-9.9c-1.4-7,1.4-12.9,7.6-18C42.8,10.1,39.4,19,34.8,27.9
		C34.8,27.9,34.8,27.9,34.8,27.9z"/>
	<path class="st0" d="M91.8,136.1c10,0.4,18.5,6.4,21.7,15.2c-5.2,1.3-10.1,0.4-14.3-2.3C94.7,146.2,91.9,142.1,91.8,136.1z"/>
	<path class="st0" d="M156.2,59.9c-1.2-9.5,3.3-18.8,11.2-23.1C173,45,167.6,56.6,156.2,59.9z"/>
	<path class="st0" d="M21.1,125.7c8.7-5.7,17.4-4.6,26.4-1.1C40.8,134.3,29.5,134.8,21.1,125.7z"/>
	<path class="st0" d="M127.3,123.9c5.2-0.7,10.4-1.9,15.6-1.8c3.7,0.1,7.3,1.9,11.5,3.2c-11.2,10.9-24.3,7.5-27-1.6L127.3,123.9z"/>
	<path class="st0" d="M39.4,141.2c5.7-7.5,17.1-11,24.4-7.5C60.3,144,49.3,147.4,39.4,141.2z"/>
	<path class="st0" d="M110.9,133.3c9.3-2.6,19.5,0.8,24.7,8.3C123.6,146.9,113.6,143.5,110.9,133.3z"/>
	<path class="st0" d="M82.6,136.4c1.3,9.6-10.9,18.1-21.2,14.5C65.1,142,74,135.8,82.6,136.4z"/>
	<path class="st0" d="M140,27.9c-3.1-6.1-6.2-12.2-5.2-19.3c0.4-2.7,1.1-5.3,1.8-8.1c8.8,4.4,11.3,16.7,5.6,24.3
		C141.4,25.7,140.7,26.8,140,27.9L140,27.9z"/>
	<path class="st0" d="M150.2,43.1c-2.4-8.7-2.7-17.3,2.9-25.1c0.5-0.7,0.9-1.4,1.4-2.1c7.3,8.1,6.1,19.5-2.2,25.3
		C151.6,41.7,150.9,42.4,150.2,43.1C150.2,43.1,150.2,43.1,150.2,43.1z"/>
	<path class="st0" d="M6.7,36.7c8.2,3.5,13.4,13.9,11.8,23.1C8.6,58.2,3.1,48.7,6.7,36.7z"/>
	<path class="st0" d="M174.5,59.8c-0.6,14-7.9,19.3-18.1,19C156.9,71.1,166.5,59.1,174.5,59.8z"/>
	<path class="st0" d="M141.7,112.6c5.9-7.2,18-9.7,25.3-6.4C160.3,116.8,150.5,119.4,141.7,112.6z"/>
	<path class="st0" d="M50.4,100.6c4.4,7.9,2.2,15-1.1,22.3C41.6,116.4,42,109.1,50.4,100.6z"/>
	<path class="st0" d="M39.5,78c-1.2,7.3-5.2,12.5-11.2,16.4c-0.7,0.4-2.2,0.7-2.5,0.3c-0.6-0.8-1.1-2-1-3.1
		C25.2,83.7,30.9,78.4,39.5,78z"/>
	<path class="st0" d="M139.1,110.9c-5.4-5.7-8.4-12.3-8.3-20.3C140.4,91.6,144.8,102.7,139.1,110.9z"/>
	<path class="st0" d="M127.4,123.7c-5.5-4.5-7.1-15.2-3.2-22.5c6.9,4.5,8.6,11.1,4.8,18.2c-0.7,1.4-1.2,2.9-1.7,4.4
		C127.3,123.9,127.4,123.7,127.4,123.7z"/>
	<path class="st0" d="M64.7,130.5c-8.5-4.6-10.3-13.1-4.4-21.3C65.6,113.8,67.7,123.6,64.7,130.5z"/>
	<path class="st0" d="M83.2,133.4c-10.1-1.6-13.8-8.5-11.1-19.6C79.7,118.1,82,125.1,83.2,133.4z"/>
	<path class="st0" d="M92,133.4c-0.2-8.2,4.3-16.2,10.6-19.4C105.3,125,101.8,131.5,92,133.4z"/>
	<path class="st0" d="M109.3,130.7c-1.4-8.3-0.7-15.4,4.8-21.7C121,117.4,118,126.7,109.3,130.7z"/>
	<path class="st0" d="M140,27.9c-6.2,2.1-12.3,4.3-18.5,6.2c-1.5,0.4-3.4-0.6-5.2-1c4.3-7.8,12.3-10.3,19.7-6.9
		C137.2,26.9,138.6,27.4,140,27.9C140,27.9,140,27.9,140,27.9z"/>
	<path class="st0" d="M34.8,27.9c2.6-1,5.1-2.4,7.8-2.9c6.7-1.2,11.7,1.7,16.9,8.5c-4.6,0.1-8.1,1-11.1,0.1
		C43.7,32.4,39.3,29.9,34.8,27.9C34.8,27.9,34.8,27.9,34.8,27.9z"/>
	<path class="st0" d="M150.2,43.1c-6.4,1.7-12.7,3.5-19.3,1.2c-1.7-0.6-3.2-1.4-4.9-2.2c5.3-6.7,14.9-6.5,19.9-2
		C147.1,41.2,148.8,42.1,150.2,43.1C150.2,43.1,150.2,43.1,150.2,43.1z"/>
	<path class="st0" d="M152.9,60.3c-7.9,0.7-14.7-1.3-20.3-7.2C139.6,47.7,152.5,51.3,152.9,60.3z"/>
	<path class="st0" d="M135.8,78c9.5,0.5,16.4,9.5,12.9,17.1C141.5,92.5,136.1,85.3,135.8,78z"/>
	<path class="st0" d="M153.6,78.3c-8.2-1.5-13.8-5.8-17.7-12.6C144.6,62.4,153.8,68.3,153.6,78.3z"/>
	<path class="st0" d="M20.2,78.5c2.8-11.2,7.2-14.5,18.1-13.3c-1.5,6.5-9.4,12.2-18.2,13.2C20.1,78.4,20.2,78.5,20.2,78.5z"/>
	<path class="st0" d="M42.3,52.7C36.6,59.2,29.8,61,22,60.1C23.1,51.4,33.4,48,42.3,52.7z"/>
</g>
</svg>
