<svg xmlns="http://www.w3.org/2000/svg" width="15" height="15" viewBox="0 0 15 15">
  <defs>
    <style>
      .cls-1 {
        fill: #c8c8c8;
        fill-rule: evenodd;
      }
    </style>
  </defs>
  <path id="_" data-name="" class="cls-1" d="M572.887,2226.07a1.473,1.473,0,0,0-1.073.44,1.433,1.433,0,0,0-.439,1.04v9a1.452,1.452,0,0,0,.439,1.07,1.434,1.434,0,0,0,1.073.44h10.476l3.024,2.99v-13.5a1.434,1.434,0,0,0-.44-1.04,1.47,1.47,0,0,0-1.072-.44H572.887Zm1.476,9v-1.51h9v1.51h-9Zm0-2.25v-1.51h9v1.51h-9Zm0-2.25v-1.51h9v1.51h-9Z" transform="translate(-571.375 -2226.06)"/>
</svg>
