<?xml version="1.0" encoding="utf-8"?>
<!-- Generator: Adobe Illustrator 17.1.0, SVG Export Plug-In . SVG Version: 6.00 Build 0)  -->
<!DOCTYPE svg PUBLIC "-//W3C//DTD SVG 1.1//EN" "http://www.w3.org/Graphics/SVG/1.1/DTD/svg11.dtd">
<svg version="1.1" id="Layer_1" xmlns="http://www.w3.org/2000/svg" xmlns:xlink="http://www.w3.org/1999/xlink" x="0px" y="0px"
	 viewBox="0 0 16.8 11.1" enable-background="new 0 0 16.8 11.1" xml:space="preserve">
<g>
	<g>
		<path fill="#353635" d="M16.7,8.5L16.7,8.5c-0.6,0-1-0.4-1-0.9c0-0.5,0.3-0.8,0.7-0.9V6.4c-0.1-0.6-0.6-0.9-1.1-0.9h-1.5h-0.5
			c-0.1,0-0.4-0.1-0.4-0.3l-1.3-2.8c-0.2-0.5-0.7-0.7-1.2-0.7H7.3V0.1l-6,0.1c-0.3,0,0,0.4,0,0.6h0.1h4v0.9H2c-0.6,0-1,0.5-1,1v2
			C0.8,4.5,0.7,4.4,0.5,4.4C0.2,4.4,0,4.6,0,4.9v3c0,0.3,0.2,0.5,0.5,0.5c0.2,0,0.3-0.1,0.4-0.2v0.9c0,0.6,0.5,1,1,1h0.4
			c0-0.2,0-0.3,0-0.5c0-1.3,1.1-2.4,2.4-2.4s2.4,1.1,2.4,2.4c0,0.2,0,0.3,0,0.5h2.8c0-0.2,0-0.3,0-0.5c0-1.3,1.1-2.4,2.4-2.4
			s2.4,1.1,2.4,2.4c0,0.2,0,0.3,0,0.5h1.1c0.3,0,0.6-0.1,0.7-0.3c0.2-0.2,0.3-0.5,0.2-0.7L16.7,8.5z M5.4,5.5H3.7V3.3h1.7V5.5z
			 M8,5.5H6.3V3.3H8V5.5z M8.8,5.5V3.3h2.2l1,2.1H8.8z M1.3,0.8C1.3,0.7,1.3,0.7,1.3,0.8C1.2,0.8,1.3,1,1.3,0.8z M4.7,8.2
			c-0.8,0-1.5,0.7-1.5,1.5c0,0.8,0.7,1.5,1.5,1.5s1.5-0.7,1.5-1.5C6.2,8.8,5.5,8.2,4.7,8.2z M4.7,10.1c-0.3,0-0.5-0.2-0.5-0.5
			c0-0.3,0.2-0.5,0.5-0.5c0.3,0,0.5,0.2,0.5,0.5C5.1,9.9,4.9,10.1,4.7,10.1z M12.2,8.2c-0.8,0-1.5,0.7-1.5,1.5
			c0,0.8,0.7,1.5,1.5,1.5s1.5-0.7,1.5-1.5C13.8,8.8,13,8.2,12.2,8.2z M12.2,10.1c-0.3,0-0.5-0.2-0.5-0.5c0-0.3,0.2-0.5,0.5-0.5
			c0.3,0,0.5,0.2,0.5,0.5C12.7,9.9,12.5,10.1,12.2,10.1z"/>
	</g>
</g>
</svg>
