<?xml version="1.0" encoding="utf-8"?>
<!-- Generator: Adobe Illustrator 17.1.0, SVG Export Plug-In . SVG Version: 6.00 Build 0)  -->
<!DOCTYPE svg PUBLIC "-//W3C//DTD SVG 1.1//EN" "http://www.w3.org/Graphics/SVG/1.1/DTD/svg11.dtd">
<svg version="1.1" id="Layer_1" xmlns="http://www.w3.org/2000/svg" xmlns:xlink="http://www.w3.org/1999/xlink" x="0px" y="0px"
	 viewBox="0 0 16.4 16.4" enable-background="new 0 0 16.4 16.4" xml:space="preserve">
<path fill="#FFFFFF" d="M8.2,0C3.6,0,0,3.6,0,8.2s3.6,8.2,8.2,8.2s8.2-3.6,8.2-8.2S12.8,0,8.2,0z M4.2,11.8c-0.5,0-0.8-0.4-0.8-0.8
	s0.4-0.8,0.8-0.8S5,10.5,5,11C5,11.5,4.7,11.8,4.2,11.8z M4.2,6.1c-0.5,0-0.8-0.4-0.8-0.8c0-0.5,0.4-0.8,0.8-0.8S5,4.8,5,5.3
	C5,5.6,4.7,6.1,4.2,6.1z M7.4,5.5c-0.7,0-1.3-0.6-1.3-1.3s0.6-1.3,1.3-1.3s1.3,0.6,1.3,1.3C8.8,4.9,8.1,5.5,7.4,5.5z M10.3,12.9
	c-1.2,0-2.1-0.9-2.1-2.1s0.9-2.1,2.1-2.1s2.1,0.9,2.1,2.1S11.5,12.9,10.3,12.9z M12.7,8.7c-0.5,0-0.8-0.4-0.8-0.8
	c0-0.5,0.4-0.8,0.8-0.8c0.5,0,0.8,0.4,0.8,0.8C13.5,8.3,13.1,8.7,12.7,8.7z"/>
</svg>
