<?xml version="1.0" encoding="utf-8"?>
<!-- Generator: Adobe Illustrator 17.1.0, SVG Export Plug-In . SVG Version: 6.00 Build 0)  -->
<!DOCTYPE svg PUBLIC "-//W3C//DTD SVG 1.1//EN" "http://www.w3.org/Graphics/SVG/1.1/DTD/svg11.dtd">
<svg version="1.1" id="Layer_1" xmlns="http://www.w3.org/2000/svg" xmlns:xlink="http://www.w3.org/1999/xlink" x="0px" y="0px"
	 viewBox="0 0 16.4 12.9" enable-background="new 0 0 16.4 12.9" xml:space="preserve">
<g>
	<g>
		<path fill="#353635" d="M8.2,2.6L2.3,7.4l0,0l0,0v4.8c0,0.1,0.1,0.4,0.2,0.5c0.1,0.1,0.2,0.2,0.5,0.2h3.9V9h2.6v3.9h3.9
			c0.2,0,0.4-0.1,0.5-0.2c0.1-0.1,0.2-0.2,0.2-0.5V7.4c0,0,0,0,0-0.1L8.2,2.6z M16.3,6.3l-2.2-1.9V0.4c0-0.1,0-0.1-0.1-0.2
			c0,0-0.1-0.1-0.2-0.1h-2c-0.1,0-0.1,0-0.2,0.1c0,0.1,0,0.1,0,0.2v2L9,0.2C8.8,0.1,8.6,0,8.2,0C7.8,0,7.6,0.1,7.4,0.2L0.1,6.3
			C0,6.3,0,6.4,0,6.4c0,0.1,0,0.1,0.1,0.2l0.6,0.7c0,0.1,0.1,0.1,0.2,0.1c0.1,0,0.1,0,0.2-0.1l7-5.7l7,5.7c0,0,0.1,0.1,0.2,0.1l0,0
			c0.1,0,0.1,0,0.2-0.1l0.6-0.7c0.1,0,0.1-0.1,0.1-0.2C16.4,6.4,16.4,6.3,16.3,6.3z"/>
	</g>
</g>
</svg>
