<?xml version="1.0" encoding="utf-8"?>
<!-- Generator: Adobe Illustrator 17.1.0, SVG Export Plug-In . SVG Version: 6.00 Build 0)  -->
<!DOCTYPE svg PUBLIC "-//W3C//DTD SVG 1.1//EN" "http://www.w3.org/Graphics/SVG/1.1/DTD/svg11.dtd">
<svg version="1.1" id="Layer_1" xmlns="http://www.w3.org/2000/svg" xmlns:xlink="http://www.w3.org/1999/xlink" x="0px" y="0px"
	 viewBox="0 0 15.2 12.4" enable-background="new 0 0 15.2 12.4" xml:space="preserve">
<g>
	<g>
		<path fill="#353635" d="M10.3,9.9c-0.1,0-0.1,0-0.2,0C6.8,9.9,4.1,7,4.1,3.6c0-1.1,0.3-2.2,0.9-3.1C5,0.3,4.8,0,4.7,0
			C1.8,0.8-0.2,3.5,0,6.6c0.3,2.9,2.6,5.4,5.5,5.7c2,0.2,3.8-0.7,5-2C10.7,10.1,10.5,9.9,10.3,9.9z M6.9,2L6.6,2.9
			C6.6,3,6.7,3.1,6.8,3l0.8-0.5l0.8,0.6c0.1,0,0.2-0.1,0.2-0.2L8.3,2L9,1.4c0.1-0.1,0-0.2-0.1-0.2H8L7.7,0.3c0-0.1-0.2-0.1-0.2,0
			L7.2,1.2H6.3c-0.2,0-0.2,0.1-0.1,0.2L6.9,2z M14.5,8.3h-0.9l-0.3-0.9c0-0.1-0.2-0.1-0.3,0l-0.3,0.9H12c-0.1,0-0.2,0.2-0.1,0.3
			l0.7,0.6L12.3,10c0,0.1,0.1,0.2,0.2,0.2l0.8-0.6l0.8,0.6c0.1,0.1,0.3,0,0.2-0.2l-0.3-0.9l0.7-0.6C14.7,8.4,14.7,8.3,14.5,8.3z
			 M15,2.5h-1.3l-0.4-1.3c-0.1-0.2-0.3-0.2-0.3,0l-0.5,1.3h-1.3c-0.2,0-0.2,0.2-0.1,0.3l1,0.9l-0.4,1.3c0,0.2,0.1,0.3,0.3,0.2
			l1.1-0.8l1,0.8c0.1,0.1,0.3,0,0.3-0.2l-0.4-1.3l1-0.9C15.3,2.7,15.2,2.5,15,2.5z"/>
	</g>
</g>
</svg>
