<svg xmlns="http://www.w3.org/2000/svg" width="16" height="16" viewBox="0 0 16 16">
  <defs>
    <style>
      .cls-1 {
        fill: #fff;
        fill-rule: evenodd;
      }
    </style>
  </defs>
  <path id="Forma_1" data-name="Forma 1" class="cls-1" d="M79.009,429.008a8,8,0,1,0,8,8A8,8,0,0,0,79.009,429.008Zm1.666,12.4q-0.617.243-.986,0.371a2.606,2.606,0,0,1-.855.128,1.71,1.71,0,0,1-1.163-.365,1.18,1.18,0,0,1-.414-0.926,3.366,3.366,0,0,1,.03-0.446q0.032-.228.1-0.514l0.516-1.821c0.045-.176.085-0.342,0.116-0.5a2.211,2.211,0,0,0,.046-0.429,0.658,0.658,0,0,0-.144-0.485,0.812,0.812,0,0,0-.551-0.137,1.455,1.455,0,0,0-.41.061c-0.139.043-.26,0.082-0.359,0.12l0.136-.561q0.506-.207.969-0.353a2.859,2.859,0,0,1,.874-0.148,1.675,1.675,0,0,1,1.146.359,1.193,1.193,0,0,1,.4.932c0,0.08-.009.219-0.028,0.418a2.806,2.806,0,0,1-.1.55l-0.513,1.815q-0.062.219-.113,0.5a2.628,2.628,0,0,0-.05.425,0.611,0.611,0,0,0,.162.493,0.909,0.909,0,0,0,.56.132,1.608,1.608,0,0,0,.425-0.067,2.367,2.367,0,0,0,.343-0.115Zm-0.091-7.368a1.224,1.224,0,0,1-.864.333,1.238,1.238,0,0,1-.867-0.333,1.087,1.087,0,0,1,0-1.618,1.228,1.228,0,0,1,.867-0.337,1.215,1.215,0,0,1,.864.337A1.091,1.091,0,0,1,80.583,434.04Z" transform="translate(-71 -429)"/>
</svg>
