<svg xmlns="http://www.w3.org/2000/svg" width="13.5" height="13.5" viewBox="0 0 13.5 13.5">
  <defs>
    <style>
      .cls-1 {
        fill: #9f9d9d;
        fill-rule: evenodd;
      }
    </style>
  </defs>
  <path id="_" data-name="" class="cls-1" d="M262.672,955.559a0.721,0.721,0,0,0,.176-0.774,8.372,8.372,0,0,1-.422-2.672,0.735,0.735,0,0,0-.211-0.509,0.688,0.688,0,0,0-.528-0.229h-2.636a0.787,0.787,0,0,0-.739.738,12.7,12.7,0,0,0,12.762,12.762,0.785,0.785,0,0,0,.738-0.738V961.5a0.687,0.687,0,0,0-.228-0.527,0.735,0.735,0,0,0-.51-0.211,8.4,8.4,0,0,1-2.672-.422,0.645,0.645,0,0,0-.773.176l-1.652,1.652a11.028,11.028,0,0,1-4.958-4.957Z" transform="translate(-258.313 -951.375)"/>
</svg>
