<svg xmlns="http://www.w3.org/2000/svg" width="15" height="15" viewBox="0 0 15 15">
  <defs>
    <style>
      .cls-1 {
        fill: #9f9d9d;
        fill-rule: evenodd;
      }
    </style>
  </defs>
  <path id="_copy" data-name="ï¿ copy" class="cls-1" d="M564.043,212.2a6.721,6.721,0,0,0-2.092-4.974,6.936,6.936,0,0,0-5.045-2.057,7.089,7.089,0,0,0-1.23.105,4.132,4.132,0,0,0-2.215-.632,4.028,4.028,0,0,0-2.936,1.195,3.9,3.9,0,0,0-1.213,2.883,4,4,0,0,0,.563,2.074,7.141,7.141,0,0,0-.141,1.406,6.773,6.773,0,0,0,2.092,4.992,6.941,6.941,0,0,0,5.08,2.075,8.254,8.254,0,0,0,1.3-.106,4.35,4.35,0,0,0,1.969.457,4.03,4.03,0,0,0,2.935-1.195,3.977,3.977,0,0,0,.756-4.711,6.513,6.513,0,0,0,.176-1.512h0Zm-4.992,4.43a5.944,5.944,0,0,1-2.25.387,5.334,5.334,0,0,1-2.532-.528,3.367,3.367,0,0,1-1.2-1.019,2.152,2.152,0,0,1-.457-1.266,0.89,0.89,0,0,1,.3-0.668,1.061,1.061,0,0,1,.756-0.281,1.028,1.028,0,0,1,.633.211,1.715,1.715,0,0,1,.422.6,3.056,3.056,0,0,0,.386.738,1.488,1.488,0,0,0,.615.457,2.629,2.629,0,0,0,1.038.176,2.675,2.675,0,0,0,1.441-.352,1.091,1.091,0,0,0,.527-0.879,0.957,0.957,0,0,0-.281-0.7,2,2,0,0,0-.773-0.387,8.219,8.219,0,0,0-1.3-.316,10.492,10.492,0,0,1-1.863-.563,3,3,0,0,1-1.231-.878,2.408,2.408,0,0,1,.018-2.848,2.831,2.831,0,0,1,1.388-.949,5.685,5.685,0,0,1,2.11-.352,5.338,5.338,0,0,1,1.652.229,3.829,3.829,0,0,1,1.178.6,2.678,2.678,0,0,1,.7.774,1.6,1.6,0,0,1,.228.791,0.945,0.945,0,0,1-.3.685,0.982,0.982,0,0,1-.721.3,0.968,0.968,0,0,1-.633-0.176,1.933,1.933,0,0,1-.422-0.562,2.574,2.574,0,0,0-.633-0.809,2.275,2.275,0,0,0-1.2-.246,2.529,2.529,0,0,0-1.265.281,0.8,0.8,0,0,0-.422.668,0.651,0.651,0,0,0,.14.422,1.233,1.233,0,0,0,.422.317,2.724,2.724,0,0,0,.563.211,9.519,9.519,0,0,0,1.019.246q0.844,0.21,1.582.422a4.043,4.043,0,0,1,1.2.562,2.342,2.342,0,0,1,.826.826,2.433,2.433,0,0,1,.3,1.248,2.56,2.56,0,0,1-.509,1.565,3.328,3.328,0,0,1-1.459,1.072h0Z" transform="translate(-549.313 -204.625)"/>
</svg>
