<svg xmlns="http://www.w3.org/2000/svg" width="15.969" height="15.03" viewBox="0 0 15.969 15.03">
  <defs>
    <style>
      .cls-1 {
        fill: #fff;
        fill-rule: evenodd;
      }
    </style>
  </defs>
  <path id="Forma_1_copy_9" data-name="Forma 1 copy 9" class="cls-1" d="M379.376,1289.21l2.034,4.75,5.209,0.44a0.4,0.4,0,0,1,.234.71l-3.951,3.38,1.184,5.02a0.411,0.411,0,0,1-.612.44L379,1301.28l-4.477,2.67a0.411,0.411,0,0,1-.612-0.44l1.184-5.02-3.951-3.38a0.4,0.4,0,0,1,.234-0.71l5.209-.44,2.034-4.75A0.413,0.413,0,0,1,379.376,1289.21Z" transform="translate(-371 -1288.97)"/>
</svg>
