<svg xmlns="http://www.w3.org/2000/svg" width="16" height="15" viewBox="0 0 16 15">
  <defs>
    <style>
      .cls-1 {
        fill: #fff;
        fill-rule: evenodd;
      }
    </style>
  </defs>
  <path class="cls-1" d="M80.781,397.4l-0.133-1.134a0.21,0.21,0,0,0-.21-0.183H77.561a0.21,0.21,0,0,0-.21.183L77.219,397.4a5.771,5.771,0,0,0-3.29,2.677,0.622,0.622,0,0,0,.555.92h9.032a0.622,0.622,0,0,0,.555-0.92A5.773,5.773,0,0,0,80.781,397.4Zm6.2-7.867A4.228,4.228,0,0,0,79,388.41a4.226,4.226,0,0,0-7.985,1.126,0.633,0.633,0,0,0,1.078.557,4.393,4.393,0,0,1,3.522-1.222,4.115,4.115,0,0,0-1.559,6.836,0.633,0.633,0,0,0,1.1-.52,4.4,4.4,0,0,1,2.878-4.715l-0.485,4.14a0.209,0.209,0,0,0,.21.231h2.489a0.209,0.209,0,0,0,.21-0.231l-0.485-4.139a4.393,4.393,0,0,1,2.878,4.714,0.633,0.633,0,0,0,1.1.52,4.116,4.116,0,0,0-1.556-6.836,4.391,4.391,0,0,1,3.519,1.222A0.633,0.633,0,0,0,86.985,389.536Z" transform="translate(-71 -386)"/>
</svg>
