<svg xmlns="http://www.w3.org/2000/svg" width="48" height="14.97" viewBox="0 0 48 14.97">
  <defs>
    <style>
      .cls-1 {
        fill: #757575;
        fill-rule: evenodd;
      }
    </style>
  </defs>
  <path id="Forma_1" data-name="Forma 1" class="cls-1" d="M412.84,1215.28h-3.014a1.943,1.943,0,0,0-2.044,1.2l-5.792,13.29h4.1s0.668-1.79.819-2.18c0.449,0,4.429.01,5,.01,0.117,0.5.474,2.17,0.474,2.17H416Zm-4.811,9.34c0.322-.83,1.554-4.05,1.554-4.05-0.021.04,0.319-.84,0.52-1.38l0.264,1.25s0.746,3.46.9,4.18h-3.241Zm-5.763.41c-0.03,3.01-2.694,4.95-6.794,4.95a12.388,12.388,0,0,1-4.347-.77l0.549-3.25,0.5,0.23a8.115,8.115,0,0,0,3.674.76c1.121,0,2.322-.44,2.333-1.41,0.007-.64-0.5-1.09-2.022-1.8-1.481-.7-3.442-1.86-3.417-3.94,0.021-2.82,2.737-4.79,6.594-4.79a10.031,10.031,0,0,1,3.494.61l-0.527,3.14-0.353-.16a6.994,6.994,0,0,0-2.92-.56c-1.526,0-2.236.65-2.236,1.25-0.007.68,0.827,1.13,2.192,1.8C401.241,1222.12,402.281,1223.38,402.266,1225.03ZM368,1215.43l0.05-.29H374.1a1.564,1.564,0,0,1,1.7,1.18l1.316,6.4C375.825,1219.37,372.711,1216.58,368,1215.43Zm17.64-.16-6.143,14.48h-4.128l-3.494-12.09a15.45,15.45,0,0,1,5.4,6.01l0.407,1.5,3.821-9.89,4.133-.01h0Zm1.577-.01h3.9l-2.441,14.5h-3.9Z" transform="translate(-368 -1215)"/>
</svg>
