<svg xmlns="http://www.w3.org/2000/svg" width="32" height="32" viewBox="0 0 32 32">
  <defs>
    <style>
      .cls-1 {
        fill: #fff;
        fill-rule: evenodd;
      }
    </style>
  </defs>
  <path id="Forma_1" data-name="Forma 1" class="cls-1" d="M751,1208a16,16,0,1,0,16,16A16,16,0,0,0,751,1208Zm8.116,17.73a29.65,29.65,0,0,1,2.2,2.21,6.644,6.644,0,0,1,.789,1.14,0.813,0.813,0,0,1-.5,1.27h-3.277a2.531,2.531,0,0,1-2.089-.85c-0.453-.46-0.874-0.95-1.31-1.43a3.161,3.161,0,0,0-.59-0.53,0.684,0.684,0,0,0-1.091.27,3.415,3.415,0,0,0-.346,1.53,0.871,0.871,0,0,1-1.044,1.01,8.333,8.333,0,0,1-4.69-1.01,10.345,10.345,0,0,1-3.157-2.95,40.108,40.108,0,0,1-4.155-7.41c-0.262-.58-0.07-0.9.574-0.91q1.605-.03,3.209,0a0.951,0.951,0,0,1,.891.67,20.107,20.107,0,0,0,2.175,4.03,3.409,3.409,0,0,0,.822.9,0.5,0.5,0,0,0,.848-0.25,2.7,2.7,0,0,0,.189-0.84,12.575,12.575,0,0,0-.052-2.96,1.244,1.244,0,0,0-1.052-1.14c-0.313-.06-0.268-0.17-0.115-0.35a1.175,1.175,0,0,1,1.006-.5h3.7a0.88,0.88,0,0,1,.794.96l0,4.12a1.2,1.2,0,0,0,.523,1.05,0.717,0.717,0,0,0,.739-0.36,12.965,12.965,0,0,0,2.087-3.21c0.25-.51.466-1.03,0.676-1.56a0.79,0.79,0,0,1,.837-0.57h3.566a1.673,1.673,0,0,1,.316.02,0.619,0.619,0,0,1,.58.95,8.933,8.933,0,0,1-1.418,2.46c-0.595.82-1.231,1.61-1.821,2.44A1.123,1.123,0,0,0,759.116,1225.73Z" transform="translate(-735 -1208)"/>
</svg>
