<svg xmlns="http://www.w3.org/2000/svg" width="10.5" height="15" viewBox="0 0 10.5 15">
  <defs>
    <style>
      .cls-1 {
        fill: #9f9d9d;
        fill-rule: evenodd;
      }
    </style>
  </defs>
  <path id="_copy" data-name=" copy" class="cls-1" d="M550.312,242.875a7.112,7.112,0,0,0,.563,2.531,15.937,15.937,0,0,0,1.266,2.584q0.7,1.143,1.6,2.356t1.248,1.634q0.351,0.423.563,0.633l0.562-.6q0.528-.633,1.3-1.7t1.547-2.286a14.582,14.582,0,0,0,1.318-2.636,7.178,7.178,0,0,0,.545-2.514,5.024,5.024,0,0,0-1.547-3.709,5.105,5.105,0,0,0-3.726-1.529,5.222,5.222,0,0,0-5.239,5.238h0Zm3.375,0a1.861,1.861,0,0,1,1.864-1.863,1.857,1.857,0,0,1,1.336.545,1.826,1.826,0,0,1,0,2.636,1.853,1.853,0,0,1-1.336.545A1.861,1.861,0,0,1,553.687,242.875Z" transform="translate(-550.313 -237.625)"/>
</svg>
