<svg xmlns="http://www.w3.org/2000/svg" width="34.87" height="19.43" viewBox="0 0 34.87 19.43">
  <defs>
    <style>
      .cls-1 {
        fill: #72a816;
        fill-rule: evenodd;
      }
    </style>
  </defs>
  <path id="back.svg" class="cls-1" d="M1593.45,1224.62v-5.6h2.04v-1.44h-5.86v1.44h2.03v5.6h1.79Zm5.73-7.23c-2.12,0-3.48,1.42-3.48,3.71s1.35,3.72,3.48,3.72c2.11,0,3.46-1.43,3.46-3.72S1601.29,1217.39,1599.18,1217.39Zm0,1.48c0.98,0,1.64.87,1.64,2.23s-0.65,2.23-1.64,2.23c-1.01,0-1.65-.87-1.65-2.23S1598.18,1218.87,1599.18,1218.87Zm9.67,5.75v-5.6h2.04v-1.44h-5.85v1.44h2.03v5.6h1.78Zm5.73-7.23c-2.11,0-3.48,1.42-3.48,3.71s1.35,3.72,3.48,3.72,3.47-1.43,3.47-3.72S1616.7,1217.39,1614.58,1217.39Zm0,1.48c0.99,0,1.65.87,1.65,2.23s-0.66,2.23-1.65,2.23-1.65-.87-1.65-2.23S1613.59,1218.87,1614.58,1218.87Zm4.29-1.29v7.04h1.8v-2.06h1.18a2.431,2.431,0,0,0,2.65-2.48,2.383,2.383,0,0,0-2.54-2.5h-3.09Zm1.8,1.38h0.82a1.128,1.128,0,1,1-.01,2.25h-0.81v-2.25Zm-22.27-6.34c1.51,0,2.46-.79,2.46-2.03a1.682,1.682,0,0,0-1.63-1.66v-0.09a1.535,1.535,0,0,0,1.31-1.5c0-1.1-.83-1.76-2.24-1.76h-3.28v7.04h3.38Zm-1.59-5.78h1.02a0.82,0.82,0,0,1,.96.81,0.857,0.857,0,0,1-1.03.8h-0.95v-1.61Zm0,4.52v-1.82h1.07a0.936,0.936,0,1,1,.01,1.82h-1.08Zm9.33,1.26h1.95l-2.37-7.04h-2.19l-2.36,7.04h1.78l0.45-1.54h2.3Zm-1.63-5.45h0.1l0.75,2.62h-1.62Zm7.04,5.65a2.929,2.929,0,0,0,3.17-2.75H1613a1.4,1.4,0,0,1-1.45,1.25c-0.98,0-1.59-.85-1.59-2.23s0.61-2.21,1.59-2.21a1.405,1.405,0,0,1,1.44,1.29h1.73a2.977,2.977,0,0,0-3.17-2.78c-2.12,0-3.41,1.41-3.41,3.71S1609.44,1212.82,1611.55,1212.82Zm5.76-.2v-1.99l0.62-.78,1.77,2.77h2.11l-2.58-3.93,2.44-3.11h-1.93l-2.34,3.03h-0.09v-3.03h-1.8v7.04h1.8Z" transform="translate(-1589.63 -1205.38)"/>
</svg>
