<svg xmlns="http://www.w3.org/2000/svg" width="32" height="32" viewBox="0 0 32 32">
  <defs>
    <style>
      .cls-1 {
        fill: #fff;
        fill-rule: evenodd;
      }
    </style>
  </defs>
  <path id="Forma_1" data-name="Forma 1" class="cls-1" d="M904,1227.2a3.2,3.2,0,1,0-3.2-3.2A3.21,3.21,0,0,0,904,1227.2Zm6.993-7.12V1217h-0.4l-2.683.01,0.011,3.08ZM904,1208a16,16,0,1,0,16,16A16.018,16.018,0,0,0,904,1208Zm9.1,14.13v7.45a3.522,3.522,0,0,1-3.516,3.52H898.418a3.522,3.522,0,0,1-3.516-3.52v-11.16a3.522,3.522,0,0,1,3.516-3.52h11.161a3.523,3.523,0,0,1,3.517,3.52v3.71Zm-4.122,1.87a4.975,4.975,0,1,1-9.584-1.87h-2.716v7.45a1.743,1.743,0,0,0,1.743,1.74h11.162a1.743,1.743,0,0,0,1.743-1.74v-7.45h-2.716A4.967,4.967,0,0,1,908.974,1224Z" transform="translate(-888 -1208)"/>
</svg>
