<svg xmlns="http://www.w3.org/2000/svg" width="22" height="22" viewBox="0 0 22 22">
  <defs>
    <style>
      .cls-1 {
        fill: #fff;
        fill-rule: evenodd;
      }
    </style>
  </defs>
  <path id="Forma_1_copy_3" data-name="Forma 1 copy 3" class="cls-1" d="M796,281.2a2.2,2.2,0,1,0-2.2-2.2A2.205,2.205,0,0,0,796,281.2Zm4.807-4.895v-2.12H800.53l-1.845.006,0.008,2.12ZM796,268a11,11,0,1,0,11,11A11.01,11.01,0,0,0,796,268Zm6.255,9.714v5.121a2.42,2.42,0,0,1-2.418,2.417h-7.674a2.419,2.419,0,0,1-2.417-2.417v-7.674a2.419,2.419,0,0,1,2.417-2.417h7.674a2.42,2.42,0,0,1,2.418,2.417v2.553ZM799.42,279a3.421,3.421,0,1,1-6.59-1.283h-1.867v5.121a1.2,1.2,0,0,0,1.2,1.2h7.673a1.2,1.2,0,0,0,1.2-1.2v-5.121h-1.868A3.382,3.382,0,0,1,799.42,279Z" transform="translate(-785 -268)"/>
</svg>
