<svg xmlns="http://www.w3.org/2000/svg" width="15" height="15" viewBox="0 0 15 15">
  <defs>
    <style>
      .cls-1 {
        fill: #fff;
        fill-rule: evenodd;
      }
    </style>
  </defs>
  <path class="cls-1" d="M1292.35,360.477l-1.46,1.457-5.82-5.827,1.45-1.456L1282.87,351s-1.74,1.605-1.86,2.878c-0.16,1.7,1.65,4.8,4.48,7.634s5.93,4.636,7.63,4.479c1.27-.118,2.88-1.862,2.88-1.862Zm2.26-2.814h0.99a6.27,6.27,0,0,0-6.26-6.264v0.989A5.276,5.276,0,0,1,1294.61,357.663Zm-2.31,0h0.99a3.956,3.956,0,0,0-3.95-3.956V354.7A2.968,2.968,0,0,1,1292.3,357.663Z" transform="translate(-1281 -351)"/>
</svg>
