<svg xmlns="http://www.w3.org/2000/svg" width="13.969" height="15.5" viewBox="0 0 13.969 15.5">
  <defs>
    <style>
      .cls-1 {
        fill: #fff;
        fill-rule: evenodd;
      }
    </style>
  </defs>
  <path id="Forma_1" data-name="Forma 1" class="cls-1" d="M81.061,351.63c-0.908-1.049-1.183-2.4-2.7-2.4-1.447,0-1.706,1.318-2.611,2.295-0.805.867-2.338,1.064-2.338,2.675,0,1.917,2.216,3.039,4.949,3.039s4.949-1.122,4.949-3.039C83.309,352.732,81.785,352.467,81.061,351.63Zm0.947-1.87a1.746,1.746,0,1,0,3.492,0c0-.963-0.459-4.321-0.459-4.321S82.008,348.8,82.008,349.76Zm-6.976,0c0-.963-3.034-4.321-3.034-4.321s-0.457,3.358-.457,4.321A1.746,1.746,0,1,0,75.032,349.76Zm5.664-1.933a1.748,1.748,0,0,0,1.747-1.747c0-.963-1.747-4.321-1.747-4.321s-1.745,3.358-1.745,4.321A1.747,1.747,0,0,0,80.7,347.827Zm-4.344,0A1.748,1.748,0,0,0,78.1,346.08c0-.963-1.746-4.321-1.746-4.321s-1.745,3.358-1.745,4.321A1.747,1.747,0,0,0,76.352,347.827Z" transform="translate(-71.531 -341.75)"/>
</svg>
