<svg xmlns="http://www.w3.org/2000/svg" width="32" height="32" viewBox="0 0 32 32">
  <defs>
    <style>
      .cls-1 {
        fill: #393939;
        fill-rule: evenodd;
      }
    </style>
  </defs>
  <path class="cls-1" d="M854,1208a16,16,0,1,1-16,16A16,16,0,0,1,854,1208Zm3.591,14.52H849.5v3.56h4.069a3.635,3.635,0,0,1-3.567,2.37,3.961,3.961,0,1,1,0-7.9,3.742,3.742,0,0,1,2.648.95l0.294,0.28,2.791-2.64-0.3-.28A7.82,7.82,0,0,0,850,1217a7.516,7.516,0,1,0,0,15c4.136,0,7.075-2.3,7.67-6a9.844,9.844,0,0,0-.02-3.15Zm6.911,0v-2.36h-2.919v2.36h-2.5v2.77h2.5v2.37H864.5v-2.37H867v-2.77h-2.5Z" transform="translate(-838 -1208)"/>
</svg>
