<svg xmlns="http://www.w3.org/2000/svg" width="16" height="16" viewBox="0 0 16 16">
  <defs>
    <style>
      .cls-1 {
        fill: #9f9d9d;
        fill-rule: evenodd;
      }
    </style>
  </defs>
  <path class="cls-1" d="M556,271a8,8,0,1,0,8,8A7.963,7.963,0,0,0,556,271Zm-1.586,8a1.867,1.867,0,0,1-.1.607l2.725,1.375a1.671,1.671,0,0,1,1.265-.586,1.8,1.8,0,1,1-1.716,1.8,1.832,1.832,0,0,1,.023-0.279l-2.9-1.463a1.654,1.654,0,0,1-1.01.347,1.8,1.8,0,0,1,0-3.6,1.654,1.654,0,0,1,1.01.347l2.9-1.463a1.969,1.969,0,0,1-.023-0.279,1.717,1.717,0,1,1,1.716,1.8,1.674,1.674,0,0,1-1.265-.587l-2.725,1.375A1.872,1.872,0,0,1,554.414,279Z" transform="translate(-548 -271)"/>
</svg>
