<svg xmlns="http://www.w3.org/2000/svg" width="16.97" height="16" viewBox="0 0 16.97 16">
  <defs>
    <style>
      .cls-1 {
        fill: #fff;
        fill-rule: evenodd;
      }
    </style>
  </defs>
  <path class="cls-1" d="M1066.3,358.672l3.92,1.58,1.51,5.272a0.455,0.455,0,0,0,.74.238l2.18-1.924a0.607,0.607,0,0,1,.79-0.024l3.94,3.091a0.459,0.459,0,0,0,.73-0.3l2.88-15a0.477,0.477,0,0,0-.62-0.567l-16.07,6.7A0.513,0.513,0,0,0,1066.3,358.672Zm5.19,0.739,7.65-5.1a0.144,0.144,0,0,1,.17.228l-6.32,6.349a1.471,1.471,0,0,0-.41.847l-0.21,1.724a0.2,0.2,0,0,1-.39.031l-0.83-3.144A0.881,0.881,0,0,1,1071.49,359.411Z" transform="translate(-1066.03 -351)"/>
</svg>
