<svg xmlns="http://www.w3.org/2000/svg" width="32" height="31.96" viewBox="0 0 32 31.96">
  <defs>
    <style>
      .cls-1 {
        fill: #fff;
        fill-rule: evenodd;
      }
    </style>
  </defs>
  <path id="Twitter_round" class="cls-1" d="M802.911,1207.87a16,16,0,1,0,15.994,15.99A15.992,15.992,0,0,0,802.911,1207.87Zm11.024,10.23a8.305,8.305,0,0,1-2.432.67,4.244,4.244,0,0,0,1.861-2.35,8.372,8.372,0,0,1-2.688,1.03,4.234,4.234,0,0,0-7.325,2.91,4.318,4.318,0,0,0,.11.97,12.018,12.018,0,0,1-8.727-4.44,4.26,4.26,0,0,0,1.311,5.67,4.159,4.159,0,0,1-1.918-.53c0,0.02,0,.04,0,0.05a4.251,4.251,0,0,0,3.4,4.17,4.113,4.113,0,0,1-1.116.15,4.18,4.18,0,0,1-.8-0.08,4.23,4.23,0,0,0,3.955,2.95,8.509,8.509,0,0,1-6.268,1.76,12.031,12.031,0,0,0,18.536-10.18c0-.18,0-0.37-0.012-0.55A8.684,8.684,0,0,0,813.935,1218.1Z" transform="translate(-786.906 -1207.88)"/>
</svg>
