<svg xmlns="http://www.w3.org/2000/svg" width="22" height="22" viewBox="0 0 22 22">
  <defs>
    <style>
      .cls-1 {
        fill: #fff;
        fill-rule: evenodd;
      }
    </style>
  </defs>
  <path id="Forma_1_copy_2" data-name="Forma 1 copy 2" class="cls-1" d="M766,268a11,11,0,1,0,11,11A11,11,0,0,0,766,268Zm5.579,12.188a21.175,21.175,0,0,1,1.516,1.525,4.3,4.3,0,0,1,.542.782,0.56,0.56,0,0,1-.343.874h-2.253a1.743,1.743,0,0,1-1.435-.585c-0.312-.318-0.6-0.656-0.9-0.984a2.113,2.113,0,0,0-.406-0.361,0.47,0.47,0,0,0-.75.182,2.354,2.354,0,0,0-.238,1.052,0.6,0.6,0,0,1-.718.7,5.781,5.781,0,0,1-3.224-.694,7.1,7.1,0,0,1-2.17-2.032,27.369,27.369,0,0,1-2.857-5.092c-0.18-.4-0.048-0.616.395-0.624,0.735-.015,1.47-0.013,2.206,0a0.648,0.648,0,0,1,.612.459,13.667,13.667,0,0,0,1.5,2.77,2.34,2.34,0,0,0,.565.621,0.342,0.342,0,0,0,.583-0.17,1.889,1.889,0,0,0,.13-0.583,8.722,8.722,0,0,0-.036-2.036,0.85,0.85,0,0,0-.724-0.778c-0.215-.041-0.183-0.12-0.079-0.243a0.813,0.813,0,0,1,.692-0.344h2.546a0.606,0.606,0,0,1,.546.662l0,2.83a0.83,0.83,0,0,0,.359.723,0.5,0.5,0,0,0,.509-0.249,8.824,8.824,0,0,0,1.435-2.205c0.172-.348.32-0.709,0.464-1.072a0.548,0.548,0,0,1,.576-0.394l2.451,0a1.205,1.205,0,0,1,.217.013,0.425,0.425,0,0,1,.4.652,6.1,6.1,0,0,1-.975,1.689c-0.409.567-.846,1.112-1.251,1.681A0.768,0.768,0,0,0,771.579,280.186Z" transform="translate(-755 -268)"/>
</svg>
