<svg 
 xmlns="http://www.w3.org/2000/svg"
 xmlns:xlink="http://www.w3.org/1999/xlink"
 width="16px" height="14px">
<path fill-rule="evenodd"  fill="rgb(255, 255, 255)"
 d="M15.623,5.949 L14.512,4.394 C14.293,4.087 13.826,3.847 13.449,3.847 L9.979,3.847 L9.979,3.520 L13.147,3.520 C13.497,3.520 13.782,3.235 13.782,2.884 L13.782,0.636 C13.782,0.285 13.497,-0.000 13.147,-0.000 L9.237,-0.000 C8.886,-0.000 8.602,0.285 8.602,0.636 L8.602,0.894 L6.330,0.894 C6.054,0.894 5.829,1.119 5.829,1.396 L5.829,3.018 C5.829,3.295 6.054,3.520 6.330,3.520 L9.562,3.520 L9.562,3.847 L5.531,3.847 C5.152,3.847 4.695,4.097 4.489,4.416 L2.918,6.855 C2.753,7.112 2.373,7.421 2.088,7.531 L0.648,8.086 C0.284,8.226 -0.000,8.641 -0.000,9.030 L-0.000,11.780 C-0.000,12.186 0.329,12.516 0.735,12.516 L1.499,12.516 C1.748,13.372 2.537,14.000 3.471,14.000 C4.404,14.000 5.194,13.372 5.443,12.516 L9.835,12.516 C10.084,13.372 10.874,14.000 11.807,14.000 C12.741,14.000 13.530,13.372 13.779,12.516 L15.265,12.516 C15.670,12.516 16.000,12.186 16.000,11.780 L16.000,7.123 C16.000,6.760 15.835,6.244 15.623,5.949 ZM8.299,4.826 L9.562,4.826 L9.562,7.546 L8.048,7.610 L8.299,4.826 ZM3.471,12.964 C2.907,12.964 2.450,12.506 2.450,11.942 C2.450,11.377 2.907,10.919 3.471,10.919 C4.034,10.919 4.491,11.377 4.491,11.942 C4.491,12.506 4.034,12.964 3.471,12.964 ZM4.145,7.776 C3.877,7.787 3.772,7.608 3.912,7.379 L5.213,5.243 C5.353,5.013 5.687,4.826 5.955,4.826 L7.394,4.826 L7.139,7.649 L4.145,7.776 ZM9.979,7.528 L9.979,4.826 L10.878,4.826 L11.118,7.480 L9.979,7.528 ZM11.807,12.964 C11.244,12.964 10.787,12.506 10.787,11.942 C10.787,11.377 11.244,10.919 11.807,10.919 C12.371,10.919 12.828,11.377 12.828,11.942 C12.828,12.506 12.371,12.964 11.807,12.964 ZM14.138,7.352 L12.019,7.442 L11.783,4.826 L13.210,4.826 C13.478,4.826 13.774,5.032 13.867,5.284 L14.456,6.873 C14.549,7.125 14.406,7.340 14.138,7.352 Z"/>
</svg>