<svg xmlns="http://www.w3.org/2000/svg" width="13.031" height="13" viewBox="0 0 13.031 13">
  <defs>
    <style>
      .cls-1 {
        fill: #b2b2b2;
        fill-rule: evenodd;
      }
    </style>
  </defs>
  <path id="Forma_1" data-name="Forma 1" class="cls-1" d="M888.926,2509.15a0.831,0.831,0,0,0,0-.69,0.75,0.75,0,0,0-.243-0.67c-0.2-.17-0.393-0.35-0.589-0.52a0.826,0.826,0,0,0-1.222,0q-2.288,2.745-4.772,5.26c-1.229-1.24-2.473-2.46-3.708-3.68a0.818,0.818,0,0,0-1.334.22,2.319,2.319,0,0,0-.985.96,0.794,0.794,0,0,0,0,.74,18.535,18.535,0,0,0,3.605,4.14c-0.169.16-.337,0.33-0.51,0.49-1.708,1.58-2.859,2.58-.723,4.2a0.306,0.306,0,0,0,.088.03,0.287,0.287,0,0,0,.125.04,0.064,0.064,0,0,0,.041.01,0.583,0.583,0,0,0,.132,0,6.682,6.682,0,0,0,3.186-2.28,12.142,12.142,0,0,0,3.055,2.53,0.683,0.683,0,0,0,.779-0.13,0.844,0.844,0,0,0,.805-0.53,0.252,0.252,0,0,0,.063-0.04,0.981,0.981,0,0,0,.173-1.45c-0.825-1.03-1.7-2.01-2.6-2.98C885.9,2513.11,887.912,2511.28,888.926,2509.15Z" transform="translate(-875.969 -2507)"/>
</svg>
