<svg xmlns="http://www.w3.org/2000/svg" width="13" height="12" viewBox="0 0 13 12">
  <defs>
    <style>
      .cls-1 {
        fill: #73a917;
        fill-rule: evenodd;
      }
    </style>
  </defs>
  <path id="Forma_1" data-name="Forma 1" class="cls-1" d="M290.444,2507.88a1.6,1.6,0,0,0-.654-0.76,0.815,0.815,0,0,0-1.015.14,48.72,48.72,0,0,0-3.656,4.29,20.005,20.005,0,0,0-1.834,2.55c-0.235-.21-0.466-0.41-0.679-0.63a10.44,10.44,0,0,0-2.388-2.02,1.284,1.284,0,0,0-1.76.62,1.5,1.5,0,0,0-.3.79,0.676,0.676,0,0,0,0,.88,25.152,25.152,0,0,0,5.581,5.14,0.809,0.809,0,0,0,1.011-.14,86.921,86.921,0,0,0,6.123-9.7A0.769,0.769,0,0,0,290.444,2507.88Z" transform="translate(-278 -2507)"/>
</svg>
