<?xml version="1.0" encoding="UTF-8" standalone="no"?>
<!DOCTYPE svg  PUBLIC '-//W3C//DTD SVG 1.1//EN'  'http://www.w3.org/Graphics/SVG/1.1/DTD/svg11.dtd'>
<svg version="1.1" xmlns="http://www.w3.org/2000/svg">
<defs>
<font id="SFUIText-RegularG2" horiz-adv-x="1328">
<font-face underline-thickness="50" font-weight="400" descent="-410" bbox="-164 -494 2129 2033" underline-position="-125" units-per-em="2048" cap-height="1443" panose-1="0 0 5 0 0 0 0 0 0 0" x-height="1082" ascent="1638" font-family="SF UI  Text G 3" unicode-range="U+0020-0491"/>
<missing-glyph/>
<glyph unicode=" " horiz-adv-x="578" glyph-name="space"/>
<glyph unicode="!" horiz-adv-x="637" d="M210 1444h217l-18 -965h-181zM174 124q0 64 40.5 104.5t104.5 40.5q65 0 105 -40.5t40 -104.5t-40.5 -104t-104.5 -40t-104.5 40t-40.5 104z" glyph-name="exclam"/>
<glyph unicode='&quot;' horiz-adv-x="895" d="M340 892h-173v551h173v-551zM729 892h-173v551h173v-551z" glyph-name="quotedbl"/>
<glyph unicode="#" horiz-adv-x="1296" d="M1199 894h-215l-68 -329h215l-31 -157h-215l-83 -408h-155l84 408h-296l-84 -408h-153l83 408h-215l33 157h214l67 329h-215l31 155h215l81 394h154l-80 -394h296l80 394h155l-81 -394h215zM531 899l-69 -340h302l70 340h-303z" glyph-name="numbersign"/>
<glyph unicode="$" d="M733 -137h-135v133q-208 15 -331 124t-124 278h187q7 -96 78 -158t190 -76v496l-83 22q-164 43 -251 140t-87 238q0 167 112.5 273.5t308.5 125.5v139h135v-139q189 -16 305.5 -124t120.5 -272h-185q-3 89 -69 152t-172 76v-468l89 -21q186 -48 274.5 -143t88.5 -247 q0 -180 -118.5 -288.5t-333.5 -126.5v-134zM997 394q0 95 -63.5 152.5t-200.5 86.5v-472q126 7 195 68t69 165zM365 1073q0 -85 59.5 -141t173.5 -80v439q-101 -6 -167 -67.5t-66 -150.5z" glyph-name="dollar"/>
<glyph unicode="%" horiz-adv-x="1610" d="M1228 112q64 0 103 58.5t39 154.5q0 98 -38.5 155t-103.5 57q-66 0 -105 -57.5t-39 -154.5t39.5 -155t104.5 -58zM1228 -26q-138 0 -225.5 98t-87.5 253q0 154 87.5 252t225.5 98q137 0 224 -98t87 -252q0 -155 -87 -253t-224 -98zM384 768q-137 0 -224.5 98.5 t-87.5 252.5t87.5 252t224.5 98t224 -97.5t87 -252.5t-87 -253t-224 -98zM385 0h-198l550 753l496 690h196l-559 -765zM384 907q65 0 104 58t39 154q0 98 -38.5 155t-104.5 57q-65 0 -104 -57.5t-39 -154.5q0 -96 39 -154t104 -58z" glyph-name="percent"/>
<glyph unicode="&amp;" horiz-adv-x="1457" d="M1194 0l-130 140q-91 -80 -212.5 -123.5t-252.5 -43.5q-217 0 -353.5 114.5t-136.5 296.5q0 127 69.5 225t213.5 175q7 3 30 14.5t28 14.5q-99 103 -140 180.5t-41 156.5q0 140 106.5 232.5t267.5 92.5q162 0 267.5 -92t105.5 -234q0 -111 -72.5 -199t-237.5 -175 l350 -371q65 128 65 367v33h179v-37q0 -315 -120 -496l254 -271h-240zM504 672q-202 -106 -202 -274q0 -117 87 -189.5t228 -72.5q97 0 187 34.5t147 94.5l-397 430q-6 -2 -25 -11.5t-25 -11.5zM604 884q127 64 179.5 122.5t52.5 133.5q0 82 -53 132.5t-139 50.5 q-84 0 -138 -51.5t-54 -132.5q0 -59 34 -116t118 -139z" glyph-name="ampersand"/>
<glyph unicode="&apos;" horiz-adv-x="518" d="M346 892h-173v551h173v-551z" glyph-name="quotesingle"/>
<glyph unicode="(" horiz-adv-x="728" d="M611 -277h-170q-129 161 -199.5 390.5t-70.5 486.5q0 256 66 454.5t214 387.5h163q-109 -128 -178.5 -364t-69.5 -478q0 -234 58.5 -443.5t186.5 -433.5z" glyph-name="parenleft"/>
<glyph unicode=")" horiz-adv-x="728" d="M117 -277q128 224 186.5 433.5t58.5 443.5q0 244 -69 479.5t-178 362.5h163q148 -189 213.5 -387t65.5 -455q0 -256 -70.5 -485t-199.5 -392h-170z" glyph-name="parenright"/>
<glyph unicode="*" horiz-adv-x="1054" d="M633 1062l258 -126l-70 -124l-240 159l18 -285h-144l19 286l-240 -160l-71 124l259 126l-259 128l71 127l240 -165l-19 291h144l-19 -291l241 165l70 -127z" glyph-name="asterisk"/>
<glyph unicode="+" d="M746 498v-431h-163v431h-432v166h432v430h163v-430h431v-166h-431z" glyph-name="plus"/>
<glyph unicode="," horiz-adv-x="628" d="M269 -371h-162l94 580h214z" glyph-name="comma"/>
<glyph unicode="-" horiz-adv-x="966" d="M811 490h-656v181h656v-181z" glyph-name="hyphen"/>
<glyph unicode="." horiz-adv-x="608" d="M304 -13q-57 0 -96.5 40t-39.5 97q0 58 39.5 98t96.5 40q58 0 97.5 -40t39.5 -98q0 -57 -40 -97t-97 -40z" glyph-name="period"/>
<glyph unicode="/" horiz-adv-x="712" d="M220 -319h-167l437 1762h169z" glyph-name="slash"/>
<glyph unicode="0" horiz-adv-x="1290" d="M646 -35q-247 0 -384 199t-137 558q0 358 137.5 557t383.5 199q244 0 381.5 -200t137.5 -558q0 -359 -136.5 -557t-382.5 -198zM646 137q155 0 237.5 150.5t82.5 434.5q0 281 -83.5 432t-236.5 151q-154 0 -238 -151.5t-84 -431.5q0 -283 83.5 -434t238.5 -151z" glyph-name="zero"/>
<glyph unicode="1" horiz-adv-x="955" d="M497 0v1228h-16l-365 -263v205l382 273h197v-1443h-198z" glyph-name="one"/>
<glyph unicode="2" horiz-adv-x="1237" d="M143 1033q0 194 132.5 319.5t338.5 125.5q199 0 331.5 -117t132.5 -291q0 -114 -65 -224t-244 -298l-337 -355v-16h670v-177h-949v138l495 532q141 151 187.5 228.5t46.5 162.5q0 104 -79 174.5t-195 70.5q-124 0 -200 -75t-76 -198v-2h-189v2z" glyph-name="two"/>
<glyph unicode="3" horiz-adv-x="1284" d="M456 659v165h175q120 0 196.5 69t76.5 178q0 106 -74.5 171t-196.5 65t-197.5 -64t-85.5 -176h-189q13 191 141 301t339 110q193 0 326.5 -110.5t133.5 -269.5q0 -129 -67.5 -218t-186.5 -117v-17q147 -18 231.5 -113.5t84.5 -241.5q0 -119 -68 -216.5t-186.5 -153.5 t-262.5 -56q-223 0 -363.5 114.5t-150.5 302.5h190q11 -112 98.5 -178t224.5 -66q139 0 227 73t88 188q0 120 -86.5 190t-235.5 70h-182z" glyph-name="three"/>
<glyph unicode="4" horiz-adv-x="1318" d="M814 0v291h-703v181q185 333 611 971h284v-976h202v-176h-202v-291h-192zM307 477v-12h509v800h-13q-242 -352 -496 -788z" glyph-name="four"/>
<glyph unicode="5" horiz-adv-x="1267" d="M638 -35q-208 0 -344.5 117.5t-147.5 305.5h192q12 -113 95.5 -181.5t207.5 -68.5q140 0 226.5 87.5t86.5 231.5q0 143 -86.5 232.5t-224.5 89.5q-96 0 -171.5 -41t-119.5 -116h-183l78 821h820v-176h-666l-39 -448h16q105 126 305 126q206 0 336 -135t130 -348 q0 -221 -141.5 -359t-369.5 -138z" glyph-name="five"/>
<glyph unicode="6" horiz-adv-x="1305" d="M671 -34q-162 0 -283.5 81.5t-189.5 235.5q-77 166 -77 416q0 371 147 575t414 204q187 0 317 -103.5t164 -278.5h-201q-29 97 -104 152t-178 55q-172 0 -267.5 -148.5t-101.5 -426.5h17q53 104 153 162t228 58q206 0 340.5 -136.5t134.5 -345.5q0 -219 -144 -359.5 t-369 -140.5zM669 139q135 0 226 92t91 228q0 142 -88 231.5t-227 89.5t-229 -89t-90 -226q0 -139 91 -232.5t226 -93.5z" glyph-name="six"/>
<glyph unicode="7" horiz-adv-x="1167" d="M209 0l646 1251v17h-741v175h938v-181l-636 -1262h-207z" glyph-name="seven"/>
<glyph unicode="8" horiz-adv-x="1308" d="M654 -35q-234 0 -381.5 117.5t-147.5 303.5q0 140 83 241t220 127v16q-112 30 -178 117t-66 204q0 170 132 278.5t338 108.5t338 -108.5t132 -278.5q0 -118 -65.5 -204t-178.5 -117v-16q137 -25 220 -126t83 -242q0 -186 -147.5 -303.5t-381.5 -117.5zM654 132 q145 0 236.5 75t91.5 194q0 120 -91 195t-237 75t-237 -75t-91 -195q0 -119 91.5 -194t236.5 -75zM654 835q124 0 200 65.5t76 171.5q0 108 -76 174t-200 66t-200 -66t-76 -174q0 -106 76 -171.5t200 -65.5z" glyph-name="eight"/>
<glyph unicode="9" horiz-adv-x="1305" d="M622 -34q-187 0 -316.5 103.5t-163.5 278.5h200q29 -97 104 -152t178 -55q172 0 267.5 148.5t101.5 426.5h-8h-5h-3q-53 -104 -153.5 -162t-228.5 -58q-206 0 -340 136.5t-134 345.5q0 219 143.5 359.5t368.5 140.5q161 0 283 -81.5t191 -235.5q77 -171 77 -416 q0 -370 -147.5 -574.5t-414.5 -204.5zM634 664q139 0 228.5 89t89.5 226q0 139 -91 232.5t-226 93.5q-134 0 -225.5 -92.5t-91.5 -228.5q0 -141 88.5 -230.5t227.5 -89.5z" glyph-name="nine"/>
<glyph unicode=":" horiz-adv-x="608" d="M304 -13q-57 0 -96.5 40t-39.5 97q0 58 39.5 98t96.5 40q58 0 97.5 -40t39.5 -98q0 -57 -40 -97t-97 -40zM304 751q-57 0 -96.5 40t-39.5 97q0 58 39.5 97.5t96.5 39.5q58 0 97.5 -39.5t39.5 -97.5q0 -57 -39.5 -97t-97.5 -40z" glyph-name="colon"/>
<glyph unicode=";" horiz-adv-x="608" d="M269 -371h-162l94 580h214zM304 751q-57 0 -96.5 40t-39.5 97q0 58 39.5 97.5t96.5 39.5q58 0 97.5 -39.5t39.5 -97.5q0 -57 -39.5 -97t-97.5 -40z" glyph-name="semicolon"/>
<glyph unicode="&lt;" d="M1109 216v-205l-890 507v157l890 507v-205l-701 -373v-16z" glyph-name="less"/>
<glyph unicode="=" d="M1173 296h-1017v167h1017v-167zM1173 699h-1017v167h1017v-167z" glyph-name="equal"/>
<glyph unicode="&gt;" d="M219 216l701 372v16l-701 373v205l890 -507v-157l-890 -507v205z" glyph-name="greater"/>
<glyph unicode="?" horiz-adv-x="1050" d="M74 1061q8 174 122.5 283.5t320.5 109.5q190 0 310.5 -103.5t120.5 -262.5q0 -218 -210 -344q-95 -57 -129.5 -106t-34.5 -128v-63h-187l-1 86q-1 102 46 174t152 134q89 55 125 107.5t36 130.5q0 90 -65 148t-172 58q-109 0 -175 -60.5t-74 -163.5h-185zM493 -20 q-64 0 -104.5 40t-40.5 104t40.5 104.5t104.5 40.5t104 -40t40 -105q0 -64 -40 -104t-104 -40z" glyph-name="question"/>
<glyph unicode="@" horiz-adv-x="1880" d="M934 869q-97 0 -152 -71.5t-55 -199.5q0 -127 55 -199t150 -72q100 0 159 73.5t59 197.5t-58.5 197.5t-157.5 73.5zM968 1438q234 0 417 -93t284.5 -261.5t101.5 -383.5q0 -243 -102.5 -386.5t-275.5 -143.5q-88 0 -150 46t-73 120h-16q-32 -76 -96.5 -117t-152.5 -41 q-156 0 -251.5 117t-95.5 307q0 182 96.5 297.5t249.5 115.5q79 0 142 -38t92 -103h16v121h158v-577q0 -53 29 -82.5t82 -29.5q92 0 146.5 107t54.5 286q0 271 -185 439t-483 168q-193 0 -345.5 -90.5t-238 -252t-85.5 -365.5q0 -318 191 -507t511 -189q100 0 190 12.5 t136 33.5v-132q-138 -47 -330 -47q-387 0 -616 226t-229 608q0 245 104 435t292.5 295t431.5 105z" glyph-name="at"/>
<glyph unicode="A" horiz-adv-x="1380" d="M1111 0l-140 402h-564l-141 -402h-205l528 1443h203l527 -1443h-208zM681 1199l-220 -631h456l-220 631h-16z" glyph-name="A"/>
<glyph unicode="B" horiz-adv-x="1346" d="M753 0h-575v1443h563q200 0 315 -97t115 -263q0 -113 -73 -202.5t-178 -108.5v-16q147 -17 235 -112.5t88 -237.5q0 -191 -130 -298.5t-360 -107.5zM375 1272v-447h279q319 0 319 223q0 106 -72.5 165t-203.5 59h-322zM375 171h344q158 0 240 63t82 184q0 244 -338 244 h-328v-491z" glyph-name="B"/>
<glyph unicode="C" horiz-adv-x="1466" d="M764 -35q-296 0 -469 203.5t-173 552.5q0 350 172.5 553.5t468.5 203.5q232 0 396 -134t194 -347h-198q-35 137 -140 217.5t-252 80.5q-202 0 -320.5 -154.5t-118.5 -419.5q0 -264 118.5 -418.5t321.5 -154.5q148 0 253 72t138 196h198q-33 -204 -194 -327.5t-395 -123.5 z" glyph-name="C"/>
<glyph unicode="D" horiz-adv-x="1487" d="M180 1443h505q321 0 500.5 -189.5t179.5 -529.5q0 -343 -179 -533.5t-501 -190.5h-505v1443zM377 1265v-1087h291q236 0 366 142.5t130 400.5q0 257 -131 400.5t-365 143.5h-291z" glyph-name="D"/>
<glyph unicode="E" horiz-adv-x="1220" d="M1081 178v-178h-902v1443h902v-178h-705v-442h668v-173h-668v-472h705z" glyph-name="E"/>
<glyph unicode="F" horiz-adv-x="1172" d="M376 0h-197v1443h885v-178h-688v-476h631v-174h-631v-615z" glyph-name="F"/>
<glyph unicode="G" horiz-adv-x="1529" d="M1400 563q0 -271 -169 -434.5t-448 -163.5q-302 0 -480.5 205t-178.5 552q0 344 179.5 550t478.5 206q242 0 406 -127t202 -343h-199q-45 141 -149 214t-260 73q-209 0 -332.5 -155t-123.5 -417q0 -266 123.5 -420.5t335.5 -154.5q187 0 303 107.5t117 281.5v34h-393v169 h588v-177z" glyph-name="G"/>
<glyph unicode="H" horiz-adv-x="1520" d="M1343 0h-197v648h-772v-648h-197v1443h197v-617h772v617h197v-1443z" glyph-name="H"/>
<glyph unicode="I" horiz-adv-x="548" d="M373 0h-197v1443h197v-1443z" glyph-name="I"/>
<glyph unicode="J" horiz-adv-x="1102" d="M76 351h194q3 -90 65.5 -146.5t161.5 -56.5q113 0 173.5 67.5t60.5 195.5v1032h197v-1034q0 -209 -114 -326.5t-315 -117.5q-188 0 -305.5 106.5t-117.5 279.5z" glyph-name="J"/>
<glyph unicode="K" horiz-adv-x="1349" d="M373 0h-197v1443h197v-691h16l618 691h242l-570 -625l620 -818h-251l-506 680l-169 -187v-493z" glyph-name="K"/>
<glyph unicode="L" horiz-adv-x="1163" d="M1064 179v-179h-885v1443h197v-1264h688z" glyph-name="L"/>
<glyph unicode="M" horiz-adv-x="1790" d="M360 0h-183v1443h229l481 -1157h16l481 1157h230v-1443h-184v1080h-13l-442 -1058h-159l-443 1058h-13v-1080z" glyph-name="M"/>
<glyph unicode="N" horiz-adv-x="1520" d="M372 0h-193v1443h186l766 -1086h16v1086h194v-1443h-186l-766 1084h-17v-1084z" glyph-name="N"/>
<glyph unicode="O" horiz-adv-x="1579" d="M791 1478q308 0 486.5 -203.5t178.5 -552.5q0 -348 -178 -552.5t-487 -204.5q-311 0 -489 204t-178 553t179.5 552.5t487.5 203.5zM791 1295q-214 0 -339.5 -154.5t-125.5 -418.5t124 -419t341 -155q215 0 338.5 155.5t123.5 418.5q0 264 -123.5 418.5t-338.5 154.5z" glyph-name="O"/>
<glyph unicode="P" horiz-adv-x="1301" d="M178 1443h553q207 0 337 -131.5t130 -340.5q0 -206 -132 -336.5t-339 -130.5h-352v-504h-197v1443zM375 1269v-591h304q150 0 233.5 76.5t83.5 216.5q0 144 -82 221t-235 77h-304z" glyph-name="P"/>
<glyph unicode="Q" horiz-adv-x="1579" d="M1386 -159h-214l-124 168q-117 -44 -257 -44q-310 0 -488.5 202.5t-178.5 553.5q0 350 179.5 553.5t487.5 203.5q307 0 486 -204t179 -553q0 -211 -65.5 -372.5t-186.5 -250.5zM792 148q78 0 147 20l-187 256h214l122 -159q80 65 122.5 183t42.5 273q0 264 -124.5 419 t-337.5 155q-214 0 -339.5 -154.5t-125.5 -419.5t125.5 -419t340.5 -154z" glyph-name="Q"/>
<glyph unicode="R" horiz-adv-x="1338" d="M374 1269v-534h342q136 0 209.5 69.5t73.5 197.5q0 125 -77 196t-213 71h-335zM374 563v-563h-197v1443h558q213 0 340.5 -118.5t127.5 -316.5q0 -149 -76 -259.5t-210 -154.5l329 -594h-229l-303 563h-340z" glyph-name="R"/>
<glyph unicode="S" horiz-adv-x="1305" d="M109 381h198q16 -109 113.5 -173.5t247.5 -64.5q142 0 234.5 67.5t92.5 170.5q0 88 -68 145.5t-215 93.5l-186 47q-196 48 -286 142.5t-90 250.5q0 187 142.5 302.5t373.5 115.5q213 0 355.5 -113.5t153.5 -291.5h-196q-17 106 -102 167t-216 61q-140 0 -224.5 -63.5 t-84.5 -168.5q0 -82 63 -133t209 -87l154 -40q223 -54 321 -148.5t98 -255.5q0 -202 -147.5 -321t-398.5 -119q-233 0 -380.5 113.5t-161.5 302.5z" glyph-name="S"/>
<glyph unicode="T" horiz-adv-x="1298" d="M747 0h-197v1265h-460v178h1118v-178h-461v-1265z" glyph-name="T"/>
<glyph unicode="U" horiz-adv-x="1524" d="M381 1443v-932q0 -162 101.5 -262.5t279.5 -100.5t279 100t101 263v932h197v-947q0 -236 -156 -383.5t-421 -147.5q-266 0 -422 147.5t-156 383.5v947h197z" glyph-name="U"/>
<glyph unicode="V" horiz-adv-x="1380" d="M792 0h-204l-526 1443h211l410 -1193h16l410 1193h208z" glyph-name="V"/>
<glyph unicode="W" horiz-adv-x="1982" d="M985 1109l-324 -1109h-186l-391 1443h205l279 -1148h12l315 1148h192l315 -1148h13l278 1148h205l-391 -1443h-186l-324 1109h-12z" glyph-name="W"/>
<glyph unicode="X" horiz-adv-x="1390" d="M83 0l489 726l-484 717h237l368 -563h17l374 563h224l-497 -724l487 -719h-234l-369 556h-16l-375 -556h-221z" glyph-name="X"/>
<glyph unicode="Y" horiz-adv-x="1344" d="M771 0h-197v606l-511 837h222l379 -635h17l379 635h222l-511 -837v-606z" glyph-name="Y"/>
<glyph unicode="Z" horiz-adv-x="1355" d="M141 0v140l804 1109v16h-778v178h1030v-140l-801 -1109v-16h818v-178h-1073z" glyph-name="Z"/>
<glyph unicode="[" horiz-adv-x="757" d="M170 1444h469v-150h-285v-1385h297v-149h-481v1684z" glyph-name="bracketleft"/>
<glyph unicode="\" horiz-adv-x="712" d="M492 -319l-439 1762h169l437 -1762h-167z" glyph-name="backslash"/>
<glyph unicode="]" horiz-adv-x="757" d="M587 1444v-1684h-481v149h299v1385h-286v150h468z" glyph-name="bracketright"/>
<glyph unicode="^" horiz-adv-x="984" d="M484 1288l-215 -513h-176l299 666h200l299 -666h-176l-215 513h-16z" glyph-name="asciicircum"/>
<glyph unicode="_" horiz-adv-x="916" d="M927 -251h-938v144h938v-144z" glyph-name="underscore"/>
<glyph unicode="`" horiz-adv-x="1093" d="M788 1266h-204l-280 340h233z" glyph-name="grave"/>
<glyph unicode="a" horiz-adv-x="1130" d="M496 144q128 0 213 74t85 184v96l-281 -19q-118 -7 -173.5 -48.5t-55.5 -119.5t59 -122.5t153 -44.5zM455 -19q-159 0 -261.5 88.5t-102.5 234.5q0 145 103 227.5t295 93.5l305 19v96q0 96 -60 146t-176 50q-94 0 -156.5 -33.5t-80.5 -95.5h-187q17 134 135.5 214.5 t296.5 80.5q199 0 307.5 -95.5t108.5 -266.5v-740h-180v157h-17q-51 -85 -136.5 -130.5t-193.5 -45.5z" glyph-name="a"/>
<glyph unicode="b" horiz-adv-x="1258" d="M707 -19q-113 0 -204 50.5t-141 140.5h-17v-172h-180v1509h188v-598h17q43 88 134 139t203 51q206 0 328.5 -152t122.5 -408q0 -255 -123 -407.5t-328 -152.5zM658 931q-143 0 -225.5 -104.5t-82.5 -285.5t82.5 -285.5t225.5 -104.5t224 103.5t81 286.5t-81 286.5 t-224 103.5z" glyph-name="b"/>
<glyph unicode="c" horiz-adv-x="1146" d="M1060 742h-188q-21 85 -91 138t-179 53q-142 0 -224 -104.5t-82 -283.5q0 -183 82.5 -289.5t223.5 -106.5q106 0 176.5 47.5t93.5 137.5h188q-24 -159 -144.5 -256.5t-312.5 -97.5q-231 0 -366 152t-135 413q0 256 134.5 406.5t365.5 150.5q193 0 314 -101t144 -259z" glyph-name="c"/>
<glyph unicode="d" horiz-adv-x="1258" d="M553 -19q-207 0 -329.5 152t-122.5 408q0 255 123 407.5t329 152.5q113 0 202 -50.5t135 -139.5h15v598h189v-1509h-181v172h-16q-50 -90 -141 -140.5t-203 -50.5zM601 931q-143 0 -224 -104t-81 -286q0 -183 81 -286.5t224 -103.5t225.5 104.5t82.5 285.5q0 180 -83 285 t-225 105z" glyph-name="d"/>
<glyph unicode="e" horiz-adv-x="1170" d="M592 938q-125 0 -205.5 -83t-90.5 -221h577q-3 138 -79.5 221t-201.5 83zM870 285h185q-38 -143 -159.5 -224t-301.5 -81q-228 0 -360 150.5t-132 408.5t133 410.5t359 152.5q222 0 348.5 -145.5t126.5 -399.5v-69h-773v-10q7 -154 88 -244t215 -90q205 0 271 141z" glyph-name="e"/>
<glyph unicode="f" horiz-adv-x="741" d="M226 0v922h-180v158h180v106q0 163 82.5 238t247.5 75q52 0 112 -10v-155q-41 9 -96 9q-158 0 -158 -164v-99h245v-158h-244v-922h-189z" glyph-name="f"/>
<glyph unicode="g" horiz-adv-x="1248" d="M909 556q0 172 -83.5 273.5t-227.5 101.5t-223.5 -101t-79.5 -274t79.5 -274t223.5 -101q145 0 228 101.5t83 273.5zM605 -415q-197 0 -319 81.5t-141 218.5h197q14 -65 83 -102.5t180 -37.5q141 0 220.5 65t79.5 180v211h-16q-50 -89 -138 -137t-199 -48 q-208 0 -330 147.5t-122 392.5q0 246 122.5 395.5t329.5 149.5q113 0 205.5 -51.5t139.5 -139.5h16v172h181v-1097q0 -183 -132.5 -291.5t-356.5 -108.5z" glyph-name="g"/>
<glyph unicode="h" horiz-adv-x="1236" d="M163 0v1509h188v-599h16q41 90 130.5 140.5t211.5 50.5q184 0 284 -104.5t100 -296.5v-700h-189v654q0 277 -253 277q-138 0 -219 -80.5t-81 -213.5v-637h-188z" glyph-name="h"/>
<glyph unicode="i" horiz-adv-x="504" d="M157 0v1082h189v-1082h-189zM252 1291q-54 0 -90.5 36t-36.5 88t36.5 88t90.5 36q53 0 90 -36t37 -88t-37 -88t-90 -36z" glyph-name="i"/>
<glyph unicode="j" horiz-adv-x="504" d="M346 1082v-1155q0 -166 -82.5 -243.5t-255.5 -77.5h-37v160h27q89 0 124 36.5t35 123.5v1156h189zM252 1291q-54 0 -90.5 36t-36.5 88t36.5 88t90.5 36q53 0 90 -36t37 -88t-37 -88t-90 -36z" glyph-name="j"/>
<glyph unicode="k" horiz-adv-x="1112" d="M367 618l454 464h228l-458 -464l488 -618h-236l-393 496l-100 -94v-402h-188v1509h188v-891h17z" glyph-name="k"/>
<glyph unicode="l" horiz-adv-x="516" d="M164 0v1509h188v-1509h-188z" glyph-name="l"/>
<glyph unicode="m" horiz-adv-x="1782" d="M152 0v1082h180v-172h17q36 92 114.5 142t186.5 50q107 0 184 -51.5t115 -140.5h16q43 88 131.5 140t199.5 52q165 0 255 -92.5t90 -262.5v-747h-189v701q0 230 -221 230q-108 0 -175 -69t-67 -172v-690h-187v726q0 94 -59.5 149.5t-159.5 55.5q-103 0 -173 -76.5 t-70 -187.5v-667h-188z" glyph-name="m"/>
<glyph unicode="n" horiz-adv-x="1215" d="M153 0v1082h180v-171h17q40 90 130 140.5t213 50.5q182 0 280 -104t98 -297v-701h-188v654q0 140 -61.5 208.5t-186.5 68.5q-137 0 -215.5 -78t-78.5 -215v-638h-188z" glyph-name="n"/>
<glyph unicode="o" horiz-adv-x="1210" d="M605 149q147 0 228 103t81 289q0 187 -80.5 289.5t-228.5 102.5t-228 -102.5t-80 -289.5t80.5 -289.5t227.5 -102.5zM605 -20q-233 0 -368 150t-135 411t134.5 411t368.5 150t369 -150t135 -411t-135 -411t-369 -150z" glyph-name="o"/>
<glyph unicode="p" horiz-adv-x="1248" d="M695 1101q207 0 330 -152t123 -408q0 -255 -123 -407.5t-329 -152.5q-115 0 -203.5 48t-132.5 134h-17v-520h-188v1439h180v-180h17q50 93 141.5 146t201.5 53zM646 151q145 0 226 103.5t81 286.5t-81.5 286.5t-224.5 103.5q-142 0 -225 -105t-83 -285t83 -285t224 -105z " glyph-name="p"/>
<glyph unicode="q" horiz-adv-x="1248" d="M552 1101q110 0 203 -54t140 -145h17v180h182v-1439h-191v520h-16q-105 -182 -336 -182q-206 0 -328 151.5t-122 408.5q0 255 123 407.5t328 152.5zM599 151q143 0 226 104.5t83 285.5q0 180 -83 285t-225 105q-143 0 -223.5 -103.5t-80.5 -286.5q0 -184 80 -287 t223 -103z" glyph-name="q"/>
<glyph unicode="r" horiz-adv-x="765" d="M152 0v1082h180v-163h17q23 80 106.5 131t189.5 51q51 0 89 -7v-187q-33 11 -113 11q-123 0 -202 -72.5t-79 -186.5v-659h-188z" glyph-name="r"/>
<glyph unicode="s" horiz-adv-x="1072" d="M129 782q0 138 116.5 229t293.5 91q175 0 285.5 -79t127.5 -216h-183q-17 64 -77.5 101t-153.5 37q-95 0 -158 -43t-63 -111q0 -53 44 -87.5t137 -56.5l172 -41q155 -37 228.5 -107t73.5 -187q0 -146 -124.5 -239t-314.5 -93q-185 0 -302 81t-131 219h192q22 -68 85 -106 t162 -38q105 0 173 45t68 115q0 105 -167 145l-187 45q-154 37 -225.5 107.5t-71.5 188.5z" glyph-name="s"/>
<glyph unicode="t" horiz-adv-x="744" d="M226 1349h189v-269h248v-158h-248v-591q0 -92 37.5 -133t120.5 -41q36 0 79 4v-158q-58 -10 -106 -10q-171 0 -245.5 67.5t-74.5 222.5v639h-180v158h180v269z" glyph-name="t"/>
<glyph unicode="u" horiz-adv-x="1216" d="M1063 1082v-1082h-180v170h-17q-40 -91 -129.5 -140.5t-213.5 -49.5q-181 0 -280.5 105t-99.5 297v700h188v-654q0 -140 61.5 -207.5t187.5 -67.5q137 0 215.5 77.5t78.5 213.5v638h189z" glyph-name="u"/>
<glyph unicode="v" horiz-adv-x="1110" d="M60 1082h202l285 -877h17l285 877h201l-396 -1082h-198z" glyph-name="v"/>
<glyph unicode="w" horiz-adv-x="1586" d="M1530 1082l-301 -1082h-194l-235 822h-16l-234 -822h-192l-301 1082h191l205 -850h16l235 850h181l234 -850h16l206 850h189z" glyph-name="w"/>
<glyph unicode="x" horiz-adv-x="1076" d="M543 399h-16l-249 -399h-211l366 540l-369 542h223l247 -394h17l244 394h213l-364 -534l368 -548h-220z" glyph-name="x"/>
<glyph unicode="y" horiz-adv-x="1112" d="M250 -393q-47 0 -82 6v161q25 -5 71 -5q76 0 121.5 38.5t76.5 130.5l19 60l-398 1084h205l287 -878h17l286 878h200l-415 -1140q-69 -192 -152 -263.5t-236 -71.5z" glyph-name="y"/>
<glyph unicode="z" horiz-adv-x="1104" d="M131 0v133l613 774v17h-611v158h836v-139l-606 -768v-17h610v-158h-842z" glyph-name="z"/>
<glyph unicode="{" horiz-adv-x="824" d="M292 605q90 -8 136.5 -70t46.5 -173v-322q0 -119 53.5 -170t177.5 -51h45v-154h-66q-200 0 -295 87.5t-95 271.5v277q0 118 -39 164t-138 46v205q99 0 138 46.5t39 165.5v244q0 179 95 264t295 85h66v-154h-45q-125 0 -178 -50.5t-53 -170.5v-287q0 -218 -183 -238v-16z " glyph-name="braceleft"/>
<glyph unicode="|" horiz-adv-x="676" d="M420 -320h-164v1763h164v-1763z" glyph-name="bar"/>
<glyph unicode="}" horiz-adv-x="824" d="M533 605v16q-183 19 -183 238v287q0 120 -53.5 170.5t-178.5 50.5h-45v154h67q199 0 294.5 -85t95.5 -264v-244q0 -119 38.5 -165.5t137.5 -46.5v-205q-99 0 -137.5 -46t-38.5 -164v-277q0 -184 -95.5 -271.5t-294.5 -87.5h-67v154h45q125 0 178.5 51t53.5 170v322 q0 226 183 243z" glyph-name="braceright"/>
<glyph unicode="~" horiz-adv-x="1202" d="M556 634q-53 54 -88 75.5t-69 21.5q-127 0 -138 -178h-169v6q-1 163 81.5 257.5t225.5 94.5q64 0 123 -30t125 -96q52 -53 87 -75t68 -22q128 0 139 179h168v-6q1 -164 -81 -258t-225 -94q-64 0 -122.5 29.5t-124.5 95.5z" glyph-name="asciitilde"/>
<glyph unicode=" " horiz-adv-x="578" glyph-name="nonbreakingspace"/>
<glyph unicode="¡" horiz-adv-x="637" d="M210 -339l18 965h181l18 -965h-217zM174 981q0 64 40.5 104t104.5 40t104.5 -40t40.5 -104q0 -65 -40 -105t-105 -40q-64 0 -104.5 40.5t-40.5 104.5z" glyph-name="exclamdown"/>
<glyph unicode="¢" d="M1173 511q-21 -143 -129 -235.5t-272 -112.5v-171h-182v173q-196 31 -315.5 180t-119.5 376q0 224 120 371t315 178v174h182v-172q160 -22 270 -117t131 -236h-188q-29 89 -108 139.5t-191 50.5q-145 0 -241 -106.5t-96 -281.5q0 -178 96.5 -286.5t240.5 -108.5 q122 0 199 48t100 137h188z" glyph-name="cent"/>
<glyph unicode="£" d="M1194 171v-171h-1070v166q133 29 220 126.5t87 218.5q0 70 -21 139h-286v155h234q-20 52 -31 85t-21 81.5t-10 93.5q0 194 139 303.5t384 109.5q163 0 304 -42v-173q-137 42 -290 42q-158 0 -247 -65.5t-89 -180.5q0 -108 56 -254h465v-155h-414q19 -71 19 -132 q1 -99 -50 -188t-140 -143v-16h761z" glyph-name="sterling"/>
<glyph unicode="¤" d="M405 655q0 -107 76.5 -183t183.5 -76t183.5 76t76.5 183t-76.5 183t-183.5 76t-183.5 -76t-76.5 -183zM1164 1039l-165 -165q65 -100 65 -219q0 -120 -65 -220l165 -166l-115 -117l-165 167q-99 -66 -219 -66q-119 0 -220 67l-166 -168l-114 117l166 167q-65 100 -65 219 q0 120 65 218l-166 166l114 117l166 -166q99 66 220 66q120 0 219 -66l165 166z" glyph-name="currency"/>
<glyph unicode="¥" d="M1039 259h-276v-259h-197v259h-277v141h277v161h-277v141h219l-453 741h222l379 -635h16l379 635h222l-453 -741h219v-141h-276v-161h276v-141z" glyph-name="yen"/>
<glyph unicode="¦" horiz-adv-x="676" d="M420 774h-164v669h164v-669zM420 -320h-164v669h164v-669z" glyph-name="brokenbar"/>
<glyph unicode="§" horiz-adv-x="1032" d="M453 409l86 -21q88 1 147.5 53.5t59.5 128.5q0 60 -42.5 102t-123.5 60l-86 22q-86 -1 -147 -55t-61 -128q0 -59 43.5 -101.5t123.5 -60.5zM520 -262q-174 0 -288.5 84.5t-124.5 220.5h187q10 -67 74.5 -107.5t159.5 -40.5q99 0 160.5 42.5t61.5 110.5q0 54 -45.5 90.5 t-145.5 63.5l-146 41q-164 46 -239.5 115.5t-75.5 175.5q0 95 58.5 164t163.5 98v17q-217 86 -217 273q0 142 112 229.5t294 87.5q169 0 278 -80t125 -216h-184q-10 64 -70.5 101.5t-152.5 37.5q-97 0 -156.5 -42t-59.5 -110q0 -54 44.5 -90.5t143.5 -64.5l145 -41 q162 -45 237 -113.5t75 -169.5q0 -102 -69.5 -180.5t-181.5 -101.5v-16q250 -63 250 -259q0 -141 -115.5 -230.5t-297.5 -89.5z" glyph-name="section"/>
<glyph unicode="¨" horiz-adv-x="1092" d="M339 1264q-53 0 -89 36.5t-36 89.5t36.5 89.5t88.5 36.5q53 0 89.5 -36.5t36.5 -89.5t-36.5 -89.5t-89.5 -36.5zM752 1264q-53 0 -89 36.5t-36 89.5t36.5 89.5t88.5 36.5q53 0 89.5 -36.5t36.5 -89.5t-36.5 -89.5t-89.5 -36.5z" glyph-name="dieresis"/>
<glyph unicode="©" horiz-adv-x="1742" d="M871 -163q-220 0 -402 104.5t-286 286.5t-104 402q0 221 104 403t285.5 286t402.5 104q166 0 313 -61t252 -166t166 -252.5t61 -313.5q0 -165 -61 -312.5t-166.5 -252.5t-252.5 -166.5t-312 -61.5zM871 -19q181 0 329.5 85t233.5 234t85 330t-84.5 330t-233.5 234 t-330 85t-329.5 -85t-233.5 -234t-85 -330q0 -180 85 -329t234 -234.5t329 -85.5zM1247 767h-145q-17 69 -75.5 110t-138.5 41q-112 0 -177.5 -77t-65.5 -209q0 -133 65.5 -211t177.5 -78q85 0 141 38t73 108h145q-18 -127 -115 -201.5t-243 -74.5q-181 0 -287.5 113 t-106.5 306q0 191 106.5 303.5t286.5 112.5q143 0 241.5 -77t117.5 -204z" glyph-name="copyright"/>
<glyph unicode="ª" horiz-adv-x="942" d="M439 659q99 0 165 59t66 147v92l-219 -16q-184 -12 -184 -141q0 -64 47 -102.5t125 -38.5zM384 512q-134 0 -216.5 77t-82.5 203q0 124 88.5 195t254.5 81l239 15v79q0 71 -50 110t-141 39q-73 0 -121 -28.5t-58 -77.5h-177q11 118 109 188t253 70q170 0 265.5 -81.5 t95.5 -225.5v-620h-169v118h-16q-40 -68 -111.5 -105t-162.5 -37z" glyph-name="ordfeminine"/>
<glyph unicode="«" horiz-adv-x="1391" d="M868 573v-15l351 -412h-215l-349 415v8l350 415h214zM385 573v-15l350 -412h-214l-349 415v8l350 415h213z" glyph-name="guillemotleft"/>
<glyph unicode="¬" d="M1145 664v-549h-163v383h-799v166h962z" glyph-name="logicalnot"/>
<glyph unicode="®" horiz-adv-x="1260" d="M630 418q-218 0 -370.5 152.5t-152.5 370.5q0 219 152.5 371.5t370.5 152.5q144 0 264 -69.5t189.5 -190t69.5 -264.5q0 -143 -69.5 -263.5t-189.5 -190t-264 -69.5zM630 527q174 0 294.5 120.5t120.5 293.5q0 174 -120.5 294.5t-294.5 120.5q-173 0 -294 -120.5 t-121 -294.5q0 -173 121 -293.5t294 -120.5zM530 704h-102v497h250q76 0 125.5 -43.5t49.5 -110.5q0 -121 -115 -149l137 -194h-124l-127 180h-94v-180zM530 1109v-139h120q47 0 68.5 17.5t21.5 54.5q0 67 -87 67h-123z" glyph-name="registered"/>
<glyph unicode="¯" horiz-adv-x="1048" d="M865 1291h-682v143h682v-143z" glyph-name="macron"/>
<glyph unicode="°" horiz-adv-x="901" d="M450 804q-140 0 -233 95.5t-93 232.5q0 138 93 233t233 95t233.5 -95t93.5 -233q0 -137 -93.5 -232.5t-233.5 -95.5zM450 940q86 0 140.5 56t54.5 136q0 81 -54.5 136.5t-140.5 55.5t-139.5 -55.5t-53.5 -136.5q0 -80 53.5 -136t139.5 -56z" glyph-name="degree"/>
<glyph unicode="±" d="M1171 105h-1015v161h1015v-161zM745 660v-282h-162v282h-427v150h427v282h162v-282h427v-150h-427z" glyph-name="plusminus"/>
<glyph unicode="²" horiz-adv-x="825" d="M81 1537q0 129 90 210.5t232 81.5q139 0 227 -74t88 -190q0 -74 -44 -145t-164 -185l-175 -172v-16h396v-148h-641v123l298 298q93 91 124.5 138.5t31.5 94.5q0 58 -41.5 95.5t-105.5 37.5q-68 0 -109.5 -41t-41.5 -108v-2h-165v2z" glyph-name="two.sups"/>
<glyph unicode="³" horiz-adv-x="853" d="M303 1296v131h110q67 0 108 36t41 95q0 58 -40.5 92t-109.5 34q-67 0 -109.5 -36t-46.5 -97h-164q4 127 92 201.5t233 74.5q137 0 226 -69t89 -175q0 -77 -46 -133.5t-122 -72.5v-16q93 -8 148.5 -66.5t55.5 -148.5q0 -118 -99 -195t-251 -77q-150 0 -244.5 76.5 t-98.5 202.5h169q5 -60 52 -96t123 -36q74 0 121.5 38.5t47.5 98.5q0 64 -46.5 101t-126.5 37h-112z" glyph-name="three.sups"/>
<glyph unicode="´" horiz-adv-x="1093" d="M282 1266l252 340h232l-279 -340h-205z" glyph-name="acute"/>
<glyph unicode="¶" horiz-adv-x="1321" d="M834 -226h-194v779h-20q-205 0 -343 125.5t-138 313.5q0 195 138.5 323t343.5 128h213v-1669zM984 -226v1669h194v-1669h-194z" glyph-name="paragraph"/>
<glyph unicode="·" horiz-adv-x="630" d="M315 590q-65 0 -106 41.5t-41 106.5t41 106.5t106 41.5t105.5 -41.5t40.5 -106.5t-40.5 -106.5t-105.5 -41.5z" glyph-name="periodcentered"/>
<glyph unicode="¸" horiz-adv-x="1093" d="M395 -244v90l62 155h140l-54 -138q100 -1 156 -44.5t56 -120.5q0 -87 -66 -139.5t-181 -52.5q-86 0 -146 18v112q46 -14 121 -14q118 0 118 71q0 34 -34 48.5t-112 14.5h-60z" glyph-name="cedilla"/>
<glyph unicode="¹" horiz-adv-x="664" d="M479 899h-172v732h-16q-13 -8 -115 -80.5t-105 -75.5v166q75 57 236 165h172v-907z" glyph-name="one.sups"/>
<glyph unicode="º" horiz-adv-x="1024" d="M512 667q115 0 178.5 84t63.5 236q0 154 -63 237.5t-179 83.5q-115 0 -178 -84t-63 -237t63 -236.5t178 -83.5zM512 512q-200 0 -314.5 127t-114.5 348t115 348.5t314 127.5t314 -127.5t115 -348.5t-114.5 -348t-314.5 -127z" glyph-name="ordmasculine"/>
<glyph unicode="»" horiz-adv-x="1391" d="M522 573l-350 411h213l351 -415v-8l-349 -415h-215l350 412v15zM1006 573l-350 411h213l350 -415v-8l-349 -415h-214l350 412v15z" glyph-name="guillemotright"/>
<glyph unicode="¼" horiz-adv-x="1944" d="M1508 907h250v-598h119v-143h-121v-166h-167v164h-456v153q46 87 122.5 206.5t252.5 383.5zM1294 312v-7h297v463h-7q-203 -302 -290 -456zM458 536h-172v732h-16q-13 -8 -115 -80.5t-105 -75.5v166q75 57 236 165h172v-907zM486 0l344 757l302 686h182l-329 -724 l-317 -719h-182z" glyph-name="onequarter"/>
<glyph unicode="½" horiz-adv-x="1949" d="M1219 638q0 129 90 210.5t232 81.5q139 0 227 -74t88 -190q0 -74 -44 -145t-164 -185l-175 -172v-16h396v-148h-641v123l298 298q93 91 124.5 138.5t31.5 94.5q0 58 -41.5 95.5t-105.5 37.5q-68 0 -109.5 -41t-41.5 -108v-2h-165v2zM458 536h-172v732h-16 q-13 -8 -115 -80.5t-105 -75.5v166q75 57 236 165h172v-907zM486 0l344 757l302 686h182l-329 -724l-317 -719h-182z" glyph-name="onehalf"/>
<glyph unicode="¾" horiz-adv-x="2134" d="M284 933v131h110q67 0 108 36t41 95q0 58 -40.5 92t-109.5 34q-67 0 -109.5 -36t-46.5 -97h-164q4 127 92 201.5t233 74.5q137 0 226 -69t89 -175q0 -77 -46 -133.5t-122 -72.5v-16q93 -8 148.5 -66.5t55.5 -148.5q0 -118 -99 -195t-251 -77q-150 0 -244.5 76.5 t-98.5 202.5h169q5 -60 52 -96t123 -36q74 0 121.5 38.5t47.5 98.5q0 64 -46.5 101t-126.5 37h-112zM1695 907h250v-598h119v-143h-121v-166h-167v164h-456v153q46 87 122.5 206.5t252.5 383.5zM1481 312v-7h297v463h-7q-203 -302 -290 -456zM674 0l344 757l302 686h182 l-329 -724l-317 -719h-182z" glyph-name="threequarters"/>
<glyph unicode="¿" horiz-adv-x="1050" d="M977 43q-7 -174 -122 -284t-320 -110q-192 0 -312 104t-120 264q0 215 210 342q95 57 129 106.5t34 127.5v63h187l1 -86q2 -101 -45 -173t-152 -135q-89 -55 -125.5 -107.5t-36.5 -128.5q0 -91 65.5 -149t173.5 -58t174 60t74 164h185zM558 835q-64 0 -104.5 40 t-40.5 104q0 63 40.5 104t104.5 41t104 -41t40 -104q0 -64 -40 -104t-104 -40z" glyph-name="questiondown"/>
<glyph unicode="À" horiz-adv-x="1380" d="M1103 0l-140 402h-564l-141 -402h-205l528 1443h203l527 -1443h-208zM673 1199l-220 -631h456l-220 631h-16zM490 1879l305 -301h-214l-329 301h238z" glyph-name="Agrave"/>
<glyph unicode="Á" horiz-adv-x="1380" d="M1103 0l-140 402h-564l-141 -402h-205l528 1443h203l527 -1443h-208zM673 1199l-220 -631h456l-220 631h-16zM579 1578l305 301h239l-330 -301h-214z" glyph-name="Aacute"/>
<glyph unicode="Â" horiz-adv-x="1380" d="M1103 0l-140 402h-564l-141 -402h-205l528 1443h203l527 -1443h-208zM673 1199l-220 -631h456l-220 631h-16zM780 1882l297 -304h-210l-169 178h-16l-169 -178h-210l297 304h180z" glyph-name="Acircumflex"/>
<glyph unicode="Ã" horiz-adv-x="1380" d="M1103 0l-140 402h-564l-141 -402h-205l528 1443h203l527 -1443h-208zM673 1199l-220 -631h456l-220 631h-16zM841 1575q-45 0 -82.5 17t-63 40.5t-48 47.5t-48.5 41t-54 17q-44 0 -67 -34t-25 -113h-143q0 135 62 210.5t167 75.5q48 0 88 -17t66.5 -40.5t49.5 -47.5 t46 -41t46 -17q87 0 93 146h142q0 -130 -62.5 -207.5t-166.5 -77.5z" glyph-name="Atilde"/>
<glyph unicode="Ä" horiz-adv-x="1380" d="M1103 0l-140 402h-564l-141 -402h-205l528 1443h203l527 -1443h-208zM673 1199l-220 -631h456l-220 631h-16zM477 1576q-53 0 -89 36.5t-36 89.5t36.5 89.5t88.5 36.5q53 0 89.5 -36.5t36.5 -89.5t-36.5 -89.5t-89.5 -36.5zM890 1576q-53 0 -89 36.5t-36 89.5t36.5 89.5 t88.5 36.5q53 0 89.5 -36.5t36.5 -89.5t-36.5 -89.5t-89.5 -36.5z" glyph-name="Adieresis"/>
<glyph unicode="Å" horiz-adv-x="1380" d="M1103 0l-140 402h-564l-141 -402h-205l528 1443h203l527 -1443h-208zM673 1199l-220 -631h456l-220 631h-16zM690 1572q-97 0 -165.5 66.5t-68.5 164.5q0 97 68.5 163.5t165.5 66.5q98 0 166 -66.5t68 -163.5q0 -98 -68 -164.5t-166 -66.5zM690 1683q52 0 86 34t34 85 q0 52 -34 86t-86 34q-51 0 -85 -34t-34 -86q0 -51 34 -85t85 -34z" glyph-name="Aring"/>
<glyph unicode="Æ" horiz-adv-x="1966" d="M980 1277h-145l-301 -667h446v667zM980 0v443h-519l-201 -443h-198l644 1443h1124v-178h-657v-451h620v-173h-620v-463h657v-178h-850z" glyph-name="AE"/>
<glyph unicode="Ç" horiz-adv-x="1466" d="M1349 997h-198q-35 137 -140 217.5t-252 80.5q-202 0 -320.5 -154.5t-118.5 -419.5q0 -264 118.5 -418.5t321.5 -154.5q148 0 253 72t138 196h198q-30 -186 -168.5 -306.5t-344.5 -140.5l-41 -106q100 -1 156 -44.5t56 -120.5q0 -87 -66 -139.5t-181 -52.5q-86 0 -146 18 v112q46 -14 121 -14q118 0 118 71q0 34 -34 48.5t-112 14.5h-60v90l49 122q-269 23 -423.5 223.5t-154.5 529.5q0 350 172.5 553.5t468.5 203.5q232 0 396 -134t194 -347z" glyph-name="Ccedilla"/>
<glyph unicode="È" horiz-adv-x="1220" d="M430 1879l305 -301h-214l-329 301h238zM1077 178v-178h-902v1443h902v-178h-705v-442h668v-173h-668v-472h705z" glyph-name="Egrave"/>
<glyph unicode="É" horiz-adv-x="1220" d="M519 1578l305 301h239l-330 -301h-214zM1077 178v-178h-902v1443h902v-178h-705v-442h668v-173h-668v-472h705z" glyph-name="Eacute"/>
<glyph unicode="Ê" horiz-adv-x="1220" d="M720 1882l297 -304h-210l-169 178h-16l-169 -178h-210l297 304h180zM1077 178v-178h-902v1443h902v-178h-705v-442h668v-173h-668v-472h705z" glyph-name="Ecircumflex"/>
<glyph unicode="Ë" horiz-adv-x="1220" d="M417 1576q-53 0 -89 36.5t-36 89.5t36.5 89.5t88.5 36.5q53 0 89.5 -36.5t36.5 -89.5t-36.5 -89.5t-89.5 -36.5zM830 1576q-53 0 -89 36.5t-36 89.5t36.5 89.5t88.5 36.5q53 0 89.5 -36.5t36.5 -89.5t-36.5 -89.5t-89.5 -36.5zM1077 178v-178h-902v1443h902v-178h-705 v-442h668v-173h-668v-472h705z" glyph-name="Edieresis"/>
<glyph unicode="Ì" horiz-adv-x="548" d="M366 0h-197v1443h197v-1443zM74 1879l305 -301h-214l-329 301h238z" glyph-name="Igrave"/>
<glyph unicode="Í" horiz-adv-x="548" d="M366 0h-197v1443h197v-1443zM163 1578l305 301h239l-330 -301h-214z" glyph-name="Iacute"/>
<glyph unicode="Î" horiz-adv-x="548" d="M366 0h-197v1443h197v-1443zM364 1882l297 -304h-210l-169 178h-16l-169 -178h-210l297 304h180z" glyph-name="Icircumflex"/>
<glyph unicode="Ï" horiz-adv-x="548" d="M366 0h-197v1443h197v-1443zM61 1576q-53 0 -89 36.5t-36 89.5t36.5 89.5t88.5 36.5q53 0 89.5 -36.5t36.5 -89.5t-36.5 -89.5t-89.5 -36.5zM474 1576q-53 0 -89 36.5t-36 89.5t36.5 89.5t88.5 36.5q53 0 89.5 -36.5t36.5 -89.5t-36.5 -89.5t-89.5 -36.5z" glyph-name="Idieresis"/>
<glyph unicode="Ð" horiz-adv-x="1452" d="M374 178h291q236 0 366 142.5t130 400.5q0 257 -131 400.5t-365 143.5h-291v-436h233v-173h-233v-478zM177 1443h505q321 0 500.5 -189.5t179.5 -529.5q0 -343 -179 -533.5t-501 -190.5h-505v656h-166v173h166v614z" glyph-name="Eth"/>
<glyph unicode="Ñ" horiz-adv-x="1520" d="M910 1575q-45 0 -82.5 17t-63 40.5t-48 47.5t-48.5 41t-54 17q-44 0 -67 -34t-25 -113h-143q0 135 62 210.5t167 75.5q48 0 88 -17t66.5 -40.5t49.5 -47.5t46 -41t46 -17q87 0 93 146h142q0 -130 -62.5 -207.5t-166.5 -77.5zM368 0h-193v1443h186l766 -1086h16v1086h194 v-1443h-186l-766 1084h-17v-1084z" glyph-name="Ntilde"/>
<glyph unicode="Ò" horiz-adv-x="1579" d="M591 1879l305 -301h-214l-329 301h238zM789 1478q308 0 486.5 -203.5t178.5 -552.5q0 -348 -178 -552.5t-487 -204.5q-311 0 -489 204t-178 553t179.5 552.5t487.5 203.5zM789 1295q-214 0 -339.5 -154.5t-125.5 -418.5t124 -419t341 -155q215 0 338.5 155.5t123.5 418.5 q0 264 -123.5 418.5t-338.5 154.5z" glyph-name="Ograve"/>
<glyph unicode="Ó" horiz-adv-x="1579" d="M680 1578l305 301h239l-330 -301h-214zM789 1478q308 0 486.5 -203.5t178.5 -552.5q0 -348 -178 -552.5t-487 -204.5q-311 0 -489 204t-178 553t179.5 552.5t487.5 203.5zM789 1295q-214 0 -339.5 -154.5t-125.5 -418.5t124 -419t341 -155q215 0 338.5 155.5t123.5 418.5 q0 264 -123.5 418.5t-338.5 154.5z" glyph-name="Oacute"/>
<glyph unicode="Ô" horiz-adv-x="1579" d="M881 1882l297 -304h-210l-169 178h-16l-169 -178h-210l297 304h180zM789 1478q308 0 486.5 -203.5t178.5 -552.5q0 -348 -178 -552.5t-487 -204.5q-311 0 -489 204t-178 553t179.5 552.5t487.5 203.5zM789 1295q-214 0 -339.5 -154.5t-125.5 -418.5t124 -419t341 -155 q215 0 338.5 155.5t123.5 418.5q0 264 -123.5 418.5t-338.5 154.5z" glyph-name="Ocircumflex"/>
<glyph unicode="Õ" horiz-adv-x="1579" d="M789 1478q308 0 486.5 -203.5t178.5 -552.5q0 -348 -178 -552.5t-487 -204.5q-311 0 -489 204t-178 553t179.5 552.5t487.5 203.5zM789 1295q-214 0 -339.5 -154.5t-125.5 -418.5t124 -419t341 -155q215 0 338.5 155.5t123.5 418.5q0 264 -123.5 418.5t-338.5 154.5z M942 1575q-45 0 -82.5 17t-63 40.5t-48 47.5t-48.5 41t-54 17q-44 0 -67 -34t-25 -113h-143q0 135 62 210.5t167 75.5q48 0 88 -17t66.5 -40.5t49.5 -47.5t46 -41t46 -17q87 0 93 146h142q0 -130 -62.5 -207.5t-166.5 -77.5z" glyph-name="Otilde"/>
<glyph unicode="Ö" horiz-adv-x="1579" d="M578 1576q-53 0 -89 36.5t-36 89.5t36.5 89.5t88.5 36.5q53 0 89.5 -36.5t36.5 -89.5t-36.5 -89.5t-89.5 -36.5zM991 1576q-53 0 -89 36.5t-36 89.5t36.5 89.5t88.5 36.5q53 0 89.5 -36.5t36.5 -89.5t-36.5 -89.5t-89.5 -36.5zM789 1478q308 0 486.5 -203.5t178.5 -552.5 q0 -348 -178 -552.5t-487 -204.5q-311 0 -489 204t-178 553t179.5 552.5t487.5 203.5zM789 1295q-214 0 -339.5 -154.5t-125.5 -418.5t124 -419t341 -155q215 0 338.5 155.5t123.5 418.5q0 264 -123.5 418.5t-338.5 154.5z" glyph-name="Odieresis"/>
<glyph unicode="×" d="M664 463l-307 -306l-114 116l306 308l-306 307l114 117l307 -307l308 307l114 -117l-307 -307l307 -308l-114 -116z" glyph-name="multiply"/>
<glyph unicode="Ø" horiz-adv-x="1551" d="M1144 1117l-649 -864q117 -105 293 -105q215 0 338.5 155.5t123.5 418.5q0 244 -106 395zM414 351l646 855q-112 89 -272 89q-214 0 -339.5 -154.5t-125.5 -418.5q0 -223 91 -371zM1374 1424l-106 -142q185 -204 185 -560q0 -348 -178 -552.5t-487 -204.5 q-244 0 -411 130l-110 -146l-100 75l120 159q-166 203 -166 539q0 349 179.5 552.5t487.5 203.5q228 0 390 -116l97 129z" glyph-name="Oslash"/>
<glyph unicode="Ù" horiz-adv-x="1524" d="M562 1879l305 -301h-214l-329 301h238zM378 1443v-932q0 -162 101.5 -262.5t279.5 -100.5t279 100t101 263v932h197v-947q0 -236 -156 -383.5t-421 -147.5q-266 0 -422 147.5t-156 383.5v947h197z" glyph-name="Ugrave"/>
<glyph unicode="Ú" horiz-adv-x="1524" d="M651 1578l305 301h239l-330 -301h-214zM378 1443v-932q0 -162 101.5 -262.5t279.5 -100.5t279 100t101 263v932h197v-947q0 -236 -156 -383.5t-421 -147.5q-266 0 -422 147.5t-156 383.5v947h197z" glyph-name="Uacute"/>
<glyph unicode="Û" horiz-adv-x="1524" d="M852 1882l297 -304h-210l-169 178h-16l-169 -178h-210l297 304h180zM378 1443v-932q0 -162 101.5 -262.5t279.5 -100.5t279 100t101 263v932h197v-947q0 -236 -156 -383.5t-421 -147.5q-266 0 -422 147.5t-156 383.5v947h197z" glyph-name="Ucircumflex"/>
<glyph unicode="Ü" horiz-adv-x="1524" d="M549 1576q-53 0 -89 36.5t-36 89.5t36.5 89.5t88.5 36.5q53 0 89.5 -36.5t36.5 -89.5t-36.5 -89.5t-89.5 -36.5zM962 1576q-53 0 -89 36.5t-36 89.5t36.5 89.5t88.5 36.5q53 0 89.5 -36.5t36.5 -89.5t-36.5 -89.5t-89.5 -36.5zM378 1443v-932q0 -162 101.5 -262.5 t279.5 -100.5t279 100t101 263v932h197v-947q0 -236 -156 -383.5t-421 -147.5q-266 0 -422 147.5t-156 383.5v947h197z" glyph-name="Udieresis"/>
<glyph unicode="Ý" horiz-adv-x="1344" d="M763 0h-197v606l-511 837h222l379 -635h17l379 635h222l-511 -837v-606zM561 1578l305 301h239l-330 -301h-214z" glyph-name="Yacute"/>
<glyph unicode="Þ" horiz-adv-x="1280" d="M176 1443h197v-260h364q178 0 303.5 -115t125.5 -308t-127 -308.5t-306 -115.5h-360v-336h-197v1443zM373 1008v-498h308q128 0 205.5 64t77.5 186q0 121 -77 184.5t-205 63.5h-309z" glyph-name="Thorn"/>
<glyph unicode="ß" horiz-adv-x="1274" d="M399 0h-188v1097q0 183 118.5 290t312.5 107q188 0 307 -105t119 -271q0 -120 -64.5 -211t-163.5 -121v-18q155 -15 245.5 -108.5t90.5 -253.5q0 -182 -127 -301t-332 -119q-88 0 -149 13v168q58 -15 131 -15q136 0 212.5 71t76.5 188q0 120 -87 188.5t-244 68.5h-63v182 h51q110 0 174 66t64 186q0 97 -64.5 161t-173.5 64q-115 0 -180.5 -67t-65.5 -187v-1073z" glyph-name="germandbls"/>
<glyph unicode="à" horiz-adv-x="1130" d="M491 144q128 0 213 74t85 184v96l-281 -19q-118 -7 -173.5 -48.5t-55.5 -119.5t59 -122.5t153 -44.5zM450 -19q-159 0 -261.5 88.5t-102.5 234.5q0 145 103 227.5t295 93.5l305 19v96q0 96 -60 146t-176 50q-94 0 -156.5 -33.5t-80.5 -95.5h-187q17 134 135.5 214.5 t296.5 80.5q199 0 307.5 -95.5t108.5 -266.5v-740h-180v157h-17q-51 -85 -136.5 -130.5t-193.5 -45.5zM693 1266h-204l-280 340h233z" glyph-name="agrave"/>
<glyph unicode="á" horiz-adv-x="1130" d="M491 144q128 0 213 74t85 184v96l-281 -19q-118 -7 -173.5 -48.5t-55.5 -119.5t59 -122.5t153 -44.5zM450 -19q-159 0 -261.5 88.5t-102.5 234.5q0 145 103 227.5t295 93.5l305 19v96q0 96 -60 146t-176 50q-94 0 -156.5 -33.5t-80.5 -95.5h-187q17 134 135.5 214.5 t296.5 80.5q199 0 307.5 -95.5t108.5 -266.5v-740h-180v157h-17q-51 -85 -136.5 -130.5t-193.5 -45.5zM446 1266l252 340h232l-279 -340h-205z" glyph-name="aacute"/>
<glyph unicode="â" horiz-adv-x="1130" d="M491 144q128 0 213 74t85 184v96l-281 -19q-118 -7 -173.5 -48.5t-55.5 -119.5t59 -122.5t153 -44.5zM450 -19q-159 0 -261.5 88.5t-102.5 234.5q0 145 103 227.5t295 93.5l305 19v96q0 96 -60 146t-176 50q-94 0 -156.5 -33.5t-80.5 -95.5h-187q17 134 135.5 214.5 t296.5 80.5q199 0 307.5 -95.5t108.5 -266.5v-740h-180v157h-17q-51 -85 -136.5 -130.5t-193.5 -45.5zM674 1574l281 -342h-207l-174 224h-16l-173 -224h-207l281 342h215z" glyph-name="acircumflex"/>
<glyph unicode="ã" horiz-adv-x="1130" d="M491 144q128 0 213 74t85 184v96l-281 -19q-118 -7 -173.5 -48.5t-55.5 -119.5t59 -122.5t153 -44.5zM450 -19q-159 0 -261.5 88.5t-102.5 234.5q0 145 103 227.5t295 93.5l305 19v96q0 96 -60 146t-176 50q-94 0 -156.5 -33.5t-80.5 -95.5h-187q17 134 135.5 214.5 t296.5 80.5q199 0 307.5 -95.5t108.5 -266.5v-740h-180v157h-17q-51 -85 -136.5 -130.5t-193.5 -45.5zM429 1390q-51 0 -73.5 -36.5t-22.5 -118.5h-149q0 138 63 217t173 79q44 0 82 -16t64 -38.5t48.5 -45.5t45 -39t44.5 -16q51 0 73.5 36t22.5 118h148q0 -138 -63 -216.5 t-173 -78.5q-44 0 -82 16t-63.5 38.5t-48 45.5t-45 39t-44.5 16z" glyph-name="atilde"/>
<glyph unicode="ä" horiz-adv-x="1130" d="M491 144q128 0 213 74t85 184v96l-281 -19q-118 -7 -173.5 -48.5t-55.5 -119.5t59 -122.5t153 -44.5zM450 -19q-159 0 -261.5 88.5t-102.5 234.5q0 145 103 227.5t295 93.5l305 19v96q0 96 -60 146t-176 50q-94 0 -156.5 -33.5t-80.5 -95.5h-187q17 134 135.5 214.5 t296.5 80.5q199 0 307.5 -95.5t108.5 -266.5v-740h-180v157h-17q-51 -85 -136.5 -130.5t-193.5 -45.5zM353 1232q-53 0 -89 36.5t-36 89.5t36.5 89.5t88.5 36.5q53 0 89.5 -36.5t36.5 -89.5t-36.5 -89.5t-89.5 -36.5zM766 1232q-53 0 -89 36.5t-36 89.5t36.5 89.5t88.5 36.5 q53 0 89.5 -36.5t36.5 -89.5t-36.5 -89.5t-89.5 -36.5z" glyph-name="adieresis"/>
<glyph unicode="å" horiz-adv-x="1130" d="M491 144q128 0 213 74t85 184v96l-281 -19q-118 -7 -173.5 -48.5t-55.5 -119.5t59 -122.5t153 -44.5zM450 -19q-159 0 -261.5 88.5t-102.5 234.5q0 145 103 227.5t295 93.5l305 19v96q0 96 -60 146t-176 50q-94 0 -156.5 -33.5t-80.5 -95.5h-187q17 134 135.5 214.5 t296.5 80.5q199 0 307.5 -95.5t108.5 -266.5v-740h-180v157h-17q-51 -85 -136.5 -130.5t-193.5 -45.5zM566 1232q-97 0 -165.5 66.5t-68.5 164.5q0 97 68.5 163.5t165.5 66.5q98 0 166 -66.5t68 -163.5q0 -98 -68 -164.5t-166 -66.5zM566 1343q52 0 86 34t34 85q0 52 -34 86 t-86 34q-51 0 -85 -34t-34 -86q0 -51 34 -85t85 -34z" glyph-name="aring"/>
<glyph unicode="æ" horiz-adv-x="1849" d="M1288 -20q-129 0 -235.5 63t-151.5 163h-16q-55 -107 -160 -166.5t-246 -59.5q-173 0 -279.5 88.5t-106.5 235.5q0 145 103 227.5t295 93.5l305 19v96q0 96 -60 146t-176 50q-94 0 -156.5 -33.5t-80.5 -95.5h-187q16 133 134 214t293 81q124 0 214.5 -49.5t135.5 -131.5 h16q49 80 146 130.5t211 50.5q215 0 338 -141.5t123 -390.5v-73h-765v-19q6 -152 90 -242.5t219 -90.5q190 0 257 140h185q-39 -145 -156 -225t-289 -80zM1275 939q-126 0 -205 -79.5t-88 -215.5h569q-3 130 -80.5 212.5t-195.5 82.5zM507 143q124 0 206.5 77.5t82.5 188.5 v89l-281 -19q-118 -7 -173.5 -49t-55.5 -120t60.5 -122.5t160.5 -44.5z" glyph-name="ae"/>
<glyph unicode="ç" horiz-adv-x="1146" d="M1056 742h-188q-21 85 -91 138t-179 53q-142 0 -224 -104.5t-82 -283.5q0 -183 82.5 -289.5t223.5 -106.5q106 0 176.5 47.5t93.5 137.5h188q-21 -140 -118.5 -234t-254.5 -115l-48 -122q100 -1 156 -44.5t56 -120.5q0 -87 -66 -139.5t-181 -52.5q-86 0 -146 18v112 q46 -14 121 -14q118 0 118 71q0 34 -34 48.5t-112 14.5h-60v90l55 137q-207 19 -325.5 168.5t-118.5 393.5q0 256 134.5 406.5t365.5 150.5q193 0 314 -101t144 -259z" glyph-name="ccedilla"/>
<glyph unicode="è" horiz-adv-x="1170" d="M721 1266h-204l-280 340h233zM588 938q-125 0 -205.5 -83t-90.5 -221h577q-3 138 -79.5 221t-201.5 83zM866 285h185q-38 -143 -159.5 -224t-301.5 -81q-228 0 -360 150.5t-132 408.5t133 410.5t359 152.5q222 0 348.5 -145.5t126.5 -399.5v-69h-773v-10q7 -154 88 -244 t215 -90q205 0 271 141z" glyph-name="egrave"/>
<glyph unicode="é" horiz-adv-x="1170" d="M474 1266l252 340h232l-279 -340h-205zM588 938q-125 0 -205.5 -83t-90.5 -221h577q-3 138 -79.5 221t-201.5 83zM866 285h185q-38 -143 -159.5 -224t-301.5 -81q-228 0 -360 150.5t-132 408.5t133 410.5t359 152.5q222 0 348.5 -145.5t126.5 -399.5v-69h-773v-10 q7 -154 88 -244t215 -90q205 0 271 141z" glyph-name="eacute"/>
<glyph unicode="ê" horiz-adv-x="1170" d="M702 1574l281 -342h-207l-174 224h-16l-173 -224h-207l281 342h215zM588 938q-125 0 -205.5 -83t-90.5 -221h577q-3 138 -79.5 221t-201.5 83zM866 285h185q-38 -143 -159.5 -224t-301.5 -81q-228 0 -360 150.5t-132 408.5t133 410.5t359 152.5q222 0 348.5 -145.5 t126.5 -399.5v-69h-773v-10q7 -154 88 -244t215 -90q205 0 271 141z" glyph-name="ecircumflex"/>
<glyph unicode="ë" horiz-adv-x="1170" d="M588 938q-125 0 -205.5 -83t-90.5 -221h577q-3 138 -79.5 221t-201.5 83zM866 285h185q-38 -143 -159.5 -224t-301.5 -81q-228 0 -360 150.5t-132 408.5t133 410.5t359 152.5q222 0 348.5 -145.5t126.5 -399.5v-69h-773v-10q7 -154 88 -244t215 -90q205 0 271 141z M381 1232q-53 0 -89 36.5t-36 89.5t36.5 89.5t88.5 36.5q53 0 89.5 -36.5t36.5 -89.5t-36.5 -89.5t-89.5 -36.5zM794 1232q-53 0 -89 36.5t-36 89.5t36.5 89.5t88.5 36.5q53 0 89.5 -36.5t36.5 -89.5t-36.5 -89.5t-89.5 -36.5z" glyph-name="edieresis"/>
<glyph unicode="ì" horiz-adv-x="516" d="M385 1266h-204l-280 340h233zM159 0v1082h189v-1082h-189z" glyph-name="igrave"/>
<glyph unicode="í" horiz-adv-x="516" d="M138 1266l252 340h232l-279 -340h-205zM159 0v1082h189v-1082h-189z" glyph-name="iacute"/>
<glyph unicode="î" horiz-adv-x="516" d="M366 1574l281 -342h-207l-174 224h-16l-173 -224h-207l281 342h215zM159 0v1082h189v-1082h-189z" glyph-name="icircumflex"/>
<glyph unicode="ï" horiz-adv-x="516" d="M159 0v1082h189v-1082h-189zM45 1232q-53 0 -89 36.5t-36 89.5t36.5 89.5t88.5 36.5q53 0 89.5 -36.5t36.5 -89.5t-36.5 -89.5t-89.5 -36.5zM458 1232q-53 0 -89 36.5t-36 89.5t36.5 89.5t88.5 36.5q53 0 89.5 -36.5t36.5 -89.5t-36.5 -89.5t-89.5 -36.5z" glyph-name="idieresis"/>
<glyph unicode="ð" horiz-adv-x="1188" d="M600 -19q-231 0 -365.5 145.5t-134.5 395.5q0 239 125.5 386.5t328.5 147.5q100 0 188.5 -46t124.5 -116h16q-45 178 -181 340l-279 -91l-38 117l231 75q-65 73 -206 189h228q81 -67 141 -134l252 82l39 -117l-209 -68q112 -148 171.5 -331t59.5 -380q0 -275 -132.5 -435 t-359.5 -160zM601 892q-140 0 -223 -100.5t-83 -269.5t83 -270t223 -101q141 0 224.5 100.5t83.5 269.5q0 168 -84.5 269.5t-223.5 101.5z" glyph-name="eth"/>
<glyph unicode="ñ" horiz-adv-x="1215" d="M489 1390q-51 0 -73.5 -36.5t-22.5 -118.5h-149q0 138 63 217t173 79q44 0 82 -16t64 -38.5t48.5 -45.5t45 -39t44.5 -16q51 0 73.5 36t22.5 118h148q0 -138 -63 -216.5t-173 -78.5q-44 0 -82 16t-63.5 38.5t-48 45.5t-45 39t-44.5 16zM146 0v1082h180v-171h17 q40 90 130 140.5t213 50.5q182 0 280 -104t98 -297v-701h-188v654q0 140 -61.5 208.5t-186.5 68.5q-137 0 -215.5 -78t-78.5 -215v-638h-188z" glyph-name="ntilde"/>
<glyph unicode="ò" horiz-adv-x="1210" d="M732 1266h-204l-280 340h233zM601 149q147 0 228 103t81 289q0 187 -80.5 289.5t-228.5 102.5t-228 -102.5t-80 -289.5t80.5 -289.5t227.5 -102.5zM601 -20q-233 0 -368 150t-135 411t134.5 411t368.5 150t369 -150t135 -411t-135 -411t-369 -150z" glyph-name="ograve"/>
<glyph unicode="ó" horiz-adv-x="1210" d="M485 1266l252 340h232l-279 -340h-205zM601 149q147 0 228 103t81 289q0 187 -80.5 289.5t-228.5 102.5t-228 -102.5t-80 -289.5t80.5 -289.5t227.5 -102.5zM601 -20q-233 0 -368 150t-135 411t134.5 411t368.5 150t369 -150t135 -411t-135 -411t-369 -150z" glyph-name="oacute"/>
<glyph unicode="ô" horiz-adv-x="1210" d="M713 1574l281 -342h-207l-174 224h-16l-173 -224h-207l281 342h215zM601 149q147 0 228 103t81 289q0 187 -80.5 289.5t-228.5 102.5t-228 -102.5t-80 -289.5t80.5 -289.5t227.5 -102.5zM601 -20q-233 0 -368 150t-135 411t134.5 411t368.5 150t369 -150t135 -411 t-135 -411t-369 -150z" glyph-name="ocircumflex"/>
<glyph unicode="õ" horiz-adv-x="1210" d="M468 1390q-51 0 -73.5 -36.5t-22.5 -118.5h-149q0 138 63 217t173 79q44 0 82 -16t64 -38.5t48.5 -45.5t45 -39t44.5 -16q51 0 73.5 36t22.5 118h148q0 -138 -63 -216.5t-173 -78.5q-44 0 -82 16t-63.5 38.5t-48 45.5t-45 39t-44.5 16zM601 149q147 0 228 103t81 289 q0 187 -80.5 289.5t-228.5 102.5t-228 -102.5t-80 -289.5t80.5 -289.5t227.5 -102.5zM601 -20q-233 0 -368 150t-135 411t134.5 411t368.5 150t369 -150t135 -411t-135 -411t-369 -150z" glyph-name="otilde"/>
<glyph unicode="ö" horiz-adv-x="1210" d="M392 1232q-53 0 -89 36.5t-36 89.5t36.5 89.5t88.5 36.5q53 0 89.5 -36.5t36.5 -89.5t-36.5 -89.5t-89.5 -36.5zM805 1232q-53 0 -89 36.5t-36 89.5t36.5 89.5t88.5 36.5q53 0 89.5 -36.5t36.5 -89.5t-36.5 -89.5t-89.5 -36.5zM601 149q147 0 228 103t81 289 q0 187 -80.5 289.5t-228.5 102.5t-228 -102.5t-80 -289.5t80.5 -289.5t227.5 -102.5zM601 -20q-233 0 -368 150t-135 411t134.5 411t368.5 150t369 -150t135 -411t-135 -411t-369 -150z" glyph-name="odieresis"/>
<glyph unicode="÷" d="M1177 500h-1026v161h1026v-161zM665 812q-57 0 -94.5 37t-37.5 94t37.5 94.5t94.5 37.5q56 0 93 -37.5t37 -94.5t-37 -94t-93 -37zM665 87q-57 0 -94.5 37t-37.5 94t37.5 94t94.5 37q56 0 93 -37t37 -94q0 -58 -36.5 -94.5t-93.5 -36.5z" glyph-name="divide"/>
<glyph unicode="ø" horiz-adv-x="1210" d="M848 805l-410 -613q69 -43 163 -43q147 0 228 103t81 289q0 162 -62 264zM351 284l410 607q-66 42 -160 42q-148 0 -228 -102.5t-80 -289.5q0 -158 58 -257zM1021 1064l-65 -97q149 -151 149 -426q0 -261 -135 -411t-369 -150q-151 0 -262 64l-58 -87l-104 68l65 96 q-144 150 -144 420q0 261 134.5 411t368.5 150q148 0 260 -63l59 88z" glyph-name="oslash"/>
<glyph unicode="ù" horiz-adv-x="1222" d="M736 1266h-204l-280 340h233zM1056 1082v-1082h-180v170h-17q-40 -91 -129.5 -140.5t-213.5 -49.5q-181 0 -280.5 105t-99.5 297v700h188v-654q0 -140 61.5 -207.5t187.5 -67.5q137 0 215.5 77.5t78.5 213.5v638h189z" glyph-name="ugrave"/>
<glyph unicode="ú" horiz-adv-x="1222" d="M489 1266l252 340h232l-279 -340h-205zM1056 1082v-1082h-180v170h-17q-40 -91 -129.5 -140.5t-213.5 -49.5q-181 0 -280.5 105t-99.5 297v700h188v-654q0 -140 61.5 -207.5t187.5 -67.5q137 0 215.5 77.5t78.5 213.5v638h189z" glyph-name="uacute"/>
<glyph unicode="û" horiz-adv-x="1222" d="M717 1574l281 -342h-207l-174 224h-16l-173 -224h-207l281 342h215zM1056 1082v-1082h-180v170h-17q-40 -91 -129.5 -140.5t-213.5 -49.5q-181 0 -280.5 105t-99.5 297v700h188v-654q0 -140 61.5 -207.5t187.5 -67.5q137 0 215.5 77.5t78.5 213.5v638h189z" glyph-name="ucircumflex"/>
<glyph unicode="ü" horiz-adv-x="1222" d="M1056 1082v-1082h-180v170h-17q-40 -91 -129.5 -140.5t-213.5 -49.5q-181 0 -280.5 105t-99.5 297v700h188v-654q0 -140 61.5 -207.5t187.5 -67.5q137 0 215.5 77.5t78.5 213.5v638h189zM396 1232q-53 0 -89 36.5t-36 89.5t36.5 89.5t88.5 36.5q53 0 89.5 -36.5 t36.5 -89.5t-36.5 -89.5t-89.5 -36.5zM809 1232q-53 0 -89 36.5t-36 89.5t36.5 89.5t88.5 36.5q53 0 89.5 -36.5t36.5 -89.5t-36.5 -89.5t-89.5 -36.5z" glyph-name="udieresis"/>
<glyph unicode="ý" horiz-adv-x="1112" d="M242 -393q-48 0 -82 6v161q25 -5 71 -5q76 0 121.5 38.5t76.5 130.5l19 60l-398 1084h205l287 -878h17l286 878h200l-415 -1140q-69 -192 -152 -263.5t-236 -71.5zM432 1266l252 340h232l-279 -340h-205z" glyph-name="yacute"/>
<glyph unicode="þ" horiz-adv-x="1258" d="M704 1101q207 0 329.5 -152t122.5 -408q0 -255 -123 -407.5t-329 -152.5q-115 0 -203.5 48t-132.5 134h-16v-520h-189v1863h181v-604h17q50 93 141 146t202 53zM655 151q144 0 225 103.5t81 286.5t-81 286.5t-224 103.5t-226 -105t-83 -285t83 -285t225 -105z" glyph-name="thorn"/>
<glyph unicode="Ё" horiz-adv-x="1240" d="M423 1576q-53 0 -89 36.5t-36 89.5t36.5 89.5t88.5 36.5q53 0 89.5 -36.5t36.5 -89.5t-36.5 -89.5t-89.5 -36.5zM836 1576q-53 0 -89 36.5t-36 89.5t36.5 89.5t88.5 36.5q53 0 89.5 -36.5t36.5 -89.5t-36.5 -89.5t-89.5 -36.5zM1083 178v-178h-902v1443h902v-178h-705 v-442h668v-173h-668v-472h705z" glyph-name="Iocyrillic"/>
<glyph unicode="Ђ" horiz-adv-x="1719" d="M1156 -25q-40 0 -73 4.5t-46 8.5l-13 5v174q42 -15 127 -15q117 0 188.5 73t71.5 210q0 123 -77 208t-225 85q-67 0 -125.5 -17t-95.5 -40t-67 -54t-43.5 -51t-22.5 -40v-526h-197v1265h-460v178h1118v-178h-461v-500h16q135 142 356 142q117 0 210 -37.5t151.5 -102.5 t89 -148.5t30.5 -178.5q0 -209 -121.5 -337t-330.5 -128z" glyph-name="Djecyrillic"/>
<glyph unicode="Ѓ" horiz-adv-x="1160" d="M472 1575l305 301h239l-330 -301h-214zM381 0h-198v1443h866v-179h-668v-1264z" glyph-name="Gjecyrillic"/>
<glyph unicode="Є" horiz-adv-x="1506" d="M1383 415q-34 -204 -197.5 -327t-401.5 -123q-301 0 -476.5 203.5t-175.5 552.5t175.5 553t475.5 204q236 0 403 -133.5t197 -345.5h-199q-34 136 -142 216t-259 80q-186 0 -304 -126t-139 -345h629v-175h-632q14 -231 134 -366t313 -135q152 0 260 72t141 195h198z" glyph-name="Ecyrillic"/>
<glyph unicode="Ѕ" horiz-adv-x="1325" d="M114 381h198q16 -109 113.5 -173.5t247.5 -64.5q142 0 234.5 67.5t92.5 170.5q0 88 -68 145.5t-215 93.5l-186 47q-196 48 -286 142.5t-90 250.5q0 187 142.5 302.5t373.5 115.5q213 0 355.5 -113.5t153.5 -291.5h-196q-17 106 -102 167t-216 61q-140 0 -224.5 -63.5 t-84.5 -168.5q0 -82 63 -133t209 -87l154 -40q223 -54 321 -148.5t98 -255.5q0 -202 -147.5 -321t-398.5 -119q-233 0 -380.5 113.5t-161.5 302.5z" glyph-name="Dzecyrillic"/>
<glyph unicode="І" horiz-adv-x="568" d="M376 0h-197v1443h197v-1443z" glyph-name="Icyrillic"/>
<glyph unicode="Ї" horiz-adv-x="568" d="M369 0h-197v1443h197v-1443zM64 1576q-53 0 -89 36.5t-36 89.5t36.5 89.5t88.5 36.5q53 0 89.5 -36.5t36.5 -89.5t-36.5 -89.5t-89.5 -36.5zM477 1576q-53 0 -89 36.5t-36 89.5t36.5 89.5t88.5 36.5q53 0 89.5 -36.5t36.5 -89.5t-36.5 -89.5t-89.5 -36.5z" glyph-name="Yicyrillic"/>
<glyph unicode="Ј" horiz-adv-x="1122" d="M77 351h194q3 -90 65.5 -146.5t161.5 -56.5q113 0 173.5 67.5t60.5 195.5v1032h197v-1034q0 -209 -114 -326.5t-315 -117.5q-188 0 -305.5 106.5t-117.5 279.5z" glyph-name="Jecyrillic"/>
<glyph unicode="Љ" horiz-adv-x="2168" d="M497 545q-9 -136 -32 -234.5t-66 -172.5t-112.5 -111t-165.5 -37q-43 0 -76 11v179q24 -6 56 -6q47 0 82.5 19t57.5 51t37 82.5t22.5 103.5t11.5 125l51 888h888v-526h342q207 0 339.5 -128t132.5 -331t-130.5 -330.5t-337.5 -127.5h-543v1265h-512zM1251 176h295 q152 0 234 73t82 209t-82.5 209.5t-233.5 73.5h-295v-565z" glyph-name="Ljecyrillic"/>
<glyph unicode="Њ" horiz-adv-x="2243" d="M1315 176h298q150 0 232 64t82 182q0 110 -82.5 170t-232.5 60h-297v-476zM385 651v-651h-197v1443h197v-615h733v615h197v-615h343q207 0 339 -113t132 -293q0 -187 -130.5 -304.5t-336.5 -117.5h-544v651h-733z" glyph-name="Njecyrillic"/>
<glyph unicode="Ћ" horiz-adv-x="1769" d="M1101 728q-66 0 -122.5 -17t-92 -39.5t-65 -54t-42 -51.5t-22.5 -40v-526h-197v1265h-460v178h1118v-178h-461v-498h16q133 140 352 140q118 0 211 -39t152 -108t89.5 -159.5t30.5 -197.5v-403h-197v390q0 154 -77.5 246t-232.5 92z" glyph-name="Tshecyrillic"/>
<glyph unicode="Ќ" horiz-adv-x="1369" d="M527 1575l305 301h239l-330 -301h-214zM386 813h42l592 630h242l-665 -697l720 -746h-256l-632 653h-43v-653h-197v1443h197v-630z" glyph-name="Kjecyrillic"/>
<glyph unicode="Ў" horiz-adv-x="1318" d="M313 1881h165q0 -79 51.5 -127.5t130.5 -48.5q81 0 132.5 48.5t51.5 127.5h165q0 -140 -95.5 -221t-253.5 -81t-252.5 81t-94.5 221zM329 -11q-60 0 -86 14v177q29 -8 81 -8q80 0 135 33.5t97 108.5l-491 1129h210l376 -911h16l367 911h205l-442 -1030 q-48 -111 -88.5 -182.5t-95 -130t-124 -85t-160.5 -26.5z" glyph-name="Ushortcyrillic"/>
<glyph unicode="Џ" horiz-adv-x="1519" d="M668 0h-481v1443h197v-1265h752v1265h197v-1443h-482v-285h-183v285z" glyph-name="Dzhecyrillic"/>
<glyph unicode="А" horiz-adv-x="1400" d="M1113 0l-140 402h-564l-141 -402h-205l528 1443h203l527 -1443h-208zM683 1199l-220 -631h456l-220 631h-16z" glyph-name="Acyrillic"/>
<glyph unicode="Б" horiz-adv-x="1301" d="M1188 437q0 -193 -130.5 -315t-336.5 -122h-534v1443h859v-178h-662v-391h334q207 0 338.5 -122t131.5 -315zM384 176h286q152 0 234 67.5t82 193.5t-82.5 194.5t-233.5 68.5h-286v-524z" glyph-name="Becyrillic"/>
<glyph unicode="В" horiz-adv-x="1366" d="M758 0h-575v1443h563q200 0 315 -97t115 -263q0 -113 -73 -202.5t-178 -108.5v-16q147 -17 235 -112.5t88 -237.5q0 -191 -130 -298.5t-360 -107.5zM380 1272v-447h279q319 0 319 223q0 106 -72.5 165t-203.5 59h-322zM380 171h344q158 0 240 63t82 184q0 244 -338 244 h-328v-491z" glyph-name="Vecyrillic"/>
<glyph unicode="Г" horiz-adv-x="1160" d="M386 0h-198v1443h866v-179h-668v-1264z" glyph-name="Gecyrillic"/>
<glyph unicode="Д" horiz-adv-x="1500" d="M477 544q-8 -131 -29.5 -213t-70.5 -140v-13h684v1087h-539zM215 0v-285h-182v463h106q75 42 109.5 132.5t43.5 241.5l55 891h911v-1265h180v-463h-182v285h-1041z" glyph-name="Decyrillic"/>
<glyph unicode="Е" horiz-adv-x="1240" d="M1087 178v-178h-902v1443h902v-178h-705v-442h668v-173h-668v-472h705z" glyph-name="Iecyrillic"/>
<glyph unicode="Ж" horiz-adv-x="2089" d="M945 810v633h196v-633h43l550 633h236l-623 -697l680 -746h-252l-591 655h-43v-655h-196v655h-43l-592 -655h-248l677 741l-626 702h238l551 -633h43z" glyph-name="Zhecyrillic"/>
<glyph unicode="З" horiz-adv-x="1256" d="M418 649v174h194q125 0 204 69.5t79 178.5q0 106 -74.5 169.5t-205.5 63.5t-212 -63t-91 -174h-189q13 190 146.5 300.5t352.5 110.5q207 0 339 -109t132 -279q0 -118 -72 -210t-188 -120v-16q143 -15 232 -109t89 -244q0 -119 -69.5 -216.5t-190 -153.5t-266.5 -56 q-231 0 -377.5 114.5t-156.5 302.5h190q11 -110 103.5 -175.5t238.5 -65.5q147 0 236 72t89 186q0 116 -87 183t-244 67h-202z" glyph-name="Zecyrillic"/>
<glyph unicode="И" horiz-adv-x="1540" d="M1159 0v1117h-17l-761 -1117h-194v1443h195v-1120h16l762 1120h194v-1443h-195z" glyph-name="Iicyrillic"/>
<glyph unicode="Й" horiz-adv-x="1540" d="M417 1881h165q0 -79 51.5 -127.5t130.5 -48.5q81 0 132.5 48.5t51.5 127.5h165q0 -140 -95.5 -221t-253.5 -81t-252.5 81t-94.5 221zM1153 0v1117h-17l-761 -1117h-194v1443h195v-1120h16l762 1120h194v-1443h-195z" glyph-name="Iishortcyrillic"/>
<glyph unicode="К" horiz-adv-x="1374" d="M383 813h42l592 630h242l-665 -697l720 -746h-256l-632 653h-43v-653h-197v1443h197v-630z" glyph-name="Kacyrillic"/>
<glyph unicode="Л" horiz-adv-x="1425" d="M1240 0h-197v1265h-512l-45 -720q-9 -136 -32 -234.5t-66 -172.5t-112.5 -111t-165.5 -37q-43 0 -76 11v179q24 -6 56 -6q47 0 82.5 19t57.5 51t37 82.5t22.5 103.5t11.5 125l51 888h888v-1443z" glyph-name="Elcyrillic"/>
<glyph unicode="М" horiz-adv-x="1810" d="M364 0h-183v1443h229l481 -1157h16l481 1157h230v-1443h-184v1080h-13l-442 -1058h-159l-443 1058h-13v-1080z" glyph-name="Emcyrillic"/>
<glyph unicode="Н" horiz-adv-x="1540" d="M1347 0h-197v648h-772v-648h-197v1443h197v-617h772v617h197v-1443z" glyph-name="Encyrillic"/>
<glyph unicode="О" horiz-adv-x="1599" d="M798 1478q308 0 486.5 -203.5t178.5 -552.5q0 -348 -178 -552.5t-487 -204.5q-311 0 -489 204t-178 553t179.5 552.5t487.5 203.5zM798 1295q-214 0 -339.5 -154.5t-125.5 -418.5t124 -419t341 -155q215 0 338.5 155.5t123.5 418.5q0 264 -123.5 418.5t-338.5 154.5z" glyph-name="Ocyrillic"/>
<glyph unicode="П" horiz-adv-x="1519" d="M1333 0h-195v1264h-753v-1264h-198v1443h1146v-1443z" glyph-name="Pecyrillic"/>
<glyph unicode="Р" horiz-adv-x="1321" d="M183 1443h553q207 0 337 -131.5t130 -340.5q0 -206 -132 -336.5t-339 -130.5h-352v-504h-197v1443zM380 1269v-591h304q150 0 233.5 76.5t83.5 216.5q0 144 -82 221t-235 77h-304z" glyph-name="Ercyrillic"/>
<glyph unicode="С" horiz-adv-x="1506" d="M771 -35q-296 0 -469 203.5t-173 552.5q0 350 172.5 553.5t468.5 203.5q232 0 396 -134t194 -347h-198q-35 137 -140 217.5t-252 80.5q-202 0 -320.5 -154.5t-118.5 -419.5q0 -264 118.5 -418.5t321.5 -154.5q148 0 253 72t138 196h198q-33 -204 -194 -327.5t-395 -123.5 z" glyph-name="Escyrillic"/>
<glyph unicode="Т" horiz-adv-x="1318" d="M753 0h-197v1265h-460v178h1118v-178h-461v-1265z" glyph-name="Tecyrillic"/>
<glyph unicode="У" horiz-adv-x="1318" d="M336 -11q-60 0 -86 14v177q29 -8 81 -8q80 0 135 33.5t97 108.5l-491 1129h210l376 -911h16l367 911h205l-442 -1030q-48 -111 -88.5 -182.5t-95 -130t-124 -85t-160.5 -26.5z" glyph-name="Ucyrillic"/>
<glyph unicode="Ф" horiz-adv-x="1700" d="M753 305v842q-203 -8 -322.5 -120t-119.5 -300q0 -189 119 -301.5t323 -120.5zM1389 726q0 188 -119 301t-323 120v-842q203 8 322.5 120t119.5 301zM753 130q-292 7 -467 166.5t-175 430.5q0 270 175.5 428.5t466.5 166.5v143h195v-143q291 -7 466 -166t175 -430 t-175.5 -429.5t-465.5 -166.5v-152h-195v152z" glyph-name="Efcyrillic"/>
<glyph unicode="Х" horiz-adv-x="1410" d="M86 0l489 726l-484 717h237l368 -563h17l374 563h224l-497 -724l487 -719h-234l-369 556h-16l-375 -556h-221z" glyph-name="Xacyrillic"/>
<glyph unicode="Ц" horiz-adv-x="1576" d="M1513 -285h-182v285h-1145v1443h197v-1265h753v1265h197v-1265h180v-463z" glyph-name="Tsecyrillic"/>
<glyph unicode="Ч" horiz-adv-x="1420" d="M1235 0h-197v669h-17q-137 -140 -365 -140q-124 0 -225 41t-166.5 113t-101 168.5t-35.5 208.5v383h197v-368q0 -162 88 -262.5t251 -100.5q135 0 234 59t140 148v524h197v-1443z" glyph-name="Checyrillic"/>
<glyph unicode="Ш" horiz-adv-x="1972" d="M184 0v1443h197v-1265h506v1265h197v-1265h507v1265h197v-1443h-1604z" glyph-name="Shacyrillic"/>
<glyph unicode="Щ" horiz-adv-x="2028" d="M1968 -285h-182v285h-1602v1443h197v-1265h506v1265h197v-1265h507v1265h197v-1265h180v-463z" glyph-name="Shchacyrillic"/>
<glyph unicode="Ъ" horiz-adv-x="1531" d="M962 0h-544v1265h-331v178h528v-526h343q207 0 339 -128t132 -331t-130.5 -330.5t-336.5 -127.5zM615 176h295q152 0 234.5 73t82.5 209q0 135 -83 209t-234 74h-295v-565z" glyph-name="Hardsigncyrillic"/>
<glyph unicode="Ы" horiz-adv-x="1768" d="M1580 0h-197v1443h197v-1443zM185 0v1443h197v-526h343q207 0 339 -128t132 -331t-130.5 -330.5t-337.5 -127.5h-543zM382 176h295q152 0 234 73t82 209t-82.5 209.5t-233.5 73.5h-295v-565z" glyph-name="Yericyrillic"/>
<glyph unicode="Ь" horiz-adv-x="1311" d="M187 0v1443h197v-526h343q207 0 339 -128t132 -331t-130.5 -330.5t-337.5 -127.5h-543zM384 176h295q152 0 234 73t82 209t-82.5 209.5t-233.5 73.5h-295v-565z" glyph-name="Softsigncyrillic"/>
<glyph unicode="Э" horiz-adv-x="1506" d="M728 -35q-241 0 -406.5 123t-199.5 327h199q32 -123 142 -195t265 -72q190 0 308 133.5t133 367.5h-633v175h631q-21 220 -137.5 345.5t-300.5 125.5q-153 0 -263.5 -80t-144.5 -216h-199q30 212 199 345.5t408 133.5q297 0 470.5 -203t173.5 -551q0 -350 -173.5 -554.5 t-471.5 -204.5z" glyph-name="Ereversedcyrillic"/>
<glyph unicode="Ю" horiz-adv-x="2079" d="M1295 -35q-290 0 -463 183t-192 500h-258v-648h-197v1443h197v-617h260q26 303 199.5 477.5t453.5 174.5q304 0 479.5 -203.5t175.5 -552.5q0 -348 -175 -552.5t-480 -204.5zM1295 1295q-210 0 -333 -155t-123 -418q0 -264 122 -419t334 -155q210 0 331 155.5t121 418.5 q0 264 -121.5 418.5t-330.5 154.5z" glyph-name="IUcyrillic"/>
<glyph unicode="Я" horiz-adv-x="1376" d="M992 722v545h-299q-151 0 -233 -70.5t-82 -200.5q0 -131 82.5 -202.5t232.5 -71.5h299zM723 549l-390 -549h-231l409 574q-152 37 -243.5 150.5t-91.5 271.5q0 198 131 322.5t340 124.5h542v-1443h-197v549h-269z" glyph-name="IAcyrillic"/>
<glyph unicode="а" horiz-adv-x="1164" d="M501 144q128 0 213 74t85 184v96l-281 -19q-118 -7 -173.5 -48.5t-55.5 -119.5t59 -122.5t153 -44.5zM460 -19q-159 0 -261.5 88.5t-102.5 234.5q0 145 103 227.5t295 93.5l305 19v96q0 96 -60 146t-176 50q-94 0 -156.5 -33.5t-80.5 -95.5h-187q17 134 135.5 214.5 t296.5 80.5q199 0 307.5 -95.5t108.5 -266.5v-740h-180v157h-17q-51 -85 -136.5 -130.5t-193.5 -45.5z" glyph-name="acyrillic"/>
<glyph unicode="б" horiz-adv-x="1240" d="M620 149q150 0 231.5 99.5t81.5 280.5q0 173 -81.5 268t-231.5 95t-232 -95t-82 -268q0 -181 82 -280.5t232 -99.5zM269 856h17q52 93 143.5 147t221.5 54q216 0 346.5 -141t130.5 -385q0 -256 -136 -403.5t-371 -147.5q-247 0 -378.5 163t-131.5 489q0 158 16.5 279.5 t55 223t101.5 168.5t157.5 106t220.5 44l113 5q76 4 146.5 18t102 25t33.5 13v-168q-3 -2 -8.5 -5.5t-27.5 -13t-50 -17.5t-78 -15t-109 -10l-113 -5q-84 -4 -148 -24.5t-107 -54t-73 -87t-47 -114.5t-27 -144z" glyph-name="becyrillic"/>
<glyph unicode="в" horiz-adv-x="1128" d="M607 930h-258v-296h231q199 0 199 150q0 68 -43 107t-129 39zM595 485h-246v-333h277q97 0 148 42.5t51 122.5q0 168 -230 168zM161 0v1082h475q155 0 242 -74.5t87 -201.5q0 -82 -51 -147.5t-128 -80.5v-17q103 -13 165 -82t62 -167q0 -143 -99.5 -227.5t-274.5 -84.5 h-478z" glyph-name="vecyrillic"/>
<glyph unicode="г" horiz-adv-x="951" d="M865 924h-512v-924h-189v1082h701v-158z" glyph-name="gecyrillic"/>
<glyph unicode="д" horiz-adv-x="1256" d="M850 158v766h-399l-33 -442q-15 -210 -87 -308v-16h519zM203 -285h-177v443h90q109 70 127 331l41 593h754v-924h171v-443h-176v285h-830v-285z" glyph-name="decyrillic"/>
<glyph unicode="е" horiz-adv-x="1190" d="M598 938q-125 0 -205.5 -83t-90.5 -221h577q-3 138 -79.5 221t-201.5 83zM876 285h185q-38 -143 -159.5 -224t-301.5 -81q-228 0 -360 150.5t-132 408.5t133 410.5t359 152.5q222 0 348.5 -145.5t126.5 -399.5v-69h-773v-10q7 -154 88 -244t215 -90q205 0 271 141z" glyph-name="iecyrillic"/>
<glyph unicode="ж" horiz-adv-x="1639" d="M55 0l466 573l-449 509h225l375 -451h54v451h184v-451h54l375 451h222l-446 -505l469 -577h-235l-384 489h-55v-489h-184v489h-55l-384 -489h-232z" glyph-name="zhecyrillic"/>
<glyph unicode="з" horiz-adv-x="1069" d="M534 -19q-180 0 -299 82t-134 225h192q16 -70 79 -108.5t162 -38.5q113 0 176 47t63 126q0 87 -59 129t-180 42h-162v152h161q199 0 199 154q0 68 -50 109.5t-149 41.5q-95 0 -156.5 -38t-71.5 -102h-185q17 138 127.5 219t284.5 81q184 0 285 -80t101 -215 q0 -82 -48 -144.5t-125 -80.5v-17q105 -24 160 -87.5t55 -157.5q0 -152 -116.5 -245.5t-309.5 -93.5z" glyph-name="zecyrillic"/>
<glyph unicode="и" horiz-adv-x="1249" d="M350 0h-188v1082h188v-783h17l532 783h188v-1082h-188v785h-16z" glyph-name="iicyrillic"/>
<glyph unicode="й" horiz-adv-x="1249" d="M258 1566h165q0 -85 50 -145.5t132 -60.5q84 0 134 60t51 146h165q0 -144 -97 -238t-253 -94q-155 0 -251 94t-96 238zM344 0h-188v1082h188v-783h17l532 783h188v-1082h-188v785h-16z" glyph-name="iishortcyrillic"/>
<glyph unicode="к" horiz-adv-x="1113" d="M349 635h47l414 447h226l-484 -507l504 -575h-241l-418 486h-48v-486h-189v1082h189v-447z" glyph-name="kacyrillic"/>
<glyph unicode="л" horiz-adv-x="1184" d="M436 482q-7 -95 -20 -167.5t-37.5 -135.5t-60 -103t-88 -63t-120.5 -23q-38 0 -67 12v174q24 -8 55 -8q76 0 113 81.5t47 239.5l41 593h722v-1082h-188v924h-365z" glyph-name="elcyrillic"/>
<glyph unicode="м" horiz-adv-x="1541" d="M347 0h-187v1082h233l372 -815h17l373 815h225v-1082h-187v761h-19l-332 -726h-144l-332 726h-19v-761z" glyph-name="emcyrillic"/>
<glyph unicode="н" horiz-adv-x="1234" d="M161 0v1082h189v-442h533v442h189v-1082h-189v482h-533v-482h-189z" glyph-name="encyrillic"/>
<glyph unicode="о" horiz-adv-x="1230" d="M611 149q147 0 228 103t81 289q0 187 -80.5 289.5t-228.5 102.5t-228 -102.5t-80 -289.5t80.5 -289.5t227.5 -102.5zM611 -20q-233 0 -368 150t-135 411t134.5 411t368.5 150t369 -150t135 -411t-135 -411t-369 -150z" glyph-name="ocyrillic"/>
<glyph unicode="п" horiz-adv-x="1224" d="M873 0v924h-523v-924h-189v1082h901v-1082h-189z" glyph-name="pecyrillic"/>
<glyph unicode="р" horiz-adv-x="1267" d="M699 1101q207 0 330 -152t123 -408q0 -255 -123 -407.5t-329 -152.5q-115 0 -203.5 48t-132.5 134h-17v-520h-188v1439h180v-180h17q50 93 141.5 146t201.5 53zM650 151q145 0 226 103.5t81 286.5t-81.5 286.5t-224.5 103.5q-142 0 -225 -105t-83 -285t83 -285t224 -105z " glyph-name="ercyrillic"/>
<glyph unicode="с" horiz-adv-x="1166" d="M1066 742h-188q-21 85 -91 138t-179 53q-142 0 -224 -104.5t-82 -283.5q0 -183 82.5 -289.5t223.5 -106.5q106 0 176.5 47.5t93.5 137.5h188q-24 -159 -144.5 -256.5t-312.5 -97.5q-231 0 -366 152t-135 413q0 256 134.5 406.5t365.5 150.5q193 0 314 -101t144 -259z" glyph-name="escyrillic"/>
<glyph unicode="т" horiz-adv-x="1032" d="M958 1082v-158h-348v-924h-188v924h-347v158h883z" glyph-name="tecyrillic"/>
<glyph unicode="у" horiz-adv-x="1132" d="M252 -393q-48 0 -82 6v161q25 -5 71 -5q76 0 121.5 38.5t76.5 130.5l19 60l-398 1084h205l287 -878h17l286 878h200l-415 -1140q-69 -192 -152 -263.5t-236 -71.5z" glyph-name="ucyrillic"/>
<glyph unicode="ф" horiz-adv-x="1515" d="M666 149v785q-170 -4 -270 -109t-100 -284q0 -178 100 -283t270 -109zM1219 541q0 178 -99.5 283t-269.5 110v-785q170 4 269.5 108.5t99.5 283.5zM666 -13q-255 5 -408.5 154.5t-153.5 399.5t153.5 400t408.5 155v349h184v-349q254 -5 407.5 -155t153.5 -400 t-153.5 -400t-407.5 -154v-344h-184v344z" glyph-name="efcyrillic"/>
<glyph unicode="х" horiz-adv-x="1096" d="M545 399h-16l-249 -399h-211l366 540l-369 542h223l247 -394h17l244 394h213l-364 -534l368 -548h-220z" glyph-name="hacyrillic"/>
<glyph unicode="ц" horiz-adv-x="1270" d="M1224 -285h-177v285h-886v1082h189v-924h514v924h188v-924h172v-443z" glyph-name="tsecyrillic"/>
<glyph unicode="ч" horiz-adv-x="1164" d="M1003 0h-189v483h-16q-119 -105 -284 -105q-175 0 -274.5 106t-99.5 284v314h189v-307q0 -106 55 -167t154 -61q58 0 108.5 14.5t83.5 38t52 42t32 37.5v403h189v-1082z" glyph-name="checyrillic"/>
<glyph unicode="ш" horiz-adv-x="1674" d="M158 0v1082h189v-924h395v924h189v-924h395v924h189v-1082h-1357z" glyph-name="shacyrillic"/>
<glyph unicode="щ" horiz-adv-x="1730" d="M1686 -285h-177v285h-1350v1082h189v-924h395v924h189v-924h395v924h189v-924h170v-443z" glyph-name="shchacyrillic"/>
<glyph unicode="ъ" horiz-adv-x="1237" d="M751 0h-393v924h-289v158h478v-341h204q187 0 297.5 -100.5t110.5 -270.5q0 -169 -110.5 -269.5t-297.5 -100.5zM745 583h-198v-425h198q103 0 164.5 58t61.5 155t-61.5 154.5t-164.5 57.5z" glyph-name="hardsigncyrillic"/>
<glyph unicode="ы" horiz-adv-x="1437" d="M1095 0v1082h188v-1082h-188zM541 583h-198v-425h198q103 0 164.5 58t61.5 155t-61.5 154.5t-164.5 57.5zM154 0v1082h189v-341h205q186 0 297 -100.5t111 -270.5q0 -169 -111 -269.5t-297 -100.5h-394z" glyph-name="yericyrillic"/>
<glyph unicode="ь" horiz-adv-x="1048" d="M546 583h-198v-425h198q103 0 164.5 58t61.5 155t-61.5 154.5t-164.5 57.5zM159 0v1082h189v-341h205q186 0 297 -100.5t111 -270.5q0 -169 -111 -269.5t-297 -100.5h-394z" glyph-name="softsigncyrillic"/>
<glyph unicode="э" horiz-adv-x="1182" d="M564 -19q-194 0 -315.5 97.5t-144.5 255.5h188q23 -89 94 -136.5t179 -47.5q130 0 214.5 90.5t95.5 241.5h-489v152h486q-15 137 -99 218t-208 81q-109 0 -180.5 -53t-92.5 -136h-188q24 156 146 257t315 101q230 0 367.5 -151.5t137.5 -405.5q0 -259 -138 -411.5 t-368 -152.5z" glyph-name="ereversedcyrillic"/>
<glyph unicode="ю" horiz-adv-x="1630" d="M1030 -20q-216 0 -347 133.5t-146 368.5h-191v-482h-189v1082h189v-442h195q25 217 154 339.5t335 122.5q229 0 361.5 -150t132.5 -411t-132.5 -411t-361.5 -150zM1029 149q144 0 222 102.5t78 289.5t-78 289.5t-222 102.5q-143 0 -221 -102.5t-78 -289.5q0 -186 78 -289 t221 -103z" glyph-name="iucyrillic"/>
<glyph unicode="я" horiz-adv-x="1088" d="M541 536h199v388h-199q-104 0 -165 -53.5t-61 -146.5q0 -83 62 -135.5t164 -52.5zM740 0v381h-175l-271 -381h-223l300 416q-114 32 -179 113t-65 192q0 167 111 264t298 97h392v-1082h-188z" glyph-name="iacyrillic"/>
<glyph unicode="ё" horiz-adv-x="1190" d="M594 938q-125 0 -205.5 -83t-90.5 -221h577q-3 138 -79.5 221t-201.5 83zM872 285h185q-38 -143 -159.5 -224t-301.5 -81q-228 0 -360 150.5t-132 408.5t133 410.5t359 152.5q222 0 348.5 -145.5t126.5 -399.5v-69h-773v-10q7 -154 88 -244t215 -90q205 0 271 141z M387 1232q-53 0 -89 36.5t-36 89.5t36.5 89.5t88.5 36.5q53 0 89.5 -36.5t36.5 -89.5t-36.5 -89.5t-89.5 -36.5zM800 1232q-53 0 -89 36.5t-36 89.5t36.5 89.5t88.5 36.5q53 0 89.5 -36.5t36.5 -89.5t-36.5 -89.5t-89.5 -36.5z" glyph-name="iocyrillic"/>
<glyph unicode="ђ" horiz-adv-x="1272" d="M1113 -76q0 -165 -82.5 -241.5t-256.5 -76.5h-37v160h28q88 0 123.5 36.5t35.5 123.5v728q0 277 -258 277q-139 0 -221.5 -80.5t-82.5 -213.5v-637h-189v1283h-128v128h128v152h188v-152h259v-128h-259v-373h17q40 90 131.5 140.5t215.5 50.5q184 0 286 -105t102 -296 v-776z" glyph-name="djecyrillic"/>
<glyph unicode="ѓ" horiz-adv-x="951" d="M379 1266l252 340h232l-279 -340h-205zM870 924h-512v-924h-189v1082h701v-158z" glyph-name="gjecyrillic"/>
<glyph unicode="є" horiz-adv-x="1166" d="M1070 334q-23 -158 -144 -255.5t-313 -97.5q-230 0 -366 152.5t-136 411.5q0 254 136 405.5t365 151.5q192 0 313 -101t145 -257h-188q-21 83 -91.5 136t-178.5 53q-123 0 -204.5 -79.5t-97.5 -216.5h478v-152h-481q8 -154 91.5 -244.5t213.5 -90.5q106 0 176.5 47.5 t93.5 136.5h188z" glyph-name="ecyrillic"/>
<glyph unicode="ѕ" horiz-adv-x="1092" d="M133 782q0 138 116.5 229t293.5 91q175 0 285.5 -79t127.5 -216h-183q-17 64 -77.5 101t-153.5 37q-95 0 -158 -43t-63 -111q0 -53 44 -87.5t137 -56.5l172 -41q155 -37 228.5 -107t73.5 -187q0 -146 -124.5 -239t-314.5 -93q-185 0 -302 81t-131 219h192q22 -68 85 -106 t162 -38q105 0 173 45t68 115q0 105 -167 145l-187 45q-154 37 -225.5 107.5t-71.5 188.5z" glyph-name="dzecyrillic"/>
<glyph unicode="і" horiz-adv-x="536" d="M162 0v1082h189v-1082h-189zM257 1291q-54 0 -90.5 36t-36.5 88t36.5 88t90.5 36q53 0 90 -36t37 -88t-37 -88t-90 -36z" glyph-name="icyrillic"/>
<glyph unicode="ї" horiz-adv-x="536" d="M164 0v1082h189v-1082h-189zM50 1232q-53 0 -89 36.5t-36 89.5t36.5 89.5t88.5 36.5q53 0 89.5 -36.5t36.5 -89.5t-36.5 -89.5t-89.5 -36.5zM463 1232q-53 0 -89 36.5t-36 89.5t36.5 89.5t88.5 36.5q53 0 89.5 -36.5t36.5 -89.5t-36.5 -89.5t-89.5 -36.5z" glyph-name="yicyrillic"/>
<glyph unicode="ј" horiz-adv-x="536" d="M351 1082v-1155q0 -166 -82.5 -243.5t-255.5 -77.5h-37v160h27q89 0 124 36.5t35 123.5v1156h189zM257 1291q-54 0 -90.5 36t-36.5 88t36.5 88t90.5 36q53 0 90 -36t37 -88t-37 -88t-90 -36z" glyph-name="jecyrillic"/>
<glyph unicode="љ" horiz-adv-x="1728" d="M442 482q-9 -119 -28.5 -205t-56 -153t-96.5 -100.5t-144 -33.5q-37 0 -68 12v174q27 -8 56 -8q75 0 112 81.5t48 239.5l40 593h723v-341h204q187 0 297.5 -100.5t110.5 -270.5q0 -169 -110.5 -269.5t-297.5 -100.5h-393v924h-365zM1226 583h-198v-425h198 q103 0 164.5 58t61.5 155q0 96 -62 154t-164 58z" glyph-name="ljecyrillic"/>
<glyph unicode="њ" horiz-adv-x="1748" d="M1259 505h-210v-348h210q98 0 156.5 48t58.5 126q0 79 -58.5 126.5t-156.5 47.5zM861 0v504h-514v-504h-189v1082h189v-420h514v420h188v-419h214q183 0 291 -90t108 -242t-108 -241.5t-291 -89.5h-402z" glyph-name="njecyrillic"/>
<glyph unicode="ћ" horiz-adv-x="1272" d="M355 910h17q40 90 131.5 140.5t215.5 50.5q184 0 286 -105t102 -296v-700h-189v654q0 277 -258 277q-139 0 -221.5 -80.5t-82.5 -213.5v-637h-189v1283h-128v128h128v152h188v-152h259v-128h-259v-373z" glyph-name="tshecyrillic"/>
<glyph unicode="ќ" horiz-adv-x="1113" d="M434 1266l252 340h232l-279 -340h-205zM341 635h47l414 447h226l-484 -507l504 -575h-241l-418 486h-48v-486h-189v1082h189v-447z" glyph-name="kjecyrillic"/>
<glyph unicode="ў" horiz-adv-x="1132" d="M226 1566h165q0 -85 50 -145.5t132 -60.5q84 0 134 60t51 146h165q0 -144 -97 -238t-253 -94q-155 0 -251 94t-96 238zM244 -393q-47 0 -82 6v161q25 -5 71 -5q76 0 121.5 38.5t76.5 130.5l19 60l-398 1084h205l287 -878h17l286 878h200l-415 -1140q-69 -192 -152 -263.5 t-236 -71.5z" glyph-name="ushortcyrillic"/>
<glyph unicode="џ" horiz-adv-x="1224" d="M1062 0h-362v-285h-177v285h-362v1082h189v-924h523v924h189v-1082z" glyph-name="dzhecyrillic"/>
<glyph unicode="Ґ" horiz-adv-x="1160" d="M386 1264v-1264h-198v1443h683v285h183v-464h-668z" glyph-name="Geupturncyrillic"/>
<glyph unicode="ґ" horiz-adv-x="951" d="M865 924h-512v-924h-189v1082h524v285h177v-443z" glyph-name="geupturncyrillic"/>
</font>
</defs>
</svg>
